<svg width="666" height="414" viewBox="0 0 666 414" fill="none" xmlns="http://www.w3.org/2000/svg">
<rect x="59" y="79" width="549" height="256" fill="#D5E4C1" stroke="#5AA945"/>
<rect x="0.5" y="0.5" width="665" height="413" fill="#F6F3ED" stroke="#E0DBC8"/>
<rect x="68.5" y="35.5" width="529" height="344" fill="#D5E4C1" stroke="#5AA945"/>
<path fill-rule="evenodd" clip-rule="evenodd" d="M475.142 70.7157C482.644 63.2143 492.818 59 503.426 59H513C535.091 59 553 76.9086 553 99V213C553 235.091 535.091 253 513 253H508.5C486.409 253 468.5 235.091 468.5 213V200.426C468.5 195.122 466.393 190.035 462.642 186.284L430.216 153.858C426.465 150.107 421.378 148 416.074 148H339.5C328.454 148 319.5 156.954 319.5 168V177C319.5 188.046 328.454 197 339.5 197H409C431.091 197 449 214.909 449 237V258C449 280.091 431.091 298 409 298H388.426C377.818 298 367.644 293.786 360.142 286.284L332.716 258.858C328.965 255.107 323.878 253 318.574 253H210C203.096 253 197.5 258.596 197.5 265.5C197.5 272.404 203.096 278 210 278H251C272.263 278 289.5 295.237 289.5 316.5C289.5 337.763 272.263 355 251 355H154C131.909 355 114 337.091 114 315V245.5C114 223.409 131.909 205.5 154 205.5H185C196.046 205.5 205 196.546 205 185.5V183.5C205 172.454 196.046 163.5 185 163.5H182.5C160.409 163.5 142.5 145.591 142.5 123.5V99.0747C142.5 76.954 160.435 59.0222 182.572 59.0687C239.566 59.1885 316.976 59.2952 347.986 59.1525C359.213 59.1009 370.137 63.4947 378.144 71.5018L383.284 76.6421C387.035 80.3929 392.122 82.5 397.426 82.5H455.074C460.378 82.5 465.465 80.3929 469.216 76.6421L475.142 70.7157ZM503.426 79C498.122 79 493.035 81.1071 489.284 84.8579L483.358 90.7843C475.856 98.2857 465.682 102.5 455.074 102.5H397.426C386.818 102.5 376.644 98.2857 369.142 90.7843L364.002 85.6439C359.836 81.4783 354.066 79.1248 348.078 79.1523C316.985 79.2954 239.498 79.1884 182.53 79.0687C171.471 79.0454 162.5 88 162.5 99.0747V123.5C162.5 134.546 171.454 143.5 182.5 143.5H185C207.091 143.5 225 161.409 225 183.5V185.5C225 207.591 207.091 225.5 185 225.5H154C142.954 225.5 134 234.454 134 245.5V315C134 326.046 142.954 335 154 335H251C261.217 335 269.5 326.717 269.5 316.5C269.5 306.283 261.217 298 251 298H210C192.051 298 177.5 283.449 177.5 265.5C177.5 247.551 192.051 233 210 233H318.574C329.182 233 339.356 237.214 346.858 244.716L374.284 272.142C378.035 275.893 383.122 278 388.426 278H409C420.046 278 429 269.046 429 258V237C429 225.954 420.046 217 409 217H339.5C317.409 217 299.5 199.091 299.5 177V168C299.5 145.909 317.409 128 339.5 128H416.074C426.682 128 436.856 132.214 444.358 139.716L476.784 172.142C484.286 179.644 488.5 189.818 488.5 200.426V213C488.5 224.046 497.454 233 508.5 233H513C524.046 233 533 224.046 533 213V99C533 87.9543 524.046 79 513 79H503.426Z" fill="#E2E2EA" stroke="#8F9AAA"/>
<path d="M538.5 97.9562V161.5V213.601C538.5 219.939 535.982 226.018 531.5 230.5C527.018 234.982 520.939 237.5 514.6 237.5H508.753C502.188 237.5 495.892 234.892 491.25 230.25C486.608 225.608 484 219.312 484 212.747V212.25C484 205.367 481.266 198.766 476.399 193.899L436.716 154.216C429.214 146.714 419.04 142.5 408.431 142.5H345.066C337.591 142.5 330.351 145.111 324.597 149.883L322.975 151.228C316.656 156.468 313 164.25 313 172.458C313 180.136 316.201 187.466 321.832 192.686L323.8 194.51C330.036 200.289 338.224 203.5 346.725 203.5H390.701C399.947 203.5 408.908 206.703 416.058 212.564L420.857 216.498C430.126 224.095 435.5 235.448 435.5 247.433V253.565C435.5 264.049 429.923 273.742 420.86 279.012C416.367 281.624 411.262 283 406.065 283H395.054C387.82 283 380.722 281.038 374.514 277.324L329.986 250.676C323.778 246.962 316.68 245 309.446 245H217.056C209.189 245 201.819 248.847 197.321 255.301L195.539 257.857C193.886 260.229 193 263.05 193 265.94C193 268.905 193.932 271.794 195.664 274.2L196.477 275.33C199.945 280.146 205.517 283 211.451 283H233.665C242.628 283 251.331 286.01 258.378 291.547L267.36 298.604C272.499 302.642 275.5 308.816 275.5 315.353C275.5 320.898 273.337 326.224 269.472 330.2L266.924 332.821C261.219 338.689 253.382 342 245.198 342H160.642C151.587 342 142.903 338.403 136.5 332C130.097 325.597 126.5 316.913 126.5 307.858V255.866C126.5 244.207 131.587 233.128 140.429 225.529L147.256 219.663C154.511 213.428 163.76 210 173.326 210H184.017C190.451 210 196.666 207.658 201.499 203.41L202.252 202.748C207.495 198.141 210.5 191.499 210.5 184.52C210.5 176.388 206.427 168.797 199.652 164.301L173.382 146.867C162.214 139.455 155.5 126.942 155.5 113.539V105.2C155.5 95.3069 160.119 85.9808 167.989 79.9849C173.51 75.7782 180.259 73.5 187.2 73.5H343.2C348.352 73.5 353.454 74.495 358.228 76.4304L380.772 85.5696C385.546 87.505 390.648 88.5 395.8 88.5H457.272C463.983 88.5 470.586 86.8117 476.473 83.5905L485.027 78.9095C490.914 75.6883 497.517 74 504.228 74H514.544C521.788 74 528.644 77.2784 533.192 82.9176C536.627 87.1771 538.5 92.4842 538.5 97.9562Z" stroke="#94C5E8" stroke-width="5"/>
</svg>
