<svg width="840" height="135" viewBox="0 0 840 135" fill="none" xmlns="http://www.w3.org/2000/svg">
<rect width="840" height="135" fill="#F6F3ED"/>
<rect x="32.5" y="40.5" width="135" height="54" fill="#C2E5F9" stroke="#5090C9"/>
<path d="M55.448 71.8141V64.0041H58.748C59.0853 64.0041 59.3933 64.0738 59.672 64.2131C59.9506 64.3524 60.1926 64.5431 60.398 64.7851C60.6106 65.0198 60.772 65.2838 60.882 65.5771C60.9993 65.8631 61.058 66.1564 61.058 66.4571C61.058 66.8311 60.9846 67.1831 60.838 67.5131C60.6986 67.8431 60.497 68.1218 60.233 68.3491C59.9763 68.5764 59.672 68.7268 59.32 68.8001L61.234 71.8141H60.365L58.528 68.9321H56.218V71.8141H55.448ZM56.218 68.2501H58.77C59.078 68.2501 59.3456 68.1658 59.573 67.9971C59.8003 67.8284 59.9763 67.6084 60.101 67.3371C60.2256 67.0584 60.288 66.7651 60.288 66.4571C60.288 66.1418 60.2146 65.8521 60.068 65.5881C59.9286 65.3168 59.738 65.1004 59.496 64.9391C59.2613 64.7704 58.9973 64.6861 58.704 64.6861H56.218V68.2501ZM62.3395 69.4491V66.0831H63.0875V69.3171C63.0875 69.9698 63.1975 70.4574 63.4175 70.7801C63.6449 71.1028 63.9785 71.2641 64.4185 71.2641C64.7119 71.2641 64.9942 71.2018 65.2655 71.0771C65.5442 70.9451 65.7899 70.7618 66.0025 70.5271C66.2152 70.2851 66.3765 70.0064 66.4865 69.6911V66.0831H67.2346V70.9121C67.2346 71.0148 67.2565 71.0918 67.3005 71.1431C67.3445 71.1871 67.4105 71.2128 67.4985 71.2201V71.8141C67.4105 71.8214 67.3409 71.8251 67.2896 71.8251C67.2382 71.8324 67.1905 71.8361 67.1465 71.8361C66.9999 71.8214 66.8715 71.7628 66.7615 71.6601C66.6589 71.5574 66.6039 71.4328 66.5965 71.2861L66.5745 70.5161C66.3252 70.9561 65.9842 71.3008 65.5515 71.5501C65.1262 71.7994 64.6642 71.9241 64.1655 71.9241C63.5642 71.9241 63.1095 71.7151 62.8015 71.2971C62.4935 70.8791 62.3395 70.2631 62.3395 69.4491ZM73.7438 71.8141H72.9958V68.6131C72.9958 67.9384 72.8968 67.4471 72.6988 67.1391C72.5008 66.8238 72.1891 66.6661 71.7638 66.6661C71.4705 66.6661 71.1808 66.7394 70.8948 66.8861C70.6088 67.0254 70.3558 67.2198 70.1358 67.4691C69.9231 67.7111 69.7691 67.9898 69.6738 68.3051V71.8141H68.9258V66.0831H69.6078V67.3811C69.7618 67.1024 69.9635 66.8604 70.2128 66.6551C70.4621 66.4424 70.7445 66.2774 71.0598 66.1601C71.3751 66.0428 71.7015 65.9841 72.0388 65.9841C72.3541 65.9841 72.6218 66.0428 72.8418 66.1601C73.0618 66.2774 73.2378 66.4461 73.3698 66.6661C73.5018 66.8788 73.5971 67.1391 73.6558 67.4471C73.7145 67.7478 73.7438 68.0851 73.7438 68.4591V71.8141ZM74.9979 68.0081C74.9979 67.2601 75.1482 66.5341 75.4489 65.8301C75.7496 65.1188 76.1126 64.4038 76.5379 63.6851L77.1099 63.9601C76.9632 64.1801 76.8056 64.4514 76.6369 64.7741C76.4756 65.0968 76.3216 65.4451 76.1749 65.8191C76.0356 66.1858 75.9219 66.5598 75.8339 66.9411C75.7459 67.3224 75.7019 67.6891 75.7019 68.0411C75.7019 68.6131 75.8266 69.2364 76.0759 69.9111C76.3252 70.5858 76.6662 71.2568 77.0989 71.9241L76.5379 72.2211C76.2299 71.7591 75.9586 71.2934 75.7239 70.8241C75.4966 70.3548 75.3169 69.8854 75.1849 69.4161C75.0602 68.9394 74.9979 68.4701 74.9979 68.0081ZM80.5641 71.9241C80.1461 71.9241 79.7611 71.8471 79.4091 71.6931C79.0645 71.5318 78.7601 71.3118 78.4961 71.0331C78.2395 70.7544 78.0378 70.4354 77.8911 70.0761C77.7518 69.7168 77.6821 69.3354 77.6821 68.9321C77.6821 68.3894 77.8031 67.8944 78.0451 67.4471C78.2871 66.9998 78.6245 66.6441 79.0571 66.3801C79.4898 66.1161 79.9885 65.9841 80.5531 65.9841C81.0885 65.9841 81.5615 66.1088 81.9721 66.3581C82.3828 66.6001 82.6871 66.9301 82.8851 67.3481L82.1591 67.5791C81.9978 67.2858 81.7705 67.0584 81.4771 66.8971C81.1911 66.7284 80.8721 66.6441 80.5201 66.6441C80.1388 66.6441 79.7905 66.7431 79.4751 66.9411C79.1598 67.1391 78.9068 67.4104 78.7161 67.7551C78.5328 68.0998 78.4411 68.4921 78.4411 68.9321C78.4411 69.3648 78.5365 69.7571 78.7271 70.1091C78.9178 70.4611 79.1708 70.7434 79.4861 70.9561C79.8015 71.1614 80.1498 71.2641 80.5311 71.2641C80.7805 71.2641 81.0188 71.2201 81.2461 71.1321C81.4808 71.0441 81.6825 70.9268 81.8511 70.7801C82.0271 70.6261 82.1445 70.4611 82.2031 70.2851L82.9401 70.5051C82.8375 70.7764 82.6651 71.0221 82.4231 71.2421C82.1885 71.4548 81.9098 71.6234 81.5871 71.7481C81.2718 71.8654 80.9308 71.9241 80.5641 71.9241ZM84.0603 69.4491V66.0831H84.8083V69.3171C84.8083 69.9698 84.9183 70.4574 85.1383 70.7801C85.3656 71.1028 85.6993 71.2641 86.1393 71.2641C86.4326 71.2641 86.7149 71.2018 86.9863 71.0771C87.2649 70.9451 87.5106 70.7618 87.7233 70.5271C87.9359 70.2851 88.0973 70.0064 88.2073 69.6911V66.0831H88.9553V70.9121C88.9553 71.0148 88.9773 71.0918 89.0213 71.1431C89.0653 71.1871 89.1313 71.2128 89.2193 71.2201V71.8141C89.1313 71.8214 89.0616 71.8251 89.0103 71.8251C88.9589 71.8324 88.9113 71.8361 88.8673 71.8361C88.7206 71.8214 88.5923 71.7628 88.4823 71.6601C88.3796 71.5574 88.3246 71.4328 88.3173 71.2861L88.2953 70.5161C88.0459 70.9561 87.7049 71.3008 87.2723 71.5501C86.8469 71.7994 86.3849 71.9241 85.8863 71.9241C85.2849 71.9241 84.8303 71.7151 84.5223 71.2971C84.2143 70.8791 84.0603 70.2631 84.0603 69.4491ZM93.5065 66.7431C93.0078 66.7578 92.5678 66.8971 92.1865 67.1611C91.8125 67.4251 91.5485 67.7881 91.3945 68.2501V71.8141H90.6465V66.0831H91.3505V67.4581C91.5485 67.0548 91.8088 66.7284 92.1315 66.4791C92.4615 66.2298 92.8098 66.0904 93.1765 66.0611C93.2498 66.0538 93.3122 66.0501 93.3635 66.0501C93.4222 66.0501 93.4698 66.0538 93.5065 66.0611V66.7431ZM97.3629 66.7431C96.8643 66.7578 96.4243 66.8971 96.0429 67.1611C95.6689 67.4251 95.4049 67.7881 95.2509 68.2501V71.8141H94.5029V66.0831H95.2069V67.4581C95.4049 67.0548 95.6653 66.7284 95.9879 66.4791C96.3179 66.2298 96.6663 66.0904 97.0329 66.0611C97.1063 66.0538 97.1686 66.0501 97.2199 66.0501C97.2786 66.0501 97.3263 66.0538 97.3629 66.0611V66.7431ZM100.652 71.9241C100.241 71.9241 99.8598 71.8471 99.5078 71.6931C99.1558 71.5318 98.8514 71.3154 98.5948 71.0441C98.3381 70.7654 98.1364 70.4464 97.9898 70.0871C97.8504 69.7278 97.7808 69.3428 97.7808 68.9321C97.7808 68.3968 97.9018 67.9054 98.1438 67.4581C98.3931 67.0108 98.7341 66.6551 99.1668 66.3911C99.5994 66.1198 100.091 65.9841 100.641 65.9841C101.205 65.9841 101.697 66.1198 102.115 66.3911C102.54 66.6624 102.874 67.0218 103.116 67.4691C103.358 67.9091 103.479 68.3931 103.479 68.9211C103.479 68.9798 103.479 69.0384 103.479 69.0971C103.479 69.1484 103.475 69.1888 103.468 69.2181H98.5618C98.5984 69.6288 98.7121 69.9954 98.9028 70.3181C99.1008 70.6334 99.3538 70.8864 99.6618 71.0771C99.9771 71.2604 100.318 71.3521 100.685 71.3521C101.059 71.3521 101.411 71.2568 101.741 71.0661C102.078 70.8754 102.313 70.6261 102.445 70.3181L103.094 70.4941C102.976 70.7654 102.797 71.0111 102.555 71.2311C102.313 71.4511 102.027 71.6234 101.697 71.7481C101.374 71.8654 101.026 71.9241 100.652 71.9241ZM98.5398 68.6791H102.775C102.745 68.2611 102.632 67.8944 102.434 67.5791C102.243 67.2638 101.99 67.0181 101.675 66.8421C101.367 66.6588 101.026 66.5671 100.652 66.5671C100.278 66.5671 99.9368 66.6588 99.6288 66.8421C99.3208 67.0181 99.0678 67.2674 98.8698 67.5901C98.6791 67.9054 98.5691 68.2684 98.5398 68.6791ZM109.451 71.8141H108.703V68.6131C108.703 67.9384 108.604 67.4471 108.406 67.1391C108.208 66.8238 107.896 66.6661 107.471 66.6661C107.177 66.6661 106.888 66.7394 106.602 66.8861C106.316 67.0254 106.063 67.2198 105.843 67.4691C105.63 67.7111 105.476 67.9898 105.381 68.3051V71.8141H104.633V66.0831H105.315V67.3811C105.469 67.1024 105.67 66.8604 105.92 66.6551C106.169 66.4424 106.451 66.2774 106.767 66.1601C107.082 66.0428 107.408 65.9841 107.746 65.9841C108.061 65.9841 108.329 66.0428 108.549 66.1601C108.769 66.2774 108.945 66.4461 109.077 66.6661C109.209 66.8788 109.304 67.1391 109.363 67.4471C109.421 67.7478 109.451 68.0851 109.451 68.4591V71.8141ZM113.742 71.5391C113.684 71.5611 113.592 71.6014 113.467 71.6601C113.343 71.7188 113.192 71.7701 113.016 71.8141C112.84 71.8581 112.65 71.8801 112.444 71.8801C112.232 71.8801 112.03 71.8398 111.839 71.7591C111.656 71.6784 111.509 71.5574 111.399 71.3961C111.289 71.2274 111.234 71.0221 111.234 70.7801V66.6771H110.442V66.0831H111.234V64.1471H111.982V66.0831H113.302V66.6771H111.982V70.5711C111.997 70.7764 112.07 70.9304 112.202 71.0331C112.342 71.1358 112.499 71.1871 112.675 71.1871C112.881 71.1871 113.068 71.1541 113.236 71.0881C113.405 71.0148 113.508 70.9634 113.544 70.9341L113.742 71.5391ZM114.567 72.4961V71.8141H118.758V72.4961H114.567ZM119.91 68.9651C119.91 68.4224 120.02 67.9274 120.24 67.4801C120.467 67.0254 120.779 66.6624 121.175 66.3911C121.571 66.1198 122.022 65.9841 122.528 65.9841C123.005 65.9841 123.43 66.1124 123.804 66.3691C124.185 66.6184 124.482 66.9228 124.695 67.2821V63.7841H125.443V70.9121C125.443 71.0148 125.465 71.0918 125.509 71.1431C125.553 71.1871 125.619 71.2128 125.707 71.2201V71.8141C125.56 71.8361 125.447 71.8434 125.366 71.8361C125.212 71.8288 125.076 71.7664 124.959 71.6491C124.842 71.5318 124.783 71.4034 124.783 71.2641V70.7031C124.556 71.0771 124.248 71.3741 123.859 71.5941C123.47 71.8141 123.067 71.9241 122.649 71.9241C122.253 71.9241 121.886 71.8434 121.549 71.6821C121.219 71.5208 120.929 71.3008 120.68 71.0221C120.438 70.7434 120.247 70.4281 120.108 70.0761C119.976 69.7168 119.91 69.3464 119.91 68.9651ZM124.695 69.8451V68.0741C124.6 67.8101 124.446 67.5718 124.233 67.3591C124.02 67.1391 123.778 66.9668 123.507 66.8421C123.243 66.7101 122.979 66.6441 122.715 66.6441C122.407 66.6441 122.128 66.7101 121.879 66.8421C121.63 66.9668 121.413 67.1391 121.23 67.3591C121.054 67.5791 120.918 67.8284 120.823 68.1071C120.728 68.3858 120.68 68.6718 120.68 68.9651C120.68 69.2731 120.731 69.5664 120.834 69.8451C120.944 70.1238 121.098 70.3731 121.296 70.5931C121.494 70.8058 121.721 70.9708 121.978 71.0881C122.235 71.2054 122.513 71.2641 122.814 71.2641C123.005 71.2641 123.203 71.2274 123.408 71.1541C123.613 71.0808 123.808 70.9818 123.991 70.8571C124.182 70.7251 124.339 70.5711 124.464 70.3951C124.589 70.2191 124.666 70.0358 124.695 69.8451ZM126.676 70.1641C126.676 69.8048 126.778 69.4968 126.984 69.2401C127.189 68.9761 127.471 68.7744 127.831 68.6351C128.197 68.4884 128.619 68.4151 129.096 68.4151C129.374 68.4151 129.664 68.4371 129.965 68.4811C130.265 68.5251 130.533 68.5911 130.768 68.6791V68.1951C130.768 67.7111 130.625 67.3261 130.339 67.0401C130.053 66.7541 129.657 66.6111 129.151 66.6111C128.843 66.6111 128.538 66.6698 128.238 66.7871C127.944 66.8971 127.636 67.0621 127.314 67.2821L127.028 66.7541C127.402 66.4974 127.768 66.3068 128.128 66.1821C128.487 66.0501 128.854 65.9841 129.228 65.9841C129.932 65.9841 130.489 66.1858 130.9 66.5891C131.31 66.9924 131.516 67.5498 131.516 68.2611V70.9121C131.516 71.0148 131.538 71.0918 131.582 71.1431C131.626 71.1871 131.695 71.2128 131.791 71.2201V71.8141C131.71 71.8214 131.64 71.8288 131.582 71.8361C131.523 71.8434 131.479 71.8434 131.45 71.8361C131.266 71.8288 131.127 71.7701 131.032 71.6601C130.936 71.5501 130.885 71.4328 130.878 71.3081L130.867 70.8901C130.61 71.2201 130.276 71.4768 129.866 71.6601C129.455 71.8361 129.037 71.9241 128.612 71.9241C128.245 71.9241 127.911 71.8471 127.611 71.6931C127.317 71.5318 127.086 71.3191 126.918 71.0551C126.756 70.7838 126.676 70.4868 126.676 70.1641ZM130.515 70.6041C130.595 70.5014 130.658 70.4024 130.702 70.3071C130.746 70.2118 130.768 70.1274 130.768 70.0541V69.2181C130.518 69.1228 130.258 69.0494 129.987 68.9981C129.723 68.9468 129.455 68.9211 129.184 68.9211C128.648 68.9211 128.216 69.0274 127.886 69.2401C127.556 69.4528 127.391 69.7424 127.391 70.1091C127.391 70.3218 127.446 70.5234 127.556 70.7141C127.666 70.8974 127.827 71.0514 128.04 71.1761C128.252 71.2934 128.502 71.3521 128.788 71.3521C129.147 71.3521 129.481 71.2824 129.789 71.1431C130.104 71.0038 130.346 70.8241 130.515 70.6041ZM135.839 71.5391C135.78 71.5611 135.689 71.6014 135.564 71.6601C135.439 71.7188 135.289 71.7701 135.113 71.8141C134.937 71.8581 134.746 71.8801 134.541 71.8801C134.328 71.8801 134.127 71.8398 133.936 71.7591C133.753 71.6784 133.606 71.5574 133.496 71.3961C133.386 71.2274 133.331 71.0221 133.331 70.7801V66.6771H132.539V66.0831H133.331V64.1471H134.079V66.0831H135.399V66.6771H134.079V70.5711C134.094 70.7764 134.167 70.9304 134.299 71.0331C134.438 71.1358 134.596 71.1871 134.772 71.1871C134.977 71.1871 135.164 71.1541 135.333 71.0881C135.502 71.0148 135.604 70.9634 135.641 70.9341L135.839 71.5391ZM139.152 71.9241C138.741 71.9241 138.36 71.8471 138.008 71.6931C137.656 71.5318 137.351 71.3154 137.095 71.0441C136.838 70.7654 136.636 70.4464 136.49 70.0871C136.35 69.7278 136.281 69.3428 136.281 68.9321C136.281 68.3968 136.402 67.9054 136.644 67.4581C136.893 67.0108 137.234 66.6551 137.667 66.3911C138.099 66.1198 138.591 65.9841 139.141 65.9841C139.705 65.9841 140.197 66.1198 140.615 66.3911C141.04 66.6624 141.374 67.0218 141.616 67.4691C141.858 67.9091 141.979 68.3931 141.979 68.9211C141.979 68.9798 141.979 69.0384 141.979 69.0971C141.979 69.1484 141.975 69.1888 141.968 69.2181H137.062C137.098 69.6288 137.212 69.9954 137.403 70.3181C137.601 70.6334 137.854 70.8864 138.162 71.0771C138.477 71.2604 138.818 71.3521 139.185 71.3521C139.559 71.3521 139.911 71.2568 140.241 71.0661C140.578 70.8754 140.813 70.6261 140.945 70.3181L141.594 70.4941C141.476 70.7654 141.297 71.0111 141.055 71.2311C140.813 71.4511 140.527 71.6234 140.197 71.7481C139.874 71.8654 139.526 71.9241 139.152 71.9241ZM137.04 68.6791H141.275C141.245 68.2611 141.132 67.8944 140.934 67.5791C140.743 67.2638 140.49 67.0181 140.175 66.8421C139.867 66.6588 139.526 66.5671 139.152 66.5671C138.778 66.5671 138.437 66.6588 138.129 66.8421C137.821 67.0181 137.568 67.2674 137.37 67.5901C137.179 67.9054 137.069 68.2684 137.04 68.6791ZM144.6 68.0081C144.6 68.4701 144.538 68.9394 144.413 69.4161C144.288 69.8854 144.109 70.3548 143.874 70.8241C143.639 71.2934 143.368 71.7591 143.06 72.2211L142.51 71.9241C142.943 71.2568 143.284 70.5858 143.533 69.9111C143.782 69.2364 143.907 68.6131 143.907 68.0411C143.907 67.6891 143.863 67.3224 143.775 66.9411C143.687 66.5598 143.57 66.1858 143.423 65.8191C143.276 65.4451 143.122 65.0968 142.961 64.7741C142.8 64.4514 142.642 64.1801 142.488 63.9601L143.071 63.6851C143.496 64.4038 143.856 65.1188 144.149 65.8301C144.45 66.5341 144.6 67.2601 144.6 68.0081Z" fill="black"/>
<rect x="192.5" y="40.5" width="135" height="54" fill="#C2E5F9" stroke="#5090C9"/>
<path d="M212.075 64.8141V57.0041H217.201V57.6861H212.845V60.5571H216.519V61.1951H212.845V64.8141H212.075ZM220.508 64.9241C220.098 64.9241 219.716 64.8471 219.364 64.6931C219.012 64.5318 218.708 64.3154 218.451 64.0441C218.195 63.7654 217.993 63.4464 217.846 63.0871C217.707 62.7278 217.637 62.3428 217.637 61.9321C217.637 61.3968 217.758 60.9054 218 60.4581C218.25 60.0108 218.591 59.6551 219.023 59.3911C219.456 59.1198 219.947 58.9841 220.497 58.9841C221.062 58.9841 221.553 59.1198 221.971 59.3911C222.397 59.6624 222.73 60.0218 222.972 60.4691C223.214 60.9091 223.335 61.3931 223.335 61.9211C223.335 61.9798 223.335 62.0384 223.335 62.0971C223.335 62.1484 223.332 62.1888 223.324 62.2181H218.418C218.455 62.6288 218.569 62.9954 218.759 63.3181C218.957 63.6334 219.21 63.8864 219.518 64.0771C219.834 64.2604 220.175 64.3521 220.541 64.3521C220.915 64.3521 221.267 64.2568 221.597 64.0661C221.935 63.8754 222.169 63.6261 222.301 63.3181L222.95 63.4941C222.833 63.7654 222.653 64.0111 222.411 64.2311C222.169 64.4511 221.883 64.6234 221.553 64.7481C221.231 64.8654 220.882 64.9241 220.508 64.9241ZM218.396 61.6791H222.631C222.602 61.2611 222.488 60.8944 222.29 60.5791C222.1 60.2638 221.847 60.0181 221.531 59.8421C221.223 59.6588 220.882 59.5671 220.508 59.5671C220.134 59.5671 219.793 59.6588 219.485 59.8421C219.177 60.0181 218.924 60.2674 218.726 60.5901C218.536 60.9054 218.426 61.2684 218.396 61.6791ZM227.186 64.5391C227.127 64.5611 227.035 64.6014 226.911 64.6601C226.786 64.7188 226.636 64.7701 226.46 64.8141C226.284 64.8581 226.093 64.8801 225.888 64.8801C225.675 64.8801 225.473 64.8398 225.283 64.7591C225.099 64.6784 224.953 64.5574 224.843 64.3961C224.733 64.2274 224.678 64.0221 224.678 63.7801V59.6771H223.886V59.0831H224.678V57.1471H225.426V59.0831H226.746V59.6771H225.426V63.5711C225.44 63.7764 225.514 63.9304 225.646 64.0331C225.785 64.1358 225.943 64.1871 226.119 64.1871C226.324 64.1871 226.511 64.1541 226.68 64.0881C226.848 64.0148 226.951 63.9634 226.988 63.9341L227.186 64.5391ZM230.509 64.9241C230.091 64.9241 229.706 64.8471 229.354 64.6931C229.01 64.5318 228.705 64.3118 228.441 64.0331C228.185 63.7544 227.983 63.4354 227.836 63.0761C227.697 62.7168 227.627 62.3354 227.627 61.9321C227.627 61.3894 227.748 60.8944 227.99 60.4471C228.232 59.9998 228.57 59.6441 229.002 59.3801C229.435 59.1161 229.934 58.9841 230.498 58.9841C231.034 58.9841 231.507 59.1088 231.917 59.3581C232.328 59.6001 232.632 59.9301 232.83 60.3481L232.104 60.5791C231.943 60.2858 231.716 60.0584 231.422 59.8971C231.136 59.7284 230.817 59.6441 230.465 59.6441C230.084 59.6441 229.736 59.7431 229.42 59.9411C229.105 60.1391 228.852 60.4104 228.661 60.7551C228.478 61.0998 228.386 61.4921 228.386 61.9321C228.386 62.3648 228.482 62.7571 228.672 63.1091C228.863 63.4611 229.116 63.7434 229.431 63.9561C229.747 64.1614 230.095 64.2641 230.476 64.2641C230.726 64.2641 230.964 64.2201 231.191 64.1321C231.426 64.0441 231.628 63.9268 231.796 63.7801C231.972 63.6261 232.09 63.4611 232.148 63.2851L232.885 63.5051C232.783 63.7764 232.61 64.0221 232.368 64.2421C232.134 64.4548 231.855 64.6234 231.532 64.7481C231.217 64.8654 230.876 64.9241 230.509 64.9241ZM238.879 64.8141H238.131V61.6131C238.131 60.9678 238.017 60.4838 237.79 60.1611C237.562 59.8311 237.236 59.6661 236.811 59.6661C236.532 59.6661 236.253 59.7394 235.975 59.8861C235.703 60.0254 235.461 60.2198 235.249 60.4691C235.043 60.7111 234.897 60.9898 234.809 61.3051V64.8141H234.061V56.7841H234.809V60.3811C235.036 59.9558 235.351 59.6184 235.755 59.3691C236.165 59.1124 236.602 58.9841 237.064 58.9841C237.394 58.9841 237.672 59.0428 237.9 59.1601C238.134 59.2774 238.321 59.4498 238.461 59.6771C238.607 59.8971 238.714 60.1574 238.78 60.4581C238.846 60.7514 238.879 61.0851 238.879 61.4591V64.8141ZM245.158 64.9241C244.689 64.9241 244.253 64.8471 243.849 64.6931C243.446 64.5391 243.098 64.3044 242.804 63.9891L243.112 63.4611C243.435 63.7618 243.758 63.9818 244.08 64.1211C244.41 64.2531 244.759 64.3191 245.125 64.3191C245.573 64.3191 245.936 64.2311 246.214 64.0551C246.493 63.8718 246.632 63.6114 246.632 63.2741C246.632 63.0468 246.563 62.8744 246.423 62.7571C246.291 62.6324 246.097 62.5334 245.84 62.4601C245.591 62.3794 245.29 62.2951 244.938 62.2071C244.542 62.0971 244.209 61.9834 243.937 61.8661C243.673 61.7414 243.472 61.5874 243.332 61.4041C243.2 61.2134 243.134 60.9678 243.134 60.6671C243.134 60.2931 243.226 59.9851 243.409 59.7431C243.6 59.4938 243.857 59.3068 244.179 59.1821C244.509 59.0501 244.876 58.9841 245.279 58.9841C245.719 58.9841 246.108 59.0538 246.445 59.1931C246.783 59.3324 247.058 59.5268 247.27 59.7761L246.907 60.2821C246.702 60.0474 246.456 59.8751 246.17 59.7651C245.892 59.6478 245.58 59.5891 245.235 59.5891C245.001 59.5891 244.777 59.6221 244.564 59.6881C244.352 59.7468 244.176 59.8494 244.036 59.9961C243.904 60.1354 243.838 60.3298 243.838 60.5791C243.838 60.7844 243.89 60.9458 243.992 61.0631C244.095 61.1731 244.249 61.2684 244.454 61.3491C244.66 61.4224 244.913 61.5031 245.213 61.5911C245.646 61.7084 246.024 61.8294 246.346 61.9541C246.669 62.0714 246.918 62.2254 247.094 62.4161C247.27 62.6068 247.358 62.8744 247.358 63.2191C247.358 63.7544 247.157 64.1724 246.753 64.4731C246.35 64.7738 245.818 64.9241 245.158 64.9241ZM251.345 64.5391C251.286 64.5611 251.194 64.6014 251.07 64.6601C250.945 64.7188 250.795 64.7701 250.619 64.8141C250.443 64.8581 250.252 64.8801 250.047 64.8801C249.834 64.8801 249.632 64.8398 249.442 64.7591C249.258 64.6784 249.112 64.5574 249.002 64.3961C248.892 64.2274 248.837 64.0221 248.837 63.7801V59.6771H248.045V59.0831H248.837V57.1471H249.585V59.0831H250.905V59.6771H249.585V63.5711C249.599 63.7764 249.673 63.9304 249.805 64.0331C249.944 64.1358 250.102 64.1871 250.278 64.1871C250.483 64.1871 250.67 64.1541 250.839 64.0881C251.007 64.0148 251.11 63.9634 251.147 63.9341L251.345 64.5391ZM254.625 64.9241C254.214 64.9241 253.833 64.8471 253.481 64.6931C253.136 64.5318 252.835 64.3154 252.579 64.0441C252.329 63.7654 252.135 63.4501 251.996 63.0981C251.856 62.7388 251.787 62.3611 251.787 61.9651C251.787 61.5544 251.856 61.1731 251.996 60.8211C252.135 60.4618 252.333 60.1464 252.59 59.8751C252.846 59.5964 253.147 59.3801 253.492 59.2261C253.844 59.0648 254.225 58.9841 254.636 58.9841C255.046 58.9841 255.424 59.0648 255.769 59.2261C256.113 59.3801 256.414 59.5964 256.671 59.8751C256.927 60.1464 257.125 60.4618 257.265 60.8211C257.404 61.1731 257.474 61.5544 257.474 61.9651C257.474 62.3611 257.404 62.7388 257.265 63.0981C257.125 63.4501 256.927 63.7654 256.671 64.0441C256.421 64.3154 256.121 64.5318 255.769 64.6931C255.424 64.8471 255.043 64.9241 254.625 64.9241ZM252.546 61.9761C252.546 62.4014 252.637 62.7901 252.821 63.1421C253.011 63.4868 253.264 63.7618 253.58 63.9671C253.895 64.1651 254.243 64.2641 254.625 64.2641C255.006 64.2641 255.354 64.1614 255.67 63.9561C255.985 63.7508 256.238 63.4721 256.429 63.1201C256.619 62.7608 256.715 62.3721 256.715 61.9541C256.715 61.5288 256.619 61.1401 256.429 60.7881C256.238 60.4361 255.985 60.1574 255.67 59.9521C255.354 59.7468 255.006 59.6441 254.625 59.6441C254.243 59.6441 253.895 59.7504 253.58 59.9631C253.272 60.1758 253.022 60.4581 252.832 60.8101C252.641 61.1548 252.546 61.5434 252.546 61.9761ZM261.211 64.9241C260.793 64.9241 260.408 64.8471 260.056 64.6931C259.711 64.5318 259.407 64.3118 259.143 64.0331C258.886 63.7544 258.684 63.4354 258.538 63.0761C258.398 62.7168 258.329 62.3354 258.329 61.9321C258.329 61.3894 258.45 60.8944 258.692 60.4471C258.934 59.9998 259.271 59.6441 259.704 59.3801C260.136 59.1161 260.635 58.9841 261.2 58.9841C261.735 58.9841 262.208 59.1088 262.619 59.3581C263.029 59.6001 263.334 59.9301 263.532 60.3481L262.806 60.5791C262.644 60.2858 262.417 60.0584 262.124 59.8971C261.838 59.7284 261.519 59.6441 261.167 59.6441C260.785 59.6441 260.437 59.7431 260.122 59.9411C259.806 60.1391 259.553 60.4104 259.363 60.7551C259.179 61.0998 259.088 61.4921 259.088 61.9321C259.088 62.3648 259.183 62.7571 259.374 63.1091C259.564 63.4611 259.817 63.7434 260.133 63.9561C260.448 64.1614 260.796 64.2641 261.178 64.2641C261.427 64.2641 261.665 64.2201 261.893 64.1321C262.127 64.0441 262.329 63.9268 262.498 63.7801C262.674 63.6261 262.791 63.4611 262.85 63.2851L263.587 63.5051C263.484 63.7764 263.312 64.0221 263.07 64.2421C262.835 64.4548 262.556 64.6234 262.234 64.7481C261.918 64.8654 261.577 64.9241 261.211 64.9241ZM268.854 64.8141L266.731 61.8771L265.51 63.0211V64.8141H264.762V56.7841H265.51V62.2181L268.755 59.0941H269.58L267.237 61.4371L269.668 64.8141H268.854ZM276.258 59.7431C275.76 59.7578 275.32 59.8971 274.938 60.1611C274.564 60.4251 274.3 60.7881 274.146 61.2501V64.8141H273.398V59.0831H274.102V60.4581C274.3 60.0548 274.561 59.7284 274.883 59.4791C275.213 59.2298 275.562 59.0904 275.928 59.0611C276.002 59.0538 276.064 59.0501 276.115 59.0501C276.174 59.0501 276.222 59.0538 276.258 59.0611V59.7431ZM279.547 64.9241C279.137 64.9241 278.755 64.8471 278.403 64.6931C278.051 64.5318 277.747 64.3154 277.49 64.0441C277.234 63.7654 277.032 63.4464 276.885 63.0871C276.746 62.7278 276.676 62.3428 276.676 61.9321C276.676 61.3968 276.797 60.9054 277.039 60.4581C277.289 60.0108 277.63 59.6551 278.062 59.3911C278.495 59.1198 278.986 58.9841 279.536 58.9841C280.101 58.9841 280.592 59.1198 281.01 59.3911C281.436 59.6624 281.769 60.0218 282.011 60.4691C282.253 60.9091 282.374 61.3931 282.374 61.9211C282.374 61.9798 282.374 62.0384 282.374 62.0971C282.374 62.1484 282.371 62.1888 282.363 62.2181H277.457C277.494 62.6288 277.608 62.9954 277.798 63.3181C277.996 63.6334 278.249 63.8864 278.557 64.0771C278.873 64.2604 279.214 64.3521 279.58 64.3521C279.954 64.3521 280.306 64.2568 280.636 64.0661C280.974 63.8754 281.208 63.6261 281.34 63.3181L281.989 63.4941C281.872 63.7654 281.692 64.0111 281.45 64.2311C281.208 64.4511 280.922 64.6234 280.592 64.7481C280.27 64.8654 279.921 64.9241 279.547 64.9241ZM277.435 61.6791H281.67C281.641 61.2611 281.527 60.8944 281.329 60.5791C281.139 60.2638 280.886 60.0181 280.57 59.8421C280.262 59.6588 279.921 59.5671 279.547 59.5671C279.173 59.5671 278.832 59.6588 278.524 59.8421C278.216 60.0181 277.963 60.2674 277.765 60.5901C277.575 60.9054 277.465 61.2684 277.435 61.6791ZM286.225 64.5391C286.166 64.5611 286.074 64.6014 285.95 64.6601C285.825 64.7188 285.675 64.7701 285.499 64.8141C285.323 64.8581 285.132 64.8801 284.927 64.8801C284.714 64.8801 284.512 64.8398 284.322 64.7591C284.138 64.6784 283.992 64.5574 283.882 64.3961C283.772 64.2274 283.717 64.0221 283.717 63.7801V59.6771H282.925V59.0831H283.717V57.1471H284.465V59.0831H285.785V59.6771H284.465V63.5711C284.479 63.7764 284.553 63.9304 284.685 64.0331C284.824 64.1358 284.982 64.1871 285.158 64.1871C285.363 64.1871 285.55 64.1541 285.719 64.0881C285.887 64.0148 285.99 63.9634 286.027 63.9341L286.225 64.5391ZM287.104 62.4491V59.0831H287.852V62.3171C287.852 62.9698 287.962 63.4574 288.182 63.7801C288.41 64.1028 288.743 64.2641 289.183 64.2641C289.477 64.2641 289.759 64.2018 290.03 64.0771C290.309 63.9451 290.555 63.7618 290.767 63.5271C290.98 63.2851 291.141 63.0064 291.251 62.6911V59.0831H291.999V63.9121C291.999 64.0148 292.021 64.0918 292.065 64.1431C292.109 64.1871 292.175 64.2128 292.263 64.2201V64.8141C292.175 64.8214 292.106 64.8251 292.054 64.8251C292.003 64.8324 291.955 64.8361 291.911 64.8361C291.765 64.8214 291.636 64.7628 291.526 64.6601C291.424 64.5574 291.369 64.4328 291.361 64.2861L291.339 63.5161C291.09 63.9561 290.749 64.3008 290.316 64.5501C289.891 64.7994 289.429 64.9241 288.93 64.9241C288.329 64.9241 287.874 64.7151 287.566 64.2971C287.258 63.8791 287.104 63.2631 287.104 62.4491ZM296.55 59.7431C296.052 59.7578 295.612 59.8971 295.23 60.1611C294.856 60.4251 294.592 60.7881 294.438 61.2501V64.8141H293.69V59.0831H294.394V60.4581C294.592 60.0548 294.853 59.7284 295.175 59.4791C295.505 59.2298 295.854 59.0904 296.22 59.0611C296.294 59.0538 296.356 59.0501 296.407 59.0501C296.466 59.0501 296.514 59.0538 296.55 59.0611V59.7431ZM302.365 64.8141H301.617V61.6131C301.617 60.9384 301.518 60.4471 301.32 60.1391C301.122 59.8238 300.81 59.6661 300.385 59.6661C300.092 59.6661 299.802 59.7394 299.516 59.8861C299.23 60.0254 298.977 60.2198 298.757 60.4691C298.544 60.7111 298.39 60.9898 298.295 61.3051V64.8141H297.547V59.0831H298.229V60.3811C298.383 60.1024 298.585 59.8604 298.834 59.6551C299.083 59.4424 299.366 59.2774 299.681 59.1601C299.996 59.0428 300.323 58.9841 300.66 58.9841C300.975 58.9841 301.243 59.0428 301.463 59.1601C301.683 59.2774 301.859 59.4461 301.991 59.6661C302.123 59.8788 302.218 60.1391 302.277 60.4471C302.336 60.7478 302.365 61.0851 302.365 61.4591V64.8141ZM305.841 64.9241C305.372 64.9241 304.935 64.8471 304.532 64.6931C304.129 64.5391 303.78 64.3044 303.487 63.9891L303.795 63.4611C304.118 63.7618 304.44 63.9818 304.763 64.1211C305.093 64.2531 305.441 64.3191 305.808 64.3191C306.255 64.3191 306.618 64.2311 306.897 64.0551C307.176 63.8718 307.315 63.6114 307.315 63.2741C307.315 63.0468 307.245 62.8744 307.106 62.7571C306.974 62.6324 306.78 62.5334 306.523 62.4601C306.274 62.3794 305.973 62.2951 305.621 62.2071C305.225 62.0971 304.891 61.9834 304.62 61.8661C304.356 61.7414 304.154 61.5874 304.015 61.4041C303.883 61.2134 303.817 60.9678 303.817 60.6671C303.817 60.2931 303.909 59.9851 304.092 59.7431C304.283 59.4938 304.539 59.3068 304.862 59.1821C305.192 59.0501 305.559 58.9841 305.962 58.9841C306.402 58.9841 306.791 59.0538 307.128 59.1931C307.465 59.3324 307.74 59.5268 307.953 59.7761L307.59 60.2821C307.385 60.0474 307.139 59.8751 306.853 59.7651C306.574 59.6478 306.263 59.5891 305.918 59.5891C305.683 59.5891 305.46 59.6221 305.247 59.6881C305.034 59.7468 304.858 59.8494 304.719 59.9961C304.587 60.1354 304.521 60.3298 304.521 60.5791C304.521 60.7844 304.572 60.9458 304.675 61.0631C304.778 61.1731 304.932 61.2684 305.137 61.3491C305.342 61.4224 305.595 61.5031 305.896 61.5911C306.329 61.7084 306.706 61.8294 307.029 61.9541C307.352 62.0714 307.601 62.2254 307.777 62.4161C307.953 62.6068 308.041 62.8744 308.041 63.2191C308.041 63.7544 307.839 64.1724 307.436 64.4731C307.033 64.7738 306.501 64.9241 305.841 64.9241ZM214.895 75.4491V72.0831H215.643V75.3171C215.643 75.9698 215.753 76.4574 215.973 76.7801C216.201 77.1028 216.534 77.2641 216.974 77.2641C217.268 77.2641 217.55 77.2018 217.821 77.0771C218.1 76.9451 218.346 76.7618 218.558 76.5271C218.771 76.2851 218.932 76.0064 219.042 75.6911V72.0831H219.79V76.9121C219.79 77.0148 219.812 77.0918 219.856 77.1431C219.9 77.1871 219.966 77.2128 220.054 77.2201V77.8141C219.966 77.8214 219.897 77.8251 219.845 77.8251C219.794 77.8324 219.746 77.8361 219.702 77.8361C219.556 77.8214 219.427 77.7628 219.317 77.6601C219.215 77.5574 219.16 77.4328 219.152 77.2861L219.13 76.5161C218.881 76.9561 218.54 77.3008 218.107 77.5501C217.682 77.7994 217.22 77.9241 216.721 77.9241C216.12 77.9241 215.665 77.7151 215.357 77.2971C215.049 76.8791 214.895 76.2631 214.895 75.4491ZM224.407 77.9241C223.931 77.9241 223.502 77.7994 223.12 77.5501C222.746 77.3008 222.449 76.9928 222.229 76.6261V80.1571H221.481V72.0831H222.152V73.1941C222.38 72.8348 222.684 72.5451 223.065 72.3251C223.447 72.0978 223.854 71.9841 224.286 71.9841C224.682 71.9841 225.045 72.0684 225.375 72.2371C225.705 72.3984 225.991 72.6184 226.233 72.8971C226.475 73.1758 226.662 73.4948 226.794 73.8541C226.934 74.2061 227.003 74.5728 227.003 74.9541C227.003 75.4894 226.893 75.9844 226.673 76.4391C226.461 76.8864 226.16 77.2458 225.771 77.5171C225.383 77.7884 224.928 77.9241 224.407 77.9241ZM224.198 77.2641C224.514 77.2641 224.796 77.2018 225.045 77.0771C225.295 76.9451 225.507 76.7691 225.683 76.5491C225.867 76.3291 226.006 76.0834 226.101 75.8121C226.197 75.5334 226.244 75.2474 226.244 74.9541C226.244 74.6461 226.189 74.3528 226.079 74.0741C225.977 73.7954 225.826 73.5498 225.628 73.3371C225.43 73.1244 225.203 72.9558 224.946 72.8311C224.69 72.7064 224.411 72.6441 224.11 72.6441C223.92 72.6441 223.722 72.6808 223.516 72.7541C223.311 72.8274 223.113 72.9338 222.922 73.0731C222.739 73.2051 222.585 73.3554 222.46 73.5241C222.336 73.6928 222.259 73.8724 222.229 74.0631V75.8231C222.347 76.0944 222.504 76.3401 222.702 76.5601C222.9 76.7728 223.128 76.9451 223.384 77.0771C223.648 77.2018 223.92 77.2641 224.198 77.2641ZM233.824 77.5391C233.766 77.5611 233.674 77.6014 233.549 77.6601C233.425 77.7188 233.274 77.7701 233.098 77.8141C232.922 77.8581 232.732 77.8801 232.526 77.8801C232.314 77.8801 232.112 77.8398 231.921 77.7591C231.738 77.6784 231.591 77.5574 231.481 77.3961C231.371 77.2274 231.316 77.0221 231.316 76.7801V72.6771H230.524V72.0831H231.316V70.1471H232.064V72.0831H233.384V72.6771H232.064V76.5711C232.079 76.7764 232.152 76.9304 232.284 77.0331C232.424 77.1358 232.581 77.1871 232.757 77.1871C232.963 77.1871 233.15 77.1541 233.318 77.0881C233.487 77.0148 233.59 76.9634 233.626 76.9341L233.824 77.5391ZM237.104 77.9241C236.693 77.9241 236.312 77.8471 235.96 77.6931C235.615 77.5318 235.315 77.3154 235.058 77.0441C234.809 76.7654 234.614 76.4501 234.475 76.0981C234.336 75.7388 234.266 75.3611 234.266 74.9651C234.266 74.5544 234.336 74.1731 234.475 73.8211C234.614 73.4618 234.812 73.1464 235.069 72.8751C235.326 72.5964 235.626 72.3801 235.971 72.2261C236.323 72.0648 236.704 71.9841 237.115 71.9841C237.526 71.9841 237.903 72.0648 238.248 72.2261C238.593 72.3801 238.893 72.5964 239.15 72.8751C239.407 73.1464 239.605 73.4618 239.744 73.8211C239.883 74.1731 239.953 74.5544 239.953 74.9651C239.953 75.3611 239.883 75.7388 239.744 76.0981C239.605 76.4501 239.407 76.7654 239.15 77.0441C238.901 77.3154 238.6 77.5318 238.248 77.6931C237.903 77.8471 237.522 77.9241 237.104 77.9241ZM235.025 74.9761C235.025 75.4014 235.117 75.7901 235.3 76.1421C235.491 76.4868 235.744 76.7618 236.059 76.9671C236.374 77.1651 236.723 77.2641 237.104 77.2641C237.485 77.2641 237.834 77.1614 238.149 76.9561C238.464 76.7508 238.717 76.4721 238.908 76.1201C239.099 75.7608 239.194 75.3721 239.194 74.9541C239.194 74.5288 239.099 74.1401 238.908 73.7881C238.717 73.4361 238.464 73.1574 238.149 72.9521C237.834 72.7468 237.485 72.6441 237.104 72.6441C236.723 72.6441 236.374 72.7504 236.059 72.9631C235.751 73.1758 235.502 73.4581 235.311 73.8101C235.12 74.1548 235.025 74.5434 235.025 74.9761ZM246.494 77.9241C246.076 77.9241 245.691 77.8471 245.339 77.6931C244.994 77.5318 244.69 77.3118 244.426 77.0331C244.169 76.7544 243.967 76.4354 243.821 76.0761C243.681 75.7168 243.612 75.3354 243.612 74.9321C243.612 74.3894 243.733 73.8944 243.975 73.4471C244.217 72.9998 244.554 72.6441 244.987 72.3801C245.419 72.1161 245.918 71.9841 246.483 71.9841C247.018 71.9841 247.491 72.1088 247.902 72.3581C248.312 72.6001 248.617 72.9301 248.815 73.3481L248.089 73.5791C247.927 73.2858 247.7 73.0584 247.407 72.8971C247.121 72.7284 246.802 72.6441 246.45 72.6441C246.068 72.6441 245.72 72.7431 245.405 72.9411C245.089 73.1391 244.836 73.4104 244.646 73.7551C244.462 74.0998 244.371 74.4921 244.371 74.9321C244.371 75.3648 244.466 75.7571 244.657 76.1091C244.847 76.4611 245.1 76.7434 245.416 76.9561C245.731 77.1614 246.079 77.2641 246.461 77.2641C246.71 77.2641 246.948 77.2201 247.176 77.1321C247.41 77.0441 247.612 76.9268 247.781 76.7801C247.957 76.6261 248.074 76.4611 248.133 76.2851L248.87 76.5051C248.767 76.7764 248.595 77.0221 248.353 77.2421C248.118 77.4548 247.839 77.6234 247.517 77.7481C247.201 77.8654 246.86 77.9241 246.494 77.9241ZM249.99 75.4491V72.0831H250.738V75.3171C250.738 75.9698 250.848 76.4574 251.068 76.7801C251.295 77.1028 251.629 77.2641 252.069 77.2641C252.362 77.2641 252.645 77.2018 252.916 77.0771C253.195 76.9451 253.44 76.7618 253.653 76.5271C253.866 76.2851 254.027 76.0064 254.137 75.6911V72.0831H254.885V76.9121C254.885 77.0148 254.907 77.0918 254.951 77.1431C254.995 77.1871 255.061 77.2128 255.149 77.2201V77.8141C255.061 77.8214 254.991 77.8251 254.94 77.8251C254.889 77.8324 254.841 77.8361 254.797 77.8361C254.65 77.8214 254.522 77.7628 254.412 77.6601C254.309 77.5574 254.254 77.4328 254.247 77.2861L254.225 76.5161C253.976 76.9561 253.635 77.3008 253.202 77.5501C252.777 77.7994 252.315 77.9241 251.816 77.9241C251.215 77.9241 250.76 77.7151 250.452 77.2971C250.144 76.8791 249.99 76.2631 249.99 75.4491ZM259.436 72.7431C258.938 72.7578 258.498 72.8971 258.116 73.1611C257.742 73.4251 257.478 73.7881 257.324 74.2501V77.8141H256.576V72.0831H257.28V73.4581C257.478 73.0548 257.739 72.7284 258.061 72.4791C258.391 72.2298 258.74 72.0904 259.106 72.0611C259.18 72.0538 259.242 72.0501 259.293 72.0501C259.352 72.0501 259.4 72.0538 259.436 72.0611V72.7431ZM263.293 72.7431C262.794 72.7578 262.354 72.8971 261.973 73.1611C261.599 73.4251 261.335 73.7881 261.181 74.2501V77.8141H260.433V72.0831H261.137V73.4581C261.335 73.0548 261.595 72.7284 261.918 72.4791C262.248 72.2298 262.596 72.0904 262.963 72.0611C263.036 72.0538 263.098 72.0501 263.15 72.0501C263.208 72.0501 263.256 72.0538 263.293 72.0611V72.7431ZM266.581 77.9241C266.171 77.9241 265.789 77.8471 265.437 77.6931C265.085 77.5318 264.781 77.3154 264.524 77.0441C264.268 76.7654 264.066 76.4464 263.919 76.0871C263.78 75.7278 263.71 75.3428 263.71 74.9321C263.71 74.3968 263.831 73.9054 264.073 73.4581C264.323 73.0108 264.664 72.6551 265.096 72.3911C265.529 72.1198 266.02 71.9841 266.57 71.9841C267.135 71.9841 267.626 72.1198 268.044 72.3911C268.47 72.6624 268.803 73.0218 269.045 73.4691C269.287 73.9091 269.408 74.3931 269.408 74.9211C269.408 74.9798 269.408 75.0384 269.408 75.0971C269.408 75.1484 269.405 75.1888 269.397 75.2181H264.491C264.528 75.6288 264.642 75.9954 264.832 76.3181C265.03 76.6334 265.283 76.8864 265.591 77.0771C265.907 77.2604 266.248 77.3521 266.614 77.3521C266.988 77.3521 267.34 77.2568 267.67 77.0661C268.008 76.8754 268.242 76.6261 268.374 76.3181L269.023 76.4941C268.906 76.7654 268.726 77.0111 268.484 77.2311C268.242 77.4511 267.956 77.6234 267.626 77.7481C267.304 77.8654 266.955 77.9241 266.581 77.9241ZM264.469 74.6791H268.704C268.675 74.2611 268.561 73.8944 268.363 73.5791C268.173 73.2638 267.92 73.0181 267.604 72.8421C267.296 72.6588 266.955 72.5671 266.581 72.5671C266.207 72.5671 265.866 72.6588 265.558 72.8421C265.25 73.0181 264.997 73.2674 264.799 73.5901C264.609 73.9054 264.499 74.2684 264.469 74.6791ZM275.381 77.8141H274.633V74.6131C274.633 73.9384 274.534 73.4471 274.336 73.1391C274.138 72.8238 273.826 72.6661 273.401 72.6661C273.107 72.6661 272.818 72.7394 272.532 72.8861C272.246 73.0254 271.993 73.2198 271.773 73.4691C271.56 73.7111 271.406 73.9898 271.311 74.3051V77.8141H270.563V72.0831H271.245V73.3811C271.399 73.1024 271.6 72.8604 271.85 72.6551C272.099 72.4424 272.381 72.2774 272.697 72.1601C273.012 72.0428 273.338 71.9841 273.676 71.9841C273.991 71.9841 274.259 72.0428 274.479 72.1601C274.699 72.2774 274.875 72.4461 275.007 72.6661C275.139 72.8788 275.234 73.1391 275.293 73.4471C275.351 73.7478 275.381 74.0851 275.381 74.4591V77.8141ZM279.672 77.5391C279.613 77.5611 279.522 77.6014 279.397 77.6601C279.272 77.7188 279.122 77.7701 278.946 77.8141C278.77 77.8581 278.579 77.8801 278.374 77.8801C278.161 77.8801 277.96 77.8398 277.769 77.7591C277.586 77.6784 277.439 77.5574 277.329 77.3961C277.219 77.2274 277.164 77.0221 277.164 76.7801V72.6771H276.372V72.0831H277.164V70.1471H277.912V72.0831H279.232V72.6771H277.912V76.5711C277.927 76.7764 278 76.9304 278.132 77.0331C278.271 77.1358 278.429 77.1871 278.605 77.1871C278.81 77.1871 278.997 77.1541 279.166 77.0881C279.335 77.0148 279.437 76.9634 279.474 76.9341L279.672 77.5391ZM283.025 74.9651C283.025 74.4224 283.135 73.9274 283.355 73.4801C283.583 73.0254 283.894 72.6624 284.29 72.3911C284.686 72.1198 285.137 71.9841 285.643 71.9841C286.12 71.9841 286.545 72.1124 286.919 72.3691C287.301 72.6184 287.598 72.9228 287.81 73.2821V69.7841H288.558V76.9121C288.558 77.0148 288.58 77.0918 288.624 77.1431C288.668 77.1871 288.734 77.2128 288.822 77.2201V77.8141C288.676 77.8361 288.562 77.8434 288.481 77.8361C288.327 77.8288 288.192 77.7664 288.074 77.6491C287.957 77.5318 287.898 77.4034 287.898 77.2641V76.7031C287.671 77.0771 287.363 77.3741 286.974 77.5941C286.586 77.8141 286.182 77.9241 285.764 77.9241C285.368 77.9241 285.002 77.8434 284.664 77.6821C284.334 77.5208 284.045 77.3008 283.795 77.0221C283.553 76.7434 283.363 76.4281 283.223 76.0761C283.091 75.7168 283.025 75.3464 283.025 74.9651ZM287.81 75.8451V74.0741C287.715 73.8101 287.561 73.5718 287.348 73.3591C287.136 73.1391 286.894 72.9668 286.622 72.8421C286.358 72.7101 286.094 72.6441 285.83 72.6441C285.522 72.6441 285.244 72.7101 284.994 72.8421C284.745 72.9668 284.529 73.1391 284.345 73.3591C284.169 73.5791 284.034 73.8284 283.938 74.1071C283.843 74.3858 283.795 74.6718 283.795 74.9651C283.795 75.2731 283.847 75.5664 283.949 75.8451C284.059 76.1238 284.213 76.3731 284.411 76.5931C284.609 76.8058 284.837 76.9708 285.093 77.0881C285.35 77.2054 285.629 77.2641 285.929 77.2641C286.12 77.2641 286.318 77.2274 286.523 77.1541C286.729 77.0808 286.923 76.9818 287.106 76.8571C287.297 76.7251 287.455 76.5711 287.579 76.3951C287.704 76.2191 287.781 76.0358 287.81 75.8451ZM289.791 76.1641C289.791 75.8048 289.894 75.4968 290.099 75.2401C290.304 74.9761 290.587 74.7744 290.946 74.6351C291.313 74.4884 291.734 74.4151 292.211 74.4151C292.49 74.4151 292.779 74.4371 293.08 74.4811C293.381 74.5251 293.648 74.5911 293.883 74.6791V74.1951C293.883 73.7111 293.74 73.3261 293.454 73.0401C293.168 72.7541 292.772 72.6111 292.266 72.6111C291.958 72.6111 291.654 72.6698 291.353 72.7871C291.06 72.8971 290.752 73.0621 290.429 73.2821L290.143 72.7541C290.517 72.4974 290.884 72.3068 291.243 72.1821C291.602 72.0501 291.969 71.9841 292.343 71.9841C293.047 71.9841 293.604 72.1858 294.015 72.5891C294.426 72.9924 294.631 73.5498 294.631 74.2611V76.9121C294.631 77.0148 294.653 77.0918 294.697 77.1431C294.741 77.1871 294.811 77.2128 294.906 77.2201V77.8141C294.825 77.8214 294.756 77.8288 294.697 77.8361C294.638 77.8434 294.594 77.8434 294.565 77.8361C294.382 77.8288 294.242 77.7701 294.147 77.6601C294.052 77.5501 294 77.4328 293.993 77.3081L293.982 76.8901C293.725 77.2201 293.392 77.4768 292.981 77.6601C292.57 77.8361 292.152 77.9241 291.727 77.9241C291.36 77.9241 291.027 77.8471 290.726 77.6931C290.433 77.5318 290.202 77.3191 290.033 77.0551C289.872 76.7838 289.791 76.4868 289.791 76.1641ZM293.63 76.6041C293.711 76.5014 293.773 76.4024 293.817 76.3071C293.861 76.2118 293.883 76.1274 293.883 76.0541V75.2181C293.634 75.1228 293.373 75.0494 293.102 74.9981C292.838 74.9468 292.57 74.9211 292.299 74.9211C291.764 74.9211 291.331 75.0274 291.001 75.2401C290.671 75.4528 290.506 75.7424 290.506 76.1091C290.506 76.3218 290.561 76.5234 290.671 76.7141C290.781 76.8974 290.942 77.0514 291.155 77.1761C291.368 77.2934 291.617 77.3521 291.903 77.3521C292.262 77.3521 292.596 77.2824 292.904 77.1431C293.219 77.0038 293.461 76.8241 293.63 76.6041ZM298.954 77.5391C298.895 77.5611 298.804 77.6014 298.679 77.6601C298.554 77.7188 298.404 77.7701 298.228 77.8141C298.052 77.8581 297.861 77.8801 297.656 77.8801C297.443 77.8801 297.242 77.8398 297.051 77.7591C296.868 77.6784 296.721 77.5574 296.611 77.3961C296.501 77.2274 296.446 77.0221 296.446 76.7801V72.6771H295.654V72.0831H296.446V70.1471H297.194V72.0831H298.514V72.6771H297.194V76.5711C297.209 76.7764 297.282 76.9304 297.414 77.0331C297.553 77.1358 297.711 77.1871 297.887 77.1871C298.092 77.1871 298.279 77.1541 298.448 77.0881C298.617 77.0148 298.719 76.9634 298.756 76.9341L298.954 77.5391ZM302.267 77.9241C301.856 77.9241 301.475 77.8471 301.123 77.6931C300.771 77.5318 300.467 77.3154 300.21 77.0441C299.953 76.7654 299.752 76.4464 299.605 76.0871C299.466 75.7278 299.396 75.3428 299.396 74.9321C299.396 74.3968 299.517 73.9054 299.759 73.4581C300.008 73.0108 300.349 72.6551 300.782 72.3911C301.215 72.1198 301.706 71.9841 302.256 71.9841C302.821 71.9841 303.312 72.1198 303.73 72.3911C304.155 72.6624 304.489 73.0218 304.731 73.4691C304.973 73.9091 305.094 74.3931 305.094 74.9211C305.094 74.9798 305.094 75.0384 305.094 75.0971C305.094 75.1484 305.09 75.1888 305.083 75.2181H300.177C300.214 75.6288 300.327 75.9954 300.518 76.3181C300.716 76.6334 300.969 76.8864 301.277 77.0771C301.592 77.2604 301.933 77.3521 302.3 77.3521C302.674 77.3521 303.026 77.2568 303.356 77.0661C303.693 76.8754 303.928 76.6261 304.06 76.3181L304.709 76.4941C304.592 76.7654 304.412 77.0111 304.17 77.2311C303.928 77.4511 303.642 77.6234 303.312 77.7481C302.989 77.8654 302.641 77.9241 302.267 77.9241ZM300.155 74.6791H304.39C304.361 74.2611 304.247 73.8944 304.049 73.5791C303.858 73.2638 303.605 73.0181 303.29 72.8421C302.982 72.6588 302.641 72.5671 302.267 72.5671C301.893 72.5671 301.552 72.6588 301.244 72.8421C300.936 73.0181 300.683 73.2674 300.485 73.5901C300.294 73.9054 300.184 74.2684 300.155 74.6791Z" fill="black"/>
<rect x="352.5" y="40.5" width="135" height="54" fill="#C2E5F9" stroke="#5090C9"/>
<path d="M395.432 60.8541C395.432 60.3774 395.513 59.9118 395.674 59.4571C395.843 58.9951 396.085 58.5771 396.4 58.2031C396.716 57.8218 397.104 57.5211 397.566 57.3011C398.028 57.0738 398.553 56.9601 399.139 56.9601C399.836 56.9601 400.43 57.1214 400.921 57.4441C401.42 57.7594 401.787 58.1664 402.021 58.6651L401.416 59.0391C401.248 58.6944 401.035 58.4231 400.778 58.2251C400.522 58.0198 400.247 57.8731 399.953 57.7851C399.667 57.6971 399.381 57.6531 399.095 57.6531C398.626 57.6531 398.212 57.7484 397.852 57.9391C397.493 58.1224 397.189 58.3718 396.939 58.6871C396.697 58.9951 396.514 59.3434 396.389 59.7321C396.265 60.1134 396.202 60.5021 396.202 60.8981C396.202 61.3308 396.276 61.7451 396.422 62.1411C396.569 62.5371 396.774 62.8891 397.038 63.1971C397.302 63.4978 397.61 63.7398 397.962 63.9231C398.322 64.0991 398.71 64.1871 399.128 64.1871C399.422 64.1871 399.722 64.1358 400.03 64.0331C400.338 63.9304 400.624 63.7728 400.888 63.5601C401.16 63.3474 401.376 63.0724 401.537 62.7351L402.175 63.0651C402.014 63.4538 401.765 63.7838 401.427 64.0551C401.09 64.3264 400.712 64.5318 400.294 64.6711C399.884 64.8104 399.48 64.8801 399.084 64.8801C398.549 64.8801 398.058 64.7664 397.61 64.5391C397.163 64.3044 396.774 63.9964 396.444 63.6151C396.122 63.2264 395.872 62.7938 395.696 62.3171C395.52 61.8331 395.432 61.3454 395.432 60.8541ZM405.778 64.9241C405.368 64.9241 404.986 64.8471 404.634 64.6931C404.29 64.5318 403.989 64.3154 403.732 64.0441C403.483 63.7654 403.289 63.4501 403.149 63.0981C403.01 62.7388 402.94 62.3611 402.94 61.9651C402.94 61.5544 403.01 61.1731 403.149 60.8211C403.289 60.4618 403.487 60.1464 403.743 59.8751C404 59.5964 404.301 59.3801 404.645 59.2261C404.997 59.0648 405.379 58.9841 405.789 58.9841C406.2 58.9841 406.578 59.0648 406.922 59.2261C407.267 59.3801 407.568 59.5964 407.824 59.8751C408.081 60.1464 408.279 60.4618 408.418 60.8211C408.558 61.1731 408.627 61.5544 408.627 61.9651C408.627 62.3611 408.558 62.7388 408.418 63.0981C408.279 63.4501 408.081 63.7654 407.824 64.0441C407.575 64.3154 407.274 64.5318 406.922 64.6931C406.578 64.8471 406.196 64.9241 405.778 64.9241ZM403.699 61.9761C403.699 62.4014 403.791 62.7901 403.974 63.1421C404.165 63.4868 404.418 63.7618 404.733 63.9671C405.049 64.1651 405.397 64.2641 405.778 64.2641C406.16 64.2641 406.508 64.1614 406.823 63.9561C407.139 63.7508 407.392 63.4721 407.582 63.1201C407.773 62.7608 407.868 62.3721 407.868 61.9541C407.868 61.5288 407.773 61.1401 407.582 60.7881C407.392 60.4361 407.139 60.1574 406.823 59.9521C406.508 59.7468 406.16 59.6441 405.778 59.6441C405.397 59.6441 405.049 59.7504 404.733 59.9631C404.425 60.1758 404.176 60.4581 403.985 60.8101C403.795 61.1548 403.699 61.5434 403.699 61.9761ZM414.696 64.8141H413.948V61.6131C413.948 60.9384 413.849 60.4471 413.651 60.1391C413.453 59.8238 413.142 59.6661 412.716 59.6661C412.423 59.6661 412.133 59.7394 411.847 59.8861C411.561 60.0254 411.308 60.2198 411.088 60.4691C410.876 60.7111 410.722 60.9898 410.626 61.3051V64.8141H409.878V59.0831H410.56V60.3811C410.714 60.1024 410.916 59.8604 411.165 59.6551C411.415 59.4424 411.697 59.2774 412.012 59.1601C412.328 59.0428 412.654 58.9841 412.991 58.9841C413.307 58.9841 413.574 59.0428 413.794 59.1601C414.014 59.2774 414.19 59.4461 414.322 59.6661C414.454 59.8788 414.55 60.1391 414.608 60.4471C414.667 60.7478 414.696 61.0851 414.696 61.4591V64.8141ZM418.173 64.9241C417.703 64.9241 417.267 64.8471 416.864 64.6931C416.46 64.5391 416.112 64.3044 415.819 63.9891L416.127 63.4611C416.449 63.7618 416.772 63.9818 417.095 64.1211C417.425 64.2531 417.773 64.3191 418.14 64.3191C418.587 64.3191 418.95 64.2311 419.229 64.0551C419.507 63.8718 419.647 63.6114 419.647 63.2741C419.647 63.0468 419.577 62.8744 419.438 62.7571C419.306 62.6324 419.111 62.5334 418.855 62.4601C418.605 62.3794 418.305 62.2951 417.953 62.2071C417.557 62.0971 417.223 61.9834 416.952 61.8661C416.688 61.7414 416.486 61.5874 416.347 61.4041C416.215 61.2134 416.149 60.9678 416.149 60.6671C416.149 60.2931 416.24 59.9851 416.424 59.7431C416.614 59.4938 416.871 59.3068 417.194 59.1821C417.524 59.0501 417.89 58.9841 418.294 58.9841C418.734 58.9841 419.122 59.0538 419.46 59.1931C419.797 59.3324 420.072 59.5268 420.285 59.7761L419.922 60.2821C419.716 60.0474 419.471 59.8751 419.185 59.7651C418.906 59.6478 418.594 59.5891 418.25 59.5891C418.015 59.5891 417.791 59.6221 417.579 59.6881C417.366 59.7468 417.19 59.8494 417.051 59.9961C416.919 60.1354 416.853 60.3298 416.853 60.5791C416.853 60.7844 416.904 60.9458 417.007 61.0631C417.109 61.1731 417.263 61.2684 417.469 61.3491C417.674 61.4224 417.927 61.5031 418.228 61.5911C418.66 61.7084 419.038 61.8294 419.361 61.9541C419.683 62.0714 419.933 62.2254 420.109 62.4161C420.285 62.6068 420.373 62.8744 420.373 63.2191C420.373 63.7544 420.171 64.1724 419.768 64.4731C419.364 64.7738 418.833 64.9241 418.173 64.9241ZM424.359 64.5391C424.3 64.5611 424.209 64.6014 424.084 64.6601C423.959 64.7188 423.809 64.7701 423.633 64.8141C423.457 64.8581 423.266 64.8801 423.061 64.8801C422.848 64.8801 422.647 64.8398 422.456 64.7591C422.273 64.6784 422.126 64.5574 422.016 64.3961C421.906 64.2274 421.851 64.0221 421.851 63.7801V59.6771H421.059V59.0831H421.851V57.1471H422.599V59.0831H423.919V59.6771H422.599V63.5711C422.614 63.7764 422.687 63.9304 422.819 64.0331C422.958 64.1358 423.116 64.1871 423.292 64.1871C423.497 64.1871 423.684 64.1541 423.853 64.0881C424.022 64.0148 424.124 63.9634 424.161 63.9341L424.359 64.5391ZM428.153 59.7431C427.655 59.7578 427.215 59.8971 426.833 60.1611C426.459 60.4251 426.195 60.7881 426.041 61.2501V64.8141H425.293V59.0831H425.997V60.4581C426.195 60.0548 426.456 59.7284 426.778 59.4791C427.108 59.2298 427.457 59.0904 427.823 59.0611C427.897 59.0538 427.959 59.0501 428.01 59.0501C428.069 59.0501 428.117 59.0538 428.153 59.0611V59.7431ZM429.095 62.4491V59.0831H429.843V62.3171C429.843 62.9698 429.953 63.4574 430.173 63.7801C430.4 64.1028 430.734 64.2641 431.174 64.2641C431.467 64.2641 431.75 64.2018 432.021 64.0771C432.3 63.9451 432.545 63.7618 432.758 63.5271C432.971 63.2851 433.132 63.0064 433.242 62.6911V59.0831H433.99V63.9121C433.99 64.0148 434.012 64.0918 434.056 64.1431C434.1 64.1871 434.166 64.2128 434.254 64.2201V64.8141C434.166 64.8214 434.096 64.8251 434.045 64.8251C433.994 64.8324 433.946 64.8361 433.902 64.8361C433.755 64.8214 433.627 64.7628 433.517 64.6601C433.414 64.5574 433.359 64.4328 433.352 64.2861L433.33 63.5161C433.081 63.9561 432.74 64.3008 432.307 64.5501C431.882 64.7994 431.42 64.9241 430.921 64.9241C430.32 64.9241 429.865 64.7151 429.557 64.2971C429.249 63.8791 429.095 63.2631 429.095 62.4491ZM438.167 64.9241C437.749 64.9241 437.364 64.8471 437.012 64.6931C436.668 64.5318 436.363 64.3118 436.099 64.0331C435.843 63.7544 435.641 63.4354 435.494 63.0761C435.355 62.7168 435.285 62.3354 435.285 61.9321C435.285 61.3894 435.406 60.8944 435.648 60.4471C435.89 59.9998 436.228 59.6441 436.66 59.3801C437.093 59.1161 437.592 58.9841 438.156 58.9841C438.692 58.9841 439.165 59.1088 439.575 59.3581C439.986 59.6001 440.29 59.9301 440.488 60.3481L439.762 60.5791C439.601 60.2858 439.374 60.0584 439.08 59.8971C438.794 59.7284 438.475 59.6441 438.123 59.6441C437.742 59.6441 437.394 59.7431 437.078 59.9411C436.763 60.1391 436.51 60.4104 436.319 60.7551C436.136 61.0998 436.044 61.4921 436.044 61.9321C436.044 62.3648 436.14 62.7571 436.33 63.1091C436.521 63.4611 436.774 63.7434 437.089 63.9561C437.405 64.1614 437.753 64.2641 438.134 64.2641C438.384 64.2641 438.622 64.2201 438.849 64.1321C439.084 64.0441 439.286 63.9268 439.454 63.7801C439.63 63.6261 439.748 63.4611 439.806 63.2851L440.543 63.5051C440.441 63.7764 440.268 64.0221 440.026 64.2421C439.792 64.4548 439.513 64.6234 439.19 64.7481C438.875 64.8654 438.534 64.9241 438.167 64.9241ZM444.468 64.5391C444.41 64.5611 444.318 64.6014 444.193 64.6601C444.069 64.7188 443.918 64.7701 443.742 64.8141C443.566 64.8581 443.376 64.8801 443.17 64.8801C442.958 64.8801 442.756 64.8398 442.565 64.7591C442.382 64.6784 442.235 64.5574 442.125 64.3961C442.015 64.2274 441.96 64.0221 441.96 63.7801V59.6771H441.168V59.0831H441.96V57.1471H442.708V59.0831H444.028V59.6771H442.708V63.5711C442.723 63.7764 442.796 63.9304 442.928 64.0331C443.068 64.1358 443.225 64.1871 443.401 64.1871C443.607 64.1871 443.794 64.1541 443.962 64.0881C444.131 64.0148 444.234 63.9634 444.27 63.9341L444.468 64.5391ZM396.459 70.0041V77.8141H395.7V74.1621H391.069V77.8141H390.299V70.0041H391.069V73.4801H395.7V70.0041H396.459ZM397.75 76.1641C397.75 75.8048 397.853 75.4968 398.058 75.2401C398.264 74.9761 398.546 74.7744 398.905 74.6351C399.272 74.4884 399.694 74.4151 400.17 74.4151C400.449 74.4151 400.739 74.4371 401.039 74.4811C401.34 74.5251 401.608 74.5911 401.842 74.6791V74.1951C401.842 73.7111 401.699 73.3261 401.413 73.0401C401.127 72.7541 400.731 72.6111 400.225 72.6111C399.917 72.6111 399.613 72.6698 399.312 72.7871C399.019 72.8971 398.711 73.0621 398.388 73.2821L398.102 72.7541C398.476 72.4974 398.843 72.3068 399.202 72.1821C399.562 72.0501 399.928 71.9841 400.302 71.9841C401.006 71.9841 401.564 72.1858 401.974 72.5891C402.385 72.9924 402.59 73.5498 402.59 74.2611V76.9121C402.59 77.0148 402.612 77.0918 402.656 77.1431C402.7 77.1871 402.77 77.2128 402.865 77.2201V77.8141C402.785 77.8214 402.715 77.8288 402.656 77.8361C402.598 77.8434 402.554 77.8434 402.524 77.8361C402.341 77.8288 402.202 77.7701 402.106 77.6601C402.011 77.5501 401.96 77.4328 401.952 77.3081L401.941 76.8901C401.685 77.2201 401.351 77.4768 400.94 77.6601C400.53 77.8361 400.112 77.9241 399.686 77.9241C399.32 77.9241 398.986 77.8471 398.685 77.6931C398.392 77.5318 398.161 77.3191 397.992 77.0551C397.831 76.7838 397.75 76.4868 397.75 76.1641ZM401.589 76.6041C401.67 76.5014 401.732 76.4024 401.776 76.3071C401.82 76.2118 401.842 76.1274 401.842 76.0541V75.2181C401.593 75.1228 401.333 75.0494 401.061 74.9981C400.797 74.9468 400.53 74.9211 400.258 74.9211C399.723 74.9211 399.29 75.0274 398.96 75.2401C398.63 75.4528 398.465 75.7424 398.465 76.1091C398.465 76.3218 398.52 76.5234 398.63 76.7141C398.74 76.8974 398.902 77.0514 399.114 77.1761C399.327 77.2934 399.576 77.3521 399.862 77.3521C400.222 77.3521 400.555 77.2824 400.863 77.1431C401.179 77.0038 401.421 76.8241 401.589 76.6041ZM412.732 77.8141H411.984V74.6131C411.984 73.9458 411.877 73.4544 411.665 73.1391C411.452 72.8238 411.137 72.6661 410.719 72.6661C410.286 72.6661 409.897 72.8201 409.553 73.1281C409.215 73.4361 408.977 73.8321 408.838 74.3161V77.8141H408.09V74.6131C408.09 73.9384 407.987 73.4471 407.782 73.1391C407.576 72.8238 407.261 72.6661 406.836 72.6661C406.41 72.6661 406.025 72.8164 405.681 73.1171C405.336 73.4178 405.094 73.8138 404.955 74.3051V77.8141H404.207V72.0831H404.889V73.3811C405.131 72.9338 405.439 72.5891 405.813 72.3471C406.194 72.1051 406.616 71.9841 407.078 71.9841C407.554 71.9841 407.939 72.1198 408.233 72.3911C408.526 72.6624 408.706 73.0181 408.772 73.4581C409.036 72.9741 409.351 72.6074 409.718 72.3581C410.092 72.1088 410.513 71.9841 410.983 71.9841C411.305 71.9841 411.577 72.0428 411.797 72.1601C412.024 72.2774 412.204 72.4461 412.336 72.6661C412.475 72.8788 412.574 73.1391 412.633 73.4471C412.699 73.7478 412.732 74.0851 412.732 74.4591V77.8141ZM414.315 77.8141V72.0831H415.063V77.8141H414.315ZM414.315 70.8841V69.7841H415.063V70.8841H414.315ZM416.743 69.7841H417.491V76.5161C417.491 76.8021 417.543 76.9891 417.645 77.0771C417.748 77.1651 417.873 77.2091 418.019 77.2091C418.151 77.2091 418.283 77.1944 418.415 77.1651C418.547 77.1358 418.661 77.1064 418.756 77.0771L418.888 77.6821C418.749 77.7408 418.577 77.7884 418.371 77.8251C418.173 77.8618 418.001 77.8801 417.854 77.8801C417.517 77.8801 417.246 77.7811 417.04 77.5831C416.842 77.3851 416.743 77.1138 416.743 76.7691V69.7841ZM422.458 77.5391C422.399 77.5611 422.307 77.6014 422.183 77.6601C422.058 77.7188 421.908 77.7701 421.732 77.8141C421.556 77.8581 421.365 77.8801 421.16 77.8801C420.947 77.8801 420.745 77.8398 420.555 77.7591C420.371 77.6784 420.225 77.5574 420.115 77.3961C420.005 77.2274 419.95 77.0221 419.95 76.7801V72.6771H419.158V72.0831H419.95V70.1471H420.698V72.0831H422.018V72.6771H420.698V76.5711C420.712 76.7764 420.786 76.9304 420.918 77.0331C421.057 77.1358 421.215 77.1871 421.391 77.1871C421.596 77.1871 421.783 77.1541 421.952 77.0881C422.12 77.0148 422.223 76.9634 422.26 76.9341L422.458 77.5391ZM425.737 77.9241C425.327 77.9241 424.945 77.8471 424.593 77.6931C424.249 77.5318 423.948 77.3154 423.691 77.0441C423.442 76.7654 423.248 76.4501 423.108 76.0981C422.969 75.7388 422.899 75.3611 422.899 74.9651C422.899 74.5544 422.969 74.1731 423.108 73.8211C423.248 73.4618 423.446 73.1464 423.702 72.8751C423.959 72.5964 424.26 72.3801 424.604 72.2261C424.956 72.0648 425.338 71.9841 425.748 71.9841C426.159 71.9841 426.537 72.0648 426.881 72.2261C427.226 72.3801 427.527 72.5964 427.783 72.8751C428.04 73.1464 428.238 73.4618 428.377 73.8211C428.517 74.1731 428.586 74.5544 428.586 74.9651C428.586 75.3611 428.517 75.7388 428.377 76.0981C428.238 76.4501 428.04 76.7654 427.783 77.0441C427.534 77.3154 427.233 77.5318 426.881 77.6931C426.537 77.8471 426.155 77.9241 425.737 77.9241ZM423.658 74.9761C423.658 75.4014 423.75 75.7901 423.933 76.1421C424.124 76.4868 424.377 76.7618 424.692 76.9671C425.008 77.1651 425.356 77.2641 425.737 77.2641C426.119 77.2641 426.467 77.1614 426.782 76.9561C427.098 76.7508 427.351 76.4721 427.541 76.1201C427.732 75.7608 427.827 75.3721 427.827 74.9541C427.827 74.5288 427.732 74.1401 427.541 73.7881C427.351 73.4361 427.098 73.1574 426.782 72.9521C426.467 72.7468 426.119 72.6441 425.737 72.6441C425.356 72.6441 425.008 72.7504 424.692 72.9631C424.384 73.1758 424.135 73.4581 423.944 73.8101C423.754 74.1548 423.658 74.5434 423.658 74.9761ZM434.655 77.8141H433.907V74.6131C433.907 73.9384 433.808 73.4471 433.61 73.1391C433.412 72.8238 433.101 72.6661 432.675 72.6661C432.382 72.6661 432.092 72.7394 431.806 72.8861C431.52 73.0254 431.267 73.2198 431.047 73.4691C430.835 73.7111 430.681 73.9898 430.585 74.3051V77.8141H429.837V72.0831H430.519V73.3811C430.673 73.1024 430.875 72.8604 431.124 72.6551C431.374 72.4424 431.656 72.2774 431.971 72.1601C432.287 72.0428 432.613 71.9841 432.95 71.9841C433.266 71.9841 433.533 72.0428 433.753 72.1601C433.973 72.2774 434.149 72.4461 434.281 72.6661C434.413 72.8788 434.509 73.1391 434.567 73.4471C434.626 73.7478 434.655 74.0851 434.655 74.4591V77.8141ZM436.251 77.8141V72.0831H436.999V77.8141H436.251ZM436.251 70.8841V69.7841H436.999V70.8841H436.251ZM438.184 76.1641C438.184 75.8048 438.287 75.4968 438.492 75.2401C438.697 74.9761 438.98 74.7744 439.339 74.6351C439.706 74.4884 440.127 74.4151 440.604 74.4151C440.883 74.4151 441.172 74.4371 441.473 74.4811C441.774 74.5251 442.041 74.5911 442.276 74.6791V74.1951C442.276 73.7111 442.133 73.3261 441.847 73.0401C441.561 72.7541 441.165 72.6111 440.659 72.6111C440.351 72.6111 440.047 72.6698 439.746 72.7871C439.453 72.8971 439.145 73.0621 438.822 73.2821L438.536 72.7541C438.91 72.4974 439.277 72.3068 439.636 72.1821C439.995 72.0501 440.362 71.9841 440.736 71.9841C441.44 71.9841 441.997 72.1858 442.408 72.5891C442.819 72.9924 443.024 73.5498 443.024 74.2611V76.9121C443.024 77.0148 443.046 77.0918 443.09 77.1431C443.134 77.1871 443.204 77.2128 443.299 77.2201V77.8141C443.218 77.8214 443.149 77.8288 443.09 77.8361C443.031 77.8434 442.987 77.8434 442.958 77.8361C442.775 77.8288 442.635 77.7701 442.54 77.6601C442.445 77.5501 442.393 77.4328 442.386 77.3081L442.375 76.8901C442.118 77.2201 441.785 77.4768 441.374 77.6601C440.963 77.8361 440.545 77.9241 440.12 77.9241C439.753 77.9241 439.42 77.8471 439.119 77.6931C438.826 77.5318 438.595 77.3191 438.426 77.0551C438.265 76.7838 438.184 76.4868 438.184 76.1641ZM442.023 76.6041C442.104 76.5014 442.166 76.4024 442.21 76.3071C442.254 76.2118 442.276 76.1274 442.276 76.0541V75.2181C442.027 75.1228 441.766 75.0494 441.495 74.9981C441.231 74.9468 440.963 74.9211 440.692 74.9211C440.157 74.9211 439.724 75.0274 439.394 75.2401C439.064 75.4528 438.899 75.7424 438.899 76.1091C438.899 76.3218 438.954 76.5234 439.064 76.7141C439.174 76.8974 439.335 77.0514 439.548 77.1761C439.761 77.2934 440.01 77.3521 440.296 77.3521C440.655 77.3521 440.989 77.2824 441.297 77.1431C441.612 77.0038 441.854 76.8241 442.023 76.6041ZM449.458 77.8141H448.71V74.6131C448.71 73.9384 448.611 73.4471 448.413 73.1391C448.215 72.8238 447.903 72.6661 447.478 72.6661C447.185 72.6661 446.895 72.7394 446.609 72.8861C446.323 73.0254 446.07 73.2198 445.85 73.4691C445.637 73.7111 445.483 73.9898 445.388 74.3051V77.8141H444.64V72.0831H445.322V73.3811C445.476 73.1024 445.678 72.8604 445.927 72.6551C446.176 72.4424 446.459 72.2774 446.774 72.1601C447.089 72.0428 447.416 71.9841 447.753 71.9841C448.068 71.9841 448.336 72.0428 448.556 72.1601C448.776 72.2774 448.952 72.4461 449.084 72.6661C449.216 72.8788 449.311 73.1391 449.37 73.4471C449.429 73.7478 449.458 74.0851 449.458 74.4591V77.8141Z" fill="black"/>
<rect x="512.5" y="40.5" width="135" height="54" fill="#C2E5F9" stroke="#5090C9"/>
<path d="M538.497 71.8691C537.947 71.8691 537.449 71.7591 537.001 71.5391C536.554 71.3191 536.169 71.0221 535.846 70.6481C535.524 70.2668 535.274 69.8414 535.098 69.3721C534.922 68.8954 534.834 68.4078 534.834 67.9091C534.834 67.3884 534.926 66.8934 535.109 66.4241C535.293 65.9474 535.549 65.5258 535.879 65.1591C536.217 64.7851 536.609 64.4918 537.056 64.2791C537.504 64.0591 537.988 63.9491 538.508 63.9491C539.058 63.9491 539.557 64.0628 540.004 64.2901C540.452 64.5174 540.833 64.8218 541.148 65.2031C541.471 65.5844 541.72 66.0098 541.896 66.4791C542.072 66.9484 542.16 67.4288 542.16 67.9201C542.16 68.4408 542.069 68.9394 541.885 69.4161C541.702 69.8854 541.445 70.3071 541.115 70.6811C540.785 71.0478 540.397 71.3374 539.949 71.5501C539.502 71.7628 539.018 71.8691 538.497 71.8691ZM535.604 67.9091C535.604 68.3344 535.674 68.7451 535.813 69.1411C535.953 69.5298 536.151 69.8781 536.407 70.1861C536.664 70.4868 536.968 70.7288 537.32 70.9121C537.68 71.0881 538.072 71.1761 538.497 71.1761C538.945 71.1761 539.344 71.0844 539.696 70.9011C540.056 70.7104 540.36 70.4611 540.609 70.1531C540.866 69.8378 541.06 69.4858 541.192 69.0971C541.324 68.7084 541.39 68.3124 541.39 67.9091C541.39 67.4838 541.321 67.0768 541.181 66.6881C541.042 66.2994 540.84 65.9511 540.576 65.6431C540.32 65.3351 540.015 65.0931 539.663 64.9171C539.311 64.7411 538.923 64.6531 538.497 64.6531C538.057 64.6531 537.658 64.7448 537.298 64.9281C536.946 65.1114 536.642 65.3608 536.385 65.6761C536.136 65.9841 535.942 66.3324 535.802 66.7211C535.67 67.1098 535.604 67.5058 535.604 67.9091ZM546.341 71.9241C545.864 71.9241 545.435 71.7994 545.054 71.5501C544.68 71.3008 544.383 70.9928 544.163 70.6261V74.1571H543.415V66.0831H544.086V67.1941C544.313 66.8348 544.618 66.5451 544.999 66.3251C545.38 66.0978 545.787 65.9841 546.22 65.9841C546.616 65.9841 546.979 66.0684 547.309 66.2371C547.639 66.3984 547.925 66.6184 548.167 66.8971C548.409 67.1758 548.596 67.4948 548.728 67.8541C548.867 68.2061 548.937 68.5728 548.937 68.9541C548.937 69.4894 548.827 69.9844 548.607 70.4391C548.394 70.8864 548.094 71.2458 547.705 71.5171C547.316 71.7884 546.862 71.9241 546.341 71.9241ZM546.132 71.2641C546.447 71.2641 546.73 71.2018 546.979 71.0771C547.228 70.9451 547.441 70.7691 547.617 70.5491C547.8 70.3291 547.94 70.0834 548.035 69.8121C548.13 69.5334 548.178 69.2474 548.178 68.9541C548.178 68.6461 548.123 68.3528 548.013 68.0741C547.91 67.7954 547.76 67.5498 547.562 67.3371C547.364 67.1244 547.137 66.9558 546.88 66.8311C546.623 66.7064 546.345 66.6441 546.044 66.6441C545.853 66.6441 545.655 66.6808 545.45 66.7541C545.245 66.8274 545.047 66.9338 544.856 67.0731C544.673 67.2051 544.519 67.3554 544.394 67.5241C544.269 67.6928 544.192 67.8724 544.163 68.0631V69.8231C544.28 70.0944 544.438 70.3401 544.636 70.5601C544.834 70.7728 545.061 70.9451 545.318 71.0771C545.582 71.2018 545.853 71.2641 546.132 71.2641ZM552.868 71.5391C552.81 71.5611 552.718 71.6014 552.593 71.6601C552.469 71.7188 552.318 71.7701 552.142 71.8141C551.966 71.8581 551.776 71.8801 551.57 71.8801C551.358 71.8801 551.156 71.8398 550.965 71.7591C550.782 71.6784 550.635 71.5574 550.525 71.3961C550.415 71.2274 550.36 71.0221 550.36 70.7801V66.6771H549.568V66.0831H550.36V64.1471H551.108V66.0831H552.428V66.6771H551.108V70.5711C551.123 70.7764 551.196 70.9304 551.328 71.0331C551.468 71.1358 551.625 71.1871 551.801 71.1871C552.007 71.1871 552.194 71.1541 552.362 71.0881C552.531 71.0148 552.634 70.9634 552.67 70.9341L552.868 71.5391ZM553.803 71.8141V66.0831H554.551V71.8141H553.803ZM553.803 64.8841V63.7841H554.551V64.8841H553.803ZM564.723 71.8141H563.975V68.6131C563.975 67.9458 563.869 67.4544 563.656 67.1391C563.444 66.8238 563.128 66.6661 562.71 66.6661C562.278 66.6661 561.889 66.8201 561.544 67.1281C561.207 67.4361 560.969 67.8321 560.829 68.3161V71.8141H560.081V68.6131C560.081 67.9384 559.979 67.4471 559.773 67.1391C559.568 66.8238 559.253 66.6661 558.827 66.6661C558.402 66.6661 558.017 66.8164 557.672 67.1171C557.328 67.4178 557.086 67.8138 556.946 68.3051V71.8141H556.198V66.0831H556.88V67.3811C557.122 66.9338 557.43 66.5891 557.804 66.3471C558.186 66.1051 558.607 65.9841 559.069 65.9841C559.546 65.9841 559.931 66.1198 560.224 66.3911C560.518 66.6624 560.697 67.0181 560.763 67.4581C561.027 66.9741 561.343 66.6074 561.709 66.3581C562.083 66.1088 562.505 65.9841 562.974 65.9841C563.297 65.9841 563.568 66.0428 563.788 66.1601C564.016 66.2774 564.195 66.4461 564.327 66.6661C564.467 66.8788 564.566 67.1391 564.624 67.4471C564.69 67.7478 564.723 68.0851 564.723 68.4591V71.8141ZM566.307 71.8141V66.0831H567.055V71.8141H566.307ZM566.307 64.8841V63.7841H567.055V64.8841H566.307ZM568.218 71.3081L572.057 66.6441H568.306V66.0831H572.904V66.5891L569.087 71.2531H572.893V71.8141H568.218V71.3081ZM576.473 71.9241C576.062 71.9241 575.681 71.8471 575.329 71.6931C574.977 71.5318 574.673 71.3154 574.416 71.0441C574.159 70.7654 573.958 70.4464 573.811 70.0871C573.672 69.7278 573.602 69.3428 573.602 68.9321C573.602 68.3968 573.723 67.9054 573.965 67.4581C574.214 67.0108 574.555 66.6551 574.988 66.3911C575.421 66.1198 575.912 65.9841 576.462 65.9841C577.027 65.9841 577.518 66.1198 577.936 66.3911C578.361 66.6624 578.695 67.0218 578.937 67.4691C579.179 67.9091 579.3 68.3931 579.3 68.9211C579.3 68.9798 579.3 69.0384 579.3 69.0971C579.3 69.1484 579.296 69.1888 579.289 69.2181H574.383C574.42 69.6288 574.533 69.9954 574.724 70.3181C574.922 70.6334 575.175 70.8864 575.483 71.0771C575.798 71.2604 576.139 71.3521 576.506 71.3521C576.88 71.3521 577.232 71.2568 577.562 71.0661C577.899 70.8754 578.134 70.6261 578.266 70.3181L578.915 70.4941C578.798 70.7654 578.618 71.0111 578.376 71.2311C578.134 71.4511 577.848 71.6234 577.518 71.7481C577.195 71.8654 576.847 71.9241 576.473 71.9241ZM574.361 68.6791H578.596C578.567 68.2611 578.453 67.8944 578.255 67.5791C578.064 67.2638 577.811 67.0181 577.496 66.8421C577.188 66.6588 576.847 66.5671 576.473 66.5671C576.099 66.5671 575.758 66.6588 575.45 66.8421C575.142 67.0181 574.889 67.2674 574.691 67.5901C574.5 67.9054 574.39 68.2684 574.361 68.6791ZM583.412 71.8141V64.0041H586.646C586.983 64.0041 587.291 64.0738 587.57 64.2131C587.856 64.3524 588.101 64.5431 588.307 64.7851C588.512 65.0198 588.673 65.2838 588.791 65.5771C588.908 65.8631 588.967 66.1564 588.967 66.4571C588.967 66.8824 588.871 67.2858 588.681 67.6671C588.497 68.0411 588.237 68.3454 587.9 68.5801C587.562 68.8148 587.166 68.9321 586.712 68.9321H584.182V71.8141H583.412ZM584.182 68.2501H586.679C586.987 68.2501 587.254 68.1658 587.482 67.9971C587.709 67.8284 587.885 67.6084 588.01 67.3371C588.134 67.0658 588.197 66.7724 588.197 66.4571C588.197 66.1344 588.123 65.8374 587.977 65.5661C587.83 65.2948 587.636 65.0821 587.394 64.9281C587.159 64.7668 586.899 64.6861 586.613 64.6861H584.182V68.2501ZM592.435 71.9241C592.025 71.9241 591.643 71.8471 591.291 71.6931C590.947 71.5318 590.646 71.3154 590.389 71.0441C590.14 70.7654 589.946 70.4501 589.806 70.0981C589.667 69.7388 589.597 69.3611 589.597 68.9651C589.597 68.5544 589.667 68.1731 589.806 67.8211C589.946 67.4618 590.144 67.1464 590.4 66.8751C590.657 66.5964 590.958 66.3801 591.302 66.2261C591.654 66.0648 592.036 65.9841 592.446 65.9841C592.857 65.9841 593.235 66.0648 593.579 66.2261C593.924 66.3801 594.225 66.5964 594.481 66.8751C594.738 67.1464 594.936 67.4618 595.075 67.8211C595.215 68.1731 595.284 68.5544 595.284 68.9651C595.284 69.3611 595.215 69.7388 595.075 70.0981C594.936 70.4501 594.738 70.7654 594.481 71.0441C594.232 71.3154 593.931 71.5318 593.579 71.6931C593.235 71.8471 592.853 71.9241 592.435 71.9241ZM590.356 68.9761C590.356 69.4014 590.448 69.7901 590.631 70.1421C590.822 70.4868 591.075 70.7618 591.39 70.9671C591.706 71.1651 592.054 71.2641 592.435 71.2641C592.817 71.2641 593.165 71.1614 593.48 70.9561C593.796 70.7508 594.049 70.4721 594.239 70.1201C594.43 69.7608 594.525 69.3721 594.525 68.9541C594.525 68.5288 594.43 68.1401 594.239 67.7881C594.049 67.4361 593.796 67.1574 593.48 66.9521C593.165 66.7468 592.817 66.6441 592.435 66.6441C592.054 66.6441 591.706 66.7504 591.39 66.9631C591.082 67.1758 590.833 67.4581 590.642 67.8101C590.452 68.1548 590.356 68.5434 590.356 68.9761ZM599.395 66.7431C598.897 66.7578 598.457 66.8971 598.075 67.1611C597.701 67.4251 597.437 67.7881 597.283 68.2501V71.8141H596.535V66.0831H597.239V67.4581C597.437 67.0548 597.698 66.7284 598.02 66.4791C598.35 66.2298 598.699 66.0904 599.065 66.0611C599.139 66.0538 599.201 66.0501 599.252 66.0501C599.311 66.0501 599.359 66.0538 599.395 66.0611V66.7431ZM603.142 71.5391C603.083 71.5611 602.991 71.6014 602.867 71.6601C602.742 71.7188 602.592 71.7701 602.416 71.8141C602.24 71.8581 602.049 71.8801 601.844 71.8801C601.631 71.8801 601.429 71.8398 601.239 71.7591C601.055 71.6784 600.909 71.5574 600.799 71.3961C600.689 71.2274 600.634 71.0221 600.634 70.7801V66.6771H599.842V66.0831H600.634V64.1471H601.382V66.0831H602.702V66.6771H601.382V70.5711C601.396 70.7764 601.47 70.9304 601.602 71.0331C601.741 71.1358 601.899 71.1871 602.075 71.1871C602.28 71.1871 602.467 71.1541 602.636 71.0881C602.804 71.0148 602.907 70.9634 602.944 70.9341L603.142 71.5391ZM604.351 71.8141V66.6771H603.559V66.0831H604.351V65.9291C604.351 65.4598 604.417 65.0564 604.549 64.7191C604.689 64.3818 604.883 64.1251 605.132 63.9491C605.389 63.7658 605.69 63.6741 606.034 63.6741C606.262 63.6741 606.482 63.7071 606.694 63.7731C606.907 63.8391 607.09 63.9271 607.244 64.0371L607.013 64.5761C606.918 64.4954 606.793 64.4331 606.639 64.3891C606.485 64.3451 606.331 64.3231 606.177 64.3231C605.833 64.3231 605.565 64.4588 605.374 64.7301C605.191 65.0014 605.099 65.3938 605.099 65.9071V66.0831H606.683V66.6771H605.099V71.8141H604.351ZM609.966 71.9241C609.556 71.9241 609.174 71.8471 608.822 71.6931C608.478 71.5318 608.177 71.3154 607.92 71.0441C607.671 70.7654 607.477 70.4501 607.337 70.0981C607.198 69.7388 607.128 69.3611 607.128 68.9651C607.128 68.5544 607.198 68.1731 607.337 67.8211C607.477 67.4618 607.675 67.1464 607.931 66.8751C608.188 66.5964 608.489 66.3801 608.833 66.2261C609.185 66.0648 609.567 65.9841 609.977 65.9841C610.388 65.9841 610.766 66.0648 611.11 66.2261C611.455 66.3801 611.756 66.5964 612.012 66.8751C612.269 67.1464 612.467 67.4618 612.606 67.8211C612.746 68.1731 612.815 68.5544 612.815 68.9651C612.815 69.3611 612.746 69.7388 612.606 70.0981C612.467 70.4501 612.269 70.7654 612.012 71.0441C611.763 71.3154 611.462 71.5318 611.11 71.6931C610.766 71.8471 610.384 71.9241 609.966 71.9241ZM607.887 68.9761C607.887 69.4014 607.979 69.7901 608.162 70.1421C608.353 70.4868 608.606 70.7618 608.921 70.9671C609.237 71.1651 609.585 71.2641 609.966 71.2641C610.348 71.2641 610.696 71.1614 611.011 70.9561C611.327 70.7508 611.58 70.4721 611.77 70.1201C611.961 69.7608 612.056 69.3721 612.056 68.9541C612.056 68.5288 611.961 68.1401 611.77 67.7881C611.58 67.4361 611.327 67.1574 611.011 66.9521C610.696 66.7468 610.348 66.6441 609.966 66.6441C609.585 66.6441 609.237 66.7504 608.921 66.9631C608.613 67.1758 608.364 67.4581 608.173 67.8101C607.983 68.1548 607.887 68.5434 607.887 68.9761ZM614.099 63.7841H614.847V70.5161C614.847 70.8021 614.899 70.9891 615.001 71.0771C615.104 71.1651 615.229 71.2091 615.375 71.2091C615.507 71.2091 615.639 71.1944 615.771 71.1651C615.903 71.1358 616.017 71.1064 616.112 71.0771L616.244 71.6821C616.105 71.7408 615.933 71.7884 615.727 71.8251C615.529 71.8618 615.357 71.8801 615.21 71.8801C614.873 71.8801 614.602 71.7811 614.396 71.5831C614.198 71.3851 614.099 71.1138 614.099 70.7691V63.7841ZM617.063 71.8141V66.0831H617.811V71.8141H617.063ZM617.063 64.8841V63.7841H617.811V64.8841H617.063ZM621.901 71.9241C621.49 71.9241 621.109 71.8471 620.757 71.6931C620.412 71.5318 620.112 71.3154 619.855 71.0441C619.606 70.7654 619.411 70.4501 619.272 70.0981C619.133 69.7388 619.063 69.3611 619.063 68.9651C619.063 68.5544 619.133 68.1731 619.272 67.8211C619.411 67.4618 619.609 67.1464 619.866 66.8751C620.123 66.5964 620.423 66.3801 620.768 66.2261C621.12 66.0648 621.501 65.9841 621.912 65.9841C622.323 65.9841 622.7 66.0648 623.045 66.2261C623.39 66.3801 623.69 66.5964 623.947 66.8751C624.204 67.1464 624.402 67.4618 624.541 67.8211C624.68 68.1731 624.75 68.5544 624.75 68.9651C624.75 69.3611 624.68 69.7388 624.541 70.0981C624.402 70.4501 624.204 70.7654 623.947 71.0441C623.698 71.3154 623.397 71.5318 623.045 71.6931C622.7 71.8471 622.319 71.9241 621.901 71.9241ZM619.822 68.9761C619.822 69.4014 619.914 69.7901 620.097 70.1421C620.288 70.4868 620.541 70.7618 620.856 70.9671C621.171 71.1651 621.52 71.2641 621.901 71.2641C622.282 71.2641 622.631 71.1614 622.946 70.9561C623.261 70.7508 623.514 70.4721 623.705 70.1201C623.896 69.7608 623.991 69.3721 623.991 68.9541C623.991 68.5288 623.896 68.1401 623.705 67.7881C623.514 67.4361 623.261 67.1574 622.946 66.9521C622.631 66.7468 622.282 66.6441 621.901 66.6441C621.52 66.6441 621.171 66.7504 620.856 66.9631C620.548 67.1758 620.299 67.4581 620.108 67.8101C619.917 68.1548 619.822 68.5434 619.822 68.9761Z" fill="black"/>
<rect x="672.5" y="40.5" width="135" height="54" fill="#C2E5F9" stroke="#5090C9"/>
<path d="M697.188 64.8141V57.0041H700.488C700.826 57.0041 701.134 57.0738 701.412 57.2131C701.691 57.3524 701.933 57.5431 702.138 57.7851C702.351 58.0198 702.512 58.2838 702.622 58.5771C702.74 58.8631 702.798 59.1564 702.798 59.4571C702.798 59.8311 702.725 60.1831 702.578 60.5131C702.439 60.8431 702.237 61.1218 701.973 61.3491C701.717 61.5764 701.412 61.7268 701.06 61.8001L702.974 64.8141H702.105L700.268 61.9321H697.958V64.8141H697.188ZM697.958 61.2501H700.51C700.818 61.2501 701.086 61.1658 701.313 60.9971C701.541 60.8284 701.717 60.6084 701.841 60.3371C701.966 60.0584 702.028 59.7651 702.028 59.4571C702.028 59.1418 701.955 58.8521 701.808 58.5881C701.669 58.3168 701.478 58.1004 701.236 57.9391C701.002 57.7704 700.738 57.6861 700.444 57.6861H697.958V61.2501ZM706.524 64.9241C706.113 64.9241 705.732 64.8471 705.38 64.6931C705.028 64.5318 704.724 64.3154 704.467 64.0441C704.21 63.7654 704.009 63.4464 703.862 63.0871C703.723 62.7278 703.653 62.3428 703.653 61.9321C703.653 61.3968 703.774 60.9054 704.016 60.4581C704.265 60.0108 704.606 59.6551 705.039 59.3911C705.472 59.1198 705.963 58.9841 706.513 58.9841C707.078 58.9841 707.569 59.1198 707.987 59.3911C708.412 59.6624 708.746 60.0218 708.988 60.4691C709.23 60.9091 709.351 61.3931 709.351 61.9211C709.351 61.9798 709.351 62.0384 709.351 62.0971C709.351 62.1484 709.347 62.1888 709.34 62.2181H704.434C704.471 62.6288 704.584 62.9954 704.775 63.3181C704.973 63.6334 705.226 63.8864 705.534 64.0771C705.849 64.2604 706.19 64.3521 706.557 64.3521C706.931 64.3521 707.283 64.2568 707.613 64.0661C707.95 63.8754 708.185 63.6261 708.317 63.3181L708.966 63.4941C708.849 63.7654 708.669 64.0111 708.427 64.2311C708.185 64.4511 707.899 64.6234 707.569 64.7481C707.246 64.8654 706.898 64.9241 706.524 64.9241ZM704.412 61.6791H708.647C708.618 61.2611 708.504 60.8944 708.306 60.5791C708.115 60.2638 707.862 60.0181 707.547 59.8421C707.239 59.6588 706.898 59.5671 706.524 59.5671C706.15 59.5671 705.809 59.6588 705.501 59.8421C705.193 60.0181 704.94 60.2674 704.742 60.5901C704.551 60.9054 704.441 61.2684 704.412 61.6791ZM713.201 64.5391C713.143 64.5611 713.051 64.6014 712.926 64.6601C712.802 64.7188 712.651 64.7701 712.475 64.8141C712.299 64.8581 712.109 64.8801 711.903 64.8801C711.691 64.8801 711.489 64.8398 711.298 64.7591C711.115 64.6784 710.968 64.5574 710.858 64.3961C710.748 64.2274 710.693 64.0221 710.693 63.7801V59.6771H709.901V59.0831H710.693V57.1471H711.441V59.0831H712.761V59.6771H711.441V63.5711C711.456 63.7764 711.529 63.9304 711.661 64.0331C711.801 64.1358 711.958 64.1871 712.134 64.1871C712.34 64.1871 712.527 64.1541 712.695 64.0881C712.864 64.0148 712.967 63.9634 713.003 63.9341L713.201 64.5391ZM714.081 62.4491V59.0831H714.829V62.3171C714.829 62.9698 714.939 63.4574 715.159 63.7801C715.386 64.1028 715.72 64.2641 716.16 64.2641C716.453 64.2641 716.735 64.2018 717.007 64.0771C717.285 63.9451 717.531 63.7618 717.744 63.5271C717.956 63.2851 718.118 63.0064 718.228 62.6911V59.0831H718.976V63.9121C718.976 64.0148 718.998 64.0918 719.042 64.1431C719.086 64.1871 719.152 64.2128 719.24 64.2201V64.8141C719.152 64.8214 719.082 64.8251 719.031 64.8251C718.979 64.8324 718.932 64.8361 718.888 64.8361C718.741 64.8214 718.613 64.7628 718.503 64.6601C718.4 64.5574 718.345 64.4328 718.338 64.2861L718.316 63.5161C718.066 63.9561 717.725 64.3008 717.293 64.5501C716.867 64.7994 716.405 64.9241 715.907 64.9241C715.305 64.9241 714.851 64.7151 714.543 64.2971C714.235 63.8791 714.081 63.2631 714.081 62.4491ZM723.527 59.7431C723.028 59.7578 722.588 59.8971 722.207 60.1611C721.833 60.4251 721.569 60.7881 721.415 61.2501V64.8141H720.667V59.0831H721.371V60.4581C721.569 60.0548 721.829 59.7284 722.152 59.4791C722.482 59.2298 722.83 59.0904 723.197 59.0611C723.27 59.0538 723.333 59.0501 723.384 59.0501C723.443 59.0501 723.49 59.0538 723.527 59.0611V59.7431ZM729.341 64.8141H728.593V61.6131C728.593 60.9384 728.494 60.4471 728.296 60.1391C728.098 59.8238 727.787 59.6661 727.361 59.6661C727.068 59.6661 726.778 59.7394 726.492 59.8861C726.206 60.0254 725.953 60.2198 725.733 60.4691C725.521 60.7111 725.367 60.9898 725.271 61.3051V64.8141H724.523V59.0831H725.205V60.3811C725.359 60.1024 725.561 59.8604 725.81 59.6551C726.06 59.4424 726.342 59.2774 726.657 59.1601C726.973 59.0428 727.299 58.9841 727.636 58.9841C727.952 58.9841 728.219 59.0428 728.439 59.1601C728.659 59.2774 728.835 59.4461 728.967 59.6661C729.099 59.8788 729.195 60.1391 729.253 60.4471C729.312 60.7478 729.341 61.0851 729.341 61.4591V64.8141ZM736.182 64.9241C735.772 64.9241 735.39 64.8471 735.038 64.6931C734.694 64.5318 734.393 64.3154 734.136 64.0441C733.887 63.7654 733.693 63.4501 733.553 63.0981C733.414 62.7388 733.344 62.3611 733.344 61.9651C733.344 61.5544 733.414 61.1731 733.553 60.8211C733.693 60.4618 733.891 60.1464 734.147 59.8751C734.404 59.5964 734.705 59.3801 735.049 59.2261C735.401 59.0648 735.783 58.9841 736.193 58.9841C736.604 58.9841 736.982 59.0648 737.326 59.2261C737.671 59.3801 737.972 59.5964 738.228 59.8751C738.485 60.1464 738.683 60.4618 738.822 60.8211C738.962 61.1731 739.031 61.5544 739.031 61.9651C739.031 62.3611 738.962 62.7388 738.822 63.0981C738.683 63.4501 738.485 63.7654 738.228 64.0441C737.979 64.3154 737.678 64.5318 737.326 64.6931C736.982 64.8471 736.6 64.9241 736.182 64.9241ZM734.103 61.9761C734.103 62.4014 734.195 62.7901 734.378 63.1421C734.569 63.4868 734.822 63.7618 735.137 63.9671C735.453 64.1651 735.801 64.2641 736.182 64.2641C736.564 64.2641 736.912 64.1614 737.227 63.9561C737.543 63.7508 737.796 63.4721 737.986 63.1201C738.177 62.7608 738.272 62.3721 738.272 61.9541C738.272 61.5288 738.177 61.1401 737.986 60.7881C737.796 60.4361 737.543 60.1574 737.227 59.9521C736.912 59.7468 736.564 59.6441 736.182 59.6441C735.801 59.6441 735.453 59.7504 735.137 59.9631C734.829 60.1758 734.58 60.4581 734.389 60.8101C734.199 61.1548 734.103 61.5434 734.103 61.9761ZM743.208 64.9241C742.732 64.9241 742.303 64.7994 741.921 64.5501C741.547 64.3008 741.25 63.9928 741.03 63.6261V67.1571H740.282V59.0831H740.953V60.1941C741.181 59.8348 741.485 59.5451 741.866 59.3251C742.248 59.0978 742.655 58.9841 743.087 58.9841C743.483 58.9841 743.846 59.0684 744.176 59.2371C744.506 59.3984 744.792 59.6184 745.034 59.8971C745.276 60.1758 745.463 60.4948 745.595 60.8541C745.735 61.2061 745.804 61.5728 745.804 61.9541C745.804 62.4894 745.694 62.9844 745.474 63.4391C745.262 63.8864 744.961 64.2458 744.572 64.5171C744.184 64.7884 743.729 64.9241 743.208 64.9241ZM742.999 64.2641C743.315 64.2641 743.597 64.2018 743.846 64.0771C744.096 63.9451 744.308 63.7691 744.484 63.5491C744.668 63.3291 744.807 63.0834 744.902 62.8121C744.998 62.5334 745.045 62.2474 745.045 61.9541C745.045 61.6461 744.99 61.3528 744.88 61.0741C744.778 60.7954 744.627 60.5498 744.429 60.3371C744.231 60.1244 744.004 59.9558 743.747 59.8311C743.491 59.7064 743.212 59.6441 742.911 59.6441C742.721 59.6441 742.523 59.6808 742.317 59.7541C742.112 59.8274 741.914 59.9338 741.723 60.0731C741.54 60.2051 741.386 60.3554 741.261 60.5241C741.137 60.6928 741.06 60.8724 741.03 61.0631V62.8231C741.148 63.0944 741.305 63.3401 741.503 63.5601C741.701 63.7728 741.929 63.9451 742.185 64.0771C742.449 64.2018 742.721 64.2641 742.999 64.2641ZM749.735 64.5391C749.677 64.5611 749.585 64.6014 749.46 64.6601C749.336 64.7188 749.185 64.7701 749.009 64.8141C748.833 64.8581 748.643 64.8801 748.437 64.8801C748.225 64.8801 748.023 64.8398 747.832 64.7591C747.649 64.6784 747.502 64.5574 747.392 64.3961C747.282 64.2274 747.227 64.0221 747.227 63.7801V59.6771H746.435V59.0831H747.227V57.1471H747.975V59.0831H749.295V59.6771H747.975V63.5711C747.99 63.7764 748.063 63.9304 748.195 64.0331C748.335 64.1358 748.492 64.1871 748.668 64.1871C748.874 64.1871 749.061 64.1541 749.229 64.0881C749.398 64.0148 749.501 63.9634 749.537 63.9341L749.735 64.5391ZM750.67 64.8141V59.0831H751.418V64.8141H750.67ZM750.67 57.8841V56.7841H751.418V57.8841H750.67ZM761.59 64.8141H760.842V61.6131C760.842 60.9458 760.736 60.4544 760.523 60.1391C760.311 59.8238 759.995 59.6661 759.577 59.6661C759.145 59.6661 758.756 59.8201 758.411 60.1281C758.074 60.4361 757.836 60.8321 757.696 61.3161V64.8141H756.948V61.6131C756.948 60.9384 756.846 60.4471 756.64 60.1391C756.435 59.8238 756.12 59.6661 755.694 59.6661C755.269 59.6661 754.884 59.8164 754.539 60.1171C754.195 60.4178 753.953 60.8138 753.813 61.3051V64.8141H753.065V59.0831H753.747V60.3811C753.989 59.9338 754.297 59.5891 754.671 59.3471C755.053 59.1051 755.474 58.9841 755.936 58.9841C756.413 58.9841 756.798 59.1198 757.091 59.3911C757.385 59.6624 757.564 60.0181 757.63 60.4581C757.894 59.9741 758.21 59.6074 758.576 59.3581C758.95 59.1088 759.372 58.9841 759.841 58.9841C760.164 58.9841 760.435 59.0428 760.655 59.1601C760.883 59.2774 761.062 59.4461 761.194 59.6661C761.334 59.8788 761.433 60.1391 761.491 60.4471C761.557 60.7478 761.59 61.0851 761.59 61.4591V64.8141ZM763.174 64.8141V59.0831H763.922V64.8141H763.174ZM763.174 57.8841V56.7841H763.922V57.8841H763.174ZM765.085 64.3081L768.924 59.6441H765.173V59.0831H769.771V59.5891L765.954 64.2531H769.76V64.8141H765.085V64.3081ZM773.34 64.9241C772.93 64.9241 772.548 64.8471 772.196 64.6931C771.844 64.5318 771.54 64.3154 771.283 64.0441C771.027 63.7654 770.825 63.4464 770.678 63.0871C770.539 62.7278 770.469 62.3428 770.469 61.9321C770.469 61.3968 770.59 60.9054 770.832 60.4581C771.082 60.0108 771.423 59.6551 771.855 59.3911C772.288 59.1198 772.779 58.9841 773.329 58.9841C773.894 58.9841 774.385 59.1198 774.803 59.3911C775.229 59.6624 775.562 60.0218 775.804 60.4691C776.046 60.9091 776.167 61.3931 776.167 61.9211C776.167 61.9798 776.167 62.0384 776.167 62.0971C776.167 62.1484 776.164 62.1888 776.156 62.2181H771.25C771.287 62.6288 771.401 62.9954 771.591 63.3181C771.789 63.6334 772.042 63.8864 772.35 64.0771C772.666 64.2604 773.007 64.3521 773.373 64.3521C773.747 64.3521 774.099 64.2568 774.429 64.0661C774.767 63.8754 775.001 63.6261 775.133 63.3181L775.782 63.4941C775.665 63.7654 775.485 64.0111 775.243 64.2311C775.001 64.4511 774.715 64.6234 774.385 64.7481C774.063 64.8654 773.714 64.9241 773.34 64.9241ZM771.228 61.6791H775.463C775.434 61.2611 775.32 60.8944 775.122 60.5791C774.932 60.2638 774.679 60.0181 774.363 59.8421C774.055 59.6588 773.714 59.5671 773.34 59.5671C772.966 59.5671 772.625 59.6588 772.317 59.8421C772.009 60.0181 771.756 60.2674 771.558 60.5901C771.368 60.9054 771.258 61.2684 771.228 61.6791ZM776.936 61.9651C776.936 61.4224 777.046 60.9274 777.266 60.4801C777.494 60.0254 777.805 59.6624 778.201 59.3911C778.597 59.1198 779.048 58.9841 779.554 58.9841C780.031 58.9841 780.456 59.1124 780.83 59.3691C781.212 59.6184 781.509 59.9228 781.721 60.2821V56.7841H782.469V63.9121C782.469 64.0148 782.491 64.0918 782.535 64.1431C782.579 64.1871 782.645 64.2128 782.733 64.2201V64.8141C782.587 64.8361 782.473 64.8434 782.392 64.8361C782.238 64.8288 782.103 64.7664 781.985 64.6491C781.868 64.5318 781.809 64.4034 781.809 64.2641V63.7031C781.582 64.0771 781.274 64.3741 780.885 64.5941C780.497 64.8141 780.093 64.9241 779.675 64.9241C779.279 64.9241 778.913 64.8434 778.575 64.6821C778.245 64.5208 777.956 64.3008 777.706 64.0221C777.464 63.7434 777.274 63.4281 777.134 63.0761C777.002 62.7168 776.936 62.3464 776.936 61.9651ZM781.721 62.8451V61.0741C781.626 60.8101 781.472 60.5718 781.259 60.3591C781.047 60.1391 780.805 59.9668 780.533 59.8421C780.269 59.7101 780.005 59.6441 779.741 59.6441C779.433 59.6441 779.155 59.7101 778.905 59.8421C778.656 59.9668 778.44 60.1391 778.256 60.3591C778.08 60.5791 777.945 60.8284 777.849 61.1071C777.754 61.3858 777.706 61.6718 777.706 61.9651C777.706 62.2731 777.758 62.5664 777.86 62.8451C777.97 63.1238 778.124 63.3731 778.322 63.5931C778.52 63.8058 778.748 63.9708 779.004 64.0881C779.261 64.2054 779.54 64.2641 779.84 64.2641C780.031 64.2641 780.229 64.2274 780.434 64.1541C780.64 64.0808 780.834 63.9818 781.017 63.8571C781.208 63.7251 781.366 63.5711 781.49 63.3951C781.615 63.2191 781.692 63.0358 781.721 62.8451ZM722.127 77.9241C721.65 77.9241 721.221 77.7994 720.84 77.5501C720.466 77.3008 720.169 76.9928 719.949 76.6261V80.1571H719.201V72.0831H719.872V73.1941C720.099 72.8348 720.403 72.5451 720.785 72.3251C721.166 72.0978 721.573 71.9841 722.006 71.9841C722.402 71.9841 722.765 72.0684 723.095 72.2371C723.425 72.3984 723.711 72.6184 723.953 72.8971C724.195 73.1758 724.382 73.4948 724.514 73.8541C724.653 74.2061 724.723 74.5728 724.723 74.9541C724.723 75.4894 724.613 75.9844 724.393 76.4391C724.18 76.8864 723.879 77.2458 723.491 77.5171C723.102 77.7884 722.647 77.9241 722.127 77.9241ZM721.918 77.2641C722.233 77.2641 722.515 77.2018 722.765 77.0771C723.014 76.9451 723.227 76.7691 723.403 76.5491C723.586 76.3291 723.725 76.0834 723.821 75.8121C723.916 75.5334 723.964 75.2474 723.964 74.9541C723.964 74.6461 723.909 74.3528 723.799 74.0741C723.696 73.7954 723.546 73.5498 723.348 73.3371C723.15 73.1244 722.922 72.9558 722.666 72.8311C722.409 72.7064 722.13 72.6441 721.83 72.6441C721.639 72.6441 721.441 72.6808 721.236 72.7541C721.03 72.8274 720.832 72.9338 720.642 73.0731C720.458 73.2051 720.304 73.3554 720.18 73.5241C720.055 73.6928 719.978 73.8724 719.949 74.0631V75.8231C720.066 76.0944 720.224 76.3401 720.422 76.5601C720.62 76.7728 720.847 76.9451 721.104 77.0771C721.368 77.2018 721.639 77.2641 721.918 77.2641ZM728.432 77.9241C728.021 77.9241 727.64 77.8471 727.288 77.6931C726.943 77.5318 726.642 77.3154 726.386 77.0441C726.136 76.7654 725.942 76.4501 725.803 76.0981C725.663 75.7388 725.594 75.3611 725.594 74.9651C725.594 74.5544 725.663 74.1731 725.803 73.8211C725.942 73.4618 726.14 73.1464 726.397 72.8751C726.653 72.5964 726.954 72.3801 727.299 72.2261C727.651 72.0648 728.032 71.9841 728.443 71.9841C728.853 71.9841 729.231 72.0648 729.576 72.2261C729.92 72.3801 730.221 72.5964 730.478 72.8751C730.734 73.1464 730.932 73.4618 731.072 73.8211C731.211 74.1731 731.281 74.5544 731.281 74.9651C731.281 75.3611 731.211 75.7388 731.072 76.0981C730.932 76.4501 730.734 76.7654 730.478 77.0441C730.228 77.3154 729.928 77.5318 729.576 77.6931C729.231 77.8471 728.85 77.9241 728.432 77.9241ZM726.353 74.9761C726.353 75.4014 726.444 75.7901 726.628 76.1421C726.818 76.4868 727.071 76.7618 727.387 76.9671C727.702 77.1651 728.05 77.2641 728.432 77.2641C728.813 77.2641 729.161 77.1614 729.477 76.9561C729.792 76.7508 730.045 76.4721 730.236 76.1201C730.426 75.7608 730.522 75.3721 730.522 74.9541C730.522 74.5288 730.426 74.1401 730.236 73.7881C730.045 73.4361 729.792 73.1574 729.477 72.9521C729.161 72.7468 728.813 72.6441 728.432 72.6441C728.05 72.6441 727.702 72.7504 727.387 72.9631C727.079 73.1758 726.829 73.4581 726.639 73.8101C726.448 74.1548 726.353 74.5434 726.353 74.9761ZM735.392 72.7431C734.893 72.7578 734.453 72.8971 734.072 73.1611C733.698 73.4251 733.434 73.7881 733.28 74.2501V77.8141H732.532V72.0831H733.236V73.4581C733.434 73.0548 733.694 72.7284 734.017 72.4791C734.347 72.2298 734.695 72.0904 735.062 72.0611C735.135 72.0538 735.197 72.0501 735.249 72.0501C735.307 72.0501 735.355 72.0538 735.392 72.0611V72.7431ZM739.138 77.5391C739.08 77.5611 738.988 77.6014 738.863 77.6601C738.739 77.7188 738.588 77.7701 738.412 77.8141C738.236 77.8581 738.046 77.8801 737.84 77.8801C737.628 77.8801 737.426 77.8398 737.235 77.7591C737.052 77.6784 736.905 77.5574 736.795 77.3961C736.685 77.2274 736.63 77.0221 736.63 76.7801V72.6771H735.838V72.0831H736.63V70.1471H737.378V72.0831H738.698V72.6771H737.378V76.5711C737.393 76.7764 737.466 76.9304 737.598 77.0331C737.738 77.1358 737.895 77.1871 738.071 77.1871C738.277 77.1871 738.464 77.1541 738.632 77.0881C738.801 77.0148 738.904 76.9634 738.94 76.9341L739.138 77.5391ZM740.348 77.8141V72.6771H739.556V72.0831H740.348V71.9291C740.348 71.4598 740.414 71.0564 740.546 70.7191C740.685 70.3818 740.879 70.1251 741.129 69.9491C741.385 69.7658 741.686 69.6741 742.031 69.6741C742.258 69.6741 742.478 69.7071 742.691 69.7731C742.903 69.8391 743.087 69.9271 743.241 70.0371L743.01 70.5761C742.914 70.4954 742.79 70.4331 742.636 70.3891C742.482 70.3451 742.328 70.3231 742.174 70.3231C741.829 70.3231 741.561 70.4588 741.371 70.7301C741.187 71.0014 741.096 71.3938 741.096 71.9071V72.0831H742.68V72.6771H741.096V77.8141H740.348ZM745.963 77.9241C745.552 77.9241 745.171 77.8471 744.819 77.6931C744.474 77.5318 744.174 77.3154 743.917 77.0441C743.668 76.7654 743.473 76.4501 743.334 76.0981C743.195 75.7388 743.125 75.3611 743.125 74.9651C743.125 74.5544 743.195 74.1731 743.334 73.8211C743.473 73.4618 743.671 73.1464 743.928 72.8751C744.185 72.5964 744.485 72.3801 744.83 72.2261C745.182 72.0648 745.563 71.9841 745.974 71.9841C746.385 71.9841 746.762 72.0648 747.107 72.2261C747.452 72.3801 747.752 72.5964 748.009 72.8751C748.266 73.1464 748.464 73.4618 748.603 73.8211C748.742 74.1731 748.812 74.5544 748.812 74.9651C748.812 75.3611 748.742 75.7388 748.603 76.0981C748.464 76.4501 748.266 76.7654 748.009 77.0441C747.76 77.3154 747.459 77.5318 747.107 77.6931C746.762 77.8471 746.381 77.9241 745.963 77.9241ZM743.884 74.9761C743.884 75.4014 743.976 75.7901 744.159 76.1421C744.35 76.4868 744.603 76.7618 744.918 76.9671C745.233 77.1651 745.582 77.2641 745.963 77.2641C746.344 77.2641 746.693 77.1614 747.008 76.9561C747.323 76.7508 747.576 76.4721 747.767 76.1201C747.958 75.7608 748.053 75.3721 748.053 74.9541C748.053 74.5288 747.958 74.1401 747.767 73.7881C747.576 73.4361 747.323 73.1574 747.008 72.9521C746.693 72.7468 746.344 72.6441 745.963 72.6441C745.582 72.6441 745.233 72.7504 744.918 72.9631C744.61 73.1758 744.361 73.4581 744.17 73.8101C743.979 74.1548 743.884 74.5434 743.884 74.9761ZM750.096 69.7841H750.844V76.5161C750.844 76.8021 750.895 76.9891 750.998 77.0771C751.101 77.1651 751.225 77.2091 751.372 77.2091C751.504 77.2091 751.636 77.1944 751.768 77.1651C751.9 77.1358 752.014 77.1064 752.109 77.0771L752.241 77.6821C752.102 77.7408 751.929 77.7884 751.724 77.8251C751.526 77.8618 751.354 77.8801 751.207 77.8801C750.87 77.8801 750.598 77.7811 750.393 77.5831C750.195 77.3851 750.096 77.1138 750.096 76.7691V69.7841ZM753.06 77.8141V72.0831H753.808V77.8141H753.06ZM753.06 70.8841V69.7841H753.808V70.8841H753.06ZM757.898 77.9241C757.487 77.9241 757.106 77.8471 756.754 77.6931C756.409 77.5318 756.108 77.3154 755.852 77.0441C755.602 76.7654 755.408 76.4501 755.269 76.0981C755.129 75.7388 755.06 75.3611 755.06 74.9651C755.06 74.5544 755.129 74.1731 755.269 73.8211C755.408 73.4618 755.606 73.1464 755.863 72.8751C756.119 72.5964 756.42 72.3801 756.765 72.2261C757.117 72.0648 757.498 71.9841 757.909 71.9841C758.319 71.9841 758.697 72.0648 759.042 72.2261C759.386 72.3801 759.687 72.5964 759.944 72.8751C760.2 73.1464 760.398 73.4618 760.538 73.8211C760.677 74.1731 760.747 74.5544 760.747 74.9651C760.747 75.3611 760.677 75.7388 760.538 76.0981C760.398 76.4501 760.2 76.7654 759.944 77.0441C759.694 77.3154 759.394 77.5318 759.042 77.6931C758.697 77.8471 758.316 77.9241 757.898 77.9241ZM755.819 74.9761C755.819 75.4014 755.91 75.7901 756.094 76.1421C756.284 76.4868 756.537 76.7618 756.853 76.9671C757.168 77.1651 757.516 77.2641 757.898 77.2641C758.279 77.2641 758.627 77.1614 758.943 76.9561C759.258 76.7508 759.511 76.4721 759.702 76.1201C759.892 75.7608 759.988 75.3721 759.988 74.9541C759.988 74.5288 759.892 74.1401 759.702 73.7881C759.511 73.4361 759.258 73.1574 758.943 72.9521C758.627 72.7468 758.279 72.6441 757.898 72.6441C757.516 72.6441 757.168 72.7504 756.853 72.9631C756.545 73.1758 756.295 73.4581 756.105 73.8101C755.914 74.1548 755.819 74.5434 755.819 74.9761Z" fill="black"/>
<path d="M188 67L183 64.1132L183 69.8868L188 67ZM172 67.5L183.5 67.5L183.5 66.5L172 66.5L172 67.5Z" fill="black"/>
<path d="M348 67L343 64.1132L343 69.8868L348 67ZM332 67.5L343.5 67.5L343.5 66.5L332 66.5L332 67.5Z" fill="black"/>
<path d="M508 67L503 64.1132L503 69.8868L508 67ZM492 67.5L503.5 67.5L503.5 66.5L492 66.5L492 67.5Z" fill="black"/>
<path d="M668 67L663 64.1132L663 69.8868L668 67ZM652 67.5L663.5 67.5L663.5 66.5L652 66.5L652 67.5Z" fill="black"/>
</svg>
