<svg width="325" height="268" viewBox="0 0 325 268" fill="none" xmlns="http://www.w3.org/2000/svg">
<rect width="325" height="268" fill="#F6F3ED"/>
<line x1="51" y1="223.5" x2="273" y2="223.5" stroke="black"/>
<line x1="51" y1="53.5" x2="273" y2="53.5" stroke="#BFBA9E" stroke-dasharray="2 2"/>
<line x1="51" y1="135.5" x2="273" y2="135.5" stroke="#BFBA9E" stroke-dasharray="2 2"/>
<rect x="66.5" y="58.5" width="31" height="165" fill="#C2E5F9" stroke="#5090C9"/>
<rect x="106.5" y="70.5" width="31" height="153" fill="#C2E5F9" stroke="#5090C9"/>
<rect x="146.5" y="47.5" width="31" height="176" fill="#C2E5F9" stroke="#5090C9"/>
<rect x="186.5" y="64.5" width="31" height="159" fill="#C2E5F9" stroke="#5090C9"/>
<rect x="226.5" y="58.5" width="31" height="165" fill="#C2E5F9" stroke="#5090C9"/>
<path d="M191.745 231.32H192.217L194.577 237H193.985L193.249 235.224H190.697L189.969 237H189.369L191.745 231.32ZM193.121 234.784L191.977 231.976L190.817 234.784H193.121ZM197.152 231.32H197.624L199.984 237H199.392L198.656 235.224H196.104L195.376 237H194.776L197.152 231.32ZM198.528 234.784L197.384 231.976L196.224 234.784H198.528ZM200.798 237V231.32H203.15C203.395 231.32 203.619 231.371 203.822 231.472C204.03 231.573 204.209 231.712 204.358 231.888C204.507 232.059 204.625 232.251 204.71 232.464C204.795 232.672 204.838 232.885 204.838 233.104C204.838 233.413 204.769 233.707 204.63 233.984C204.497 234.256 204.307 234.477 204.062 234.648C203.817 234.819 203.529 234.904 203.198 234.904H201.358V237H200.798ZM201.358 234.408H203.174C203.398 234.408 203.593 234.347 203.758 234.224C203.923 234.101 204.051 233.941 204.142 233.744C204.233 233.547 204.278 233.333 204.278 233.104C204.278 232.869 204.225 232.653 204.118 232.456C204.011 232.259 203.87 232.104 203.694 231.992C203.523 231.875 203.334 231.816 203.126 231.816H201.358V234.408ZM205.775 237V231.32H206.335V236.504H209.615V237H205.775Z" fill="black"/>
<path d="M112.656 231.32H113.128L115.488 237H114.896L114.16 235.224H111.608L110.88 237H110.28L112.656 231.32ZM114.032 234.784L112.888 231.976L111.728 234.784H114.032ZM121.334 237V232.376L119.278 235.968H118.926L116.862 232.376V237H116.302V231.32H116.878L119.094 235.208L121.326 231.32H121.894V237H121.334ZM122.853 236.56L126.717 231.816H122.917V231.32H127.365V231.76L123.549 236.504H127.357V237H122.853V236.56ZM128.909 232.352V237H128.349V231.32H128.813L132.541 236.056V231.328H133.101V237H132.581L128.909 232.352Z" fill="black"/>
<path d="M233.258 237.04C232.879 237.04 232.527 236.96 232.202 236.8C231.876 236.635 231.594 236.413 231.354 236.136C231.114 235.859 230.927 235.549 230.794 235.208C230.666 234.867 230.602 234.515 230.602 234.152C230.602 233.768 230.666 233.405 230.794 233.064C230.927 232.717 231.111 232.411 231.346 232.144C231.58 231.877 231.858 231.667 232.178 231.512C232.498 231.357 232.847 231.28 233.226 231.28C233.786 231.28 234.242 231.395 234.594 231.624C234.946 231.853 235.212 232.152 235.394 232.52L234.962 232.808C234.78 232.456 234.538 232.197 234.234 232.032C233.93 231.867 233.591 231.784 233.218 231.784C232.903 231.784 232.618 231.851 232.362 231.984C232.111 232.117 231.895 232.296 231.714 232.52C231.532 232.744 231.394 232.997 231.298 233.28C231.207 233.563 231.162 233.856 231.162 234.16C231.162 234.48 231.215 234.784 231.322 235.072C231.428 235.355 231.58 235.608 231.778 235.832C231.975 236.051 232.202 236.224 232.458 236.352C232.719 236.475 232.999 236.536 233.298 236.536C233.644 236.536 233.972 236.451 234.282 236.28C234.591 236.104 234.887 235.835 235.17 235.472V236.064C234.631 236.715 233.994 237.04 233.258 237.04ZM235.082 234.64H233.818V234.208H235.554V237H235.082V234.64ZM238.992 237.04C238.592 237.04 238.23 236.96 237.904 236.8C237.579 236.64 237.299 236.424 237.064 236.152C236.83 235.875 236.648 235.565 236.52 235.224C236.392 234.877 236.328 234.523 236.328 234.16C236.328 233.781 236.395 233.421 236.528 233.08C236.662 232.733 236.848 232.427 237.088 232.16C237.334 231.888 237.619 231.675 237.944 231.52C238.27 231.36 238.622 231.28 239 231.28C239.4 231.28 239.763 231.363 240.088 231.528C240.414 231.693 240.691 231.915 240.92 232.192C241.155 232.469 241.336 232.779 241.464 233.12C241.592 233.461 241.656 233.811 241.656 234.168C241.656 234.547 241.59 234.909 241.456 235.256C241.323 235.597 241.136 235.904 240.896 236.176C240.656 236.443 240.374 236.653 240.048 236.808C239.723 236.963 239.371 237.04 238.992 237.04ZM236.888 234.16C236.888 234.469 236.939 234.768 237.04 235.056C237.142 235.339 237.286 235.592 237.472 235.816C237.659 236.035 237.88 236.211 238.136 236.344C238.398 236.472 238.683 236.536 238.992 236.536C239.318 236.536 239.608 236.469 239.864 236.336C240.126 236.197 240.347 236.016 240.528 235.792C240.715 235.563 240.856 235.307 240.952 235.024C241.048 234.741 241.096 234.453 241.096 234.16C241.096 233.851 241.046 233.555 240.944 233.272C240.843 232.989 240.696 232.736 240.504 232.512C240.318 232.288 240.096 232.112 239.84 231.984C239.584 231.856 239.302 231.792 238.992 231.792C238.672 231.792 238.382 231.859 238.12 231.992C237.864 232.125 237.643 232.307 237.456 232.536C237.275 232.76 237.134 233.013 237.032 233.296C236.936 233.579 236.888 233.867 236.888 234.16ZM245 237.04C244.6 237.04 244.237 236.96 243.912 236.8C243.587 236.64 243.307 236.424 243.072 236.152C242.837 235.875 242.656 235.565 242.528 235.224C242.4 234.877 242.336 234.523 242.336 234.16C242.336 233.781 242.403 233.421 242.536 233.08C242.669 232.733 242.856 232.427 243.096 232.16C243.341 231.888 243.627 231.675 243.952 231.52C244.277 231.36 244.629 231.28 245.008 231.28C245.408 231.28 245.771 231.363 246.096 231.528C246.421 231.693 246.699 231.915 246.928 232.192C247.163 232.469 247.344 232.779 247.472 233.12C247.6 233.461 247.664 233.811 247.664 234.168C247.664 234.547 247.597 234.909 247.464 235.256C247.331 235.597 247.144 235.904 246.904 236.176C246.664 236.443 246.381 236.653 246.056 236.808C245.731 236.963 245.379 237.04 245 237.04ZM242.896 234.16C242.896 234.469 242.947 234.768 243.048 235.056C243.149 235.339 243.293 235.592 243.48 235.816C243.667 236.035 243.888 236.211 244.144 236.344C244.405 236.472 244.691 236.536 245 236.536C245.325 236.536 245.616 236.469 245.872 236.336C246.133 236.197 246.355 236.016 246.536 235.792C246.723 235.563 246.864 235.307 246.96 235.024C247.056 234.741 247.104 234.453 247.104 234.16C247.104 233.851 247.053 233.555 246.952 233.272C246.851 232.989 246.704 232.736 246.512 232.512C246.325 232.288 246.104 232.112 245.848 231.984C245.592 231.856 245.309 231.792 245 231.792C244.68 231.792 244.389 231.859 244.128 231.992C243.872 232.125 243.651 232.307 243.464 232.536C243.283 232.76 243.141 233.013 243.04 233.296C242.944 233.579 242.896 233.867 242.896 234.16ZM251 237.04C250.621 237.04 250.269 236.96 249.944 236.8C249.618 236.635 249.336 236.413 249.096 236.136C248.856 235.859 248.669 235.549 248.536 235.208C248.408 234.867 248.344 234.515 248.344 234.152C248.344 233.768 248.408 233.405 248.536 233.064C248.669 232.717 248.853 232.411 249.088 232.144C249.322 231.877 249.6 231.667 249.92 231.512C250.24 231.357 250.589 231.28 250.968 231.28C251.528 231.28 251.984 231.395 252.336 231.624C252.688 231.853 252.954 232.152 253.136 232.52L252.704 232.808C252.522 232.456 252.28 232.197 251.976 232.032C251.672 231.867 251.333 231.784 250.96 231.784C250.645 231.784 250.36 231.851 250.104 231.984C249.853 232.117 249.637 232.296 249.456 232.52C249.274 232.744 249.136 232.997 249.04 233.28C248.949 233.563 248.904 233.856 248.904 234.16C248.904 234.48 248.957 234.784 249.064 235.072C249.17 235.355 249.322 235.608 249.52 235.832C249.717 236.051 249.944 236.224 250.2 236.352C250.461 236.475 250.741 236.536 251.04 236.536C251.386 236.536 251.714 236.451 252.024 236.28C252.333 236.104 252.629 235.835 252.912 235.472V236.064C252.373 236.715 251.736 237.04 251 237.04ZM252.824 234.64H251.56V234.208H253.296V237H252.824V234.64Z" fill="black"/>
<path d="M156.01 237V232.376L153.954 235.968H153.602L151.538 232.376V237H150.978V231.32H151.554L153.77 235.208L156.002 231.32H156.57V237H156.01ZM161.313 232.384C161.233 232.293 161.14 232.213 161.033 232.144C160.927 232.069 160.807 232.005 160.673 231.952C160.54 231.899 160.396 231.856 160.241 231.824C160.092 231.792 159.932 231.776 159.761 231.776C159.265 231.776 158.9 231.872 158.665 232.064C158.436 232.251 158.321 232.507 158.321 232.832C158.321 233.056 158.375 233.232 158.481 233.36C158.593 233.488 158.767 233.592 159.001 233.672C159.236 233.752 159.535 233.835 159.897 233.92C160.303 234.005 160.652 234.107 160.945 234.224C161.239 234.341 161.465 234.501 161.625 234.704C161.785 234.901 161.865 235.171 161.865 235.512C161.865 235.773 161.815 236 161.713 236.192C161.612 236.384 161.471 236.544 161.289 236.672C161.108 236.8 160.892 236.896 160.641 236.96C160.391 237.019 160.116 237.048 159.817 237.048C159.524 237.048 159.241 237.019 158.969 236.96C158.703 236.896 158.449 236.805 158.209 236.688C157.969 236.565 157.745 236.411 157.537 236.224L157.817 235.768C157.919 235.875 158.039 235.976 158.177 236.072C158.321 236.163 158.479 236.245 158.649 236.32C158.825 236.395 159.012 236.453 159.209 236.496C159.412 236.533 159.62 236.552 159.833 236.552C160.287 236.552 160.639 236.469 160.889 236.304C161.145 236.139 161.273 235.893 161.273 235.568C161.273 235.333 161.209 235.147 161.081 235.008C160.953 234.864 160.761 234.747 160.505 234.656C160.249 234.565 159.935 234.477 159.561 234.392C159.167 234.301 158.833 234.2 158.561 234.088C158.289 233.976 158.084 233.829 157.945 233.648C157.812 233.461 157.745 233.216 157.745 232.912C157.745 232.56 157.831 232.264 158.001 232.024C158.177 231.779 158.417 231.595 158.721 231.472C159.025 231.344 159.375 231.28 159.769 231.28C160.02 231.28 160.252 231.307 160.465 231.36C160.684 231.408 160.884 231.48 161.065 231.576C161.252 231.672 161.425 231.792 161.585 231.936L161.313 232.384ZM162.853 237V231.32H166.581V231.816H163.413V233.904H166.085V234.368H163.413V237H162.853ZM171.596 231.816H169.572V237H169.012V231.816H166.988V231.32H171.596V231.816Z" fill="black"/>
<path d="M73.5064 232.352V237H72.9464V231.32H73.4104L77.1384 236.056V231.328H77.6984V237H77.1784L73.5064 232.352ZM79.1021 231.32L81.1341 236.304L83.1581 231.32H83.7421L81.3901 237H80.8781L78.5181 231.32H79.1021ZM84.5558 237V231.32H86.4838C87.0864 231.32 87.5878 231.448 87.9878 231.704C88.3931 231.955 88.6971 232.296 88.8998 232.728C89.1024 233.155 89.2038 233.629 89.2038 234.152C89.2038 234.728 89.0918 235.229 88.8678 235.656C88.6491 236.083 88.3344 236.413 87.9238 236.648C87.5184 236.883 87.0384 237 86.4838 237H84.5558ZM88.6438 234.152C88.6438 233.699 88.5584 233.296 88.3878 232.944C88.2224 232.592 87.9798 232.317 87.6598 232.12C87.3398 231.917 86.9478 231.816 86.4838 231.816H85.1158V236.504H86.4838C86.9531 236.504 87.3478 236.4 87.6678 236.192C87.9878 235.984 88.2304 235.704 88.3958 235.352C88.5611 234.995 88.6438 234.595 88.6438 234.152ZM91.8314 231.32H92.3034L94.6634 237H94.0714L93.3354 235.224H90.7834L90.0554 237H89.4554L91.8314 231.32ZM93.2074 234.784L92.0634 231.976L90.9034 234.784H93.2074Z" fill="black"/>
<path d="M65.125 24.055C64.575 24.055 64.0763 23.945 63.629 23.725C63.1817 23.505 62.7967 23.208 62.474 22.834C62.1513 22.4527 61.902 22.0273 61.726 21.558C61.55 21.0813 61.462 20.5937 61.462 20.095C61.462 19.5743 61.5537 19.0793 61.737 18.61C61.9203 18.1333 62.177 17.7117 62.507 17.345C62.8443 16.971 63.2367 16.6777 63.684 16.465C64.1313 16.245 64.6153 16.135 65.136 16.135C65.686 16.135 66.1847 16.2487 66.632 16.476C67.0793 16.7033 67.4607 17.0077 67.776 17.389C68.0987 17.7703 68.348 18.1957 68.524 18.665C68.7 19.1343 68.788 19.6147 68.788 20.106C68.788 20.6267 68.6963 21.1253 68.513 21.602C68.3297 22.0713 68.073 22.493 67.743 22.867C67.413 23.2337 67.0243 23.5233 66.577 23.736C66.1297 23.9487 65.6457 24.055 65.125 24.055ZM62.232 20.095C62.232 20.5203 62.3017 20.931 62.441 21.327C62.5803 21.7157 62.7783 22.064 63.035 22.372C63.2917 22.6727 63.596 22.9147 63.948 23.098C64.3073 23.274 64.6997 23.362 65.125 23.362C65.5723 23.362 65.972 23.2703 66.324 23.087C66.6833 22.8963 66.9877 22.647 67.237 22.339C67.4937 22.0237 67.688 21.6717 67.82 21.283C67.952 20.8943 68.018 20.4983 68.018 20.095C68.018 19.6697 67.9483 19.2627 67.809 18.874C67.6697 18.4853 67.468 18.137 67.204 17.829C66.9473 17.521 66.643 17.279 66.291 17.103C65.939 16.927 65.5503 16.839 65.125 16.839C64.685 16.839 64.2853 16.9307 63.926 17.114C63.574 17.2973 63.2697 17.5467 63.013 17.862C62.7637 18.17 62.5693 18.5183 62.43 18.907C62.298 19.2957 62.232 19.6917 62.232 20.095ZM72.9688 24.11C72.4921 24.11 72.0631 23.9853 71.6818 23.736C71.3078 23.4867 71.0108 23.1787 70.7908 22.812V26.343H70.0428V18.269H70.7138V19.38C70.9411 19.0207 71.2454 18.731 71.6268 18.511C72.0081 18.2837 72.4151 18.17 72.8478 18.17C73.2438 18.17 73.6068 18.2543 73.9368 18.423C74.2668 18.5843 74.5528 18.8043 74.7948 19.083C75.0368 19.3617 75.2238 19.6807 75.3558 20.04C75.4951 20.392 75.5648 20.7587 75.5648 21.14C75.5648 21.6753 75.4548 22.1703 75.2348 22.625C75.0221 23.0723 74.7214 23.4317 74.3328 23.703C73.9441 23.9743 73.4894 24.11 72.9688 24.11ZM72.7598 23.45C73.0751 23.45 73.3574 23.3877 73.6068 23.263C73.8561 23.131 74.0688 22.955 74.2448 22.735C74.4281 22.515 74.5674 22.2693 74.6628 21.998C74.7581 21.7193 74.8058 21.4333 74.8058 21.14C74.8058 20.832 74.7508 20.5387 74.6408 20.26C74.5381 19.9813 74.3878 19.7357 74.1898 19.523C73.9918 19.3103 73.7644 19.1417 73.5078 19.017C73.2511 18.8923 72.9724 18.83 72.6718 18.83C72.4811 18.83 72.2831 18.8667 72.0778 18.94C71.8724 19.0133 71.6744 19.1197 71.4838 19.259C71.3004 19.391 71.1464 19.5413 71.0218 19.71C70.8971 19.8787 70.8201 20.0583 70.7908 20.249V22.009C70.9081 22.2803 71.0658 22.526 71.2638 22.746C71.4618 22.9587 71.6891 23.131 71.9458 23.263C72.2098 23.3877 72.4811 23.45 72.7598 23.45ZM79.4959 23.725C79.4372 23.747 79.3456 23.7873 79.2209 23.846C79.0962 23.9047 78.9459 23.956 78.7699 24C78.5939 24.044 78.4032 24.066 78.1979 24.066C77.9852 24.066 77.7836 24.0257 77.5929 23.945C77.4096 23.8643 77.2629 23.7433 77.1529 23.582C77.0429 23.4133 76.9879 23.208 76.9879 22.966V18.863H76.1959V18.269H76.9879V16.333H77.7359V18.269H79.0559V18.863H77.7359V22.757C77.7506 22.9623 77.8239 23.1163 77.9559 23.219C78.0952 23.3217 78.2529 23.373 78.4289 23.373C78.6342 23.373 78.8212 23.34 78.9899 23.274C79.1586 23.2007 79.2612 23.1493 79.2979 23.12L79.4959 23.725ZM80.4305 24V18.269H81.1785V24H80.4305ZM80.4305 17.07V15.97H81.1785V17.07H80.4305ZM91.351 24H90.603V20.799C90.603 20.1317 90.4966 19.6403 90.284 19.325C90.0713 19.0097 89.756 18.852 89.338 18.852C88.9053 18.852 88.5166 19.006 88.172 19.314C87.8346 19.622 87.5963 20.018 87.457 20.502V24H86.709V20.799C86.709 20.1243 86.6063 19.633 86.401 19.325C86.1956 19.0097 85.8803 18.852 85.455 18.852C85.0296 18.852 84.6446 19.0023 84.3 19.303C83.9553 19.6037 83.7133 19.9997 83.574 20.491V24H82.826V18.269H83.508V19.567C83.75 19.1197 84.058 18.775 84.432 18.533C84.8133 18.291 85.235 18.17 85.697 18.17C86.1736 18.17 86.5586 18.3057 86.852 18.577C87.1453 18.8483 87.325 19.204 87.391 19.644C87.655 19.16 87.9703 18.7933 88.337 18.544C88.711 18.2947 89.1326 18.17 89.602 18.17C89.9246 18.17 90.196 18.2287 90.416 18.346C90.6433 18.4633 90.823 18.632 90.955 18.852C91.0943 19.0647 91.1933 19.325 91.252 19.633C91.318 19.9337 91.351 20.271 91.351 20.645V24ZM92.4724 22.35C92.4724 21.9907 92.575 21.6827 92.7804 21.426C92.9857 21.162 93.268 20.9603 93.6274 20.821C93.994 20.6743 94.4157 20.601 94.8924 20.601C95.171 20.601 95.4607 20.623 95.7614 20.667C96.062 20.711 96.3297 20.777 96.5644 20.865V20.381C96.5644 19.897 96.4214 19.512 96.1354 19.226C95.8494 18.94 95.4534 18.797 94.9474 18.797C94.6394 18.797 94.335 18.8557 94.0344 18.973C93.741 19.083 93.433 19.248 93.1104 19.468L92.8244 18.94C93.1984 18.6833 93.565 18.4927 93.9244 18.368C94.2837 18.236 94.6504 18.17 95.0244 18.17C95.7284 18.17 96.2857 18.3717 96.6964 18.775C97.107 19.1783 97.3124 19.7357 97.3124 20.447V23.098C97.3124 23.2007 97.3344 23.2777 97.3784 23.329C97.4224 23.373 97.492 23.3987 97.5874 23.406V24C97.5067 24.0073 97.437 24.0147 97.3784 24.022C97.3197 24.0293 97.2757 24.0293 97.2464 24.022C97.063 24.0147 96.9237 23.956 96.8284 23.846C96.733 23.736 96.6817 23.6187 96.6744 23.494L96.6634 23.076C96.4067 23.406 96.073 23.6627 95.6624 23.846C95.2517 24.022 94.8337 24.11 94.4084 24.11C94.0417 24.11 93.708 24.033 93.4074 23.879C93.114 23.7177 92.883 23.505 92.7144 23.241C92.553 22.9697 92.4724 22.6727 92.4724 22.35ZM96.3114 22.79C96.392 22.6873 96.4544 22.5883 96.4984 22.493C96.5424 22.3977 96.5644 22.3133 96.5644 22.24V21.404C96.315 21.3087 96.0547 21.2353 95.7834 21.184C95.5194 21.1327 95.2517 21.107 94.9804 21.107C94.445 21.107 94.0124 21.2133 93.6824 21.426C93.3524 21.6387 93.1874 21.9283 93.1874 22.295C93.1874 22.5077 93.2424 22.7093 93.3524 22.9C93.4624 23.0833 93.6237 23.2373 93.8364 23.362C94.049 23.4793 94.2984 23.538 94.5844 23.538C94.9437 23.538 95.2774 23.4683 95.5854 23.329C95.9007 23.1897 96.1427 23.01 96.3114 22.79ZM98.9615 15.97H99.7095V22.702C99.7095 22.988 99.7608 23.175 99.8635 23.263C99.9662 23.351 100.091 23.395 100.238 23.395C100.37 23.395 100.502 23.3803 100.634 23.351C100.766 23.3217 100.879 23.2923 100.975 23.263L101.107 23.868C100.967 23.9267 100.795 23.9743 100.59 24.011C100.392 24.0477 100.219 24.066 100.073 24.066C99.7352 24.066 99.4638 23.967 99.2585 23.769C99.0605 23.571 98.9615 23.2997 98.9615 22.955V15.97ZM104.55 24V16.19H107.784C108.122 16.19 108.43 16.2597 108.708 16.399C108.994 16.5383 109.24 16.729 109.445 16.971C109.651 17.2057 109.812 17.4697 109.929 17.763C110.047 18.049 110.105 18.3423 110.105 18.643C110.105 19.0683 110.01 19.4717 109.819 19.853C109.636 20.227 109.376 20.5313 109.038 20.766C108.701 21.0007 108.305 21.118 107.85 21.118H105.32V24H104.55ZM105.32 20.436H107.817C108.125 20.436 108.393 20.3517 108.62 20.183C108.848 20.0143 109.024 19.7943 109.148 19.523C109.273 19.2517 109.335 18.9583 109.335 18.643C109.335 18.3203 109.262 18.0233 109.115 17.752C108.969 17.4807 108.774 17.268 108.532 17.114C108.298 16.9527 108.037 16.872 107.751 16.872H105.32V20.436ZM113.574 24.11C113.163 24.11 112.782 24.033 112.43 23.879C112.085 23.7177 111.784 23.5013 111.528 23.23C111.278 22.9513 111.084 22.636 110.945 22.284C110.805 21.9247 110.736 21.547 110.736 21.151C110.736 20.7403 110.805 20.359 110.945 20.007C111.084 19.6477 111.282 19.3323 111.539 19.061C111.795 18.7823 112.096 18.566 112.441 18.412C112.793 18.2507 113.174 18.17 113.585 18.17C113.995 18.17 114.373 18.2507 114.718 18.412C115.062 18.566 115.363 18.7823 115.62 19.061C115.876 19.3323 116.074 19.6477 116.214 20.007C116.353 20.359 116.423 20.7403 116.423 21.151C116.423 21.547 116.353 21.9247 116.214 22.284C116.074 22.636 115.876 22.9513 115.62 23.23C115.37 23.5013 115.07 23.7177 114.718 23.879C114.373 24.033 113.992 24.11 113.574 24.11ZM111.495 21.162C111.495 21.5873 111.586 21.976 111.77 22.328C111.96 22.6727 112.213 22.9477 112.529 23.153C112.844 23.351 113.192 23.45 113.574 23.45C113.955 23.45 114.303 23.3473 114.619 23.142C114.934 22.9367 115.187 22.658 115.378 22.306C115.568 21.9467 115.664 21.558 115.664 21.14C115.664 20.7147 115.568 20.326 115.378 19.974C115.187 19.622 114.934 19.3433 114.619 19.138C114.303 18.9327 113.955 18.83 113.574 18.83C113.192 18.83 112.844 18.9363 112.529 19.149C112.221 19.3617 111.971 19.644 111.781 19.996C111.59 20.3407 111.495 20.7293 111.495 21.162ZM120.534 18.929C120.035 18.9437 119.595 19.083 119.214 19.347C118.84 19.611 118.576 19.974 118.422 20.436V24H117.674V18.269H118.378V19.644C118.576 19.2407 118.836 18.9143 119.159 18.665C119.489 18.4157 119.837 18.2763 120.204 18.247C120.277 18.2397 120.339 18.236 120.391 18.236C120.449 18.236 120.497 18.2397 120.534 18.247V18.929ZM124.28 23.725C124.221 23.747 124.13 23.7873 124.005 23.846C123.88 23.9047 123.73 23.956 123.554 24C123.378 24.044 123.187 24.066 122.982 24.066C122.769 24.066 122.568 24.0257 122.377 23.945C122.194 23.8643 122.047 23.7433 121.937 23.582C121.827 23.4133 121.772 23.208 121.772 22.966V18.863H120.98V18.269H121.772V16.333H122.52V18.269H123.84V18.863H122.52V22.757C122.535 22.9623 122.608 23.1163 122.74 23.219C122.879 23.3217 123.037 23.373 123.213 23.373C123.418 23.373 123.605 23.34 123.774 23.274C123.943 23.2007 124.045 23.1493 124.082 23.12L124.28 23.725ZM125.49 24V18.863H124.698V18.269H125.49V18.115C125.49 17.6457 125.556 17.2423 125.688 16.905C125.827 16.5677 126.021 16.311 126.271 16.135C126.527 15.9517 126.828 15.86 127.173 15.86C127.4 15.86 127.62 15.893 127.833 15.959C128.045 16.025 128.229 16.113 128.383 16.223L128.152 16.762C128.056 16.6813 127.932 16.619 127.778 16.575C127.624 16.531 127.47 16.509 127.316 16.509C126.971 16.509 126.703 16.6447 126.513 16.916C126.329 17.1873 126.238 17.5797 126.238 18.093V18.269H127.822V18.863H126.238V24H125.49ZM131.105 24.11C130.694 24.11 130.313 24.033 129.961 23.879C129.616 23.7177 129.316 23.5013 129.059 23.23C128.81 22.9513 128.615 22.636 128.476 22.284C128.337 21.9247 128.267 21.547 128.267 21.151C128.267 20.7403 128.337 20.359 128.476 20.007C128.615 19.6477 128.813 19.3323 129.07 19.061C129.327 18.7823 129.627 18.566 129.972 18.412C130.324 18.2507 130.705 18.17 131.116 18.17C131.527 18.17 131.904 18.2507 132.249 18.412C132.594 18.566 132.894 18.7823 133.151 19.061C133.408 19.3323 133.606 19.6477 133.745 20.007C133.884 20.359 133.954 20.7403 133.954 21.151C133.954 21.547 133.884 21.9247 133.745 22.284C133.606 22.636 133.408 22.9513 133.151 23.23C132.902 23.5013 132.601 23.7177 132.249 23.879C131.904 24.033 131.523 24.11 131.105 24.11ZM129.026 21.162C129.026 21.5873 129.118 21.976 129.301 22.328C129.492 22.6727 129.745 22.9477 130.06 23.153C130.375 23.351 130.724 23.45 131.105 23.45C131.486 23.45 131.835 23.3473 132.15 23.142C132.465 22.9367 132.718 22.658 132.909 22.306C133.1 21.9467 133.195 21.558 133.195 21.14C133.195 20.7147 133.1 20.326 132.909 19.974C132.718 19.622 132.465 19.3433 132.15 19.138C131.835 18.9327 131.486 18.83 131.105 18.83C130.724 18.83 130.375 18.9363 130.06 19.149C129.752 19.3617 129.503 19.644 129.312 19.996C129.121 20.3407 129.026 20.7293 129.026 21.162ZM135.238 15.97H135.986V22.702C135.986 22.988 136.037 23.175 136.14 23.263C136.243 23.351 136.367 23.395 136.514 23.395C136.646 23.395 136.778 23.3803 136.91 23.351C137.042 23.3217 137.156 23.2923 137.251 23.263L137.383 23.868C137.244 23.9267 137.071 23.9743 136.866 24.011C136.668 24.0477 136.496 24.066 136.349 24.066C136.012 24.066 135.74 23.967 135.535 23.769C135.337 23.571 135.238 23.2997 135.238 22.955V15.97ZM138.202 24V18.269H138.95V24H138.202ZM138.202 17.07V15.97H138.95V17.07H138.202ZM143.039 24.11C142.629 24.11 142.247 24.033 141.895 23.879C141.551 23.7177 141.25 23.5013 140.993 23.23C140.744 22.9513 140.55 22.636 140.41 22.284C140.271 21.9247 140.201 21.547 140.201 21.151C140.201 20.7403 140.271 20.359 140.41 20.007C140.55 19.6477 140.748 19.3323 141.004 19.061C141.261 18.7823 141.562 18.566 141.906 18.412C142.258 18.2507 142.64 18.17 143.05 18.17C143.461 18.17 143.839 18.2507 144.183 18.412C144.528 18.566 144.829 18.7823 145.085 19.061C145.342 19.3323 145.54 19.6477 145.679 20.007C145.819 20.359 145.888 20.7403 145.888 21.151C145.888 21.547 145.819 21.9247 145.679 22.284C145.54 22.636 145.342 22.9513 145.085 23.23C144.836 23.5013 144.535 23.7177 144.183 23.879C143.839 24.033 143.457 24.11 143.039 24.11ZM140.96 21.162C140.96 21.5873 141.052 21.976 141.235 22.328C141.426 22.6727 141.679 22.9477 141.994 23.153C142.31 23.351 142.658 23.45 143.039 23.45C143.421 23.45 143.769 23.3473 144.084 23.142C144.4 22.9367 144.653 22.658 144.843 22.306C145.034 21.9467 145.129 21.558 145.129 21.14C145.129 20.7147 145.034 20.326 144.843 19.974C144.653 19.622 144.4 19.3433 144.084 19.138C143.769 18.9327 143.421 18.83 143.039 18.83C142.658 18.83 142.31 18.9363 141.994 19.149C141.686 19.3617 141.437 19.644 141.246 19.996C141.056 20.3407 140.96 20.7293 140.96 21.162ZM154.662 17.653C154.552 17.5283 154.424 17.4183 154.277 17.323C154.13 17.2203 153.965 17.1323 153.782 17.059C153.599 16.9857 153.401 16.927 153.188 16.883C152.983 16.839 152.763 16.817 152.528 16.817C151.846 16.817 151.344 16.949 151.021 17.213C150.706 17.4697 150.548 17.8217 150.548 18.269C150.548 18.577 150.621 18.819 150.768 18.995C150.922 19.171 151.16 19.314 151.483 19.424C151.806 19.534 152.216 19.6477 152.715 19.765C153.272 19.8823 153.753 20.0217 154.156 20.183C154.559 20.3443 154.871 20.5643 155.091 20.843C155.311 21.1143 155.421 21.4847 155.421 21.954C155.421 22.3133 155.351 22.625 155.212 22.889C155.073 23.153 154.878 23.373 154.629 23.549C154.38 23.725 154.083 23.857 153.738 23.945C153.393 24.0257 153.016 24.066 152.605 24.066C152.202 24.066 151.813 24.0257 151.439 23.945C151.072 23.857 150.724 23.7323 150.394 23.571C150.064 23.4023 149.756 23.1897 149.47 22.933L149.855 22.306C149.994 22.4527 150.159 22.592 150.35 22.724C150.548 22.8487 150.764 22.9623 150.999 23.065C151.241 23.1677 151.498 23.2483 151.769 23.307C152.048 23.3583 152.334 23.384 152.627 23.384C153.25 23.384 153.734 23.2703 154.079 23.043C154.431 22.8157 154.607 22.4783 154.607 22.031C154.607 21.7083 154.519 21.4517 154.343 21.261C154.167 21.063 153.903 20.9017 153.551 20.777C153.199 20.6523 152.766 20.5313 152.253 20.414C151.71 20.2893 151.252 20.15 150.878 19.996C150.504 19.842 150.222 19.6403 150.031 19.391C149.848 19.1343 149.756 18.797 149.756 18.379C149.756 17.895 149.873 17.488 150.108 17.158C150.35 16.8207 150.68 16.5677 151.098 16.399C151.516 16.223 151.996 16.135 152.539 16.135C152.884 16.135 153.203 16.1717 153.496 16.245C153.797 16.311 154.072 16.41 154.321 16.542C154.578 16.674 154.816 16.839 155.036 17.037L154.662 17.653ZM159.278 23.725C159.219 23.747 159.128 23.7873 159.003 23.846C158.878 23.9047 158.728 23.956 158.552 24C158.376 24.044 158.185 24.066 157.98 24.066C157.767 24.066 157.566 24.0257 157.375 23.945C157.192 23.8643 157.045 23.7433 156.935 23.582C156.825 23.4133 156.77 23.208 156.77 22.966V18.863H155.978V18.269H156.77V16.333H157.518V18.269H158.838V18.863H157.518V22.757C157.533 22.9623 157.606 23.1163 157.738 23.219C157.877 23.3217 158.035 23.373 158.211 23.373C158.416 23.373 158.603 23.34 158.772 23.274C158.941 23.2007 159.043 23.1493 159.08 23.12L159.278 23.725ZM162.558 24.11C162.147 24.11 161.766 24.033 161.414 23.879C161.069 23.7177 160.769 23.5013 160.512 23.23C160.263 22.9513 160.068 22.636 159.929 22.284C159.79 21.9247 159.72 21.547 159.72 21.151C159.72 20.7403 159.79 20.359 159.929 20.007C160.068 19.6477 160.266 19.3323 160.523 19.061C160.78 18.7823 161.08 18.566 161.425 18.412C161.777 18.2507 162.158 18.17 162.569 18.17C162.98 18.17 163.357 18.2507 163.702 18.412C164.047 18.566 164.347 18.7823 164.604 19.061C164.861 19.3323 165.059 19.6477 165.198 20.007C165.337 20.359 165.407 20.7403 165.407 21.151C165.407 21.547 165.337 21.9247 165.198 22.284C165.059 22.636 164.861 22.9513 164.604 23.23C164.355 23.5013 164.054 23.7177 163.702 23.879C163.357 24.033 162.976 24.11 162.558 24.11ZM160.479 21.162C160.479 21.5873 160.571 21.976 160.754 22.328C160.945 22.6727 161.198 22.9477 161.513 23.153C161.828 23.351 162.177 23.45 162.558 23.45C162.939 23.45 163.288 23.3473 163.603 23.142C163.918 22.9367 164.171 22.658 164.362 22.306C164.553 21.9467 164.648 21.558 164.648 21.14C164.648 20.7147 164.553 20.326 164.362 19.974C164.171 19.622 163.918 19.3433 163.603 19.138C163.288 18.9327 162.939 18.83 162.558 18.83C162.177 18.83 161.828 18.9363 161.513 19.149C161.205 19.3617 160.956 19.644 160.765 19.996C160.574 20.3407 160.479 20.7293 160.479 21.162ZM169.144 24.11C168.726 24.11 168.341 24.033 167.989 23.879C167.644 23.7177 167.34 23.4977 167.076 23.219C166.819 22.9403 166.618 22.6213 166.471 22.262C166.332 21.9027 166.262 21.5213 166.262 21.118C166.262 20.5753 166.383 20.0803 166.625 19.633C166.867 19.1857 167.204 18.83 167.637 18.566C168.07 18.302 168.568 18.17 169.133 18.17C169.668 18.17 170.141 18.2947 170.552 18.544C170.963 18.786 171.267 19.116 171.465 19.534L170.739 19.765C170.578 19.4717 170.35 19.2443 170.057 19.083C169.771 18.9143 169.452 18.83 169.1 18.83C168.719 18.83 168.37 18.929 168.055 19.127C167.74 19.325 167.487 19.5963 167.296 19.941C167.113 20.2857 167.021 20.678 167.021 21.118C167.021 21.5507 167.116 21.943 167.307 22.295C167.498 22.647 167.751 22.9293 168.066 23.142C168.381 23.3473 168.73 23.45 169.111 23.45C169.36 23.45 169.599 23.406 169.826 23.318C170.061 23.23 170.262 23.1127 170.431 22.966C170.607 22.812 170.724 22.647 170.783 22.471L171.52 22.691C171.417 22.9623 171.245 23.208 171.003 23.428C170.768 23.6407 170.49 23.8093 170.167 23.934C169.852 24.0513 169.511 24.11 169.144 24.11ZM176.787 24L174.664 21.063L173.443 22.207V24H172.695V15.97H173.443V21.404L176.688 18.28H177.513L175.17 20.623L177.601 24H176.787ZM183.562 16.19H184.211L187.456 24H186.642L185.63 21.558H182.121L181.12 24H180.295L183.562 16.19ZM185.454 20.953L183.881 17.092L182.286 20.953H185.454ZM188.455 15.97H189.203V22.702C189.203 22.988 189.254 23.175 189.357 23.263C189.459 23.351 189.584 23.395 189.731 23.395C189.863 23.395 189.995 23.3803 190.127 23.351C190.259 23.3217 190.372 23.2923 190.468 23.263L190.6 23.868C190.46 23.9267 190.288 23.9743 190.083 24.011C189.885 24.0477 189.712 24.066 189.566 24.066C189.228 24.066 188.957 23.967 188.752 23.769C188.554 23.571 188.455 23.2997 188.455 22.955V15.97ZM191.452 15.97H192.2V22.702C192.2 22.988 192.251 23.175 192.354 23.263C192.456 23.351 192.581 23.395 192.728 23.395C192.86 23.395 192.992 23.3803 193.124 23.351C193.256 23.3217 193.369 23.2923 193.465 23.263L193.597 23.868C193.457 23.9267 193.285 23.9743 193.08 24.011C192.882 24.0477 192.709 24.066 192.563 24.066C192.225 24.066 191.954 23.967 191.749 23.769C191.551 23.571 191.452 23.2997 191.452 22.955V15.97ZM196.858 24.11C196.447 24.11 196.066 24.033 195.714 23.879C195.369 23.7177 195.068 23.5013 194.812 23.23C194.562 22.9513 194.368 22.636 194.229 22.284C194.089 21.9247 194.02 21.547 194.02 21.151C194.02 20.7403 194.089 20.359 194.229 20.007C194.368 19.6477 194.566 19.3323 194.823 19.061C195.079 18.7823 195.38 18.566 195.725 18.412C196.077 18.2507 196.458 18.17 196.869 18.17C197.279 18.17 197.657 18.2507 198.002 18.412C198.346 18.566 198.647 18.7823 198.904 19.061C199.16 19.3323 199.358 19.6477 199.498 20.007C199.637 20.359 199.707 20.7403 199.707 21.151C199.707 21.547 199.637 21.9247 199.498 22.284C199.358 22.636 199.16 22.9513 198.904 23.23C198.654 23.5013 198.354 23.7177 198.002 23.879C197.657 24.033 197.276 24.11 196.858 24.11ZM194.779 21.162C194.779 21.5873 194.87 21.976 195.054 22.328C195.244 22.6727 195.497 22.9477 195.813 23.153C196.128 23.351 196.476 23.45 196.858 23.45C197.239 23.45 197.587 23.3473 197.903 23.142C198.218 22.9367 198.471 22.658 198.662 22.306C198.852 21.9467 198.948 21.558 198.948 21.14C198.948 20.7147 198.852 20.326 198.662 19.974C198.471 19.622 198.218 19.3433 197.903 19.138C197.587 18.9327 197.239 18.83 196.858 18.83C196.476 18.83 196.128 18.9363 195.813 19.149C195.505 19.3617 195.255 19.644 195.065 19.996C194.874 20.3407 194.779 20.7293 194.779 21.162ZM203.444 24.11C203.026 24.11 202.641 24.033 202.289 23.879C201.944 23.7177 201.64 23.4977 201.376 23.219C201.119 22.9403 200.917 22.6213 200.771 22.262C200.631 21.9027 200.562 21.5213 200.562 21.118C200.562 20.5753 200.683 20.0803 200.925 19.633C201.167 19.1857 201.504 18.83 201.937 18.566C202.369 18.302 202.868 18.17 203.433 18.17C203.968 18.17 204.441 18.2947 204.852 18.544C205.262 18.786 205.567 19.116 205.765 19.534L205.039 19.765C204.877 19.4717 204.65 19.2443 204.357 19.083C204.071 18.9143 203.752 18.83 203.4 18.83C203.018 18.83 202.67 18.929 202.355 19.127C202.039 19.325 201.786 19.5963 201.596 19.941C201.412 20.2857 201.321 20.678 201.321 21.118C201.321 21.5507 201.416 21.943 201.607 22.295C201.797 22.647 202.05 22.9293 202.366 23.142C202.681 23.3473 203.029 23.45 203.411 23.45C203.66 23.45 203.898 23.406 204.126 23.318C204.36 23.23 204.562 23.1127 204.731 22.966C204.907 22.812 205.024 22.647 205.083 22.471L205.82 22.691C205.717 22.9623 205.545 23.208 205.303 23.428C205.068 23.6407 204.789 23.8093 204.467 23.934C204.151 24.0513 203.81 24.11 203.444 24.11ZM206.533 22.35C206.533 21.9907 206.636 21.6827 206.841 21.426C207.046 21.162 207.329 20.9603 207.688 20.821C208.055 20.6743 208.476 20.601 208.953 20.601C209.232 20.601 209.521 20.623 209.822 20.667C210.123 20.711 210.39 20.777 210.625 20.865V20.381C210.625 19.897 210.482 19.512 210.196 19.226C209.91 18.94 209.514 18.797 209.008 18.797C208.7 18.797 208.396 18.8557 208.095 18.973C207.802 19.083 207.494 19.248 207.171 19.468L206.885 18.94C207.259 18.6833 207.626 18.4927 207.985 18.368C208.344 18.236 208.711 18.17 209.085 18.17C209.789 18.17 210.346 18.3717 210.757 18.775C211.168 19.1783 211.373 19.7357 211.373 20.447V23.098C211.373 23.2007 211.395 23.2777 211.439 23.329C211.483 23.373 211.553 23.3987 211.648 23.406V24C211.567 24.0073 211.498 24.0147 211.439 24.022C211.38 24.0293 211.336 24.0293 211.307 24.022C211.124 24.0147 210.984 23.956 210.889 23.846C210.794 23.736 210.742 23.6187 210.735 23.494L210.724 23.076C210.467 23.406 210.134 23.6627 209.723 23.846C209.312 24.022 208.894 24.11 208.469 24.11C208.102 24.11 207.769 24.033 207.468 23.879C207.175 23.7177 206.944 23.505 206.775 23.241C206.614 22.9697 206.533 22.6727 206.533 22.35ZM210.372 22.79C210.453 22.6873 210.515 22.5883 210.559 22.493C210.603 22.3977 210.625 22.3133 210.625 22.24V21.404C210.376 21.3087 210.115 21.2353 209.844 21.184C209.58 21.1327 209.312 21.107 209.041 21.107C208.506 21.107 208.073 21.2133 207.743 21.426C207.413 21.6387 207.248 21.9283 207.248 22.295C207.248 22.5077 207.303 22.7093 207.413 22.9C207.523 23.0833 207.684 23.2373 207.897 23.362C208.11 23.4793 208.359 23.538 208.645 23.538C209.004 23.538 209.338 23.4683 209.646 23.329C209.961 23.1897 210.203 23.01 210.372 22.79ZM215.696 23.725C215.637 23.747 215.546 23.7873 215.421 23.846C215.296 23.9047 215.146 23.956 214.97 24C214.794 24.044 214.603 24.066 214.398 24.066C214.185 24.066 213.984 24.0257 213.793 23.945C213.61 23.8643 213.463 23.7433 213.353 23.582C213.243 23.4133 213.188 23.208 213.188 22.966V18.863H212.396V18.269H213.188V16.333H213.936V18.269H215.256V18.863H213.936V22.757C213.951 22.9623 214.024 23.1163 214.156 23.219C214.295 23.3217 214.453 23.373 214.629 23.373C214.834 23.373 215.021 23.34 215.19 23.274C215.359 23.2007 215.461 23.1493 215.498 23.12L215.696 23.725ZM216.631 24V18.269H217.379V24H216.631ZM216.631 17.07V15.97H217.379V17.07H216.631ZM221.468 24.11C221.058 24.11 220.676 24.033 220.324 23.879C219.98 23.7177 219.679 23.5013 219.422 23.23C219.173 22.9513 218.979 22.636 218.839 22.284C218.7 21.9247 218.63 21.547 218.63 21.151C218.63 20.7403 218.7 20.359 218.839 20.007C218.979 19.6477 219.177 19.3323 219.433 19.061C219.69 18.7823 219.991 18.566 220.335 18.412C220.687 18.2507 221.069 18.17 221.479 18.17C221.89 18.17 222.268 18.2507 222.612 18.412C222.957 18.566 223.258 18.7823 223.514 19.061C223.771 19.3323 223.969 19.6477 224.108 20.007C224.248 20.359 224.317 20.7403 224.317 21.151C224.317 21.547 224.248 21.9247 224.108 22.284C223.969 22.636 223.771 22.9513 223.514 23.23C223.265 23.5013 222.964 23.7177 222.612 23.879C222.268 24.033 221.886 24.11 221.468 24.11ZM219.389 21.162C219.389 21.5873 219.481 21.976 219.664 22.328C219.855 22.6727 220.108 22.9477 220.423 23.153C220.739 23.351 221.087 23.45 221.468 23.45C221.85 23.45 222.198 23.3473 222.513 23.142C222.829 22.9367 223.082 22.658 223.272 22.306C223.463 21.9467 223.558 21.558 223.558 21.14C223.558 20.7147 223.463 20.326 223.272 19.974C223.082 19.622 222.829 19.3433 222.513 19.138C222.198 18.9327 221.85 18.83 221.468 18.83C221.087 18.83 220.739 18.9363 220.423 19.149C220.115 19.3617 219.866 19.644 219.675 19.996C219.485 20.3407 219.389 20.7293 219.389 21.162ZM230.386 24H229.638V20.799C229.638 20.1243 229.539 19.633 229.341 19.325C229.143 19.0097 228.831 18.852 228.406 18.852C228.113 18.852 227.823 18.9253 227.537 19.072C227.251 19.2113 226.998 19.4057 226.778 19.655C226.565 19.897 226.411 20.1757 226.316 20.491V24H225.568V18.269H226.25V19.567C226.404 19.2883 226.606 19.0463 226.855 18.841C227.104 18.6283 227.387 18.4633 227.702 18.346C228.017 18.2287 228.344 18.17 228.681 18.17C228.996 18.17 229.264 18.2287 229.484 18.346C229.704 18.4633 229.88 18.632 230.012 18.852C230.144 19.0647 230.239 19.325 230.298 19.633C230.357 19.9337 230.386 20.271 230.386 20.645V24Z" fill="black"/>
<path d="M39.127 51.777C39.127 52.4223 39.006 52.998 38.764 53.504C38.5293 54.0027 38.203 54.395 37.785 54.681C37.367 54.967 36.894 55.11 36.366 55.11C35.838 55.11 35.365 54.967 34.947 54.681C34.5363 54.395 34.21 54.0027 33.968 53.504C33.726 52.998 33.605 52.4223 33.605 51.777C33.605 51.1317 33.726 50.5597 33.968 50.061C34.21 49.555 34.5363 49.159 34.947 48.873C35.365 48.5797 35.838 48.433 36.366 48.433C36.894 48.433 37.367 48.5797 37.785 48.873C38.203 49.159 38.5293 49.555 38.764 50.061C39.006 50.5597 39.127 51.1317 39.127 51.777ZM38.368 51.777C38.368 51.2563 38.2837 50.798 38.115 50.402C37.9463 50.006 37.7117 49.698 37.411 49.478C37.1103 49.2507 36.762 49.137 36.366 49.137C35.97 49.137 35.6217 49.2507 35.321 49.478C35.0203 49.698 34.782 50.006 34.606 50.402C34.4373 50.798 34.353 51.2563 34.353 51.777C34.353 52.2977 34.4373 52.756 34.606 53.152C34.782 53.548 35.0203 53.856 35.321 54.076C35.6217 54.296 35.97 54.406 36.366 54.406C36.762 54.406 37.1103 54.296 37.411 54.076C37.7117 53.8487 37.9463 53.5407 38.115 53.152C38.2837 52.756 38.368 52.2977 38.368 51.777ZM40.4504 55V53.922H41.0994V55H40.4504ZM42.3033 55C42.3033 54.7507 42.3253 54.5013 42.3693 54.252C42.4133 53.9953 42.4977 53.7423 42.6223 53.493C42.747 53.2437 42.9303 53.0053 43.1723 52.778C43.4143 52.5433 43.7333 52.3233 44.1293 52.118C44.342 52.008 44.562 51.9017 44.7893 51.799C45.0167 51.689 45.2293 51.5717 45.4273 51.447C45.6327 51.315 45.794 51.1683 45.9113 51.007C46.036 50.8383 46.0983 50.6403 46.0983 50.413C46.0983 50.2297 46.0433 50.05 45.9333 49.874C45.8307 49.698 45.6693 49.555 45.4493 49.445C45.2367 49.335 44.969 49.28 44.6463 49.28C44.4117 49.28 44.199 49.313 44.0083 49.379C43.8177 49.445 43.649 49.5293 43.5023 49.632C43.3557 49.7273 43.231 49.8263 43.1283 49.929C43.0257 50.0243 42.9413 50.105 42.8753 50.171L42.4023 49.654C42.439 49.61 42.5197 49.533 42.6443 49.423C42.7763 49.3057 42.9413 49.1847 43.1393 49.06C43.3447 48.9353 43.583 48.829 43.8543 48.741C44.133 48.653 44.4373 48.609 44.7673 48.609C45.2147 48.609 45.596 48.6897 45.9113 48.851C46.234 49.005 46.4797 49.214 46.6483 49.478C46.817 49.742 46.9013 50.028 46.9013 50.336C46.9013 50.6367 46.8353 50.897 46.7033 51.117C46.5787 51.3297 46.4137 51.5167 46.2083 51.678C46.0103 51.832 45.8013 51.9677 45.5813 52.085C45.3687 52.195 45.1743 52.2903 44.9983 52.371C44.6537 52.5323 44.364 52.6937 44.1293 52.855C43.8947 53.0163 43.7077 53.1813 43.5683 53.35C43.429 53.5113 43.319 53.6727 43.2383 53.834C43.165 53.988 43.1137 54.1493 43.0843 54.318H47.0223V55H42.3033Z" fill="black"/>
<path d="M39.127 133.777C39.127 134.422 39.006 134.998 38.764 135.504C38.5293 136.003 38.203 136.395 37.785 136.681C37.367 136.967 36.894 137.11 36.366 137.11C35.838 137.11 35.365 136.967 34.947 136.681C34.5363 136.395 34.21 136.003 33.968 135.504C33.726 134.998 33.605 134.422 33.605 133.777C33.605 133.132 33.726 132.56 33.968 132.061C34.21 131.555 34.5363 131.159 34.947 130.873C35.365 130.58 35.838 130.433 36.366 130.433C36.894 130.433 37.367 130.58 37.785 130.873C38.203 131.159 38.5293 131.555 38.764 132.061C39.006 132.56 39.127 133.132 39.127 133.777ZM38.368 133.777C38.368 133.256 38.2837 132.798 38.115 132.402C37.9463 132.006 37.7117 131.698 37.411 131.478C37.1103 131.251 36.762 131.137 36.366 131.137C35.97 131.137 35.6217 131.251 35.321 131.478C35.0203 131.698 34.782 132.006 34.606 132.402C34.4373 132.798 34.353 133.256 34.353 133.777C34.353 134.298 34.4373 134.756 34.606 135.152C34.782 135.548 35.0203 135.856 35.321 136.076C35.6217 136.296 35.97 136.406 36.366 136.406C36.762 136.406 37.1103 136.296 37.411 136.076C37.7117 135.849 37.9463 135.541 38.115 135.152C38.2837 134.756 38.368 134.298 38.368 133.777ZM40.4504 137V135.922H41.0994V137H40.4504ZM46.2853 136.318V137H42.5563V136.318H44.1183V131.61C44.0597 131.698 43.9607 131.793 43.8213 131.896C43.682 131.999 43.5207 132.094 43.3373 132.182C43.1613 132.27 42.9853 132.343 42.8093 132.402C42.6333 132.461 42.472 132.49 42.3253 132.49V131.764C42.494 131.764 42.6773 131.716 42.8753 131.621C43.0733 131.526 43.264 131.416 43.4473 131.291C43.6307 131.166 43.7847 131.049 43.9093 130.939C44.034 130.829 44.1037 130.756 44.1183 130.719H44.8883V136.318H46.2853Z" fill="black"/>
<path d="M11.19 148.601L11.19 147.952L19 144.707L19 145.521L16.558 146.533L16.558 150.042L19 151.043L19 151.868L11.19 148.601ZM15.953 146.709L12.092 148.282L15.953 149.877L15.953 146.709ZM10.97 143.708L10.97 142.96L17.702 142.96C17.988 142.96 18.175 142.909 18.263 142.806C18.351 142.704 18.395 142.579 18.395 142.432C18.395 142.3 18.3803 142.168 18.351 142.036C18.3217 141.904 18.2923 141.791 18.263 141.695L18.868 141.563C18.9267 141.703 18.9743 141.875 19.011 142.08C19.0477 142.278 19.066 142.451 19.066 142.597C19.066 142.935 18.967 143.206 18.769 143.411C18.571 143.609 18.2997 143.708 17.955 143.708L10.97 143.708ZM10.97 140.711L10.97 139.963L17.702 139.963C17.988 139.963 18.175 139.912 18.263 139.809C18.351 139.707 18.395 139.582 18.395 139.435C18.395 139.303 18.3803 139.171 18.351 139.039C18.3217 138.907 18.2923 138.794 18.263 138.698L18.868 138.566C18.9267 138.706 18.9743 138.878 19.011 139.083C19.0477 139.281 19.066 139.454 19.066 139.6C19.066 139.938 18.967 140.209 18.769 140.414C18.571 140.612 18.2997 140.711 17.955 140.711L10.97 140.711ZM19.11 135.305C19.11 135.716 19.033 136.097 18.879 136.449C18.7177 136.794 18.5013 137.095 18.23 137.351C17.9513 137.601 17.636 137.795 17.284 137.934C16.9247 138.074 16.547 138.143 16.151 138.143C15.7403 138.143 15.359 138.074 15.007 137.934C14.6477 137.795 14.3323 137.597 14.061 137.34C13.7823 137.084 13.566 136.783 13.412 136.438C13.2507 136.086 13.17 135.705 13.17 135.294C13.17 134.884 13.2507 134.506 13.412 134.161C13.566 133.817 13.7823 133.516 14.061 133.259C14.3323 133.003 14.6477 132.805 15.007 132.665C15.359 132.526 15.7403 132.456 16.151 132.456C16.547 132.456 16.9247 132.526 17.284 132.665C17.636 132.805 17.9513 133.003 18.23 133.259C18.5013 133.509 18.7177 133.809 18.879 134.161C19.033 134.506 19.11 134.887 19.11 135.305ZM16.162 137.384C16.5873 137.384 16.976 137.293 17.328 137.109C17.6727 136.919 17.9477 136.666 18.153 136.35C18.351 136.035 18.45 135.687 18.45 135.305C18.45 134.924 18.3473 134.576 18.142 134.26C17.9367 133.945 17.658 133.692 17.306 133.501C16.9467 133.311 16.558 133.215 16.14 133.215C15.7147 133.215 15.326 133.311 14.974 133.501C14.622 133.692 14.3433 133.945 14.138 134.26C13.9327 134.576 13.83 134.924 13.83 135.305C13.83 135.687 13.9363 136.035 14.149 136.35C14.3617 136.658 14.644 136.908 14.996 137.098C15.3407 137.289 15.7293 137.384 16.162 137.384ZM19.11 128.719C19.11 129.137 19.033 129.522 18.879 129.874C18.7177 130.219 18.4977 130.523 18.219 130.787C17.9403 131.044 17.6213 131.246 17.262 131.392C16.9027 131.532 16.5213 131.601 16.118 131.601C15.5753 131.601 15.0803 131.48 14.633 131.238C14.1857 130.996 13.83 130.659 13.566 130.226C13.302 129.794 13.17 129.295 13.17 128.73C13.17 128.195 13.2947 127.722 13.544 127.311C13.786 126.901 14.116 126.596 14.534 126.398L14.765 127.124C14.4717 127.286 14.2443 127.513 14.083 127.806C13.9143 128.092 13.83 128.411 13.83 128.763C13.83 129.145 13.929 129.493 14.127 129.808C14.325 130.124 14.5963 130.377 14.941 130.567C15.2857 130.751 15.678 130.842 16.118 130.842C16.5507 130.842 16.943 130.747 17.295 130.556C17.647 130.366 17.9293 130.113 18.142 129.797C18.3473 129.482 18.45 129.134 18.45 128.752C18.45 128.503 18.406 128.265 18.318 128.037C18.23 127.803 18.1127 127.601 17.966 127.432C17.812 127.256 17.647 127.139 17.471 127.08L17.691 126.343C17.9623 126.446 18.208 126.618 18.428 126.86C18.6407 127.095 18.8093 127.374 18.934 127.696C19.0513 128.012 19.11 128.353 19.11 128.719ZM17.35 125.63C16.9907 125.63 16.6827 125.527 16.426 125.322C16.162 125.117 15.9603 124.834 15.821 124.475C15.6743 124.108 15.601 123.687 15.601 123.21C15.601 122.931 15.623 122.642 15.667 122.341C15.711 122.04 15.777 121.773 15.865 121.538L15.381 121.538C14.897 121.538 14.512 121.681 14.226 121.967C13.94 122.253 13.797 122.649 13.797 123.155C13.797 123.463 13.8557 123.767 13.973 124.068C14.083 124.361 14.248 124.669 14.468 124.992L13.94 125.278C13.6833 124.904 13.4927 124.537 13.368 124.178C13.236 123.819 13.17 123.452 13.17 123.078C13.17 122.374 13.3717 121.817 13.775 121.406C14.1783 120.995 14.7357 120.79 15.447 120.79L18.098 120.79C18.2007 120.79 18.2777 120.768 18.329 120.724C18.373 120.68 18.3987 120.61 18.406 120.515L19 120.515C19.0073 120.596 19.0147 120.665 19.022 120.724C19.0293 120.783 19.0293 120.827 19.022 120.856C19.0147 121.039 18.956 121.179 18.846 121.274C18.736 121.369 18.6187 121.421 18.494 121.428L18.076 121.439C18.406 121.696 18.6627 122.029 18.846 122.44C19.022 122.851 19.11 123.269 19.11 123.694C19.11 124.061 19.033 124.394 18.879 124.695C18.7177 124.988 18.505 125.219 18.241 125.388C17.9697 125.549 17.6727 125.63 17.35 125.63ZM17.79 121.791C17.6873 121.71 17.5883 121.648 17.493 121.604C17.3977 121.56 17.3133 121.538 17.24 121.538L16.404 121.538C16.3087 121.787 16.2353 122.048 16.184 122.319C16.1327 122.583 16.107 122.851 16.107 123.122C16.107 123.657 16.2133 124.09 16.426 124.42C16.6387 124.75 16.9283 124.915 17.295 124.915C17.5077 124.915 17.7093 124.86 17.9 124.75C18.0833 124.64 18.2373 124.479 18.362 124.266C18.4793 124.053 18.538 123.804 18.538 123.518C18.538 123.159 18.4683 122.825 18.329 122.517C18.1897 122.202 18.01 121.96 17.79 121.791ZM18.725 116.467C18.747 116.526 18.7873 116.617 18.846 116.742C18.9047 116.867 18.956 117.017 19 117.193C19.044 117.369 19.066 117.56 19.066 117.765C19.066 117.978 19.0257 118.179 18.945 118.37C18.8643 118.553 18.7433 118.7 18.582 118.81C18.4133 118.92 18.208 118.975 17.966 118.975L13.863 118.975L13.863 119.767L13.269 119.767L13.269 118.975L11.333 118.975L11.333 118.227L13.269 118.227L13.269 116.907L13.863 116.907L13.863 118.227L17.757 118.227C17.9623 118.212 18.1163 118.139 18.219 118.007C18.3217 117.868 18.373 117.71 18.373 117.534C18.373 117.329 18.34 117.142 18.274 116.973C18.2007 116.804 18.1493 116.702 18.12 116.665L18.725 116.467ZM19 115.532L13.269 115.532L13.269 114.784L19 114.784L19 115.532ZM12.07 115.532L10.97 115.532L10.97 114.784L12.07 114.784L12.07 115.532ZM19.11 110.695C19.11 111.106 19.033 111.487 18.879 111.839C18.7177 112.184 18.5013 112.484 18.23 112.741C17.9513 112.99 17.636 113.185 17.284 113.324C16.9247 113.463 16.547 113.533 16.151 113.533C15.7403 113.533 15.359 113.463 15.007 113.324C14.6477 113.185 14.3323 112.987 14.061 112.73C13.7823 112.473 13.566 112.173 13.412 111.828C13.2507 111.476 13.17 111.095 13.17 110.684C13.17 110.273 13.2507 109.896 13.412 109.551C13.566 109.206 13.7823 108.906 14.061 108.649C14.3323 108.392 14.6477 108.194 15.007 108.055C15.359 107.916 15.7403 107.846 16.151 107.846C16.547 107.846 16.9247 107.916 17.284 108.055C17.636 108.194 17.9513 108.392 18.23 108.649C18.5013 108.898 18.7177 109.199 18.879 109.551C19.033 109.896 19.11 110.277 19.11 110.695ZM16.162 112.774C16.5873 112.774 16.976 112.682 17.328 112.499C17.6727 112.308 17.9477 112.055 18.153 111.74C18.351 111.425 18.45 111.076 18.45 110.695C18.45 110.314 18.3473 109.965 18.142 109.65C17.9367 109.335 17.658 109.082 17.306 108.891C16.9467 108.7 16.558 108.605 16.14 108.605C15.7147 108.605 15.326 108.7 14.974 108.891C14.622 109.082 14.3433 109.335 14.138 109.65C13.9327 109.965 13.83 110.314 13.83 110.695C13.83 111.076 13.9363 111.425 14.149 111.74C14.3617 112.048 14.644 112.297 14.996 112.488C15.3407 112.679 15.7293 112.774 16.162 112.774ZM19 101.777L19 102.525L15.799 102.525C15.1243 102.525 14.633 102.624 14.325 102.822C14.0097 103.02 13.852 103.332 13.852 103.757C13.852 104.05 13.9253 104.34 14.072 104.626C14.2113 104.912 14.4057 105.165 14.655 105.385C14.897 105.598 15.1757 105.752 15.491 105.847L19 105.847L19 106.595L13.269 106.595L13.269 105.913L14.567 105.913C14.2883 105.759 14.0463 105.557 13.841 105.308C13.6283 105.059 13.4633 104.776 13.346 104.461C13.2287 104.146 13.17 103.819 13.17 103.482C13.17 103.167 13.2287 102.899 13.346 102.679C13.4633 102.459 13.632 102.283 13.852 102.151C14.0647 102.019 14.325 101.924 14.633 101.865C14.9337 101.806 15.271 101.777 15.645 101.777L19 101.777Z" fill="black"/>
<line x1="50.5" y1="224" x2="50.5" y2="41" stroke="black"/>
</svg>
