<svg width="726" height="221" viewBox="0 0 726 221" fill="none" xmlns="http://www.w3.org/2000/svg">
<path d="M1.036 42V32.06H2.968V42H1.036ZM11.6779 42H9.80186V37.884C9.80186 37.296 9.69919 36.8667 9.49386 36.596C9.28853 36.3253 9.00386 36.19 8.63986 36.19C8.38786 36.19 8.13119 36.2553 7.86986 36.386C7.61786 36.5167 7.38919 36.6987 7.18386 36.932C6.97853 37.156 6.82919 37.4173 6.73586 37.716V42H4.85986V34.664H6.55386V36.022C6.74053 35.7047 6.97853 35.4387 7.26786 35.224C7.55719 35 7.88853 34.832 8.26186 34.72C8.64453 34.5987 9.04586 34.538 9.46586 34.538C9.92319 34.538 10.2965 34.622 10.5859 34.79C10.8845 34.9487 11.1085 35.168 11.2579 35.448C11.4165 35.7187 11.5239 36.0267 11.5799 36.372C11.6452 36.7173 11.6779 37.0673 11.6779 37.422V42ZM17.7051 42.14C17.1357 42.14 16.6317 42.014 16.1931 41.762C15.7637 41.5007 15.4277 41.1507 15.1851 40.712V44.982H13.3091V34.664H14.9471V35.924C15.2271 35.4947 15.5817 35.1587 16.0111 34.916C16.4404 34.664 16.9304 34.538 17.4811 34.538C17.9757 34.538 18.4284 34.636 18.8391 34.832C19.2591 35.028 19.6231 35.3033 19.9311 35.658C20.2391 36.0033 20.4771 36.4047 20.6451 36.862C20.8224 37.31 20.9111 37.7953 20.9111 38.318C20.9111 39.0273 20.7711 39.6713 20.4911 40.25C20.2204 40.8287 19.8424 41.2907 19.3571 41.636C18.8811 41.972 18.3304 42.14 17.7051 42.14ZM17.0751 40.544C17.3644 40.544 17.6257 40.4833 17.8591 40.362C18.0924 40.2407 18.2931 40.0773 18.4611 39.872C18.6384 39.6573 18.7691 39.4193 18.8531 39.158C18.9464 38.8873 18.9931 38.6073 18.9931 38.318C18.9931 38.01 18.9417 37.7253 18.8391 37.464C18.7457 37.2027 18.6057 36.974 18.4191 36.778C18.2324 36.5727 18.0131 36.414 17.7611 36.302C17.5184 36.19 17.2524 36.134 16.9631 36.134C16.7857 36.134 16.6037 36.1667 16.4171 36.232C16.2397 36.288 16.0671 36.372 15.8991 36.484C15.7311 36.596 15.5817 36.7267 15.4511 36.876C15.3297 37.0253 15.2411 37.1887 15.1851 37.366V39.088C15.2971 39.3587 15.4464 39.606 15.6331 39.83C15.8291 40.054 16.0531 40.2313 16.3051 40.362C16.5571 40.4833 16.8137 40.544 17.0751 40.544ZM22.1121 39.256V34.664H23.9881V38.85C23.9881 39.41 24.0908 39.8347 24.2961 40.124C24.5015 40.404 24.8048 40.544 25.2061 40.544C25.4488 40.544 25.6868 40.4973 25.9201 40.404C26.1628 40.3013 26.3821 40.152 26.5781 39.956C26.7835 39.76 26.9561 39.5127 27.0961 39.214V34.664H28.9721V39.9C28.9721 40.096 29.0048 40.236 29.0701 40.32C29.1448 40.404 29.2615 40.4553 29.4201 40.474V42C29.2335 42.028 29.0748 42.0467 28.9441 42.056C28.8228 42.0747 28.7108 42.084 28.6081 42.084C28.2721 42.084 27.9968 42.0093 27.7821 41.86C27.5768 41.7013 27.4555 41.4867 27.4181 41.216L27.3761 40.628C27.0495 41.1227 26.6295 41.5007 26.1161 41.762C25.6028 42.014 25.0381 42.14 24.4221 42.14C23.6661 42.14 23.0921 41.8973 22.7001 41.412C22.3081 40.9173 22.1121 40.1987 22.1121 39.256ZM35.2051 41.622C35.0464 41.6873 34.8551 41.762 34.6311 41.846C34.4071 41.93 34.1644 41.9953 33.9031 42.042C33.6511 42.098 33.3944 42.126 33.1331 42.126C32.7877 42.126 32.4704 42.0653 32.1811 41.944C31.8917 41.8227 31.6584 41.6313 31.4811 41.37C31.3131 41.0993 31.2291 40.7493 31.2291 40.32V36.106H30.2631V34.664H31.2291V32.284H33.1051V34.664H34.6451V36.106H33.1051V39.69C33.1144 39.942 33.1844 40.124 33.3151 40.236C33.4457 40.348 33.6091 40.404 33.8051 40.404C34.0011 40.404 34.1924 40.3713 34.3791 40.306C34.5657 40.2407 34.7151 40.1847 34.8271 40.138L35.2051 41.622Z" fill="black"/>
<path d="M11.628 13.706C11.628 14.426 11.442 15.032 11.07 15.524C10.698 16.004 10.194 16.37 9.558 16.622C8.934 16.874 8.25 17 7.506 17H1.332V4.22H8.172C8.772 4.22 9.288 4.382 9.72 4.706C10.164 5.018 10.5 5.426 10.728 5.93C10.968 6.422 11.088 6.938 11.088 7.478C11.088 8.09 10.932 8.672 10.62 9.224C10.308 9.776 9.852 10.184 9.252 10.448C9.984 10.664 10.56 11.054 10.98 11.618C11.412 12.182 11.628 12.878 11.628 13.706ZM9.126 13.238C9.126 12.914 9.06 12.626 8.928 12.374C8.796 12.11 8.616 11.906 8.388 11.762C8.172 11.606 7.92 11.528 7.632 11.528H3.816V14.894H7.506C7.806 14.894 8.076 14.822 8.316 14.678C8.568 14.522 8.766 14.318 8.91 14.066C9.054 13.814 9.126 13.538 9.126 13.238ZM3.816 6.344V9.566H7.128C7.404 9.566 7.656 9.5 7.884 9.368C8.112 9.236 8.292 9.05 8.424 8.81C8.568 8.57 8.64 8.282 8.64 7.946C8.64 7.622 8.574 7.34 8.442 7.1C8.322 6.86 8.154 6.674 7.938 6.542C7.734 6.41 7.5 6.344 7.236 6.344H3.816Z" fill="black"/>
<path d="M193.036 42V32.06H197.432C197.889 32.06 198.309 32.1533 198.692 32.34C199.084 32.5267 199.42 32.7787 199.7 33.096C199.989 33.4133 200.209 33.768 200.358 34.16C200.517 34.552 200.596 34.9533 200.596 35.364C200.596 35.784 200.521 36.19 200.372 36.582C200.232 36.9647 200.027 37.3007 199.756 37.59C199.485 37.8793 199.168 38.1033 198.804 38.262L201.072 42H198.944L196.9 38.668H194.968V42H193.036ZM194.968 36.974H197.39C197.633 36.974 197.847 36.904 198.034 36.764C198.221 36.6147 198.37 36.4187 198.482 36.176C198.594 35.9333 198.65 35.6627 198.65 35.364C198.65 35.0467 198.585 34.7713 198.454 34.538C198.323 34.2953 198.155 34.104 197.95 33.964C197.754 33.824 197.539 33.754 197.306 33.754H194.968V36.974ZM205.32 42.14C204.732 42.14 204.2 42.042 203.724 41.846C203.248 41.6407 202.842 41.3653 202.506 41.02C202.17 40.6653 201.909 40.264 201.722 39.816C201.545 39.3587 201.456 38.878 201.456 38.374C201.456 37.674 201.61 37.0347 201.918 36.456C202.236 35.8773 202.684 35.4153 203.262 35.07C203.85 34.7153 204.541 34.538 205.334 34.538C206.137 34.538 206.823 34.7153 207.392 35.07C207.962 35.4153 208.396 35.8773 208.694 36.456C209.002 37.0253 209.156 37.6413 209.156 38.304C209.156 38.416 209.152 38.5327 209.142 38.654C209.133 38.766 209.124 38.8593 209.114 38.934H203.444C203.482 39.3073 203.589 39.634 203.766 39.914C203.953 40.194 204.186 40.4087 204.466 40.558C204.756 40.698 205.064 40.768 205.39 40.768C205.764 40.768 206.114 40.6793 206.44 40.502C206.776 40.3153 207.005 40.0727 207.126 39.774L208.736 40.222C208.559 40.5953 208.302 40.9267 207.966 41.216C207.64 41.5053 207.252 41.734 206.804 41.902C206.356 42.0607 205.862 42.14 205.32 42.14ZM203.402 37.744H207.238C207.201 37.3707 207.094 37.0487 206.916 36.778C206.748 36.498 206.524 36.2833 206.244 36.134C205.964 35.9753 205.652 35.896 205.306 35.896C204.97 35.896 204.662 35.9753 204.382 36.134C204.112 36.2833 203.888 36.498 203.71 36.778C203.542 37.0487 203.44 37.3707 203.402 37.744ZM213.001 42.14C212.376 42.14 211.779 42.0373 211.209 41.832C210.64 41.6267 210.15 41.3233 209.739 40.922L210.411 39.704C210.85 40.0587 211.279 40.32 211.699 40.488C212.129 40.656 212.539 40.74 212.931 40.74C213.295 40.74 213.585 40.6747 213.799 40.544C214.023 40.4133 214.135 40.2173 214.135 39.956C214.135 39.7787 214.075 39.6433 213.953 39.55C213.832 39.4473 213.655 39.3587 213.421 39.284C213.197 39.2093 212.922 39.1253 212.595 39.032C212.054 38.8547 211.601 38.682 211.237 38.514C210.873 38.346 210.598 38.136 210.411 37.884C210.234 37.6227 210.145 37.2913 210.145 36.89C210.145 36.4047 210.267 35.9893 210.509 35.644C210.761 35.2893 211.107 35.014 211.545 34.818C211.993 34.622 212.516 34.524 213.113 34.524C213.636 34.524 214.131 34.608 214.597 34.776C215.064 34.9347 215.489 35.196 215.871 35.56L215.115 36.75C214.742 36.4607 214.387 36.2507 214.051 36.12C213.715 35.98 213.375 35.91 213.029 35.91C212.833 35.91 212.647 35.9333 212.469 35.98C212.301 36.0267 212.161 36.106 212.049 36.218C211.947 36.3207 211.895 36.47 211.895 36.666C211.895 36.8433 211.942 36.9833 212.035 37.086C212.138 37.1793 212.287 37.2633 212.483 37.338C212.689 37.4127 212.936 37.4967 213.225 37.59C213.813 37.758 214.308 37.9307 214.709 38.108C215.12 38.2853 215.428 38.5047 215.633 38.766C215.839 39.018 215.941 39.368 215.941 39.816C215.941 40.544 215.675 41.1133 215.143 41.524C214.611 41.9347 213.897 42.14 213.001 42.14ZM220.619 42.14C220.031 42.14 219.499 42.042 219.023 41.846C218.547 41.6407 218.141 41.3653 217.805 41.02C217.469 40.6653 217.208 40.264 217.021 39.816C216.844 39.3587 216.755 38.878 216.755 38.374C216.755 37.674 216.909 37.0347 217.217 36.456C217.535 35.8773 217.983 35.4153 218.561 35.07C219.149 34.7153 219.84 34.538 220.633 34.538C221.436 34.538 222.122 34.7153 222.691 35.07C223.261 35.4153 223.695 35.8773 223.993 36.456C224.301 37.0253 224.455 37.6413 224.455 38.304C224.455 38.416 224.451 38.5327 224.441 38.654C224.432 38.766 224.423 38.8593 224.413 38.934H218.743C218.781 39.3073 218.888 39.634 219.065 39.914C219.252 40.194 219.485 40.4087 219.765 40.558C220.055 40.698 220.363 40.768 220.689 40.768C221.063 40.768 221.413 40.6793 221.739 40.502C222.075 40.3153 222.304 40.0727 222.425 39.774L224.035 40.222C223.858 40.5953 223.601 40.9267 223.265 41.216C222.939 41.5053 222.551 41.734 222.103 41.902C221.655 42.0607 221.161 42.14 220.619 42.14ZM218.701 37.744H222.537C222.5 37.3707 222.393 37.0487 222.215 36.778C222.047 36.498 221.823 36.2833 221.543 36.134C221.263 35.9753 220.951 35.896 220.605 35.896C220.269 35.896 219.961 35.9753 219.681 36.134C219.411 36.2833 219.187 36.498 219.009 36.778C218.841 37.0487 218.739 37.3707 218.701 37.744ZM229.966 36.288C229.397 36.288 228.888 36.4 228.44 36.624C227.992 36.8387 227.67 37.1513 227.474 37.562V42H225.598V34.664H227.32V36.232C227.581 35.728 227.913 35.3313 228.314 35.042C228.715 34.7527 229.14 34.594 229.588 34.566C229.691 34.566 229.77 34.566 229.826 34.566C229.882 34.566 229.929 34.5707 229.966 34.58V36.288ZM232.986 42L230.284 34.664H232.23L234.078 40.292L235.94 34.664H237.718L235.03 42H232.986ZM241.851 42.14C241.254 42.14 240.717 42.042 240.241 41.846C239.765 41.6407 239.359 41.3607 239.023 41.006C238.697 40.6513 238.445 40.2453 238.267 39.788C238.09 39.3307 238.001 38.85 238.001 38.346C238.001 37.8327 238.09 37.3473 238.267 36.89C238.445 36.4327 238.697 36.0267 239.023 35.672C239.359 35.3173 239.765 35.042 240.241 34.846C240.717 34.6407 241.254 34.538 241.851 34.538C242.449 34.538 242.981 34.6407 243.447 34.846C243.923 35.042 244.329 35.3173 244.665 35.672C245.001 36.0267 245.253 36.4327 245.421 36.89C245.599 37.3473 245.687 37.8327 245.687 38.346C245.687 38.85 245.599 39.3307 245.421 39.788C245.253 40.2453 245.001 40.6513 244.665 41.006C244.339 41.3607 243.937 41.6407 243.461 41.846C242.985 42.042 242.449 42.14 241.851 42.14ZM239.933 38.346C239.933 38.7753 240.017 39.158 240.185 39.494C240.353 39.8207 240.582 40.0773 240.871 40.264C241.161 40.4507 241.487 40.544 241.851 40.544C242.206 40.544 242.528 40.4507 242.817 40.264C243.107 40.068 243.335 39.8067 243.503 39.48C243.681 39.144 243.769 38.7613 243.769 38.332C243.769 37.912 243.681 37.534 243.503 37.198C243.335 36.862 243.107 36.6007 242.817 36.414C242.528 36.2273 242.206 36.134 241.851 36.134C241.487 36.134 241.161 36.232 240.871 36.428C240.582 36.6147 240.353 36.876 240.185 37.212C240.017 37.5387 239.933 37.9167 239.933 38.346ZM246.954 42V34.664H248.83V42H246.954ZM246.954 33.642V31.78H248.83V33.642H246.954ZM254.89 36.288C254.321 36.288 253.812 36.4 253.364 36.624C252.916 36.8387 252.594 37.1513 252.398 37.562V42H250.522V34.664H252.244V36.232C252.505 35.728 252.837 35.3313 253.238 35.042C253.639 34.7527 254.064 34.594 254.512 34.566C254.615 34.566 254.694 34.566 254.75 34.566C254.806 34.566 254.853 34.5707 254.89 34.58V36.288Z" fill="black"/>
<path d="M563.278 42.07C562.55 42.07 561.887 41.93 561.29 41.65C560.702 41.37 560.193 40.992 559.764 40.516C559.344 40.0307 559.017 39.4893 558.784 38.892C558.551 38.2853 558.434 37.6647 558.434 37.03C558.434 36.3673 558.555 35.7373 558.798 35.14C559.05 34.5333 559.391 33.9967 559.82 33.53C560.259 33.054 560.772 32.6807 561.36 32.41C561.957 32.13 562.611 31.99 563.32 31.99C564.039 31.99 564.692 32.1347 565.28 32.424C565.877 32.7133 566.386 33.1007 566.806 33.586C567.226 34.0713 567.553 34.6127 567.786 35.21C568.019 35.8073 568.136 36.4233 568.136 37.058C568.136 37.7113 568.015 38.3413 567.772 38.948C567.529 39.5453 567.189 40.082 566.75 40.558C566.321 41.0247 565.807 41.3933 565.21 41.664C564.622 41.9347 563.978 42.07 563.278 42.07ZM560.394 37.03C560.394 37.4593 560.459 37.8747 560.59 38.276C560.721 38.6773 560.907 39.0367 561.15 39.354C561.402 39.662 561.705 39.9093 562.06 40.096C562.424 40.2733 562.835 40.362 563.292 40.362C563.759 40.362 564.174 40.2687 564.538 40.082C564.902 39.886 565.205 39.6293 565.448 39.312C565.691 38.9853 565.873 38.626 565.994 38.234C566.125 37.8327 566.19 37.4313 566.19 37.03C566.19 36.6007 566.12 36.19 565.98 35.798C565.849 35.3967 565.658 35.042 565.406 34.734C565.163 34.4167 564.86 34.1693 564.496 33.992C564.141 33.8053 563.74 33.712 563.292 33.712C562.816 33.712 562.396 33.81 562.032 34.006C561.677 34.1927 561.379 34.4447 561.136 34.762C560.893 35.0793 560.707 35.434 560.576 35.826C560.455 36.218 560.394 36.6193 560.394 37.03ZM569.366 39.256V34.664H571.242V38.85C571.242 39.41 571.345 39.8347 571.55 40.124C571.755 40.404 572.059 40.544 572.46 40.544C572.703 40.544 572.941 40.4973 573.174 40.404C573.417 40.3013 573.636 40.152 573.832 39.956C574.037 39.76 574.21 39.5127 574.35 39.214V34.664H576.226V39.9C576.226 40.096 576.259 40.236 576.324 40.32C576.399 40.404 576.515 40.4553 576.674 40.474V42C576.487 42.028 576.329 42.0467 576.198 42.056C576.077 42.0747 575.965 42.084 575.862 42.084C575.526 42.084 575.251 42.0093 575.036 41.86C574.831 41.7013 574.709 41.4867 574.672 41.216L574.63 40.628C574.303 41.1227 573.883 41.5007 573.37 41.762C572.857 42.014 572.292 42.14 571.676 42.14C570.92 42.14 570.346 41.8973 569.954 41.412C569.562 40.9173 569.366 40.1987 569.366 39.256ZM582.459 41.622C582.3 41.6873 582.109 41.762 581.885 41.846C581.661 41.93 581.418 41.9953 581.157 42.042C580.905 42.098 580.648 42.126 580.387 42.126C580.042 42.126 579.724 42.0653 579.435 41.944C579.146 41.8227 578.912 41.6313 578.735 41.37C578.567 41.0993 578.483 40.7493 578.483 40.32V36.106H577.517V34.664H578.483V32.284H580.359V34.664H581.899V36.106H580.359V39.69C580.368 39.942 580.438 40.124 580.569 40.236C580.7 40.348 580.863 40.404 581.059 40.404C581.255 40.404 581.446 40.3713 581.633 40.306C581.82 40.2407 581.969 40.1847 582.081 40.138L582.459 41.622ZM587.832 42.14C587.263 42.14 586.759 42.014 586.32 41.762C585.891 41.5007 585.555 41.1507 585.312 40.712V44.982H583.436V34.664H585.074V35.924C585.354 35.4947 585.709 35.1587 586.138 34.916C586.567 34.664 587.057 34.538 587.608 34.538C588.103 34.538 588.555 34.636 588.966 34.832C589.386 35.028 589.75 35.3033 590.058 35.658C590.366 36.0033 590.604 36.4047 590.772 36.862C590.949 37.31 591.038 37.7953 591.038 38.318C591.038 39.0273 590.898 39.6713 590.618 40.25C590.347 40.8287 589.969 41.2907 589.484 41.636C589.008 41.972 588.457 42.14 587.832 42.14ZM587.202 40.544C587.491 40.544 587.753 40.4833 587.986 40.362C588.219 40.2407 588.42 40.0773 588.588 39.872C588.765 39.6573 588.896 39.4193 588.98 39.158C589.073 38.8873 589.12 38.6073 589.12 38.318C589.12 38.01 589.069 37.7253 588.966 37.464C588.873 37.2027 588.733 36.974 588.546 36.778C588.359 36.5727 588.14 36.414 587.888 36.302C587.645 36.19 587.379 36.134 587.09 36.134C586.913 36.134 586.731 36.1667 586.544 36.232C586.367 36.288 586.194 36.372 586.026 36.484C585.858 36.596 585.709 36.7267 585.578 36.876C585.457 37.0253 585.368 37.1887 585.312 37.366V39.088C585.424 39.3587 585.573 39.606 585.76 39.83C585.956 40.054 586.18 40.2313 586.432 40.362C586.684 40.4833 586.941 40.544 587.202 40.544ZM592.239 39.256V34.664H594.115V38.85C594.115 39.41 594.218 39.8347 594.423 40.124C594.628 40.404 594.932 40.544 595.333 40.544C595.576 40.544 595.814 40.4973 596.047 40.404C596.29 40.3013 596.509 40.152 596.705 39.956C596.91 39.76 597.083 39.5127 597.223 39.214V34.664H599.099V39.9C599.099 40.096 599.132 40.236 599.197 40.32C599.272 40.404 599.388 40.4553 599.547 40.474V42C599.36 42.028 599.202 42.0467 599.071 42.056C598.95 42.0747 598.838 42.084 598.735 42.084C598.399 42.084 598.124 42.0093 597.909 41.86C597.704 41.7013 597.582 41.4867 597.545 41.216L597.503 40.628C597.176 41.1227 596.756 41.5007 596.243 41.762C595.73 42.014 595.165 42.14 594.549 42.14C593.793 42.14 593.219 41.8973 592.827 41.412C592.435 40.9173 592.239 40.1987 592.239 39.256ZM605.332 41.622C605.173 41.6873 604.982 41.762 604.758 41.846C604.534 41.93 604.291 41.9953 604.03 42.042C603.778 42.098 603.521 42.126 603.26 42.126C602.915 42.126 602.597 42.0653 602.308 41.944C602.019 41.8227 601.785 41.6313 601.608 41.37C601.44 41.0993 601.356 40.7493 601.356 40.32V36.106H600.39V34.664H601.356V32.284H603.232V34.664H604.772V36.106H603.232V39.69C603.241 39.942 603.311 40.124 603.442 40.236C603.573 40.348 603.736 40.404 603.932 40.404C604.128 40.404 604.319 40.3713 604.506 40.306C604.693 40.2407 604.842 40.1847 604.954 40.138L605.332 41.622Z" fill="black"/>
<rect x="0.5" y="53.5" width="167" height="167" fill="#F6F3ED" stroke="#E0DBC8"/>
<rect x="558.5" y="53.5" width="167" height="167" fill="#F6F3ED" stroke="#E0DBC8"/>
<rect x="192.5" y="53.5" width="341" height="167" fill="#F6F3ED" stroke="#E0DBC8"/>
<line x1="24.5" y1="141" x2="24.5" y2="173" stroke="black" stroke-dasharray="1 1"/>
<line x1="702.5" y1="141" x2="702.5" y2="173" stroke="black" stroke-dasharray="1 1"/>
<rect x="56.5" y="61.5" width="93" height="151" fill="#C2E5F9" stroke="#94C5E8"/>
<rect x="578.5" y="61.5" width="93" height="151" fill="#C2E5F9" stroke="#94C5E8"/>
<path d="M98.0293 140V133.642L95.2023 138.581H94.7183L91.8803 133.642V140H91.1103V132.19H91.9023L94.9493 137.536L98.0183 132.19H98.7993V140H98.0293ZM100.087 138.35C100.087 137.991 100.19 137.683 100.395 137.426C100.6 137.162 100.883 136.96 101.242 136.821C101.609 136.674 102.03 136.601 102.507 136.601C102.786 136.601 103.075 136.623 103.376 136.667C103.677 136.711 103.944 136.777 104.179 136.865V136.381C104.179 135.897 104.036 135.512 103.75 135.226C103.464 134.94 103.068 134.797 102.562 134.797C102.254 134.797 101.95 134.856 101.649 134.973C101.356 135.083 101.048 135.248 100.725 135.468L100.439 134.94C100.813 134.683 101.18 134.493 101.539 134.368C101.898 134.236 102.265 134.17 102.639 134.17C103.343 134.17 103.9 134.372 104.311 134.775C104.722 135.178 104.927 135.736 104.927 136.447V139.098C104.927 139.201 104.949 139.278 104.993 139.329C105.037 139.373 105.107 139.399 105.202 139.406V140C105.121 140.007 105.052 140.015 104.993 140.022C104.934 140.029 104.89 140.029 104.861 140.022C104.678 140.015 104.538 139.956 104.443 139.846C104.348 139.736 104.296 139.619 104.289 139.494L104.278 139.076C104.021 139.406 103.688 139.663 103.277 139.846C102.866 140.022 102.448 140.11 102.023 140.11C101.656 140.11 101.323 140.033 101.022 139.879C100.729 139.718 100.498 139.505 100.329 139.241C100.168 138.97 100.087 138.673 100.087 138.35ZM103.926 138.79C104.007 138.687 104.069 138.588 104.113 138.493C104.157 138.398 104.179 138.313 104.179 138.24V137.404C103.93 137.309 103.669 137.235 103.398 137.184C103.134 137.133 102.866 137.107 102.595 137.107C102.06 137.107 101.627 137.213 101.297 137.426C100.967 137.639 100.802 137.928 100.802 138.295C100.802 138.508 100.857 138.709 100.967 138.9C101.077 139.083 101.238 139.237 101.451 139.362C101.664 139.479 101.913 139.538 102.199 139.538C102.558 139.538 102.892 139.468 103.2 139.329C103.515 139.19 103.757 139.01 103.926 138.79ZM108.424 140.11C107.955 140.11 107.519 140.033 107.115 139.879C106.712 139.725 106.364 139.49 106.07 139.175L106.378 138.647C106.701 138.948 107.024 139.168 107.346 139.307C107.676 139.439 108.025 139.505 108.391 139.505C108.839 139.505 109.202 139.417 109.48 139.241C109.759 139.058 109.898 138.797 109.898 138.46C109.898 138.233 109.829 138.06 109.689 137.943C109.557 137.818 109.363 137.719 109.106 137.646C108.857 137.565 108.556 137.481 108.204 137.393C107.808 137.283 107.475 137.169 107.203 137.052C106.939 136.927 106.738 136.773 106.598 136.59C106.466 136.399 106.4 136.154 106.4 135.853C106.4 135.479 106.492 135.171 106.675 134.929C106.866 134.68 107.123 134.493 107.445 134.368C107.775 134.236 108.142 134.17 108.545 134.17C108.985 134.17 109.374 134.24 109.711 134.379C110.049 134.518 110.324 134.713 110.536 134.962L110.173 135.468C109.968 135.233 109.722 135.061 109.436 134.951C109.158 134.834 108.846 134.775 108.501 134.775C108.267 134.775 108.043 134.808 107.83 134.874C107.618 134.933 107.442 135.035 107.302 135.182C107.17 135.321 107.104 135.516 107.104 135.765C107.104 135.97 107.156 136.132 107.258 136.249C107.361 136.359 107.515 136.454 107.72 136.535C107.926 136.608 108.179 136.689 108.479 136.777C108.912 136.894 109.29 137.015 109.612 137.14C109.935 137.257 110.184 137.411 110.36 137.602C110.536 137.793 110.624 138.06 110.624 138.405C110.624 138.94 110.423 139.358 110.019 139.659C109.616 139.96 109.084 140.11 108.424 140.11ZM115.953 140L113.83 137.063L112.609 138.207V140H111.861V131.97H112.609V137.404L115.854 134.28H116.679L114.336 136.623L116.767 140H115.953Z" fill="black"/>
<path d="M611.384 130.055C610.834 130.055 610.336 129.945 609.888 129.725C609.441 129.505 609.056 129.208 608.733 128.834C608.411 128.453 608.161 128.027 607.985 127.558C607.809 127.081 607.721 126.594 607.721 126.095C607.721 125.574 607.813 125.079 607.996 124.61C608.18 124.133 608.436 123.712 608.766 123.345C609.104 122.971 609.496 122.678 609.943 122.465C610.391 122.245 610.875 122.135 611.395 122.135C611.945 122.135 612.444 122.249 612.891 122.476C613.339 122.703 613.72 123.008 614.035 123.389C614.358 123.77 614.607 124.196 614.783 124.665C614.959 125.134 615.047 125.615 615.047 126.106C615.047 126.627 614.956 127.125 614.772 127.602C614.589 128.071 614.332 128.493 614.002 128.867C613.672 129.234 613.284 129.523 612.836 129.736C612.389 129.949 611.905 130.055 611.384 130.055ZM608.491 126.095C608.491 126.52 608.561 126.931 608.7 127.327C608.84 127.716 609.038 128.064 609.294 128.372C609.551 128.673 609.855 128.915 610.207 129.098C610.567 129.274 610.959 129.362 611.384 129.362C611.832 129.362 612.231 129.27 612.583 129.087C612.943 128.896 613.247 128.647 613.496 128.339C613.753 128.024 613.947 127.672 614.079 127.283C614.211 126.894 614.277 126.498 614.277 126.095C614.277 125.67 614.208 125.263 614.068 124.874C613.929 124.485 613.727 124.137 613.463 123.829C613.207 123.521 612.902 123.279 612.55 123.103C612.198 122.927 611.81 122.839 611.384 122.839C610.944 122.839 610.545 122.931 610.185 123.114C609.833 123.297 609.529 123.547 609.272 123.862C609.023 124.17 608.829 124.518 608.689 124.907C608.557 125.296 608.491 125.692 608.491 126.095ZM616.29 127.635V124.269H617.038V127.503C617.038 128.156 617.148 128.643 617.368 128.966C617.595 129.289 617.929 129.45 618.369 129.45C618.662 129.45 618.945 129.388 619.216 129.263C619.495 129.131 619.74 128.948 619.953 128.713C620.166 128.471 620.327 128.192 620.437 127.877V124.269H621.185V129.098C621.185 129.201 621.207 129.278 621.251 129.329C621.295 129.373 621.361 129.399 621.449 129.406V130C621.361 130.007 621.291 130.011 621.24 130.011C621.189 130.018 621.141 130.022 621.097 130.022C620.95 130.007 620.822 129.949 620.712 129.846C620.609 129.743 620.554 129.619 620.547 129.472L620.525 128.702C620.276 129.142 619.935 129.487 619.502 129.736C619.077 129.985 618.615 130.11 618.116 130.11C617.515 130.11 617.06 129.901 616.752 129.483C616.444 129.065 616.29 128.449 616.29 127.635ZM625.626 129.725C625.568 129.747 625.476 129.787 625.351 129.846C625.227 129.905 625.076 129.956 624.9 130C624.724 130.044 624.534 130.066 624.328 130.066C624.116 130.066 623.914 130.026 623.723 129.945C623.54 129.864 623.393 129.743 623.283 129.582C623.173 129.413 623.118 129.208 623.118 128.966V124.863H622.326V124.269H623.118V122.333H623.866V124.269H625.186V124.863H623.866V128.757C623.881 128.962 623.954 129.116 624.086 129.219C624.226 129.322 624.383 129.373 624.559 129.373C624.765 129.373 624.952 129.34 625.12 129.274C625.289 129.201 625.392 129.149 625.428 129.12L625.626 129.725ZM629.487 130.11C629.01 130.11 628.581 129.985 628.2 129.736C627.826 129.487 627.529 129.179 627.309 128.812V132.343H626.561V124.269H627.232V125.38C627.459 125.021 627.764 124.731 628.145 124.511C628.526 124.284 628.933 124.17 629.366 124.17C629.762 124.17 630.125 124.254 630.455 124.423C630.785 124.584 631.071 124.804 631.313 125.083C631.555 125.362 631.742 125.681 631.874 126.04C632.013 126.392 632.083 126.759 632.083 127.14C632.083 127.675 631.973 128.17 631.753 128.625C631.54 129.072 631.24 129.432 630.851 129.703C630.462 129.974 630.008 130.11 629.487 130.11ZM629.278 129.45C629.593 129.45 629.876 129.388 630.125 129.263C630.374 129.131 630.587 128.955 630.763 128.735C630.946 128.515 631.086 128.269 631.181 127.998C631.276 127.719 631.324 127.433 631.324 127.14C631.324 126.832 631.269 126.539 631.159 126.26C631.056 125.981 630.906 125.736 630.708 125.523C630.51 125.31 630.283 125.142 630.026 125.017C629.769 124.892 629.491 124.83 629.19 124.83C628.999 124.83 628.801 124.867 628.596 124.94C628.391 125.013 628.193 125.12 628.002 125.259C627.819 125.391 627.665 125.541 627.54 125.71C627.415 125.879 627.338 126.058 627.309 126.249V128.009C627.426 128.28 627.584 128.526 627.782 128.746C627.98 128.959 628.207 129.131 628.464 129.263C628.728 129.388 628.999 129.45 629.278 129.45ZM633.295 127.635V124.269H634.043V127.503C634.043 128.156 634.153 128.643 634.373 128.966C634.6 129.289 634.934 129.45 635.374 129.45C635.667 129.45 635.95 129.388 636.221 129.263C636.5 129.131 636.745 128.948 636.958 128.713C637.171 128.471 637.332 128.192 637.442 127.877V124.269H638.19V129.098C638.19 129.201 638.212 129.278 638.256 129.329C638.3 129.373 638.366 129.399 638.454 129.406V130C638.366 130.007 638.296 130.011 638.245 130.011C638.194 130.018 638.146 130.022 638.102 130.022C637.955 130.007 637.827 129.949 637.717 129.846C637.614 129.743 637.559 129.619 637.552 129.472L637.53 128.702C637.281 129.142 636.94 129.487 636.507 129.736C636.082 129.985 635.62 130.11 635.121 130.11C634.52 130.11 634.065 129.901 633.757 129.483C633.449 129.065 633.295 128.449 633.295 127.635ZM642.631 129.725C642.572 129.747 642.481 129.787 642.356 129.846C642.231 129.905 642.081 129.956 641.905 130C641.729 130.044 641.538 130.066 641.333 130.066C641.12 130.066 640.919 130.026 640.728 129.945C640.545 129.864 640.398 129.743 640.288 129.582C640.178 129.413 640.123 129.208 640.123 128.966V124.863H639.331V124.269H640.123V122.333H640.871V124.269H642.191V124.863H640.871V128.757C640.886 128.962 640.959 129.116 641.091 129.219C641.23 129.322 641.388 129.373 641.564 129.373C641.769 129.373 641.956 129.34 642.125 129.274C642.294 129.201 642.396 129.149 642.433 129.12L642.631 129.725ZM613.157 137.269H613.894L611.43 143H610.781L609.582 140.151L608.394 143H607.745L605.281 137.269H606.007L608.097 142.23L609.153 139.645L608.185 137.28H608.856L609.582 139.139L610.319 137.28H610.979L610.022 139.645L611.078 142.23L613.157 137.269ZM617.171 143.11C616.76 143.11 616.379 143.033 616.027 142.879C615.675 142.718 615.371 142.501 615.114 142.23C614.857 141.951 614.656 141.632 614.509 141.273C614.37 140.914 614.3 140.529 614.3 140.118C614.3 139.583 614.421 139.091 614.663 138.644C614.912 138.197 615.253 137.841 615.686 137.577C616.119 137.306 616.61 137.17 617.16 137.17C617.725 137.17 618.216 137.306 618.634 137.577C619.059 137.848 619.393 138.208 619.635 138.655C619.877 139.095 619.998 139.579 619.998 140.107C619.998 140.166 619.998 140.224 619.998 140.283C619.998 140.334 619.994 140.375 619.987 140.404H615.081C615.118 140.815 615.231 141.181 615.422 141.504C615.62 141.819 615.873 142.072 616.181 142.263C616.496 142.446 616.837 142.538 617.204 142.538C617.578 142.538 617.93 142.443 618.26 142.252C618.597 142.061 618.832 141.812 618.964 141.504L619.613 141.68C619.496 141.951 619.316 142.197 619.074 142.417C618.832 142.637 618.546 142.809 618.216 142.934C617.893 143.051 617.545 143.11 617.171 143.11ZM615.059 139.865H619.294C619.265 139.447 619.151 139.08 618.953 138.765C618.762 138.45 618.509 138.204 618.194 138.028C617.886 137.845 617.545 137.753 617.171 137.753C616.797 137.753 616.456 137.845 616.148 138.028C615.84 138.204 615.587 138.453 615.389 138.776C615.198 139.091 615.088 139.454 615.059 139.865ZM621.152 143V137.269H621.9V143H621.152ZM621.152 136.07V134.97H621.9V136.07H621.152ZM625.847 143.077C625.458 143.077 625.099 142.996 624.769 142.835C624.439 142.674 624.153 142.457 623.911 142.186C623.676 141.907 623.493 141.592 623.361 141.24C623.229 140.888 623.163 140.525 623.163 140.151C623.163 139.748 623.225 139.37 623.35 139.018C623.482 138.659 623.665 138.34 623.9 138.061C624.142 137.782 624.424 137.566 624.747 137.412C625.069 137.251 625.429 137.17 625.825 137.17C626.316 137.17 626.741 137.295 627.101 137.544C627.467 137.793 627.775 138.101 628.025 138.468V137.269H628.696V143.022C628.696 143.55 628.567 143.994 628.311 144.353C628.061 144.72 627.72 144.995 627.288 145.178C626.862 145.361 626.397 145.453 625.891 145.453C625.238 145.453 624.71 145.336 624.307 145.101C623.903 144.866 623.573 144.551 623.317 144.155L623.779 143.792C624.006 144.151 624.307 144.419 624.681 144.595C625.062 144.771 625.465 144.859 625.891 144.859C626.265 144.859 626.606 144.789 626.914 144.65C627.229 144.518 627.478 144.316 627.662 144.045C627.852 143.774 627.948 143.433 627.948 143.022V141.889C627.728 142.248 627.427 142.538 627.046 142.758C626.664 142.971 626.265 143.077 625.847 143.077ZM626.056 142.45C626.283 142.45 626.499 142.41 626.705 142.329C626.917 142.248 627.112 142.142 627.288 142.01C627.464 141.871 627.61 141.717 627.728 141.548C627.845 141.379 627.918 141.207 627.948 141.031V139.26C627.838 138.981 627.68 138.736 627.475 138.523C627.269 138.303 627.035 138.134 626.771 138.017C626.514 137.892 626.246 137.83 625.968 137.83C625.645 137.83 625.355 137.9 625.099 138.039C624.849 138.171 624.637 138.351 624.461 138.578C624.292 138.798 624.16 139.047 624.065 139.326C623.969 139.605 623.922 139.883 623.922 140.162C623.922 140.47 623.977 140.763 624.087 141.042C624.197 141.313 624.347 141.559 624.538 141.779C624.736 141.992 624.963 142.157 625.22 142.274C625.484 142.391 625.762 142.45 626.056 142.45ZM635.165 143H634.417V139.799C634.417 139.154 634.304 138.67 634.076 138.347C633.849 138.017 633.523 137.852 633.097 137.852C632.819 137.852 632.54 137.925 632.261 138.072C631.99 138.211 631.748 138.406 631.535 138.655C631.33 138.897 631.183 139.176 631.095 139.491V143H630.347V134.97H631.095V138.567C631.323 138.142 631.638 137.804 632.041 137.555C632.452 137.298 632.888 137.17 633.35 137.17C633.68 137.17 633.959 137.229 634.186 137.346C634.421 137.463 634.608 137.636 634.747 137.863C634.894 138.083 635 138.343 635.066 138.644C635.132 138.937 635.165 139.271 635.165 139.645V143ZM639.457 142.725C639.398 142.747 639.307 142.787 639.182 142.846C639.057 142.905 638.907 142.956 638.731 143C638.555 143.044 638.364 143.066 638.159 143.066C637.946 143.066 637.745 143.026 637.554 142.945C637.371 142.864 637.224 142.743 637.114 142.582C637.004 142.413 636.949 142.208 636.949 141.966V137.863H636.157V137.269H636.949V135.333H637.697V137.269H639.017V137.863H637.697V141.757C637.712 141.962 637.785 142.116 637.917 142.219C638.056 142.322 638.214 142.373 638.39 142.373C638.595 142.373 638.782 142.34 638.951 142.274C639.12 142.201 639.222 142.149 639.259 142.12L639.457 142.725ZM642.272 143.11C641.803 143.11 641.367 143.033 640.963 142.879C640.56 142.725 640.212 142.49 639.918 142.175L640.226 141.647C640.549 141.948 640.872 142.168 641.194 142.307C641.524 142.439 641.873 142.505 642.239 142.505C642.687 142.505 643.05 142.417 643.328 142.241C643.607 142.058 643.746 141.797 643.746 141.46C643.746 141.233 643.677 141.06 643.537 140.943C643.405 140.818 643.211 140.719 642.954 140.646C642.705 140.565 642.404 140.481 642.052 140.393C641.656 140.283 641.323 140.169 641.051 140.052C640.787 139.927 640.586 139.773 640.446 139.59C640.314 139.399 640.248 139.154 640.248 138.853C640.248 138.479 640.34 138.171 640.523 137.929C640.714 137.68 640.971 137.493 641.293 137.368C641.623 137.236 641.99 137.17 642.393 137.17C642.833 137.17 643.222 137.24 643.559 137.379C643.897 137.518 644.172 137.713 644.384 137.962L644.021 138.468C643.816 138.233 643.57 138.061 643.284 137.951C643.006 137.834 642.694 137.775 642.349 137.775C642.115 137.775 641.891 137.808 641.678 137.874C641.466 137.933 641.29 138.035 641.15 138.182C641.018 138.321 640.952 138.516 640.952 138.765C640.952 138.97 641.004 139.132 641.106 139.249C641.209 139.359 641.363 139.454 641.568 139.535C641.774 139.608 642.027 139.689 642.327 139.777C642.76 139.894 643.138 140.015 643.46 140.14C643.783 140.257 644.032 140.411 644.208 140.602C644.384 140.793 644.472 141.06 644.472 141.405C644.472 141.94 644.271 142.358 643.867 142.659C643.464 142.96 642.932 143.11 642.272 143.11Z" fill="black"/>
<path d="M316.5 69.0925C329.888 67.0848 344.171 66 359 66C435.215 66 497 94.6538 497 130C497 143.085 488.532 155.253 474 165.39" stroke="black" stroke-dasharray="2 2"/>
<path d="M316 69.168C260.84 77.549 221 101.617 221 130C221 165.346 282.785 194 359 194C405.111 194 445.94 183.512 471 167.398" stroke="black"/>
<path d="M205 140L200 137.113V142.887L205 140ZM150 140.5H200.5V139.5H150V140.5Z" fill="#414D61"/>
<circle cx="317" cy="73" r="15.5" fill="#F8C9C8" stroke="#E99B9E"/>
<circle cx="250" cy="166" r="15.5" fill="#F8C9C8" stroke="#E99B9E"/>
<circle cx="16" cy="16" r="15.5" transform="matrix(-1 0 0 1 487 150)" fill="#F8C9C8" stroke="#E99B9E"/>
<circle cx="315" cy="188" r="15.5" fill="#F8C9C8" stroke="#E99B9E"/>
<circle cx="16" cy="16" r="15.5" transform="matrix(-1 0 0 1 422 172)" fill="#F8C9C8" stroke="#E99B9E"/>
<circle cx="222" cy="136" r="11.5" fill="#FFEFBE" stroke="#F4D685"/>
<rect x="221" y="130" width="2" height="12" fill="#222C3E"/>
<rect x="216" y="137" width="2" height="12" transform="rotate(-90 216 137)" fill="#222C3E"/>
<path d="M252.69 170.132V171H247.944V170.132H249.932V164.14C249.857 164.252 249.731 164.373 249.554 164.504C249.377 164.635 249.171 164.756 248.938 164.868C248.714 164.98 248.49 165.073 248.266 165.148C248.042 165.223 247.837 165.26 247.65 165.26V164.336C247.865 164.336 248.098 164.275 248.35 164.154C248.602 164.033 248.845 163.893 249.078 163.734C249.311 163.575 249.507 163.426 249.666 163.286C249.825 163.146 249.913 163.053 249.932 163.006H250.912V170.132H252.69Z" fill="black"/>
<path d="M311.966 193C311.966 192.683 311.994 192.365 312.05 192.048C312.106 191.721 312.213 191.399 312.372 191.082C312.53 190.765 312.764 190.461 313.072 190.172C313.38 189.873 313.786 189.593 314.29 189.332C314.56 189.192 314.84 189.057 315.13 188.926C315.419 188.786 315.69 188.637 315.942 188.478C316.203 188.31 316.408 188.123 316.558 187.918C316.716 187.703 316.796 187.451 316.796 187.162C316.796 186.929 316.726 186.7 316.586 186.476C316.455 186.252 316.25 186.07 315.97 185.93C315.699 185.79 315.358 185.72 314.948 185.72C314.649 185.72 314.378 185.762 314.136 185.846C313.893 185.93 313.678 186.037 313.492 186.168C313.305 186.289 313.146 186.415 313.016 186.546C312.885 186.667 312.778 186.77 312.694 186.854L312.092 186.196C312.138 186.14 312.241 186.042 312.4 185.902C312.568 185.753 312.778 185.599 313.03 185.44C313.291 185.281 313.594 185.146 313.94 185.034C314.294 184.922 314.682 184.866 315.102 184.866C315.671 184.866 316.156 184.969 316.558 185.174C316.968 185.37 317.281 185.636 317.496 185.972C317.71 186.308 317.818 186.672 317.818 187.064C317.818 187.447 317.734 187.778 317.566 188.058C317.407 188.329 317.197 188.567 316.936 188.772C316.684 188.968 316.418 189.141 316.138 189.29C315.867 189.43 315.62 189.551 315.396 189.654C314.957 189.859 314.588 190.065 314.29 190.27C313.991 190.475 313.753 190.685 313.576 190.9C313.398 191.105 313.258 191.311 313.156 191.516C313.062 191.712 312.997 191.917 312.96 192.132H317.972V193H311.966Z" fill="black"/>
<path d="M407.063 189.696C407.483 189.761 407.842 189.911 408.141 190.144C408.439 190.377 408.673 190.671 408.841 191.026C409.009 191.381 409.093 191.782 409.093 192.23C409.093 192.79 408.957 193.285 408.687 193.714C408.416 194.143 408.038 194.475 407.553 194.708C407.067 194.941 406.503 195.058 405.859 195.058C405.149 195.058 404.529 194.913 403.997 194.624C403.465 194.344 403.063 193.952 402.793 193.448L403.451 192.846C403.656 193.247 403.959 193.569 404.361 193.812C404.762 194.064 405.261 194.19 405.859 194.19C406.549 194.19 407.095 194.017 407.497 193.672C407.907 193.336 408.113 192.851 408.113 192.216C408.113 191.581 407.898 191.077 407.469 190.704C407.049 190.321 406.447 190.13 405.663 190.13H405.313V189.318H405.691C406.409 189.318 406.96 189.15 407.343 188.814C407.725 188.478 407.917 188.049 407.917 187.526C407.917 187.143 407.828 186.826 407.651 186.574C407.473 186.322 407.231 186.131 406.923 186C406.624 185.869 406.279 185.804 405.887 185.804C405.355 185.804 404.883 185.925 404.473 186.168C404.071 186.401 403.768 186.728 403.563 187.148L402.947 186.56C403.105 186.233 403.334 185.949 403.633 185.706C403.931 185.463 404.281 185.277 404.683 185.146C405.084 185.006 405.513 184.936 405.971 184.936C406.549 184.936 407.058 185.043 407.497 185.258C407.935 185.463 408.281 185.753 408.533 186.126C408.785 186.499 408.911 186.938 408.911 187.442C408.911 187.815 408.836 188.161 408.687 188.478C408.537 188.795 408.323 189.061 408.043 189.276C407.772 189.491 407.445 189.631 407.063 189.696Z" fill="black"/>
<path d="M472.163 172.778V170.286H467.501V169.446L472.471 163.006H473.115V169.418H474.347V170.286H473.115V172.778H472.163ZM468.509 169.418H472.261V164.504L468.509 169.418Z" fill="black"/>
<path d="M314.319 69.866V78H313.339V68.06H314.151L320.675 76.348V68.074H321.655V78H320.745L314.319 69.866Z" fill="black"/>
<rect x="9.5" y="61.5" width="31" height="31" fill="#FFEFBE" stroke="#F4D685"/>
<path d="M27.6899 81.132V82H22.9439V81.132H24.9319V75.14C24.8572 75.252 24.7312 75.3733 24.5539 75.504C24.3765 75.6347 24.1712 75.756 23.9379 75.868C23.7139 75.98 23.4899 76.0733 23.2659 76.148C23.0419 76.2227 22.8365 76.26 22.6499 76.26V75.336C22.8645 75.336 23.0979 75.2753 23.3499 75.154C23.6019 75.0327 23.8445 74.8927 24.0779 74.734C24.3112 74.5753 24.5072 74.426 24.6659 74.286C24.8245 74.146 24.9132 74.0527 24.9319 74.006H25.9119V81.132H27.6899Z" fill="black"/>
<rect x="687.5" y="61.5" width="31" height="31" fill="#FFEFBE" stroke="#F4D685"/>
<path d="M705.69 81.132V82H700.944V81.132H702.932V75.14C702.857 75.252 702.731 75.3733 702.554 75.504C702.377 75.6347 702.171 75.756 701.938 75.868C701.714 75.98 701.49 76.0733 701.266 76.148C701.042 76.2227 700.837 76.26 700.65 76.26V75.336C700.865 75.336 701.098 75.2753 701.35 75.154C701.602 75.0327 701.845 74.8927 702.078 74.734C702.311 74.5753 702.507 74.426 702.666 74.286C702.825 74.146 702.913 74.0527 702.932 74.006H703.912V81.132H705.69Z" fill="black"/>
<rect x="9.5" y="101.5" width="31" height="31" fill="#FFEFBE" stroke="#F4D685"/>
<path d="M21.9656 122C21.9656 121.683 21.9936 121.365 22.0496 121.048C22.1056 120.721 22.2129 120.399 22.3716 120.082C22.5303 119.765 22.7636 119.461 23.0716 119.172C23.3796 118.873 23.7856 118.593 24.2896 118.332C24.5603 118.192 24.8403 118.057 25.1296 117.926C25.4189 117.786 25.6896 117.637 25.9416 117.478C26.2029 117.31 26.4083 117.123 26.5576 116.918C26.7163 116.703 26.7956 116.451 26.7956 116.162C26.7956 115.929 26.7256 115.7 26.5856 115.476C26.4549 115.252 26.2496 115.07 25.9696 114.93C25.6989 114.79 25.3583 114.72 24.9476 114.72C24.6489 114.72 24.3783 114.762 24.1356 114.846C23.8929 114.93 23.6783 115.037 23.4916 115.168C23.3049 115.289 23.1463 115.415 23.0156 115.546C22.8849 115.667 22.7776 115.77 22.6936 115.854L22.0916 115.196C22.1383 115.14 22.2409 115.042 22.3996 114.902C22.5676 114.753 22.7776 114.599 23.0296 114.44C23.2909 114.281 23.5943 114.146 23.9396 114.034C24.2943 113.922 24.6816 113.866 25.1016 113.866C25.6709 113.866 26.1563 113.969 26.5576 114.174C26.9683 114.37 27.2809 114.636 27.4956 114.972C27.7103 115.308 27.8176 115.672 27.8176 116.064C27.8176 116.447 27.7336 116.778 27.5656 117.058C27.4069 117.329 27.1969 117.567 26.9356 117.772C26.6836 117.968 26.4176 118.141 26.1376 118.29C25.8669 118.43 25.6196 118.551 25.3956 118.654C24.9569 118.859 24.5883 119.065 24.2896 119.27C23.9909 119.475 23.7529 119.685 23.5756 119.9C23.3983 120.105 23.2583 120.311 23.1556 120.516C23.0623 120.712 22.9969 120.917 22.9596 121.132H27.9716V122H21.9656Z" fill="black"/>
<rect x="687.5" y="101.5" width="31" height="31" fill="#FFEFBE" stroke="#F4D685"/>
<path d="M699.966 122C699.966 121.683 699.994 121.365 700.05 121.048C700.106 120.721 700.213 120.399 700.372 120.082C700.53 119.765 700.764 119.461 701.072 119.172C701.38 118.873 701.786 118.593 702.29 118.332C702.56 118.192 702.84 118.057 703.13 117.926C703.419 117.786 703.69 117.637 703.942 117.478C704.203 117.31 704.408 117.123 704.558 116.918C704.716 116.703 704.796 116.451 704.796 116.162C704.796 115.929 704.726 115.7 704.586 115.476C704.455 115.252 704.25 115.07 703.97 114.93C703.699 114.79 703.358 114.72 702.948 114.72C702.649 114.72 702.378 114.762 702.136 114.846C701.893 114.93 701.678 115.037 701.492 115.168C701.305 115.289 701.146 115.415 701.016 115.546C700.885 115.667 700.778 115.77 700.694 115.854L700.092 115.196C700.138 115.14 700.241 115.042 700.4 114.902C700.568 114.753 700.778 114.599 701.03 114.44C701.291 114.281 701.594 114.146 701.94 114.034C702.294 113.922 702.682 113.866 703.102 113.866C703.671 113.866 704.156 113.969 704.558 114.174C704.968 114.37 705.281 114.636 705.496 114.972C705.71 115.308 705.818 115.672 705.818 116.064C705.818 116.447 705.734 116.778 705.566 117.058C705.407 117.329 705.197 117.567 704.936 117.772C704.684 117.968 704.418 118.141 704.138 118.29C703.867 118.43 703.62 118.551 703.396 118.654C702.957 118.859 702.588 119.065 702.29 119.27C701.991 119.475 701.753 119.685 701.576 119.9C701.398 120.105 701.258 120.311 701.156 120.516C701.062 120.712 700.997 120.917 700.96 121.132H705.972V122H699.966Z" fill="black"/>
<rect x="9.5" y="181.5" width="31" height="31" fill="#FFEFBE" stroke="#F4D685"/>
<path d="M22.248 202V192.074H23.228V197.842L28.702 192.06H29.78L25.72 196.428L29.99 202H28.884L25.09 197.016L23.228 198.948V202H22.248Z" fill="black"/>
<rect x="687.5" y="181.5" width="31" height="31" fill="#FFEFBE" stroke="#F4D685"/>
<path d="M700.665 202V192.06H701.645V201.132H707.385V202H700.665Z" fill="black"/>
<path d="M290 156.35L293.44 160.986L295.736 155.688L290 156.35ZM449.5 129C449.5 134.355 446.992 139.498 442.373 144.22C437.752 148.945 431.041 153.222 422.709 156.825C406.046 164.031 382.992 168.5 357.5 168.5V169.5C383.095 169.5 406.29 165.015 423.106 157.743C431.513 154.108 438.348 149.766 443.088 144.919C447.831 140.071 450.5 134.69 450.5 129H449.5ZM357.5 89.5C382.992 89.5 406.046 93.9691 422.709 101.175C431.041 104.778 437.752 109.055 442.373 113.78C446.992 118.502 449.5 123.645 449.5 129H450.5C450.5 123.31 447.831 117.929 443.088 113.081C438.348 108.234 431.513 103.892 423.106 100.257C406.29 92.9852 383.095 88.5 357.5 88.5V89.5ZM279.285 108.243C295.511 97.0141 324.443 89.5 357.5 89.5V88.5C324.336 88.5 295.174 96.0315 278.715 107.42L279.285 108.243ZM357.5 168.5C333.027 168.5 310.799 164.381 294.317 157.675L293.94 158.601C310.566 165.366 332.927 169.5 357.5 169.5V168.5Z" fill="#5090C9"/>
<rect x="216.5" y="82.5" width="67" height="30" fill="#C2E5F9" stroke="#94C5E8"/>
<path d="M233.161 101.617C233.647 101.617 234.091 101.403 234.494 100.975C234.898 100.547 235.103 100.049 235.112 99.4808C235.112 98.9622 234.898 98.6042 234.47 98.4066C233.597 98.1844 233.037 98.0321 232.79 97.9498C232.544 97.8674 232.371 97.7851 232.272 97.7028C231.778 97.3571 231.531 96.8591 231.531 96.2088C231.531 95.7067 231.663 95.2498 231.926 94.8383C232.19 94.4267 232.457 94.118 232.729 93.9122C232.967 93.7065 233.256 93.5418 233.593 93.4184C233.931 93.2949 234.194 93.229 234.383 93.2208H234.519H234.605C235.396 93.2208 235.968 93.4842 236.322 94.011C236.33 94.011 236.383 93.9575 236.482 93.8505C236.581 93.7435 236.688 93.6241 236.803 93.4924C236.919 93.3607 237.001 93.2702 237.05 93.2208C237.058 93.2208 237.075 93.2208 237.1 93.2208C237.124 93.2208 237.145 93.2167 237.161 93.2084C237.268 93.2084 237.322 93.2373 237.322 93.2949C237.322 93.3525 237.207 93.8505 236.976 94.7889C236.746 95.7273 236.614 96.2129 236.581 96.2459C236.548 96.2788 236.482 96.2911 236.383 96.2829C236.219 96.2829 236.137 96.2459 236.137 96.1718C236.137 96.1224 236.141 96.0812 236.149 96.0483C236.149 96.0236 236.153 95.9454 236.161 95.8137C236.169 95.682 236.178 95.575 236.186 95.4927C236.186 95.2128 236.149 94.97 236.075 94.7642C236.001 94.5584 235.927 94.4061 235.853 94.3073C235.778 94.2086 235.676 94.1057 235.544 93.9987C235.248 93.8258 234.91 93.7394 234.531 93.7394C234.062 93.7394 233.626 93.9287 233.223 94.3073C232.819 94.686 232.613 95.1223 232.605 95.6161C232.605 95.8631 232.667 96.0771 232.79 96.2582C232.914 96.4393 233.083 96.5669 233.297 96.641C233.33 96.6574 233.618 96.7356 234.161 96.8756C234.704 97.0155 234.98 97.0896 234.988 97.0978C235.268 97.1884 235.54 97.3859 235.803 97.6905C236.067 97.995 236.198 98.4066 236.198 98.9252C236.198 99.1392 236.165 99.3697 236.1 99.6166C236.058 99.7977 235.984 99.9994 235.877 100.222C235.77 100.444 235.622 100.687 235.433 100.95C235.243 101.214 234.972 101.46 234.618 101.691C234.264 101.921 233.877 102.078 233.457 102.16C233.358 102.177 233.218 102.185 233.037 102.185C232.222 102.185 231.589 101.958 231.136 101.506L231.012 101.37L230.667 101.753C230.477 101.975 230.362 102.103 230.321 102.135C230.28 102.168 230.226 102.185 230.161 102.185C230.054 102.185 230 102.152 230 102.086C230 102.061 230.239 101.094 230.716 99.1845C230.733 99.1351 230.815 99.1104 230.963 99.1104H231.124C231.173 99.1598 231.198 99.2051 231.198 99.2462C231.198 99.2627 231.194 99.2997 231.185 99.3573C231.177 99.415 231.161 99.5014 231.136 99.6166C231.111 99.7319 231.103 99.8677 231.111 100.024C231.128 100.345 231.202 100.617 231.333 100.839C231.465 101.061 231.642 101.226 231.864 101.333C232.087 101.44 232.301 101.514 232.506 101.555C232.712 101.596 232.93 101.617 233.161 101.617Z" fill="black"/>
<path d="M239.594 94.5049C239.594 94.3073 239.672 94.1345 239.828 93.9863C239.985 93.8381 240.166 93.7599 240.372 93.7517C240.52 93.7517 240.643 93.8011 240.742 93.8999C240.841 93.9987 240.894 94.1221 240.903 94.2703C240.903 94.4596 240.82 94.6325 240.656 94.7889C240.491 94.9453 240.31 95.0276 240.112 95.0358C239.989 95.0358 239.874 94.9947 239.767 94.9123C239.66 94.83 239.602 94.6942 239.594 94.5049ZM237.581 98.3696C237.581 98.3037 237.618 98.1761 237.692 97.9868C237.766 97.7975 237.865 97.5876 237.989 97.3571C238.112 97.1266 238.293 96.9167 238.532 96.7274C238.771 96.5381 239.018 96.4475 239.273 96.4557C239.594 96.4557 239.861 96.5504 240.075 96.7397C240.289 96.929 240.4 97.1842 240.409 97.5053C240.409 97.6452 240.351 97.8757 240.236 98.1967C240.121 98.5177 239.956 98.9499 239.742 99.4931C239.528 100.036 239.355 100.501 239.223 100.888C239.182 101.069 239.162 101.201 239.162 101.283C239.162 101.489 239.232 101.592 239.372 101.592C239.446 101.592 239.524 101.58 239.606 101.555C239.688 101.53 239.783 101.473 239.89 101.382C239.997 101.292 240.108 101.148 240.223 100.95C240.339 100.753 240.442 100.51 240.532 100.222C240.557 100.123 240.577 100.065 240.594 100.049C240.61 100.032 240.68 100.024 240.804 100.024C240.968 100.024 241.051 100.065 241.051 100.148C241.051 100.213 241.014 100.341 240.94 100.53C240.866 100.72 240.763 100.93 240.631 101.16C240.499 101.39 240.314 101.596 240.075 101.777C239.837 101.958 239.581 102.049 239.31 102.049C239.046 102.049 238.804 101.963 238.581 101.79C238.359 101.617 238.244 101.353 238.236 101C238.236 100.86 238.256 100.728 238.297 100.604C238.338 100.481 238.515 100.012 238.828 99.1968C239.141 98.3654 239.322 97.8674 239.372 97.7028C239.421 97.5382 239.45 97.3777 239.458 97.2213C239.458 97.0237 239.388 96.9249 239.248 96.9249H239.223C238.976 96.9249 238.75 97.0608 238.544 97.3324C238.338 97.604 238.182 97.9497 238.075 98.3696C238.067 98.3778 238.059 98.3901 238.05 98.4066C238.042 98.4231 238.038 98.4354 238.038 98.4436C238.038 98.4519 238.03 98.4601 238.013 98.4683C237.997 98.4766 237.985 98.4807 237.976 98.4807C237.968 98.4807 237.952 98.4807 237.927 98.4807C237.902 98.4807 237.869 98.4807 237.828 98.4807H237.655C237.606 98.4313 237.581 98.3942 237.581 98.3696Z" fill="black"/>
<path d="M241.841 98.3696C241.849 98.3202 241.862 98.2543 241.878 98.172C241.894 98.0897 241.944 97.9333 242.026 97.7028C242.108 97.4723 242.191 97.2789 242.273 97.1225C242.355 96.9661 242.491 96.8138 242.681 96.6656C242.87 96.5175 243.059 96.4475 243.249 96.4557C243.545 96.4557 243.792 96.5298 243.989 96.678C244.187 96.8262 244.31 96.9661 244.36 97.0978C244.409 97.2295 244.434 97.3159 244.434 97.3571C244.434 97.3735 244.438 97.3818 244.446 97.3818L244.582 97.246C245.084 96.7191 245.656 96.4557 246.298 96.4557C246.743 96.4557 247.101 96.5669 247.372 96.7891C247.644 97.0114 247.784 97.3365 247.792 97.7645C247.801 98.1926 247.644 98.8387 247.323 99.703C247.002 100.567 246.846 101.09 246.854 101.271C246.854 101.485 246.924 101.592 247.064 101.592C247.113 101.592 247.15 101.588 247.175 101.58C247.414 101.539 247.628 101.382 247.817 101.111C248.006 100.839 248.15 100.51 248.249 100.123C248.266 100.057 248.348 100.024 248.496 100.024C248.661 100.024 248.743 100.057 248.743 100.123C248.743 100.131 248.727 100.193 248.694 100.308C248.628 100.547 248.537 100.781 248.422 101.012C248.307 101.242 248.117 101.473 247.854 101.703C247.591 101.934 247.307 102.045 247.002 102.037C246.615 102.037 246.335 101.926 246.162 101.703C245.99 101.481 245.903 101.251 245.903 101.012C245.903 100.855 246.051 100.362 246.348 99.5302C246.644 98.6988 246.796 98.0732 246.805 97.6534C246.805 97.1678 246.623 96.9249 246.261 96.9249H246.199C245.492 96.9249 244.895 97.3406 244.409 98.172L244.323 98.3202L243.915 99.9747C243.644 101.053 243.487 101.633 243.446 101.716C243.339 101.938 243.162 102.049 242.915 102.049C242.808 102.049 242.722 102.024 242.656 101.975C242.59 101.926 242.545 101.876 242.52 101.827C242.495 101.777 242.487 101.736 242.495 101.703C242.495 101.596 242.652 100.925 242.965 99.6907C243.277 98.456 243.442 97.7851 243.458 97.6781C243.467 97.637 243.471 97.5423 243.471 97.3941C243.471 97.0731 243.372 96.9126 243.174 96.9126C242.862 96.9126 242.602 97.3242 242.397 98.1473C242.347 98.3119 242.322 98.3984 242.322 98.4066C242.306 98.456 242.228 98.4807 242.088 98.4807H241.915C241.866 98.4313 241.841 98.3942 241.841 98.3696Z" fill="black"/>
<path d="M249.941 93.0689C249.784 93.0689 249.659 93.0165 249.566 92.9117C249.473 92.807 249.426 92.679 249.426 92.5277C249.426 92.1145 249.581 91.7565 249.889 91.4539C250.197 91.1513 250.582 91 251.041 91C251.571 91 252.013 91.1629 252.368 91.4888C252.723 91.8147 252.904 92.2367 252.909 92.7546C252.909 93.0049 252.851 93.2435 252.735 93.4704C252.618 93.6974 252.479 93.8953 252.316 94.064C252.153 94.2328 251.92 94.4481 251.617 94.71C251.408 94.8904 251.117 95.1581 250.745 95.5131L250.23 96.002L250.893 96.0107C251.807 96.0107 252.293 95.9962 252.351 95.9671C252.391 95.9554 252.461 95.6964 252.56 95.1901V95.1639H252.909V95.1901C252.904 95.2076 252.866 95.4724 252.796 95.9845C252.726 96.4966 252.682 96.7643 252.665 96.7876V96.8138H249.426V96.648V96.5432C249.426 96.5025 249.444 96.4588 249.479 96.4123C249.514 96.3657 249.601 96.2639 249.741 96.1067C249.909 95.9205 250.055 95.7575 250.177 95.6179C250.23 95.5597 250.328 95.452 250.474 95.2949C250.619 95.1378 250.718 95.0301 250.771 94.9719C250.823 94.9137 250.907 94.8177 251.024 94.6838C251.14 94.55 251.222 94.451 251.268 94.387C251.315 94.323 251.382 94.2357 251.469 94.1251C251.556 94.0146 251.617 93.9215 251.652 93.8458C251.687 93.7701 251.731 93.6858 251.783 93.5926C251.836 93.4995 251.874 93.4064 251.897 93.3133C251.92 93.2202 251.94 93.1329 251.958 93.0514C251.975 92.9699 251.984 92.8739 251.984 92.7633C251.984 92.3967 251.885 92.0795 251.687 91.8118C251.489 91.5441 251.207 91.4103 250.841 91.4103C250.649 91.4103 250.48 91.4597 250.334 91.5587C250.189 91.6576 250.087 91.7536 250.029 91.8468C249.971 91.9399 249.941 91.9952 249.941 92.0126C249.941 92.0184 249.956 92.0213 249.985 92.0213C250.09 92.0213 250.197 92.0621 250.308 92.1436C250.419 92.225 250.474 92.3589 250.474 92.5451C250.474 92.6906 250.427 92.8128 250.334 92.9117C250.241 93.0107 250.11 93.0631 249.941 93.0689Z" fill="black"/>
<path d="M255.134 98.8264C255.134 98.2584 255.175 97.7193 255.257 97.2089C255.34 96.6986 255.434 96.2582 255.541 95.8878C255.648 95.5174 255.801 95.1552 255.998 94.8012C256.196 94.4473 256.352 94.1715 256.467 93.974C256.583 93.7764 256.756 93.5624 256.986 93.3319C257.216 93.1014 257.352 92.9615 257.393 92.9121C257.435 92.8627 257.537 92.7763 257.702 92.6528H257.863H257.912C258.027 92.6528 258.085 92.6899 258.085 92.7639C258.085 92.7886 258.015 92.8751 257.875 93.0232C257.735 93.1714 257.566 93.3895 257.369 93.6776C257.171 93.9657 256.97 94.3197 256.764 94.7395C256.558 95.1593 256.385 95.7273 256.245 96.4434C256.105 97.1595 256.035 97.9539 256.035 98.8264C256.035 99.6989 256.105 100.489 256.245 101.197C256.385 101.905 256.554 102.477 256.751 102.913C256.949 103.35 257.151 103.704 257.356 103.975C257.562 104.247 257.735 104.465 257.875 104.63C258.015 104.794 258.085 104.881 258.085 104.889C258.085 104.963 258.023 105 257.9 105H257.863H257.702L257.356 104.704C256.583 104.004 256.019 103.131 255.665 102.086C255.311 101.041 255.134 99.9541 255.134 98.8264Z" fill="black"/>
<path d="M259.418 98.3449C259.476 97.9991 259.698 97.5999 260.085 97.1472C260.472 96.6945 260.949 96.464 261.517 96.4557C261.806 96.4557 262.069 96.5298 262.308 96.678C262.546 96.8262 262.723 97.0114 262.839 97.2336C263.184 96.715 263.6 96.4557 264.086 96.4557C264.39 96.4557 264.654 96.5463 264.876 96.7274C265.098 96.9085 265.213 97.1513 265.222 97.4559C265.222 97.6946 265.164 97.888 265.049 98.0362C264.933 98.1843 264.822 98.2749 264.715 98.3078C264.608 98.3407 264.514 98.3572 264.431 98.3572C264.275 98.3572 264.147 98.3119 264.049 98.2214C263.95 98.1308 263.9 98.0115 263.9 97.8633C263.9 97.4847 264.106 97.2254 264.518 97.0854C264.427 96.9784 264.263 96.9249 264.024 96.9249C263.917 96.9249 263.839 96.9332 263.789 96.9496C263.477 97.0813 263.246 97.353 263.098 97.7645C262.604 99.5837 262.357 100.646 262.357 100.95C262.357 101.181 262.423 101.345 262.555 101.444C262.686 101.543 262.83 101.592 262.987 101.592C263.291 101.592 263.592 101.456 263.888 101.185C264.184 100.913 264.386 100.58 264.493 100.185C264.518 100.102 264.542 100.057 264.567 100.049C264.592 100.041 264.658 100.032 264.765 100.024H264.814C264.938 100.024 264.999 100.057 264.999 100.123C264.999 100.131 264.991 100.176 264.975 100.259C264.843 100.728 264.588 101.144 264.209 101.506C263.83 101.868 263.39 102.049 262.888 102.049C262.312 102.049 261.875 101.79 261.579 101.271C261.242 101.781 260.855 102.037 260.419 102.037H260.344C259.941 102.037 259.653 101.93 259.48 101.716C259.307 101.502 259.217 101.275 259.208 101.037C259.208 100.773 259.287 100.559 259.443 100.394C259.599 100.23 259.785 100.148 259.999 100.148C260.353 100.148 260.53 100.32 260.53 100.666C260.53 100.831 260.48 100.975 260.381 101.098C260.283 101.222 260.188 101.304 260.097 101.345C260.007 101.386 259.953 101.407 259.937 101.407L259.9 101.419C259.9 101.428 259.925 101.444 259.974 101.469C260.023 101.493 260.089 101.522 260.172 101.555C260.254 101.588 260.332 101.6 260.406 101.592C260.703 101.592 260.958 101.407 261.172 101.037C261.246 100.905 261.34 100.625 261.456 100.197C261.571 99.7689 261.686 99.3244 261.801 98.8634C261.917 98.4025 261.982 98.1308 261.999 98.0485C262.04 97.8263 262.061 97.6658 262.061 97.567C262.061 97.3365 261.999 97.1719 261.875 97.0731C261.752 96.9743 261.612 96.9249 261.456 96.9249C261.126 96.9249 260.818 97.0566 260.53 97.32C260.242 97.5834 260.04 97.9209 259.925 98.3325C259.908 98.4066 259.888 98.4478 259.863 98.456C259.838 98.4642 259.772 98.4724 259.665 98.4807H259.492C259.443 98.4313 259.418 98.386 259.418 98.3449Z" fill="black"/>
<path d="M266.58 92.6652L266.629 92.6528C266.67 92.6528 266.712 92.6528 266.753 92.6528H266.901L267.247 92.9492C268.02 93.6488 268.584 94.5214 268.938 95.5668C269.292 96.6122 269.469 97.6987 269.469 98.8264C269.469 99.3862 269.428 99.9253 269.346 100.444C269.263 100.962 269.169 101.403 269.062 101.765C268.955 102.127 268.802 102.489 268.605 102.852C268.407 103.214 268.251 103.49 268.136 103.679C268.02 103.868 267.852 104.078 267.629 104.309C267.407 104.539 267.275 104.675 267.234 104.716C267.193 104.757 267.098 104.835 266.95 104.951C266.926 104.975 266.909 104.992 266.901 105H266.753C266.687 105 266.642 105 266.617 105C266.592 105 266.572 104.988 266.555 104.963C266.539 104.938 266.526 104.901 266.518 104.852C266.526 104.844 266.572 104.79 266.654 104.691C267.93 103.366 268.568 101.411 268.568 98.8264C268.568 96.2417 267.93 94.2868 266.654 92.9615C266.572 92.8627 266.526 92.8092 266.518 92.801C266.518 92.7351 266.539 92.6899 266.58 92.6652Z" fill="black"/>
<path d="M357.464 131.442C357.155 131.442 357 131.369 357 131.221C357 131.118 357.199 130.794 357.596 130.25C357.994 129.705 358.391 129.264 358.789 128.925C359.304 128.528 359.782 128.299 360.224 128.241C360.312 128.211 361.549 128.196 363.933 128.196C366.288 128.196 367.503 128.211 367.576 128.241C367.871 128.314 368.018 128.513 368.018 128.837C368.018 129.043 367.952 129.234 367.819 129.411C367.687 129.587 367.518 129.705 367.311 129.764C367.223 129.794 366.517 129.808 365.192 129.808C363.867 129.808 363.205 129.823 363.205 129.852C363.19 129.867 363.072 130.471 362.851 131.663C362.63 132.855 362.395 134.07 362.145 135.306C361.894 136.543 361.762 137.198 361.747 137.271C361.674 137.492 361.541 137.669 361.35 137.801C361.158 137.934 360.945 138 360.709 138C360.224 138 359.981 137.757 359.981 137.271V137.051L361.085 133.474C361.247 132.944 361.423 132.355 361.615 131.707C361.806 131.059 361.961 130.588 362.078 130.294L362.211 129.83C362.211 129.816 361.872 129.808 361.195 129.808C361.166 129.808 361.085 129.808 360.952 129.808C360.82 129.808 360.717 129.801 360.643 129.786C359.495 129.786 358.597 130.257 357.949 131.199C357.876 131.317 357.817 131.383 357.773 131.398C357.729 131.413 357.626 131.427 357.464 131.442Z" fill="black"/>
<path d="M356.597 187.231C356.597 185.988 356.835 184.678 357.31 183.301C357.785 181.924 358.431 180.736 359.248 179.737C360.064 178.737 360.911 178.165 361.789 178.018C361.801 178.018 361.85 178.018 361.935 178.018C362.02 178.018 362.093 178.012 362.154 178C362.812 178.049 363.324 178.347 363.69 178.896C364.165 179.627 364.403 180.608 364.403 181.839C364.403 183.24 364.129 184.666 363.58 186.116C363.032 187.567 362.331 188.755 361.478 189.681C360.625 190.607 359.808 191.07 359.028 191.07H358.9C358.462 191.07 358.084 190.948 357.767 190.705C357.45 190.461 357.213 190.138 357.054 189.736C356.896 189.334 356.78 188.925 356.707 188.511C356.634 188.097 356.597 187.67 356.597 187.231ZM362.959 180.541C362.959 179.298 362.636 178.676 361.99 178.676C361.551 178.676 361.125 178.951 360.71 179.499C360.296 180.047 359.955 180.669 359.686 181.364C359.418 182.058 359.211 182.668 359.065 183.192C358.919 183.716 358.84 184.02 358.827 184.106C359.424 184.118 360.016 184.124 360.601 184.124L362.374 184.106C362.386 184.093 362.435 183.892 362.52 183.502C362.605 183.112 362.703 182.625 362.812 182.04C362.922 181.455 362.971 180.955 362.959 180.541ZM358.023 188.474C358.023 189.766 358.346 190.412 358.992 190.412C359.175 190.412 359.37 190.351 359.577 190.229C359.784 190.108 360.034 189.876 360.326 189.535C360.619 189.193 360.911 188.663 361.204 187.944C361.496 187.225 361.789 186.336 362.081 185.275L362.173 184.965H358.608C358.608 185.001 358.553 185.233 358.443 185.659C358.334 186.086 358.236 186.561 358.151 187.085C358.066 187.609 358.023 188.072 358.023 188.474Z" fill="black"/>
<path d="M339 184.5L344 187.387V181.613L339 184.5ZM352 184H343.5V185H352V184Z" fill="black"/>
<path d="M382 184.5L377 181.613V187.387L382 184.5ZM377.5 184H369V185H377.5V184Z" fill="black"/>
<path d="M568.5 195.5L563.5 192.613V198.387L568.5 195.5ZM248 186.5V208H249V186.5H248ZM256.5 216.5H516V215.5H256.5V216.5ZM524.5 208V203.5H523.5V208H524.5ZM532 196H564V195H532V196ZM524.5 203.5C524.5 199.358 527.858 196 532 196V195C527.306 195 523.5 198.806 523.5 203.5H524.5ZM516 216.5C520.694 216.5 524.5 212.694 524.5 208H523.5C523.5 212.142 520.142 215.5 516 215.5V216.5ZM248 208C248 212.694 251.806 216.5 256.5 216.5V215.5C252.358 215.5 249 212.142 249 208H248Z" fill="black"/>
<path d="M568.5 180L563.5 177.113V182.887L568.5 180ZM318.5 210.5H508.5V209.5H318.5V210.5ZM517 202V188H516V202H517ZM524.5 180.5H564V179.5H524.5V180.5ZM517 188C517 183.858 520.358 180.5 524.5 180.5V179.5C519.806 179.5 516 183.306 516 188H517ZM508.5 210.5C513.194 210.5 517 206.694 517 202H516C516 206.142 512.642 209.5 508.5 209.5V210.5ZM313.5 205.5C313.5 208.261 315.739 210.5 318.5 210.5V209.5C316.291 209.5 314.5 207.709 314.5 205.5H313.5Z" fill="black"/>
<path d="M568.5 165L563.5 162.113V167.887L568.5 165ZM423 196.5H499.5V195.5H423V196.5ZM508 188V173H507V188H508ZM515.5 165.5H564V164.5H515.5V165.5ZM508 173C508 168.858 511.358 165.5 515.5 165.5V164.5C510.806 164.5 507 168.306 507 173H508ZM499.5 196.5C504.194 196.5 508 192.694 508 188H507C507 192.142 503.642 195.5 499.5 195.5V196.5Z" fill="black"/>
<path d="M568.5 153L563.5 150.113V155.887L568.5 153ZM495.5 161.5V160.5H494.5V161.5H495.5ZM502.5 153.5H564V152.5H502.5V153.5ZM495.5 160.5C495.5 156.634 498.634 153.5 502.5 153.5V152.5C498.082 152.5 494.5 156.082 494.5 160.5H495.5ZM488.5 168.5C492.366 168.5 495.5 165.366 495.5 161.5H494.5C494.5 164.814 491.814 167.5 488.5 167.5V168.5Z" fill="black"/>
<path d="M569 77.5L564 74.6132V80.3868L569 77.5ZM333 61H516.5V60H333V61ZM524 68.5V69.5H525V68.5H524ZM532.5 78H564.5V77H532.5V78ZM524 69.5C524 74.1944 527.806 78 532.5 78V77C528.358 77 525 73.6421 525 69.5H524ZM516.5 61C520.642 61 524 64.3579 524 68.5H525C525 63.8056 521.194 60 516.5 60V61Z" fill="black"/>
<line x1="548.5" y1="85.5" x2="548.5" y2="142.5" stroke="black" stroke-linecap="round" stroke-dasharray="0 6"/>
</svg>
