<svg width="380" height="220" viewBox="0 0 380 220" fill="none" xmlns="http://www.w3.org/2000/svg">
<rect x="0.5" y="0.5" width="379" height="219" fill="#F6F3ED" stroke="#E0DBC8"/>
<rect x="77.5" y="26.5" width="167" height="167" fill="#C2E5F9" stroke="#5090C9"/>
<rect x="269.5" y="26.5" width="31" height="167" fill="#C2E5F9" stroke="#5090C9"/>
<path d="M122.979 114V106.19H126.279C126.616 106.19 126.924 106.26 127.203 106.399C127.482 106.538 127.724 106.729 127.929 106.971C128.142 107.206 128.303 107.47 128.413 107.763C128.53 108.049 128.589 108.342 128.589 108.643C128.589 109.017 128.516 109.369 128.369 109.699C128.23 110.029 128.028 110.308 127.764 110.535C127.507 110.762 127.203 110.913 126.851 110.986L128.765 114H127.896L126.059 111.118H123.749V114H122.979ZM123.749 110.436H126.301C126.609 110.436 126.877 110.352 127.104 110.183C127.331 110.014 127.507 109.794 127.632 109.523C127.757 109.244 127.819 108.951 127.819 108.643C127.819 108.328 127.746 108.038 127.599 107.774C127.46 107.503 127.269 107.286 127.027 107.125C126.792 106.956 126.528 106.872 126.235 106.872H123.749V110.436ZM132.315 114.11C131.904 114.11 131.523 114.033 131.171 113.879C130.819 113.718 130.514 113.501 130.258 113.23C130.001 112.951 129.799 112.632 129.653 112.273C129.513 111.914 129.444 111.529 129.444 111.118C129.444 110.583 129.565 110.091 129.807 109.644C130.056 109.197 130.397 108.841 130.83 108.577C131.262 108.306 131.754 108.17 132.304 108.17C132.868 108.17 133.36 108.306 133.778 108.577C134.203 108.848 134.537 109.208 134.779 109.655C135.021 110.095 135.142 110.579 135.142 111.107C135.142 111.166 135.142 111.224 135.142 111.283C135.142 111.334 135.138 111.375 135.131 111.404H130.225C130.261 111.815 130.375 112.181 130.566 112.504C130.764 112.819 131.017 113.072 131.325 113.263C131.64 113.446 131.981 113.538 132.348 113.538C132.722 113.538 133.074 113.443 133.404 113.252C133.741 113.061 133.976 112.812 134.108 112.504L134.757 112.68C134.639 112.951 134.46 113.197 134.218 113.417C133.976 113.637 133.69 113.809 133.36 113.934C133.037 114.051 132.689 114.11 132.315 114.11ZM130.203 110.865H134.438C134.408 110.447 134.295 110.08 134.097 109.765C133.906 109.45 133.653 109.204 133.338 109.028C133.03 108.845 132.689 108.753 132.315 108.753C131.941 108.753 131.6 108.845 131.292 109.028C130.984 109.204 130.731 109.453 130.533 109.776C130.342 110.091 130.232 110.454 130.203 110.865ZM138.177 114.11C137.707 114.11 137.271 114.033 136.868 113.879C136.464 113.725 136.116 113.49 135.823 113.175L136.131 112.647C136.453 112.948 136.776 113.168 137.099 113.307C137.429 113.439 137.777 113.505 138.144 113.505C138.591 113.505 138.954 113.417 139.233 113.241C139.511 113.058 139.651 112.797 139.651 112.46C139.651 112.233 139.581 112.06 139.442 111.943C139.31 111.818 139.115 111.719 138.859 111.646C138.609 111.565 138.309 111.481 137.957 111.393C137.561 111.283 137.227 111.169 136.956 111.052C136.692 110.927 136.49 110.773 136.351 110.59C136.219 110.399 136.153 110.154 136.153 109.853C136.153 109.479 136.244 109.171 136.428 108.929C136.618 108.68 136.875 108.493 137.198 108.368C137.528 108.236 137.894 108.17 138.298 108.17C138.738 108.17 139.126 108.24 139.464 108.379C139.801 108.518 140.076 108.713 140.289 108.962L139.926 109.468C139.72 109.233 139.475 109.061 139.189 108.951C138.91 108.834 138.598 108.775 138.254 108.775C138.019 108.775 137.795 108.808 137.583 108.874C137.37 108.933 137.194 109.035 137.055 109.182C136.923 109.321 136.857 109.516 136.857 109.765C136.857 109.97 136.908 110.132 137.011 110.249C137.113 110.359 137.267 110.454 137.473 110.535C137.678 110.608 137.931 110.689 138.232 110.777C138.664 110.894 139.042 111.015 139.365 111.14C139.687 111.257 139.937 111.411 140.113 111.602C140.289 111.793 140.377 112.06 140.377 112.405C140.377 112.94 140.175 113.358 139.772 113.659C139.368 113.96 138.837 114.11 138.177 114.11ZM144.088 114.11C143.677 114.11 143.296 114.033 142.944 113.879C142.592 113.718 142.288 113.501 142.031 113.23C141.774 112.951 141.573 112.632 141.426 112.273C141.287 111.914 141.217 111.529 141.217 111.118C141.217 110.583 141.338 110.091 141.58 109.644C141.829 109.197 142.17 108.841 142.603 108.577C143.036 108.306 143.527 108.17 144.077 108.17C144.642 108.17 145.133 108.306 145.551 108.577C145.976 108.848 146.31 109.208 146.552 109.655C146.794 110.095 146.915 110.579 146.915 111.107C146.915 111.166 146.915 111.224 146.915 111.283C146.915 111.334 146.911 111.375 146.904 111.404H141.998C142.035 111.815 142.148 112.181 142.339 112.504C142.537 112.819 142.79 113.072 143.098 113.263C143.413 113.446 143.754 113.538 144.121 113.538C144.495 113.538 144.847 113.443 145.177 113.252C145.514 113.061 145.749 112.812 145.881 112.504L146.53 112.68C146.413 112.951 146.233 113.197 145.991 113.417C145.749 113.637 145.463 113.809 145.133 113.934C144.81 114.051 144.462 114.11 144.088 114.11ZM141.976 110.865H146.211C146.182 110.447 146.068 110.08 145.87 109.765C145.679 109.45 145.426 109.204 145.111 109.028C144.803 108.845 144.462 108.753 144.088 108.753C143.714 108.753 143.373 108.845 143.065 109.028C142.757 109.204 142.504 109.453 142.306 109.776C142.115 110.091 142.005 110.454 141.976 110.865ZM150.929 108.929C150.43 108.944 149.99 109.083 149.609 109.347C149.235 109.611 148.971 109.974 148.817 110.436V114H148.069V108.269H148.773V109.644C148.971 109.241 149.231 108.914 149.554 108.665C149.884 108.416 150.232 108.276 150.599 108.247C150.672 108.24 150.735 108.236 150.786 108.236C150.845 108.236 150.892 108.24 150.929 108.247V108.929ZM153.631 114L151.31 108.269H152.091L154.049 113.252L156.018 108.269H156.755L154.434 114H153.631ZM160.039 114.11C159.629 114.11 159.247 114.033 158.895 113.879C158.551 113.718 158.25 113.501 157.993 113.23C157.744 112.951 157.55 112.636 157.41 112.284C157.271 111.925 157.201 111.547 157.201 111.151C157.201 110.74 157.271 110.359 157.41 110.007C157.55 109.648 157.748 109.332 158.004 109.061C158.261 108.782 158.562 108.566 158.906 108.412C159.258 108.251 159.64 108.17 160.05 108.17C160.461 108.17 160.839 108.251 161.183 108.412C161.528 108.566 161.829 108.782 162.085 109.061C162.342 109.332 162.54 109.648 162.679 110.007C162.819 110.359 162.888 110.74 162.888 111.151C162.888 111.547 162.819 111.925 162.679 112.284C162.54 112.636 162.342 112.951 162.085 113.23C161.836 113.501 161.535 113.718 161.183 113.879C160.839 114.033 160.457 114.11 160.039 114.11ZM157.96 111.162C157.96 111.587 158.052 111.976 158.235 112.328C158.426 112.673 158.679 112.948 158.994 113.153C159.31 113.351 159.658 113.45 160.039 113.45C160.421 113.45 160.769 113.347 161.084 113.142C161.4 112.937 161.653 112.658 161.843 112.306C162.034 111.947 162.129 111.558 162.129 111.14C162.129 110.715 162.034 110.326 161.843 109.974C161.653 109.622 161.4 109.343 161.084 109.138C160.769 108.933 160.421 108.83 160.039 108.83C159.658 108.83 159.31 108.936 158.994 109.149C158.686 109.362 158.437 109.644 158.246 109.996C158.056 110.341 157.96 110.729 157.96 111.162ZM164.139 114V108.269H164.887V114H164.139ZM164.139 107.07V105.97H164.887V107.07H164.139ZM169.395 108.929C168.896 108.944 168.456 109.083 168.075 109.347C167.701 109.611 167.437 109.974 167.283 110.436V114H166.535V108.269H167.239V109.644C167.437 109.241 167.697 108.914 168.02 108.665C168.35 108.416 168.698 108.276 169.065 108.247C169.138 108.24 169.201 108.236 169.252 108.236C169.311 108.236 169.358 108.24 169.395 108.247V108.929ZM172.596 110.194C172.596 109.446 172.747 108.72 173.047 108.016C173.348 107.305 173.711 106.59 174.136 105.871L174.708 106.146C174.562 106.366 174.404 106.637 174.235 106.96C174.074 107.283 173.92 107.631 173.773 108.005C173.634 108.372 173.52 108.746 173.432 109.127C173.344 109.508 173.3 109.875 173.3 110.227C173.3 110.799 173.425 111.422 173.674 112.097C173.924 112.772 174.265 113.443 174.697 114.11L174.136 114.407C173.828 113.945 173.557 113.479 173.322 113.01C173.095 112.541 172.915 112.071 172.783 111.602C172.659 111.125 172.596 110.656 172.596 110.194ZM176.045 114V106.19H179.345C179.683 106.19 179.991 106.26 180.269 106.399C180.548 106.538 180.79 106.729 180.995 106.971C181.208 107.206 181.369 107.47 181.479 107.763C181.597 108.049 181.655 108.342 181.655 108.643C181.655 109.017 181.582 109.369 181.435 109.699C181.296 110.029 181.094 110.308 180.83 110.535C180.574 110.762 180.269 110.913 179.917 110.986L181.831 114H180.962L179.125 111.118H176.815V114H176.045ZM176.815 110.436H179.367C179.675 110.436 179.943 110.352 180.17 110.183C180.398 110.014 180.574 109.794 180.698 109.523C180.823 109.244 180.885 108.951 180.885 108.643C180.885 108.328 180.812 108.038 180.665 107.774C180.526 107.503 180.335 107.286 180.093 107.125C179.859 106.956 179.595 106.872 179.301 106.872H176.815V110.436ZM183.232 114V106.19H186.466C186.803 106.19 187.111 106.26 187.39 106.399C187.676 106.538 187.922 106.729 188.127 106.971C188.332 107.206 188.494 107.47 188.611 107.763C188.728 108.049 188.787 108.342 188.787 108.643C188.787 109.068 188.692 109.472 188.501 109.853C188.318 110.227 188.057 110.531 187.72 110.766C187.383 111.001 186.987 111.118 186.532 111.118H184.002V114H183.232ZM184.002 110.436H186.499C186.807 110.436 187.075 110.352 187.302 110.183C187.529 110.014 187.705 109.794 187.83 109.523C187.955 109.252 188.017 108.958 188.017 108.643C188.017 108.32 187.944 108.023 187.797 107.752C187.65 107.481 187.456 107.268 187.214 107.114C186.979 106.953 186.719 106.872 186.433 106.872H184.002V110.436ZM189.558 110.04C189.558 109.563 189.638 109.098 189.8 108.643C189.968 108.181 190.21 107.763 190.526 107.389C190.841 107.008 191.23 106.707 191.692 106.487C192.154 106.26 192.678 106.146 193.265 106.146C193.961 106.146 194.555 106.307 195.047 106.63C195.545 106.945 195.912 107.352 196.147 107.851L195.542 108.225C195.373 107.88 195.16 107.609 194.904 107.411C194.647 107.206 194.372 107.059 194.079 106.971C193.793 106.883 193.507 106.839 193.221 106.839C192.751 106.839 192.337 106.934 191.978 107.125C191.618 107.308 191.314 107.558 191.065 107.873C190.823 108.181 190.639 108.529 190.515 108.918C190.39 109.299 190.328 109.688 190.328 110.084C190.328 110.517 190.401 110.931 190.548 111.327C190.694 111.723 190.9 112.075 191.164 112.383C191.428 112.684 191.736 112.926 192.088 113.109C192.447 113.285 192.836 113.373 193.254 113.373C193.547 113.373 193.848 113.322 194.156 113.219C194.464 113.116 194.75 112.959 195.014 112.746C195.285 112.533 195.501 112.258 195.663 111.921L196.301 112.251C196.139 112.64 195.89 112.97 195.553 113.241C195.215 113.512 194.838 113.718 194.42 113.857C194.009 113.996 193.606 114.066 193.21 114.066C192.674 114.066 192.183 113.952 191.736 113.725C191.288 113.49 190.9 113.182 190.57 112.801C190.247 112.412 189.998 111.98 189.822 111.503C189.646 111.019 189.558 110.531 189.558 110.04ZM199.101 110.194C199.101 110.656 199.038 111.125 198.914 111.602C198.789 112.071 198.609 112.541 198.375 113.01C198.14 113.479 197.869 113.945 197.561 114.407L197.011 114.11C197.443 113.443 197.784 112.772 198.034 112.097C198.283 111.422 198.408 110.799 198.408 110.227C198.408 109.875 198.364 109.508 198.276 109.127C198.188 108.746 198.07 108.372 197.924 108.005C197.777 107.631 197.623 107.283 197.462 106.96C197.3 106.637 197.143 106.366 196.989 106.146L197.572 105.871C197.997 106.59 198.356 107.305 198.65 108.016C198.95 108.72 199.101 109.446 199.101 110.194Z" fill="black"/>
<path d="M289 142.021L281.19 142.021L281.19 141.251L288.318 141.251L288.318 136.741L289 136.741L289 142.021ZM289 135.762L283.269 135.762L283.269 135.014L289 135.014L289 135.762ZM282.07 135.762L280.97 135.762L280.97 135.014L282.07 135.014L282.07 135.762ZM289 128.548L289 129.296L285.799 129.296C285.124 129.296 284.633 129.395 284.325 129.593C284.01 129.791 283.852 130.103 283.852 130.528C283.852 130.822 283.925 131.111 284.072 131.397C284.211 131.683 284.406 131.936 284.655 132.156C284.897 132.369 285.176 132.523 285.491 132.618L289 132.618L289 133.366L283.269 133.366L283.269 132.684L284.567 132.684C284.288 132.53 284.046 132.329 283.841 132.079C283.628 131.83 283.463 131.548 283.346 131.232C283.229 130.917 283.17 130.591 283.17 130.253C283.17 129.938 283.229 129.67 283.346 129.45C283.463 129.23 283.632 129.054 283.852 128.922C284.065 128.79 284.325 128.695 284.633 128.636C284.934 128.578 285.271 128.548 285.645 128.548L289 128.548ZM289.11 124.478C289.11 124.889 289.033 125.27 288.879 125.622C288.718 125.974 288.501 126.279 288.23 126.535C287.951 126.792 287.632 126.994 287.273 127.14C286.914 127.28 286.529 127.349 286.118 127.349C285.583 127.349 285.091 127.228 284.644 126.986C284.197 126.737 283.841 126.396 283.577 125.963C283.306 125.531 283.17 125.039 283.17 124.489C283.17 123.925 283.306 123.433 283.577 123.015C283.848 122.59 284.208 122.256 284.655 122.014C285.095 121.772 285.579 121.651 286.107 121.651C286.166 121.651 286.224 121.651 286.283 121.651C286.334 121.651 286.375 121.655 286.404 121.662L286.404 126.568C286.815 126.532 287.181 126.418 287.504 126.227C287.819 126.029 288.072 125.776 288.263 125.468C288.446 125.153 288.538 124.812 288.538 124.445C288.538 124.071 288.443 123.719 288.252 123.389C288.061 123.052 287.812 122.817 287.504 122.685L287.68 122.036C287.951 122.154 288.197 122.333 288.417 122.575C288.637 122.817 288.809 123.103 288.934 123.433C289.051 123.756 289.11 124.104 289.11 124.478ZM285.865 126.59L285.865 122.355C285.447 122.385 285.08 122.498 284.765 122.696C284.45 122.887 284.204 123.14 284.028 123.455C283.845 123.763 283.753 124.104 283.753 124.478C283.753 124.852 283.845 125.193 284.028 125.501C284.204 125.809 284.453 126.062 284.776 126.26C285.091 126.451 285.454 126.561 285.865 126.59ZM287.35 120.959C286.991 120.959 286.683 120.857 286.426 120.651C286.162 120.446 285.96 120.164 285.821 119.804C285.674 119.438 285.601 119.016 285.601 118.539C285.601 118.261 285.623 117.971 285.667 117.67C285.711 117.37 285.777 117.102 285.865 116.867L285.381 116.867C284.897 116.867 284.512 117.01 284.226 117.296C283.94 117.582 283.797 117.978 283.797 118.484C283.797 118.792 283.856 119.097 283.973 119.397C284.083 119.691 284.248 119.999 284.468 120.321L283.94 120.607C283.683 120.233 283.493 119.867 283.368 119.507C283.236 119.148 283.17 118.781 283.17 118.407C283.17 117.703 283.372 117.146 283.775 116.735C284.178 116.325 284.736 116.119 285.447 116.119L288.098 116.119C288.201 116.119 288.278 116.097 288.329 116.053C288.373 116.009 288.399 115.94 288.406 115.844L289 115.844C289.007 115.925 289.015 115.995 289.022 116.053C289.029 116.112 289.029 116.156 289.022 116.185C289.015 116.369 288.956 116.508 288.846 116.603C288.736 116.699 288.619 116.75 288.494 116.757L288.076 116.768C288.406 117.025 288.663 117.359 288.846 117.769C289.022 118.18 289.11 118.598 289.11 119.023C289.11 119.39 289.033 119.724 288.879 120.024C288.718 120.318 288.505 120.549 288.241 120.717C287.97 120.879 287.673 120.959 287.35 120.959ZM287.79 117.12C287.687 117.04 287.588 116.977 287.493 116.933C287.398 116.889 287.313 116.867 287.24 116.867L286.404 116.867C286.309 117.117 286.235 117.377 286.184 117.648C286.133 117.912 286.107 118.18 286.107 118.451C286.107 118.987 286.213 119.419 286.426 119.749C286.639 120.079 286.928 120.244 287.295 120.244C287.508 120.244 287.709 120.189 287.9 120.079C288.083 119.969 288.237 119.808 288.362 119.595C288.479 119.383 288.538 119.133 288.538 118.847C288.538 118.488 288.468 118.154 288.329 117.846C288.19 117.531 288.01 117.289 287.79 117.12ZM283.929 111.643C283.944 112.142 284.083 112.582 284.347 112.963C284.611 113.337 284.974 113.601 285.436 113.755L289 113.755L289 114.503L283.269 114.503L283.269 113.799L284.644 113.799C284.241 113.601 283.914 113.341 283.665 113.018C283.416 112.688 283.276 112.34 283.247 111.973C283.24 111.9 283.236 111.837 283.236 111.786C283.236 111.727 283.24 111.68 283.247 111.643L283.929 111.643ZM289 101.028L282.642 101.028L287.581 103.855L287.581 104.339L282.642 107.177L289 107.177L289 107.947L281.19 107.947L281.19 107.155L286.536 104.108L281.19 101.039L281.19 100.258L289 100.258L289 101.028ZM289.11 96.0982C289.11 96.5089 289.033 96.8902 288.879 97.2422C288.718 97.5869 288.501 97.8876 288.23 98.1442C287.951 98.3936 287.636 98.5879 287.284 98.7272C286.925 98.8666 286.547 98.9362 286.151 98.9362C285.74 98.9362 285.359 98.8666 285.007 98.7272C284.648 98.5879 284.332 98.3899 284.061 98.1332C283.782 97.8766 283.566 97.5759 283.412 97.2312C283.251 96.8792 283.17 96.4979 283.17 96.0872C283.17 95.6766 283.251 95.2989 283.412 94.9542C283.566 94.6096 283.782 94.3089 284.061 94.0522C284.332 93.7956 284.648 93.5976 285.007 93.4582C285.359 93.3189 285.74 93.2492 286.151 93.2492C286.547 93.2492 286.925 93.3189 287.284 93.4582C287.636 93.5976 287.951 93.7956 288.23 94.0522C288.501 94.3016 288.718 94.6022 288.879 94.9542C289.033 95.2989 289.11 95.6802 289.11 96.0982ZM286.162 98.1772C286.587 98.1772 286.976 98.0856 287.328 97.9022C287.673 97.7116 287.948 97.4586 288.153 97.1432C288.351 96.8279 288.45 96.4796 288.45 96.0982C288.45 95.7169 288.347 95.3686 288.142 95.0532C287.937 94.7379 287.658 94.4849 287.306 94.2942C286.947 94.1036 286.558 94.0082 286.14 94.0082C285.715 94.0082 285.326 94.1036 284.974 94.2942C284.622 94.4849 284.343 94.7379 284.138 95.0532C283.933 95.3686 283.83 95.7169 283.83 96.0982C283.83 96.4796 283.936 96.8279 284.149 97.1432C284.362 97.4512 284.644 97.7006 284.996 97.8912C285.341 98.0819 285.729 98.1772 286.162 98.1772ZM286.151 92.3832C285.608 92.3832 285.113 92.2732 284.666 92.0532C284.211 91.8259 283.848 91.5142 283.577 91.1182C283.306 90.7222 283.17 90.2712 283.17 89.7652C283.17 89.2886 283.298 88.8632 283.555 88.4892C283.804 88.1079 284.109 87.8109 284.468 87.5982L280.97 87.5982L280.97 86.8502L288.098 86.8502C288.201 86.8502 288.278 86.8282 288.329 86.7842C288.373 86.7402 288.399 86.6742 288.406 86.5862L289 86.5862C289.022 86.7329 289.029 86.8466 289.022 86.9272C289.015 87.0812 288.952 87.2169 288.835 87.3342C288.718 87.4516 288.589 87.5102 288.45 87.5102L287.889 87.5102C288.263 87.7376 288.56 88.0456 288.78 88.4342C289 88.8229 289.11 89.2262 289.11 89.6442C289.11 90.0402 289.029 90.4069 288.868 90.7442C288.707 91.0742 288.487 91.3639 288.208 91.6132C287.929 91.8552 287.614 92.0459 287.262 92.1852C286.903 92.3172 286.532 92.3832 286.151 92.3832ZM287.031 87.5982L285.26 87.5982C284.996 87.6936 284.758 87.8476 284.545 88.0602C284.325 88.2729 284.153 88.5149 284.028 88.7862C283.896 89.0502 283.83 89.3142 283.83 89.5782C283.83 89.8862 283.896 90.1649 284.028 90.4142C284.153 90.6636 284.325 90.8799 284.545 91.0632C284.765 91.2392 285.014 91.3749 285.293 91.4702C285.572 91.5656 285.858 91.6132 286.151 91.6132C286.459 91.6132 286.752 91.5619 287.031 91.4592C287.31 91.3492 287.559 91.1952 287.779 90.9972C287.992 90.7992 288.157 90.5719 288.274 90.3152C288.391 90.0586 288.45 89.7799 288.45 89.4792C288.45 89.2886 288.413 89.0906 288.34 88.8852C288.267 88.6799 288.168 88.4856 288.043 88.3022C287.911 88.1116 287.757 87.9539 287.581 87.8292C287.405 87.7046 287.222 87.6276 287.031 87.5982ZM289.11 82.6805C289.11 83.0911 289.033 83.4725 288.879 83.8245C288.718 84.1765 288.501 84.4808 288.23 84.7375C287.951 84.9941 287.632 85.1958 287.273 85.3425C286.914 85.4818 286.529 85.5515 286.118 85.5515C285.583 85.5515 285.091 85.4305 284.644 85.1885C284.197 84.9391 283.841 84.5981 283.577 84.1655C283.306 83.7328 283.17 83.2415 283.17 82.6915C283.17 82.1268 283.306 81.6355 283.577 81.2175C283.848 80.7921 284.208 80.4585 284.655 80.2165C285.095 79.9745 285.579 79.8535 286.107 79.8535C286.166 79.8535 286.224 79.8535 286.283 79.8535C286.334 79.8535 286.375 79.8571 286.404 79.8645L286.404 84.7705C286.815 84.7338 287.181 84.6201 287.504 84.4295C287.819 84.2315 288.072 83.9785 288.263 83.6705C288.446 83.3551 288.538 83.0141 288.538 82.6475C288.538 82.2735 288.443 81.9215 288.252 81.5915C288.061 81.2541 287.812 81.0195 287.504 80.8875L287.68 80.2385C287.951 80.3558 288.197 80.5355 288.417 80.7775C288.637 81.0195 288.809 81.3055 288.934 81.6355C289.051 81.9581 289.11 82.3065 289.11 82.6805ZM285.865 84.7925L285.865 80.5575C285.447 80.5868 285.08 80.7005 284.765 80.8985C284.45 81.0891 284.204 81.3421 284.028 81.6575C283.845 81.9655 283.753 82.3065 283.753 82.6805C283.753 83.0545 283.845 83.3955 284.028 83.7035C284.204 84.0115 284.453 84.2645 284.776 84.4625C285.091 84.6531 285.454 84.7631 285.865 84.7925ZM280.97 78.6664L280.97 77.9184L287.702 77.9184C287.988 77.9184 288.175 77.8671 288.263 77.7644C288.351 77.6617 288.395 77.5371 288.395 77.3904C288.395 77.2584 288.38 77.1264 288.351 76.9944C288.322 76.8624 288.292 76.7487 288.263 76.6534L288.868 76.5214C288.927 76.6607 288.974 76.8331 289.011 77.0384C289.048 77.2364 289.066 77.4087 289.066 77.5554C289.066 77.8927 288.967 78.1641 288.769 78.3694C288.571 78.5674 288.3 78.6664 287.955 78.6664L280.97 78.6664Z" fill="black"/>
<circle cx="42" cy="38" r="11.5" fill="#C2E5F9" stroke="#5090C9"/>
<circle cx="42" cy="74" r="11.5" fill="#C2E5F9" stroke="#5090C9"/>
<circle cx="42" cy="110" r="11.5" fill="#C2E5F9" stroke="#5090C9"/>
<circle cx="42" cy="146" r="11.5" fill="#C2E5F9" stroke="#5090C9"/>
<circle cx="42" cy="182" r="11.5" fill="#C2E5F9" stroke="#5090C9"/>
<circle cx="337" cy="74" r="11.5" fill="#C2E5F9" stroke="#5090C9"/>
<circle cx="337" cy="110" r="11.5" fill="#C2E5F9" stroke="#5090C9"/>
<circle cx="337" cy="146" r="11.5" fill="#C2E5F9" stroke="#5090C9"/>
<path d="M321 74L316 71.1132V76.8868L321 74ZM305 74.5H316.5V73.5H305V74.5Z" fill="black"/>
<path d="M265 74L260 71.1132V76.8868L265 74ZM249 74.5H260.5V73.5H249V74.5Z" fill="black"/>
<path d="M265 38L260 35.1132V40.8868L265 38ZM249 38.5H260.5V37.5H249V38.5Z" fill="black"/>
<path d="M265 164L260 161.113V166.887L265 164ZM249 164.5H260.5V163.5H249V164.5Z" fill="black"/>
<path d="M265 92L260 89.1132V94.8868L265 92ZM249 92.5H260.5V91.5H249V92.5Z" fill="black"/>
<path d="M265 56L260 53.1132V58.8868L265 56ZM249 56.5H260.5V55.5H249V56.5Z" fill="black"/>
<path d="M265 182L260 179.113V184.887L265 182ZM249 182.5H260.5V181.5H249V182.5Z" fill="black"/>
<path d="M321 110L316 107.113V112.887L321 110ZM305 110.5H316.5V109.5H305V110.5Z" fill="black"/>
<path d="M265 110L260 107.113V112.887L265 110ZM249 110.5H260.5V109.5H249V110.5Z" fill="black"/>
<path d="M265 128L260 125.113V130.887L265 128ZM249 128.5H260.5V127.5H249V128.5Z" fill="black"/>
<path d="M321 146L316 143.113V148.887L321 146ZM305 146.5H316.5V145.5H305V146.5Z" fill="black"/>
<path d="M265 146L260 143.113V148.887L265 146ZM249 146.5H260.5V145.5H249V146.5Z" fill="black"/>
</svg>
