<svg width="666" height="414" viewBox="0 0 666 414" fill="none" xmlns="http://www.w3.org/2000/svg">
<rect x="0.5" y="0.5" width="665" height="413" fill="#F6F3ED" stroke="#E0DBC8"/>
<rect x="45" y="52" width="256" height="256" fill="#D5E4C1" stroke="#5AA945"/>
<path fill-rule="evenodd" clip-rule="evenodd" d="M301 188C294.882 188 288.871 188.458 283 189.341V173H301V163L212.851 163L159.445 110L301 110V100L149.368 100L101 52L98 52L94.565 52L88 52L88 100L45 100V110L88 110V163L45 163V173H58V237H45V247H88L88 308H98V283L183.608 283C181.899 291.064 181 299.427 181 308H191C191 247.249 240.249 198 301 198V188ZM186.184 273C195.043 243.902 214.66 219.492 240.402 204.402L209 173L98 173L98 273L186.184 273ZM273 173V191.284C264.861 193.229 257.045 196.004 249.645 199.513L222.928 173L273 173ZM68 237H88L88 173H68V237ZM146 110L199 163L98 163V110L146 110ZM98 62L136 100L98 100L98 62Z" fill="#E2E2EA"/>
<path d="M283 189.341H282.5V189.922L283.074 189.835L283 189.341ZM301 188H301.5V187.5H301V188ZM283 173V172.5H282.5V173H283ZM301 173V173.5H301.5V173H301ZM301 163H301.5V162.5H301V163ZM212.851 163L212.499 163.355L212.645 163.5H212.851V163ZM159.445 110V109.5H158.231L159.093 110.355L159.445 110ZM301 110V110.5H301.5V110H301ZM301 100H301.5V99.5H301V100ZM149.368 100L149.016 100.355L149.162 100.5H149.368V100ZM101 52L101.352 51.6451L101.206 51.5L101 51.5V52ZM98 52V51.5V52ZM94.565 52V52.5V52ZM88 52V51.5L87.5 51.5V52L88 52ZM88 100V100.5H88.5V100H88ZM45 100L45 99.5H44.5V100H45ZM45 110H44.5V110.5H45L45 110ZM88 110H88.5V109.5H88V110ZM88 163V163.5H88.5V163H88ZM45 163L45 162.5H44.5V163H45ZM45 173H44.5V173.5H45V173ZM58 173H58.5V172.5H58V173ZM58 237V237.5H58.5V237H58ZM45 237V236.5H44.5V237H45ZM45 247H44.5V247.5H45V247ZM88 247H88.5V246.5H88V247ZM88 308H87.5V308.5H88V308ZM98 308V308.5H98.5V308H98ZM98 283V282.5H97.5V283H98ZM183.608 283L184.097 283.104L184.225 282.5H183.608V283ZM181 308H180.5V308.5H181V308ZM191 308V308.5H191.5V308H191ZM301 198V198.5H301.5V198H301ZM186.184 273V273.5H186.555L186.663 273.146L186.184 273ZM240.402 204.402L240.655 204.833L241.213 204.506L240.756 204.048L240.402 204.402ZM209 173L209.354 172.646L209.207 172.5H209V173ZM98 173V172.5H97.5V173H98ZM98 273H97.5V273.5H98V273ZM273 191.284L273.116 191.77L273.5 191.679V191.284H273ZM273 173H273.5V172.5H273V173ZM249.645 199.513L249.292 199.868L249.542 200.115L249.859 199.965L249.645 199.513ZM222.928 173V172.5H221.714L222.576 173.355L222.928 173ZM88 237V237.5H88.5V237H88ZM68 237H67.5V237.5H68V237ZM88 173H88.5V172.5H88V173ZM68 173V172.5H67.5V173H68ZM199 163V163.5H200.207L199.354 162.646L199 163ZM146 110L146.354 109.646L146.207 109.5H146V110ZM98 163H97.5V163.5H98V163ZM98 110V109.5H97.5V110H98ZM136 100V100.5H137.207L136.354 99.6464L136 100ZM98 62L98.3536 61.6464L97.5 60.7929V62H98ZM98 100H97.5V100.5H98V100ZM283.074 189.835C288.921 188.956 294.907 188.5 301 188.5V187.5C294.857 187.5 288.822 187.96 282.926 188.847L283.074 189.835ZM282.5 173V189.341H283.5V173H282.5ZM301 172.5H283V173.5H301V172.5ZM300.5 163V173H301.5V163H300.5ZM212.851 163.5L301 163.5V162.5L212.851 162.5V163.5ZM159.093 110.355L212.499 163.355L213.203 162.645L159.797 109.645L159.093 110.355ZM301 109.5L159.445 109.5V110.5L301 110.5V109.5ZM300.5 100V110H301.5V100H300.5ZM149.368 100.5L301 100.5V99.5L149.368 99.5V100.5ZM100.648 52.3549L149.016 100.355L149.72 99.6451L101.352 51.6451L100.648 52.3549ZM98 52.5L101 52.5V51.5L98 51.5V52.5ZM94.565 52.5L98 52.5V51.5L94.565 51.5V52.5ZM88 52.5L94.565 52.5V51.5L88 51.5V52.5ZM88.5 100L88.5 52L87.5 52L87.5 100H88.5ZM45 100.5L88 100.5V99.5L45 99.5L45 100.5ZM45.5 110V100H44.5V110H45.5ZM88 109.5L45 109.5L45 110.5L88 110.5V109.5ZM88.5 163V110H87.5V163H88.5ZM45 163.5L88 163.5V162.5L45 162.5L45 163.5ZM45.5 173V163H44.5V173H45.5ZM58 172.5H45V173.5H58V172.5ZM58.5 237V173H57.5V237H58.5ZM45 237.5H58V236.5H45V237.5ZM45.5 247V237H44.5V247H45.5ZM88 246.5H45V247.5H88V246.5ZM88.5 308L88.5 247H87.5L87.5 308H88.5ZM98 307.5H88V308.5H98V307.5ZM97.5 283V308H98.5V283H97.5ZM183.608 282.5L98 282.5V283.5L183.608 283.5V282.5ZM181.5 308C181.5 299.462 182.395 291.134 184.097 283.104L183.119 282.896C181.403 290.994 180.5 299.392 180.5 308H181.5ZM191 307.5H181V308.5H191V307.5ZM301 197.5C239.973 197.5 190.5 246.973 190.5 308H191.5C191.5 247.525 240.525 198.5 301 198.5V197.5ZM300.5 188V198H301.5V188H300.5ZM186.663 273.146C195.484 244.17 215.019 219.861 240.655 204.833L240.149 203.971C214.301 219.123 194.602 243.634 185.706 272.854L186.663 273.146ZM240.756 204.048L209.354 172.646L208.646 173.354L240.049 204.756L240.756 204.048ZM209 172.5L98 172.5V173.5L209 173.5V172.5ZM97.5 173L97.5 273H98.5L98.5 173H97.5ZM98 273.5L186.184 273.5V272.5L98 272.5V273.5ZM273.5 191.284V173H272.5V191.284H273.5ZM249.859 199.965C257.228 196.47 265.012 193.708 273.116 191.77L272.884 190.798C264.711 192.751 256.862 195.537 249.43 199.061L249.859 199.965ZM222.576 173.355L249.292 199.868L249.997 199.158L223.28 172.645L222.576 173.355ZM273 172.5L222.928 172.5V173.5L273 173.5V172.5ZM88 236.5H68V237.5H88V236.5ZM87.5 173L87.5 237H88.5L88.5 173H87.5ZM68 173.5H88V172.5H68V173.5ZM68.5 237V173H67.5V237H68.5ZM199.354 162.646L146.354 109.646L145.646 110.354L198.646 163.354L199.354 162.646ZM98 163.5L199 163.5V162.5L98 162.5V163.5ZM97.5 110V163H98.5V110H97.5ZM146 109.5L98 109.5V110.5L146 110.5V109.5ZM136.354 99.6464L98.3536 61.6464L97.6464 62.3535L135.646 100.354L136.354 99.6464ZM98 100.5L136 100.5V99.5L98 99.5V100.5ZM97.5 62L97.5 100H98.5L98.5 62H97.5Z" fill="#C1C7D5"/>
<path d="M301.5 104.5H152.328C150.547 104.5 149.654 106.654 150.914 107.914L207.086 164.086C208.346 165.346 207.453 167.5 205.672 167.5H97.5C96.3954 167.5 95.5 166.605 95.5 165.5V106.5C95.5 105.395 96.3954 104.5 97.5 104.5H139.138C140.925 104.5 141.815 102.336 140.546 101.079L95.4074 56.3746C94.1447 55.124 92 56.0185 92 57.7956V165.5C92 166.605 91.1046 167.5 90 167.5H65C63.8954 167.5 63 168.395 63 169.5V239.5C63 240.605 63.8954 241.5 65 241.5H90.5C91.6046 241.5 92.5 242.395 92.5 243.5V276C92.5 277.105 93.3954 278 94.5 278H190.351C191.309 278 192.129 277.323 192.336 276.388C196.196 258.964 211.223 223.667 244.026 207.191C245.237 206.583 245.563 204.978 244.648 203.979L216.572 173.351C215.396 172.069 216.306 170 218.046 170H275.5C276.605 170 277.5 170.895 277.5 172V194.5" stroke="#E99B9E" stroke-width="2"/>
<path fill-rule="evenodd" clip-rule="evenodd" d="M223.329 96.6433C225.141 93.7438 226.413 90.7472 226.413 88.2067C226.413 83.122 222.291 79 217.207 79C212.122 79 208 83.122 208 88.2067C208 90.7458 209.352 93.8224 211.206 96.7639C213.019 99.6419 215.299 102.366 217.207 104.291C219.27 102.212 221.552 99.4852 223.329 96.6433ZM220.922 87.8837C220.922 89.9354 219.258 91.5986 217.207 91.5986C215.155 91.5986 213.492 89.9354 213.492 87.8837C213.492 85.8319 215.155 84.1687 217.207 84.1687C219.258 84.1687 220.922 85.8319 220.922 87.8837Z" fill="#F8C9C8"/>
<path d="M223.329 96.6433L223.753 96.9083L223.753 96.9083L223.329 96.6433ZM211.206 96.7639L211.629 96.4973L211.206 96.7639ZM217.207 104.291L216.852 104.643L217.206 105.001L217.562 104.644L217.207 104.291ZM225.913 88.2067C225.913 90.6035 224.703 93.5011 222.905 96.3782L223.753 96.9083C225.579 93.9865 226.913 90.891 226.913 88.2067H225.913ZM217.207 79.5C222.015 79.5 225.913 83.3981 225.913 88.2067H226.913C226.913 82.8458 222.568 78.5 217.207 78.5V79.5ZM208.5 88.2067C208.5 83.3981 212.398 79.5 217.207 79.5V78.5C211.846 78.5 207.5 82.8458 207.5 88.2067H208.5ZM211.629 96.4973C209.785 93.5729 208.5 90.5978 208.5 88.2067H207.5C207.5 90.8938 208.918 94.0718 210.783 97.0305L211.629 96.4973ZM217.562 103.939C215.676 102.036 213.42 99.3402 211.629 96.4973L210.783 97.0305C212.619 99.9436 214.922 102.696 216.852 104.643L217.562 103.939ZM222.905 96.3782C221.151 99.1828 218.894 101.881 216.852 103.939L217.562 104.644C219.646 102.544 221.953 99.7875 223.753 96.9083L222.905 96.3782ZM217.207 92.0986C219.535 92.0986 221.422 90.2115 221.422 87.8837H220.422C220.422 89.6592 218.982 91.0986 217.207 91.0986V92.0986ZM212.992 87.8837C212.992 90.2115 214.879 92.0986 217.207 92.0986V91.0986C215.431 91.0986 213.992 89.6592 213.992 87.8837H212.992ZM217.207 83.6687C214.879 83.6687 212.992 85.5558 212.992 87.8837H213.992C213.992 86.1081 215.431 84.6687 217.207 84.6687V83.6687ZM221.422 87.8837C221.422 85.5558 219.535 83.6687 217.207 83.6687V84.6687C218.982 84.6687 220.422 86.1081 220.422 87.8837H221.422Z" fill="#D75E5E"/>
<path fill-rule="evenodd" clip-rule="evenodd" d="M214.329 157.643C216.141 154.744 217.413 151.747 217.413 149.207C217.413 144.122 213.291 140 208.207 140C203.122 140 199 144.122 199 149.207C199 151.746 200.352 154.822 202.206 157.764C204.019 160.642 206.299 163.366 208.207 165.291C210.27 163.212 212.552 160.485 214.329 157.643ZM211.922 148.884C211.922 150.935 210.258 152.599 208.207 152.599C206.155 152.599 204.492 150.935 204.492 148.884C204.492 146.832 206.155 145.169 208.207 145.169C210.258 145.169 211.922 146.832 211.922 148.884Z" fill="#F8C9C8"/>
<path d="M214.329 157.643L214.753 157.908L214.753 157.908L214.329 157.643ZM202.206 157.764L202.629 157.497L202.206 157.764ZM208.207 165.291L207.852 165.643L208.206 166.001L208.562 165.644L208.207 165.291ZM216.913 149.207C216.913 151.603 215.703 154.501 213.905 157.378L214.753 157.908C216.579 154.986 217.913 151.891 217.913 149.207H216.913ZM208.207 140.5C213.015 140.5 216.913 144.398 216.913 149.207H217.913C217.913 143.846 213.568 139.5 208.207 139.5V140.5ZM199.5 149.207C199.5 144.398 203.398 140.5 208.207 140.5V139.5C202.846 139.5 198.5 143.846 198.5 149.207H199.5ZM202.629 157.497C200.785 154.573 199.5 151.598 199.5 149.207H198.5C198.5 151.894 199.918 155.072 201.783 158.031L202.629 157.497ZM208.562 164.939C206.676 163.036 204.42 160.34 202.629 157.497L201.783 158.031C203.619 160.944 205.922 163.696 207.852 165.643L208.562 164.939ZM213.905 157.378C212.151 160.183 209.894 162.881 207.852 164.939L208.562 165.644C210.646 163.544 212.953 160.788 214.753 157.908L213.905 157.378ZM208.207 153.099C210.535 153.099 212.422 151.212 212.422 148.884H211.422C211.422 150.659 209.982 152.099 208.207 152.099V153.099ZM203.992 148.884C203.992 151.212 205.879 153.099 208.207 153.099V152.099C206.431 152.099 204.992 150.659 204.992 148.884H203.992ZM208.207 144.669C205.879 144.669 203.992 146.556 203.992 148.884H204.992C204.992 147.108 206.431 145.669 208.207 145.669V144.669ZM212.422 148.884C212.422 146.556 210.535 144.669 208.207 144.669V145.669C209.982 145.669 211.422 147.108 211.422 148.884H212.422Z" fill="#D75E5E"/>
<path fill-rule="evenodd" clip-rule="evenodd" d="M97.3287 65.6433C99.1412 62.7438 100.413 59.7472 100.413 57.2067C100.413 52.122 96.2914 48 91.2067 48C86.122 48 82 52.122 82 57.2067C82 59.7458 83.3515 62.8224 85.2055 65.7639C87.0195 68.6419 89.2985 71.3661 91.2067 73.2914C93.2699 71.2124 95.5521 68.4852 97.3287 65.6433ZM94.9217 56.8837C94.9217 58.9354 93.2584 60.5986 91.2067 60.5986C89.155 60.5986 87.4917 58.9354 87.4917 56.8837C87.4917 54.8319 89.155 53.1687 91.2067 53.1687C93.2584 53.1687 94.9217 54.8319 94.9217 56.8837Z" fill="#F8C9C8"/>
<path d="M97.3287 65.6433L97.7526 65.9083L97.7526 65.9083L97.3287 65.6433ZM85.2055 65.7639L85.6285 65.4973L85.2055 65.7639ZM91.2067 73.2914L90.8516 73.6434L91.2065 74.0014L91.5616 73.6436L91.2067 73.2914ZM99.9134 57.2067C99.9134 59.6035 98.7033 62.5011 96.9047 65.3782L97.7526 65.9083C99.5792 62.9865 100.913 59.891 100.913 57.2067H99.9134ZM91.2067 48.5C96.0153 48.5 99.9134 52.3981 99.9134 57.2067H100.913C100.913 51.8458 96.5675 47.5 91.2067 47.5V48.5ZM82.5 57.2067C82.5 52.3981 86.3981 48.5 91.2067 48.5V47.5C85.8458 47.5 81.5 51.8458 81.5 57.2067H82.5ZM85.6285 65.4973C83.7854 62.5729 82.5 59.5978 82.5 57.2067H81.5C81.5 59.8938 82.9177 63.0718 84.7826 66.0305L85.6285 65.4973ZM91.5619 72.9394C89.6755 71.0362 87.4203 68.3402 85.6285 65.4973L84.7826 66.0305C86.6186 68.9436 88.9215 71.696 90.8516 73.6434L91.5619 72.9394ZM96.9047 65.3782C95.1514 68.1828 92.8941 70.8813 90.8518 72.9392L91.5616 73.6436C93.6457 71.5435 95.9527 68.7875 97.7526 65.9083L96.9047 65.3782ZM91.2067 61.0986C93.5346 61.0986 95.4217 59.2115 95.4217 56.8837H94.4217C94.4217 58.6592 92.9823 60.0986 91.2067 60.0986V61.0986ZM86.9917 56.8837C86.9917 59.2115 88.8788 61.0986 91.2067 61.0986V60.0986C89.4311 60.0986 87.9917 58.6592 87.9917 56.8837H86.9917ZM91.2067 52.6687C88.8788 52.6687 86.9917 54.5558 86.9917 56.8837H87.9917C87.9917 55.1081 89.4311 53.6687 91.2067 53.6687V52.6687ZM95.4217 56.8837C95.4217 54.5558 93.5346 52.6687 91.2067 52.6687V53.6687C92.9823 53.6687 94.4217 55.1081 94.4217 56.8837H95.4217Z" fill="#D75E5E"/>
<path fill-rule="evenodd" clip-rule="evenodd" d="M69.3287 160.643C71.1412 157.744 72.4134 154.747 72.4134 152.207C72.4134 147.122 68.2914 143 63.2067 143C58.122 143 54 147.122 54 152.207C54 154.746 55.3515 157.822 57.2055 160.764C59.0195 163.642 61.2985 166.366 63.2067 168.291C65.2699 166.212 67.5521 163.485 69.3287 160.643ZM66.9217 151.884C66.9217 153.935 65.2584 155.599 63.2067 155.599C61.155 155.599 59.4917 153.935 59.4917 151.884C59.4917 149.832 61.155 148.169 63.2067 148.169C65.2584 148.169 66.9217 149.832 66.9217 151.884Z" fill="#F8C9C8"/>
<path d="M69.3287 160.643L69.7526 160.908L69.7526 160.908L69.3287 160.643ZM57.2055 160.764L57.6285 160.497L57.2055 160.764ZM63.2067 168.291L62.8516 168.643L63.2065 169.001L63.5616 168.644L63.2067 168.291ZM71.9134 152.207C71.9134 154.603 70.7033 157.501 68.9047 160.378L69.7526 160.908C71.5792 157.986 72.9134 154.891 72.9134 152.207H71.9134ZM63.2067 143.5C68.0153 143.5 71.9134 147.398 71.9134 152.207H72.9134C72.9134 146.846 68.5675 142.5 63.2067 142.5V143.5ZM54.5 152.207C54.5 147.398 58.3981 143.5 63.2067 143.5V142.5C57.8458 142.5 53.5 146.846 53.5 152.207H54.5ZM57.6285 160.497C55.7854 157.573 54.5 154.598 54.5 152.207H53.5C53.5 154.894 54.9177 158.072 56.7826 161.031L57.6285 160.497ZM63.5619 167.939C61.6755 166.036 59.4203 163.34 57.6285 160.497L56.7826 161.031C58.6186 163.944 60.9215 166.696 62.8516 168.643L63.5619 167.939ZM68.9047 160.378C67.1514 163.183 64.8941 165.881 62.8518 167.939L63.5616 168.644C65.6457 166.544 67.9527 163.788 69.7526 160.908L68.9047 160.378ZM63.2067 156.099C65.5346 156.099 67.4217 154.212 67.4217 151.884H66.4217C66.4217 153.659 64.9823 155.099 63.2067 155.099V156.099ZM58.9917 151.884C58.9917 154.212 60.8788 156.099 63.2067 156.099V155.099C61.4311 155.099 59.9917 153.659 59.9917 151.884H58.9917ZM63.2067 147.669C60.8788 147.669 58.9917 149.556 58.9917 151.884H59.9917C59.9917 150.108 61.4311 148.669 63.2067 148.669V147.669ZM67.4217 151.884C67.4217 149.556 65.5346 147.669 63.2067 147.669V148.669C64.9823 148.669 66.4217 150.108 66.4217 151.884H67.4217Z" fill="#D75E5E"/>
<path fill-rule="evenodd" clip-rule="evenodd" d="M99.3287 267.643C101.141 264.744 102.413 261.747 102.413 259.207C102.413 254.122 98.2914 250 93.2067 250C88.122 250 84 254.122 84 259.207C84 261.746 85.3515 264.822 87.2055 267.764C89.0195 270.642 91.2985 273.366 93.2067 275.291C95.2699 273.212 97.5521 270.485 99.3287 267.643ZM96.9217 258.884C96.9217 260.935 95.2584 262.599 93.2067 262.599C91.155 262.599 89.4917 260.935 89.4917 258.884C89.4917 256.832 91.155 255.169 93.2067 255.169C95.2584 255.169 96.9217 256.832 96.9217 258.884Z" fill="#F8C9C8"/>
<path d="M99.3287 267.643L99.7526 267.908L99.7526 267.908L99.3287 267.643ZM87.2055 267.764L87.6285 267.497L87.2055 267.764ZM93.2067 275.291L92.8516 275.643L93.2065 276.001L93.5616 275.644L93.2067 275.291ZM101.913 259.207C101.913 261.603 100.703 264.501 98.9047 267.378L99.7526 267.908C101.579 264.986 102.913 261.891 102.913 259.207H101.913ZM93.2067 250.5C98.0153 250.5 101.913 254.398 101.913 259.207H102.913C102.913 253.846 98.5675 249.5 93.2067 249.5V250.5ZM84.5 259.207C84.5 254.398 88.3981 250.5 93.2067 250.5V249.5C87.8458 249.5 83.5 253.846 83.5 259.207H84.5ZM87.6285 267.497C85.7854 264.573 84.5 261.598 84.5 259.207H83.5C83.5 261.894 84.9177 265.072 86.7826 268.031L87.6285 267.497ZM93.5619 274.939C91.6755 273.036 89.4203 270.34 87.6285 267.497L86.7826 268.031C88.6186 270.944 90.9215 273.696 92.8516 275.643L93.5619 274.939ZM98.9047 267.378C97.1514 270.183 94.8941 272.881 92.8518 274.939L93.5616 275.644C95.6457 273.544 97.9527 270.788 99.7526 267.908L98.9047 267.378ZM93.2067 263.099C95.5346 263.099 97.4217 261.212 97.4217 258.884H96.4217C96.4217 260.659 94.9823 262.099 93.2067 262.099V263.099ZM88.9917 258.884C88.9917 261.212 90.8788 263.099 93.2067 263.099V262.099C91.4311 262.099 89.9917 260.659 89.9917 258.884H88.9917ZM93.2067 254.669C90.8788 254.669 88.9917 256.556 88.9917 258.884H89.9917C89.9917 257.108 91.4311 255.669 93.2067 255.669V254.669ZM97.4217 258.884C97.4217 256.556 95.5346 254.669 93.2067 254.669V255.669C94.9823 255.669 96.4217 257.108 96.4217 258.884H97.4217Z" fill="#D75E5E"/>
<path fill-rule="evenodd" clip-rule="evenodd" d="M260.329 162.643C262.141 159.744 263.413 156.747 263.413 154.207C263.413 149.122 259.291 145 254.207 145C249.122 145 245 149.122 245 154.207C245 156.746 246.352 159.822 248.206 162.764C250.019 165.642 252.299 168.366 254.207 170.291C256.27 168.212 258.552 165.485 260.329 162.643ZM257.922 153.884C257.922 155.935 256.258 157.599 254.207 157.599C252.155 157.599 250.492 155.935 250.492 153.884C250.492 151.832 252.155 150.169 254.207 150.169C256.258 150.169 257.922 151.832 257.922 153.884Z" fill="#F8C9C8"/>
<path d="M260.329 162.643L260.753 162.908L260.753 162.908L260.329 162.643ZM248.206 162.764L248.629 162.497L248.206 162.764ZM254.207 170.291L253.852 170.643L254.206 171.001L254.562 170.644L254.207 170.291ZM262.913 154.207C262.913 156.603 261.703 159.501 259.905 162.378L260.753 162.908C262.579 159.986 263.913 156.891 263.913 154.207H262.913ZM254.207 145.5C259.015 145.5 262.913 149.398 262.913 154.207H263.913C263.913 148.846 259.568 144.5 254.207 144.5V145.5ZM245.5 154.207C245.5 149.398 249.398 145.5 254.207 145.5V144.5C248.846 144.5 244.5 148.846 244.5 154.207H245.5ZM248.629 162.497C246.785 159.573 245.5 156.598 245.5 154.207H244.5C244.5 156.894 245.918 160.072 247.783 163.031L248.629 162.497ZM254.562 169.939C252.676 168.036 250.42 165.34 248.629 162.497L247.783 163.031C249.619 165.944 251.922 168.696 253.852 170.643L254.562 169.939ZM259.905 162.378C258.151 165.183 255.894 167.881 253.852 169.939L254.562 170.644C256.646 168.544 258.953 165.788 260.753 162.908L259.905 162.378ZM254.207 158.099C256.535 158.099 258.422 156.212 258.422 153.884H257.422C257.422 155.659 255.982 157.099 254.207 157.099V158.099ZM249.992 153.884C249.992 156.212 251.879 158.099 254.207 158.099V157.099C252.431 157.099 250.992 155.659 250.992 153.884H249.992ZM254.207 149.669C251.879 149.669 249.992 151.556 249.992 153.884H250.992C250.992 152.108 252.431 150.669 254.207 150.669V149.669ZM258.422 153.884C258.422 151.556 256.535 149.669 254.207 149.669V150.669C255.982 150.669 257.422 152.108 257.422 153.884H258.422Z" fill="#D75E5E"/>
<path fill-rule="evenodd" clip-rule="evenodd" d="M284.329 185.643C286.141 182.744 287.413 179.747 287.413 177.207C287.413 172.122 283.291 168 278.207 168C273.122 168 269 172.122 269 177.207C269 179.746 270.352 182.822 272.206 185.764C274.019 188.642 276.299 191.366 278.207 193.291C280.27 191.212 282.552 188.485 284.329 185.643ZM281.922 176.884C281.922 178.935 280.258 180.599 278.207 180.599C276.155 180.599 274.492 178.935 274.492 176.884C274.492 174.832 276.155 173.169 278.207 173.169C280.258 173.169 281.922 174.832 281.922 176.884Z" fill="#F8C9C8"/>
<path d="M284.329 185.643L284.753 185.908L284.753 185.908L284.329 185.643ZM272.206 185.764L272.629 185.497L272.206 185.764ZM278.207 193.291L277.852 193.643L278.206 194.001L278.562 193.644L278.207 193.291ZM286.913 177.207C286.913 179.603 285.703 182.501 283.905 185.378L284.753 185.908C286.579 182.986 287.913 179.891 287.913 177.207H286.913ZM278.207 168.5C283.015 168.5 286.913 172.398 286.913 177.207H287.913C287.913 171.846 283.568 167.5 278.207 167.5V168.5ZM269.5 177.207C269.5 172.398 273.398 168.5 278.207 168.5V167.5C272.846 167.5 268.5 171.846 268.5 177.207H269.5ZM272.629 185.497C270.785 182.573 269.5 179.598 269.5 177.207H268.5C268.5 179.894 269.918 183.072 271.783 186.031L272.629 185.497ZM278.562 192.939C276.676 191.036 274.42 188.34 272.629 185.497L271.783 186.031C273.619 188.944 275.922 191.696 277.852 193.643L278.562 192.939ZM283.905 185.378C282.151 188.183 279.894 190.881 277.852 192.939L278.562 193.644C280.646 191.544 282.953 188.788 284.753 185.908L283.905 185.378ZM278.207 181.099C280.535 181.099 282.422 179.212 282.422 176.884H281.422C281.422 178.659 279.982 180.099 278.207 180.099V181.099ZM273.992 176.884C273.992 179.212 275.879 181.099 278.207 181.099V180.099C276.431 180.099 274.992 178.659 274.992 176.884H273.992ZM278.207 172.669C275.879 172.669 273.992 174.556 273.992 176.884H274.992C274.992 175.108 276.431 173.669 278.207 173.669V172.669ZM282.422 176.884C282.422 174.556 280.535 172.669 278.207 172.669V173.669C279.982 173.669 281.422 175.108 281.422 176.884H282.422Z" fill="#D75E5E"/>
<rect x="365" y="52" width="256" height="256" fill="#D5E4C1" stroke="#5AA945"/>
<path fill-rule="evenodd" clip-rule="evenodd" d="M621 188C614.882 188 608.871 188.458 603 189.341V173H621V163L532.851 163L479.445 110L621 110V100L469.368 100L421 52L418 52L414.565 52L408 52L408 100L365 100V110L408 110V163L365 163V173H378V237H365V247H408L408 308H418V283L503.608 283C501.899 291.064 501 299.427 501 308H511C511 247.249 560.249 198 621 198V188ZM506.184 273C515.043 243.902 534.66 219.492 560.402 204.402L529 173L418 173L418 273L506.184 273ZM593 173V191.284C584.861 193.229 577.045 196.004 569.645 199.513L542.928 173L593 173ZM388 237H408L408 173H388V237ZM466 110L519 163L418 163V110L466 110ZM418 62L456 100L418 100L418 62Z" fill="#E2E2EA"/>
<path d="M603 189.341H602.5V189.922L603.074 189.835L603 189.341ZM621 188H621.5V187.5H621V188ZM603 173V172.5H602.5V173H603ZM621 173V173.5H621.5V173H621ZM621 163H621.5V162.5H621V163ZM532.851 163L532.499 163.355L532.645 163.5H532.851V163ZM479.445 110V109.5H478.231L479.093 110.355L479.445 110ZM621 110V110.5H621.5V110H621ZM621 100H621.5V99.5H621V100ZM469.368 100L469.016 100.355L469.162 100.5H469.368V100ZM421 52L421.352 51.6451L421.206 51.5L421 51.5V52ZM418 52V51.5V52ZM414.565 52V52.5V52ZM408 52V51.5L407.5 51.5V52L408 52ZM408 100V100.5H408.5V100H408ZM365 100L365 99.5H364.5V100H365ZM365 110H364.5V110.5H365L365 110ZM408 110H408.5V109.5H408V110ZM408 163V163.5H408.5V163H408ZM365 163L365 162.5H364.5V163H365ZM365 173H364.5V173.5H365V173ZM378 173H378.5V172.5H378V173ZM378 237V237.5H378.5V237H378ZM365 237V236.5H364.5V237H365ZM365 247H364.5V247.5H365V247ZM408 247H408.5V246.5H408V247ZM408 308H407.5V308.5H408V308ZM418 308V308.5H418.5V308H418ZM418 283V282.5H417.5V283H418ZM503.608 283L504.097 283.104L504.225 282.5H503.608V283ZM501 308H500.5V308.5H501V308ZM511 308V308.5H511.5V308H511ZM621 198V198.5H621.5V198H621ZM506.184 273V273.5H506.555L506.663 273.146L506.184 273ZM560.402 204.402L560.655 204.833L561.213 204.506L560.756 204.048L560.402 204.402ZM529 173L529.354 172.646L529.207 172.5H529V173ZM418 173V172.5H417.5V173H418ZM418 273H417.5V273.5H418V273ZM593 191.284L593.116 191.77L593.5 191.679V191.284H593ZM593 173H593.5V172.5H593V173ZM569.645 199.513L569.292 199.868L569.542 200.115L569.859 199.965L569.645 199.513ZM542.928 173V172.5H541.714L542.576 173.355L542.928 173ZM408 237V237.5H408.5V237H408ZM388 237H387.5V237.5H388V237ZM408 173H408.5V172.5H408V173ZM388 173V172.5H387.5V173H388ZM519 163V163.5H520.207L519.354 162.646L519 163ZM466 110L466.354 109.646L466.207 109.5H466V110ZM418 163H417.5V163.5H418V163ZM418 110V109.5H417.5V110H418ZM456 100V100.5H457.207L456.354 99.6464L456 100ZM418 62L418.354 61.6464L417.5 60.7929V62H418ZM418 100H417.5V100.5H418V100ZM603.074 189.835C608.921 188.956 614.907 188.5 621 188.5V187.5C614.857 187.5 608.822 187.96 602.926 188.847L603.074 189.835ZM602.5 173V189.341H603.5V173H602.5ZM621 172.5H603V173.5H621V172.5ZM620.5 163V173H621.5V163H620.5ZM532.851 163.5L621 163.5V162.5L532.851 162.5V163.5ZM479.093 110.355L532.499 163.355L533.203 162.645L479.797 109.645L479.093 110.355ZM621 109.5L479.445 109.5V110.5L621 110.5V109.5ZM620.5 100V110H621.5V100H620.5ZM469.368 100.5L621 100.5V99.5L469.368 99.5V100.5ZM420.648 52.3549L469.016 100.355L469.72 99.6451L421.352 51.6451L420.648 52.3549ZM418 52.5L421 52.5V51.5L418 51.5V52.5ZM414.565 52.5L418 52.5V51.5L414.565 51.5V52.5ZM408 52.5L414.565 52.5V51.5L408 51.5V52.5ZM408.5 100L408.5 52L407.5 52L407.5 100H408.5ZM365 100.5L408 100.5V99.5L365 99.5L365 100.5ZM365.5 110V100H364.5V110H365.5ZM408 109.5L365 109.5L365 110.5L408 110.5V109.5ZM408.5 163V110H407.5V163H408.5ZM365 163.5L408 163.5V162.5L365 162.5L365 163.5ZM365.5 173V163H364.5V173H365.5ZM378 172.5H365V173.5H378V172.5ZM378.5 237V173H377.5V237H378.5ZM365 237.5H378V236.5H365V237.5ZM365.5 247V237H364.5V247H365.5ZM408 246.5H365V247.5H408V246.5ZM408.5 308L408.5 247H407.5L407.5 308H408.5ZM418 307.5H408V308.5H418V307.5ZM417.5 283V308H418.5V283H417.5ZM503.608 282.5L418 282.5V283.5L503.608 283.5V282.5ZM501.5 308C501.5 299.462 502.395 291.134 504.097 283.104L503.119 282.896C501.403 290.994 500.5 299.392 500.5 308H501.5ZM511 307.5H501V308.5H511V307.5ZM621 197.5C559.973 197.5 510.5 246.973 510.5 308H511.5C511.5 247.525 560.525 198.5 621 198.5V197.5ZM620.5 188V198H621.5V188H620.5ZM506.663 273.146C515.484 244.17 535.019 219.861 560.655 204.833L560.149 203.971C534.301 219.123 514.602 243.634 505.706 272.854L506.663 273.146ZM560.756 204.048L529.354 172.646L528.646 173.354L560.049 204.756L560.756 204.048ZM529 172.5L418 172.5V173.5L529 173.5V172.5ZM417.5 173L417.5 273H418.5L418.5 173H417.5ZM418 273.5L506.184 273.5V272.5L418 272.5V273.5ZM593.5 191.284V173H592.5V191.284H593.5ZM569.859 199.965C577.228 196.47 585.012 193.708 593.116 191.77L592.884 190.798C584.711 192.751 576.862 195.537 569.43 199.061L569.859 199.965ZM542.576 173.355L569.292 199.868L569.997 199.158L543.28 172.645L542.576 173.355ZM593 172.5L542.928 172.5V173.5L593 173.5V172.5ZM408 236.5H388V237.5H408V236.5ZM407.5 173L407.5 237H408.5L408.5 173H407.5ZM388 173.5H408V172.5H388V173.5ZM388.5 237V173H387.5V237H388.5ZM519.354 162.646L466.354 109.646L465.646 110.354L518.646 163.354L519.354 162.646ZM418 163.5L519 163.5V162.5L418 162.5V163.5ZM417.5 110V163H418.5V110H417.5ZM466 109.5L418 109.5V110.5L466 110.5V109.5ZM456.354 99.6464L418.354 61.6464L417.646 62.3535L455.646 100.354L456.354 99.6464ZM418 100.5L456 100.5V99.5L418 99.5V100.5ZM417.5 62L417.5 100H418.5L418.5 62H417.5Z" fill="#C1C7D5"/>
<path d="M621 105H469.328C468.798 105 468.289 104.789 467.914 104.414L416.586 53.0858C416.211 52.7107 415.702 52.5 415.172 52.5H413.5C412.395 52.5 411.5 53.3954 411.5 54.5V166C411.5 167.105 410.605 168 409.5 168H385.5C384.395 168 383.5 168.895 383.5 170V239C383.5 240.105 384.395 241 385.5 241H409.5C410.605 241 411.5 241.895 411.5 243V276C411.5 277.105 412.395 278 413.5 278H507.983C508.88 278 509.659 277.421 509.917 276.562C517.16 252.477 543.601 205.146 595.809 195.788C596.775 195.615 597.5 194.779 597.5 193.798V170C597.5 168.895 596.605 168 595.5 168H528.5" stroke="#94C5E8" stroke-width="2"/>
<path fill-rule="evenodd" clip-rule="evenodd" d="M543.329 96.6433C545.141 93.7438 546.413 90.7472 546.413 88.2067C546.413 83.122 542.291 79 537.207 79C532.122 79 528 83.122 528 88.2067C528 90.7458 529.352 93.8224 531.206 96.7639C533.019 99.6419 535.299 102.366 537.207 104.291C539.27 102.212 541.552 99.4852 543.329 96.6433ZM540.922 87.8837C540.922 89.9354 539.258 91.5986 537.207 91.5986C535.155 91.5986 533.492 89.9354 533.492 87.8837C533.492 85.8319 535.155 84.1687 537.207 84.1687C539.258 84.1687 540.922 85.8319 540.922 87.8837Z" fill="#C2E5F9"/>
<path d="M543.329 96.6433L543.753 96.9083L543.753 96.9083L543.329 96.6433ZM531.206 96.7639L531.629 96.4973L531.206 96.7639ZM537.207 104.291L536.852 104.643L537.206 105.001L537.562 104.644L537.207 104.291ZM545.913 88.2067C545.913 90.6035 544.703 93.5011 542.905 96.3782L543.753 96.9083C545.579 93.9865 546.913 90.891 546.913 88.2067H545.913ZM537.207 79.5C542.015 79.5 545.913 83.3981 545.913 88.2067H546.913C546.913 82.8458 542.568 78.5 537.207 78.5V79.5ZM528.5 88.2067C528.5 83.3981 532.398 79.5 537.207 79.5V78.5C531.846 78.5 527.5 82.8458 527.5 88.2067H528.5ZM531.629 96.4973C529.785 93.5729 528.5 90.5978 528.5 88.2067H527.5C527.5 90.8938 528.918 94.0718 530.783 97.0305L531.629 96.4973ZM537.562 103.939C535.676 102.036 533.42 99.3402 531.629 96.4973L530.783 97.0305C532.619 99.9436 534.922 102.696 536.852 104.643L537.562 103.939ZM542.905 96.3782C541.151 99.1828 538.894 101.881 536.852 103.939L537.562 104.644C539.646 102.544 541.953 99.7875 543.753 96.9083L542.905 96.3782ZM537.207 92.0986C539.535 92.0986 541.422 90.2115 541.422 87.8837H540.422C540.422 89.6592 538.982 91.0986 537.207 91.0986V92.0986ZM532.992 87.8837C532.992 90.2115 534.879 92.0986 537.207 92.0986V91.0986C535.431 91.0986 533.992 89.6592 533.992 87.8837H532.992ZM537.207 83.6687C534.879 83.6687 532.992 85.5558 532.992 87.8837H533.992C533.992 86.1081 535.431 84.6687 537.207 84.6687V83.6687ZM541.422 87.8837C541.422 85.5558 539.535 83.6687 537.207 83.6687V84.6687C538.982 84.6687 540.422 86.1081 540.422 87.8837H541.422Z" fill="#5090C9"/>
<path fill-rule="evenodd" clip-rule="evenodd" d="M534.329 157.643C536.141 154.744 537.413 151.747 537.413 149.207C537.413 144.122 533.291 140 528.207 140C523.122 140 519 144.122 519 149.207C519 151.746 520.352 154.822 522.206 157.764C524.019 160.642 526.299 163.366 528.207 165.291C530.27 163.212 532.552 160.485 534.329 157.643ZM531.922 148.884C531.922 150.935 530.258 152.599 528.207 152.599C526.155 152.599 524.492 150.935 524.492 148.884C524.492 146.832 526.155 145.169 528.207 145.169C530.258 145.169 531.922 146.832 531.922 148.884Z" fill="#C2E5F9"/>
<path d="M534.329 157.643L534.753 157.908L534.753 157.908L534.329 157.643ZM522.206 157.764L522.629 157.497L522.206 157.764ZM528.207 165.291L527.852 165.643L528.206 166.001L528.562 165.644L528.207 165.291ZM536.913 149.207C536.913 151.603 535.703 154.501 533.905 157.378L534.753 157.908C536.579 154.986 537.913 151.891 537.913 149.207H536.913ZM528.207 140.5C533.015 140.5 536.913 144.398 536.913 149.207H537.913C537.913 143.846 533.568 139.5 528.207 139.5V140.5ZM519.5 149.207C519.5 144.398 523.398 140.5 528.207 140.5V139.5C522.846 139.5 518.5 143.846 518.5 149.207H519.5ZM522.629 157.497C520.785 154.573 519.5 151.598 519.5 149.207H518.5C518.5 151.894 519.918 155.072 521.783 158.031L522.629 157.497ZM528.562 164.939C526.676 163.036 524.42 160.34 522.629 157.497L521.783 158.031C523.619 160.944 525.922 163.696 527.852 165.643L528.562 164.939ZM533.905 157.378C532.151 160.183 529.894 162.881 527.852 164.939L528.562 165.644C530.646 163.544 532.953 160.788 534.753 157.908L533.905 157.378ZM528.207 153.099C530.535 153.099 532.422 151.212 532.422 148.884H531.422C531.422 150.659 529.982 152.099 528.207 152.099V153.099ZM523.992 148.884C523.992 151.212 525.879 153.099 528.207 153.099V152.099C526.431 152.099 524.992 150.659 524.992 148.884H523.992ZM528.207 144.669C525.879 144.669 523.992 146.556 523.992 148.884H524.992C524.992 147.108 526.431 145.669 528.207 145.669V144.669ZM532.422 148.884C532.422 146.556 530.535 144.669 528.207 144.669V145.669C529.982 145.669 531.422 147.108 531.422 148.884H532.422Z" fill="#5090C9"/>
<path fill-rule="evenodd" clip-rule="evenodd" d="M417.329 65.6433C419.141 62.7438 420.413 59.7472 420.413 57.2067C420.413 52.122 416.291 48 411.207 48C406.122 48 402 52.122 402 57.2067C402 59.7458 403.352 62.8224 405.206 65.7639C407.019 68.6419 409.299 71.3661 411.207 73.2914C413.27 71.2124 415.552 68.4852 417.329 65.6433ZM414.922 56.8837C414.922 58.9354 413.258 60.5986 411.207 60.5986C409.155 60.5986 407.492 58.9354 407.492 56.8837C407.492 54.8319 409.155 53.1687 411.207 53.1687C413.258 53.1687 414.922 54.8319 414.922 56.8837Z" fill="#C2E5F9"/>
<path d="M417.329 65.6433L417.753 65.9083L417.753 65.9083L417.329 65.6433ZM405.206 65.7639L405.629 65.4973L405.206 65.7639ZM411.207 73.2914L410.852 73.6434L411.206 74.0014L411.562 73.6436L411.207 73.2914ZM419.913 57.2067C419.913 59.6035 418.703 62.5011 416.905 65.3782L417.753 65.9083C419.579 62.9865 420.913 59.891 420.913 57.2067H419.913ZM411.207 48.5C416.015 48.5 419.913 52.3981 419.913 57.2067H420.913C420.913 51.8458 416.568 47.5 411.207 47.5V48.5ZM402.5 57.2067C402.5 52.3981 406.398 48.5 411.207 48.5V47.5C405.846 47.5 401.5 51.8458 401.5 57.2067H402.5ZM405.629 65.4973C403.785 62.5729 402.5 59.5978 402.5 57.2067H401.5C401.5 59.8938 402.918 63.0718 404.783 66.0305L405.629 65.4973ZM411.562 72.9394C409.676 71.0362 407.42 68.3402 405.629 65.4973L404.783 66.0305C406.619 68.9436 408.922 71.696 410.852 73.6434L411.562 72.9394ZM416.905 65.3782C415.151 68.1828 412.894 70.8813 410.852 72.9392L411.562 73.6436C413.646 71.5435 415.953 68.7875 417.753 65.9083L416.905 65.3782ZM411.207 61.0986C413.535 61.0986 415.422 59.2115 415.422 56.8837H414.422C414.422 58.6592 412.982 60.0986 411.207 60.0986V61.0986ZM406.992 56.8837C406.992 59.2115 408.879 61.0986 411.207 61.0986V60.0986C409.431 60.0986 407.992 58.6592 407.992 56.8837H406.992ZM411.207 52.6687C408.879 52.6687 406.992 54.5558 406.992 56.8837H407.992C407.992 55.1081 409.431 53.6687 411.207 53.6687V52.6687ZM415.422 56.8837C415.422 54.5558 413.535 52.6687 411.207 52.6687V53.6687C412.982 53.6687 414.422 55.1081 414.422 56.8837H415.422Z" fill="#5090C9"/>
<path fill-rule="evenodd" clip-rule="evenodd" d="M389.329 160.643C391.141 157.744 392.413 154.747 392.413 152.207C392.413 147.122 388.291 143 383.207 143C378.122 143 374 147.122 374 152.207C374 154.746 375.352 157.822 377.206 160.764C379.019 163.642 381.299 166.366 383.207 168.291C385.27 166.212 387.552 163.485 389.329 160.643ZM386.922 151.884C386.922 153.935 385.258 155.599 383.207 155.599C381.155 155.599 379.492 153.935 379.492 151.884C379.492 149.832 381.155 148.169 383.207 148.169C385.258 148.169 386.922 149.832 386.922 151.884Z" fill="#C2E5F9"/>
<path d="M389.329 160.643L389.753 160.908L389.753 160.908L389.329 160.643ZM377.206 160.764L377.629 160.497L377.206 160.764ZM383.207 168.291L382.852 168.643L383.206 169.001L383.562 168.644L383.207 168.291ZM391.913 152.207C391.913 154.603 390.703 157.501 388.905 160.378L389.753 160.908C391.579 157.986 392.913 154.891 392.913 152.207H391.913ZM383.207 143.5C388.015 143.5 391.913 147.398 391.913 152.207H392.913C392.913 146.846 388.568 142.5 383.207 142.5V143.5ZM374.5 152.207C374.5 147.398 378.398 143.5 383.207 143.5V142.5C377.846 142.5 373.5 146.846 373.5 152.207H374.5ZM377.629 160.497C375.785 157.573 374.5 154.598 374.5 152.207H373.5C373.5 154.894 374.918 158.072 376.783 161.031L377.629 160.497ZM383.562 167.939C381.676 166.036 379.42 163.34 377.629 160.497L376.783 161.031C378.619 163.944 380.922 166.696 382.852 168.643L383.562 167.939ZM388.905 160.378C387.151 163.183 384.894 165.881 382.852 167.939L383.562 168.644C385.646 166.544 387.953 163.788 389.753 160.908L388.905 160.378ZM383.207 156.099C385.535 156.099 387.422 154.212 387.422 151.884H386.422C386.422 153.659 384.982 155.099 383.207 155.099V156.099ZM378.992 151.884C378.992 154.212 380.879 156.099 383.207 156.099V155.099C381.431 155.099 379.992 153.659 379.992 151.884H378.992ZM383.207 147.669C380.879 147.669 378.992 149.556 378.992 151.884H379.992C379.992 150.108 381.431 148.669 383.207 148.669V147.669ZM387.422 151.884C387.422 149.556 385.535 147.669 383.207 147.669V148.669C384.982 148.669 386.422 150.108 386.422 151.884H387.422Z" fill="#5090C9"/>
<path fill-rule="evenodd" clip-rule="evenodd" d="M419.329 267.643C421.141 264.744 422.413 261.747 422.413 259.207C422.413 254.122 418.291 250 413.207 250C408.122 250 404 254.122 404 259.207C404 261.746 405.352 264.822 407.206 267.764C409.019 270.642 411.299 273.366 413.207 275.291C415.27 273.212 417.552 270.485 419.329 267.643ZM416.922 258.884C416.922 260.935 415.258 262.599 413.207 262.599C411.155 262.599 409.492 260.935 409.492 258.884C409.492 256.832 411.155 255.169 413.207 255.169C415.258 255.169 416.922 256.832 416.922 258.884Z" fill="#C2E5F9"/>
<path d="M419.329 267.643L419.753 267.908L419.753 267.908L419.329 267.643ZM407.206 267.764L407.629 267.497L407.206 267.764ZM413.207 275.291L412.852 275.643L413.206 276.001L413.562 275.644L413.207 275.291ZM421.913 259.207C421.913 261.603 420.703 264.501 418.905 267.378L419.753 267.908C421.579 264.986 422.913 261.891 422.913 259.207H421.913ZM413.207 250.5C418.015 250.5 421.913 254.398 421.913 259.207H422.913C422.913 253.846 418.568 249.5 413.207 249.5V250.5ZM404.5 259.207C404.5 254.398 408.398 250.5 413.207 250.5V249.5C407.846 249.5 403.5 253.846 403.5 259.207H404.5ZM407.629 267.497C405.785 264.573 404.5 261.598 404.5 259.207H403.5C403.5 261.894 404.918 265.072 406.783 268.031L407.629 267.497ZM413.562 274.939C411.676 273.036 409.42 270.34 407.629 267.497L406.783 268.031C408.619 270.944 410.922 273.696 412.852 275.643L413.562 274.939ZM418.905 267.378C417.151 270.183 414.894 272.881 412.852 274.939L413.562 275.644C415.646 273.544 417.953 270.788 419.753 267.908L418.905 267.378ZM413.207 263.099C415.535 263.099 417.422 261.212 417.422 258.884H416.422C416.422 260.659 414.982 262.099 413.207 262.099V263.099ZM408.992 258.884C408.992 261.212 410.879 263.099 413.207 263.099V262.099C411.431 262.099 409.992 260.659 409.992 258.884H408.992ZM413.207 254.669C410.879 254.669 408.992 256.556 408.992 258.884H409.992C409.992 257.108 411.431 255.669 413.207 255.669V254.669ZM417.422 258.884C417.422 256.556 415.535 254.669 413.207 254.669V255.669C414.982 255.669 416.422 257.108 416.422 258.884H417.422Z" fill="#5090C9"/>
<path fill-rule="evenodd" clip-rule="evenodd" d="M580.329 162.643C582.141 159.744 583.413 156.747 583.413 154.207C583.413 149.122 579.291 145 574.207 145C569.122 145 565 149.122 565 154.207C565 156.746 566.352 159.822 568.206 162.764C570.019 165.642 572.299 168.366 574.207 170.291C576.27 168.212 578.552 165.485 580.329 162.643ZM577.922 153.884C577.922 155.935 576.258 157.599 574.207 157.599C572.155 157.599 570.492 155.935 570.492 153.884C570.492 151.832 572.155 150.169 574.207 150.169C576.258 150.169 577.922 151.832 577.922 153.884Z" fill="#C2E5F9"/>
<path d="M580.329 162.643L580.753 162.908L580.753 162.908L580.329 162.643ZM568.206 162.764L568.629 162.497L568.206 162.764ZM574.207 170.291L573.852 170.643L574.206 171.001L574.562 170.644L574.207 170.291ZM582.913 154.207C582.913 156.603 581.703 159.501 579.905 162.378L580.753 162.908C582.579 159.986 583.913 156.891 583.913 154.207H582.913ZM574.207 145.5C579.015 145.5 582.913 149.398 582.913 154.207H583.913C583.913 148.846 579.568 144.5 574.207 144.5V145.5ZM565.5 154.207C565.5 149.398 569.398 145.5 574.207 145.5V144.5C568.846 144.5 564.5 148.846 564.5 154.207H565.5ZM568.629 162.497C566.785 159.573 565.5 156.598 565.5 154.207H564.5C564.5 156.894 565.918 160.072 567.783 163.031L568.629 162.497ZM574.562 169.939C572.676 168.036 570.42 165.34 568.629 162.497L567.783 163.031C569.619 165.944 571.922 168.696 573.852 170.643L574.562 169.939ZM579.905 162.378C578.151 165.183 575.894 167.881 573.852 169.939L574.562 170.644C576.646 168.544 578.953 165.788 580.753 162.908L579.905 162.378ZM574.207 158.099C576.535 158.099 578.422 156.212 578.422 153.884H577.422C577.422 155.659 575.982 157.099 574.207 157.099V158.099ZM569.992 153.884C569.992 156.212 571.879 158.099 574.207 158.099V157.099C572.431 157.099 570.992 155.659 570.992 153.884H569.992ZM574.207 149.669C571.879 149.669 569.992 151.556 569.992 153.884H570.992C570.992 152.108 572.431 150.669 574.207 150.669V149.669ZM578.422 153.884C578.422 151.556 576.535 149.669 574.207 149.669V150.669C575.982 150.669 577.422 152.108 577.422 153.884H578.422Z" fill="#5090C9"/>
<path fill-rule="evenodd" clip-rule="evenodd" d="M604.329 185.643C606.141 182.744 607.413 179.747 607.413 177.207C607.413 172.122 603.291 168 598.207 168C593.122 168 589 172.122 589 177.207C589 179.746 590.352 182.822 592.206 185.764C594.019 188.642 596.299 191.366 598.207 193.291C600.27 191.212 602.552 188.485 604.329 185.643ZM601.922 176.884C601.922 178.935 600.258 180.599 598.207 180.599C596.155 180.599 594.492 178.935 594.492 176.884C594.492 174.832 596.155 173.169 598.207 173.169C600.258 173.169 601.922 174.832 601.922 176.884Z" fill="#C2E5F9"/>
<path d="M604.329 185.643L604.753 185.908L604.753 185.908L604.329 185.643ZM592.206 185.764L592.629 185.497L592.206 185.764ZM598.207 193.291L597.852 193.643L598.206 194.001L598.562 193.644L598.207 193.291ZM606.913 177.207C606.913 179.603 605.703 182.501 603.905 185.378L604.753 185.908C606.579 182.986 607.913 179.891 607.913 177.207H606.913ZM598.207 168.5C603.015 168.5 606.913 172.398 606.913 177.207H607.913C607.913 171.846 603.568 167.5 598.207 167.5V168.5ZM589.5 177.207C589.5 172.398 593.398 168.5 598.207 168.5V167.5C592.846 167.5 588.5 171.846 588.5 177.207H589.5ZM592.629 185.497C590.785 182.573 589.5 179.598 589.5 177.207H588.5C588.5 179.894 589.918 183.072 591.783 186.031L592.629 185.497ZM598.562 192.939C596.676 191.036 594.42 188.34 592.629 185.497L591.783 186.031C593.619 188.944 595.922 191.696 597.852 193.643L598.562 192.939ZM603.905 185.378C602.151 188.183 599.894 190.881 597.852 192.939L598.562 193.644C600.646 191.544 602.953 188.788 604.753 185.908L603.905 185.378ZM598.207 181.099C600.535 181.099 602.422 179.212 602.422 176.884H601.422C601.422 178.659 599.982 180.099 598.207 180.099V181.099ZM593.992 176.884C593.992 179.212 595.879 181.099 598.207 181.099V180.099C596.431 180.099 594.992 178.659 594.992 176.884H593.992ZM598.207 172.669C595.879 172.669 593.992 174.556 593.992 176.884H594.992C594.992 175.108 596.431 173.669 598.207 173.669V172.669ZM602.422 176.884C602.422 174.556 600.535 172.669 598.207 172.669V173.669C599.982 173.669 601.422 175.108 601.422 176.884H602.422Z" fill="#5090C9"/>
<path d="M51.523 318.872H48.74V326H47.97V318.872H45.187V318.19H51.523V318.872ZM52.5389 326V320.269H53.2869V326H52.5389ZM52.5389 319.07V317.97H53.2869V319.07H52.5389ZM63.4594 326H62.7114V322.799C62.7114 322.132 62.605 321.64 62.3924 321.325C62.1797 321.01 61.8644 320.852 61.4464 320.852C61.0137 320.852 60.625 321.006 60.2804 321.314C59.943 321.622 59.7047 322.018 59.5654 322.502V326H58.8174V322.799C58.8174 322.124 58.7147 321.633 58.5094 321.325C58.304 321.01 57.9887 320.852 57.5634 320.852C57.138 320.852 56.753 321.002 56.4084 321.303C56.0637 321.604 55.8217 322 55.6824 322.491V326H54.9344V320.269H55.6164V321.567C55.8584 321.12 56.1664 320.775 56.5404 320.533C56.9217 320.291 57.3434 320.17 57.8054 320.17C58.282 320.17 58.667 320.306 58.9604 320.577C59.2537 320.848 59.4334 321.204 59.4994 321.644C59.7634 321.16 60.0787 320.793 60.4454 320.544C60.8194 320.295 61.241 320.17 61.7104 320.17C62.033 320.17 62.3044 320.229 62.5244 320.346C62.7517 320.463 62.9314 320.632 63.0634 320.852C63.2027 321.065 63.3017 321.325 63.3604 321.633C63.4264 321.934 63.4594 322.271 63.4594 322.645V326ZM67.5178 326.11C67.1071 326.11 66.7258 326.033 66.3738 325.879C66.0218 325.718 65.7174 325.501 65.4608 325.23C65.2041 324.951 65.0024 324.632 64.8558 324.273C64.7164 323.914 64.6468 323.529 64.6468 323.118C64.6468 322.583 64.7678 322.091 65.0098 321.644C65.2591 321.197 65.6001 320.841 66.0328 320.577C66.4654 320.306 66.9568 320.17 67.5068 320.17C68.0714 320.17 68.5628 320.306 68.9808 320.577C69.4061 320.848 69.7398 321.208 69.9818 321.655C70.2238 322.095 70.3448 322.579 70.3448 323.107C70.3448 323.166 70.3448 323.224 70.3448 323.283C70.3448 323.334 70.3411 323.375 70.3338 323.404H65.4278C65.4644 323.815 65.5781 324.181 65.7688 324.504C65.9668 324.819 66.2198 325.072 66.5278 325.263C66.8431 325.446 67.1841 325.538 67.5508 325.538C67.9248 325.538 68.2768 325.443 68.6068 325.252C68.9441 325.061 69.1788 324.812 69.3108 324.504L69.9598 324.68C69.8424 324.951 69.6628 325.197 69.4208 325.417C69.1788 325.637 68.8928 325.809 68.5628 325.934C68.2401 326.051 67.8918 326.11 67.5178 326.11ZM65.4058 322.865H69.6408C69.6114 322.447 69.4978 322.08 69.2998 321.765C69.1091 321.45 68.8561 321.204 68.5408 321.028C68.2328 320.845 67.8918 320.753 67.5178 320.753C67.1438 320.753 66.8028 320.845 66.4948 321.028C66.1868 321.204 65.9338 321.453 65.7358 321.776C65.5451 322.091 65.4351 322.454 65.4058 322.865Z" fill="black"/>
<path d="M50.25 32.07C49.5313 32.07 48.8827 31.93 48.304 31.65C47.7253 31.37 47.226 30.992 46.806 30.516C46.386 30.0307 46.0593 29.4893 45.826 28.892C45.602 28.2853 45.49 27.6647 45.49 27.03C45.49 26.3673 45.6113 25.7373 45.854 25.14C46.0967 24.5333 46.4327 23.9967 46.862 23.53C47.2913 23.054 47.7953 22.6807 48.374 22.41C48.962 22.13 49.5967 21.99 50.278 21.99C50.9873 21.99 51.6313 22.1347 52.21 22.424C52.798 22.7133 53.2973 23.1007 53.708 23.586C54.128 24.0713 54.45 24.6127 54.674 25.21C54.9073 25.8073 55.024 26.4187 55.024 27.044C55.024 27.7067 54.9027 28.3413 54.66 28.948C54.4267 29.5453 54.0953 30.082 53.666 30.558C53.2367 31.0247 52.728 31.3933 52.14 31.664C51.5613 31.9347 50.9313 32.07 50.25 32.07ZM47.086 27.03C47.086 27.4967 47.1607 27.9493 47.31 28.388C47.4593 28.8267 47.6693 29.2187 47.94 29.564C48.22 29.9 48.556 30.166 48.948 30.362C49.34 30.558 49.7787 30.656 50.264 30.656C50.768 30.656 51.216 30.5533 51.608 30.348C52 30.1427 52.3267 29.8673 52.588 29.522C52.8587 29.1673 53.064 28.7753 53.204 28.346C53.344 27.9073 53.414 27.4687 53.414 27.03C53.414 26.5633 53.3393 26.1153 53.19 25.686C53.05 25.2473 52.84 24.86 52.56 24.524C52.28 24.1787 51.944 23.908 51.552 23.712C51.1693 23.516 50.74 23.418 50.264 23.418C49.76 23.418 49.312 23.5207 48.92 23.726C48.528 23.9313 48.1967 24.2067 47.926 24.552C47.6553 24.8973 47.4453 25.2847 47.296 25.714C47.156 26.1433 47.086 26.582 47.086 27.03ZM60.499 26.008C59.9017 26.0173 59.3697 26.1527 58.903 26.414C58.4457 26.6753 58.119 27.044 57.923 27.52V32H56.383V24.678H57.811V26.316C58.063 25.812 58.3943 25.4107 58.805 25.112C59.2157 24.804 59.6497 24.636 60.107 24.608C60.2003 24.608 60.275 24.608 60.331 24.608C60.3963 24.608 60.4523 24.6127 60.499 24.622V26.008ZM61.6193 32V24.678H63.1593V32H61.6193ZM61.6193 23.474V21.78H63.1593V23.474H61.6193ZM67.9079 32.07C67.4133 32.07 66.9606 31.972 66.5499 31.776C66.1393 31.5707 65.7846 31.2953 65.4859 30.95C65.1966 30.6047 64.9679 30.208 64.7999 29.76C64.6413 29.312 64.5619 28.8407 64.5619 28.346C64.5619 27.8233 64.6459 27.3333 64.8139 26.876C64.9819 26.4187 65.2153 26.0173 65.5139 25.672C65.8219 25.3173 66.1813 25.042 66.5919 24.846C67.0026 24.65 67.4599 24.552 67.9639 24.552C68.5519 24.552 69.0653 24.692 69.5039 24.972C69.9519 25.252 70.3206 25.616 70.6099 26.064V24.678H71.9679V31.79C71.9679 32.4993 71.7953 33.1013 71.4499 33.596C71.1139 34.0907 70.6519 34.4687 70.0639 34.73C69.4759 34.9913 68.8133 35.122 68.0759 35.122C67.2639 35.122 66.5919 34.982 66.0599 34.702C65.5279 34.422 65.0753 34.0393 64.7019 33.554L65.5699 32.742C65.8499 33.134 66.2093 33.4327 66.6479 33.638C67.0959 33.8433 67.5719 33.946 68.0759 33.946C68.4959 33.946 68.8833 33.8667 69.2379 33.708C69.6019 33.5587 69.8913 33.3207 70.1059 32.994C70.3206 32.6767 70.4279 32.2753 70.4279 31.79V30.67C70.1666 31.1087 69.8073 31.454 69.3499 31.706C68.8926 31.9487 68.4119 32.07 67.9079 32.07ZM68.4119 30.824C68.6453 30.824 68.8693 30.7867 69.0839 30.712C69.2986 30.628 69.4946 30.5207 69.6719 30.39C69.8586 30.25 70.0173 30.096 70.1479 29.928C70.2786 29.7507 70.3719 29.564 70.4279 29.368V27.45C70.3066 27.1327 70.1339 26.8573 69.9099 26.624C69.6859 26.3813 69.4339 26.1947 69.1539 26.064C68.8739 25.9333 68.5893 25.868 68.2999 25.868C67.9639 25.868 67.6606 25.9427 67.3899 26.092C67.1286 26.232 66.9046 26.4233 66.7179 26.666C66.5313 26.8993 66.3866 27.1653 66.2839 27.464C66.1813 27.7627 66.1299 28.0707 66.1299 28.388C66.1299 28.724 66.1859 29.0367 66.2979 29.326C66.4193 29.6153 66.5826 29.8767 66.7879 30.11C66.9933 30.334 67.2359 30.5113 67.5159 30.642C67.7959 30.7633 68.0946 30.824 68.4119 30.824ZM73.8146 32V24.678H75.3546V32H73.8146ZM73.8146 23.474V21.78H75.3546V23.474H73.8146ZM83.7713 32H82.2313V27.898C82.2313 27.2167 82.1193 26.7173 81.8953 26.4C81.6806 26.0827 81.3586 25.924 80.9293 25.924C80.6306 25.924 80.3319 25.9987 80.0333 26.148C79.7439 26.2973 79.4826 26.5027 79.2493 26.764C79.0159 27.016 78.8479 27.31 78.7453 27.646V32H77.2052V24.678H78.6053V26.148C78.7919 25.8213 79.0346 25.5413 79.3333 25.308C79.6413 25.0653 79.9866 24.8787 80.3693 24.748C80.7519 24.6173 81.1579 24.552 81.5873 24.552C82.0259 24.552 82.3853 24.6313 82.6653 24.79C82.9546 24.9487 83.1786 25.168 83.3373 25.448C83.5053 25.7187 83.6173 26.036 83.6732 26.4C83.7386 26.7547 83.7713 27.1327 83.7713 27.534V32ZM85.0268 29.858C85.0268 29.3913 85.1574 28.9853 85.4188 28.64C85.6894 28.2853 86.0581 28.0147 86.5248 27.828C86.9914 27.632 87.5328 27.534 88.1488 27.534C88.4754 27.534 88.8068 27.5573 89.1428 27.604C89.4881 27.6507 89.7914 27.7253 90.0528 27.828V27.366C90.0528 26.8527 89.8988 26.4513 89.5908 26.162C89.2828 25.8727 88.8394 25.728 88.2608 25.728C87.8501 25.728 87.4628 25.8027 87.0988 25.952C86.7348 26.092 86.3474 26.2927 85.9368 26.554L85.4188 25.518C85.9041 25.1913 86.3894 24.9487 86.8748 24.79C87.3694 24.6313 87.8874 24.552 88.4288 24.552C89.4088 24.552 90.1788 24.8133 90.7388 25.336C91.3081 25.8493 91.5928 26.582 91.5928 27.534V30.264C91.5928 30.4413 91.6208 30.5673 91.6768 30.642C91.7421 30.7167 91.8494 30.7587 91.9988 30.768V32C91.8588 32.028 91.7328 32.0467 91.6208 32.056C91.5088 32.0653 91.4154 32.07 91.3408 32.07C91.0141 32.07 90.7668 31.9907 90.5988 31.832C90.4308 31.6733 90.3328 31.4867 90.3048 31.272L90.2628 30.852C89.9454 31.2627 89.5394 31.58 89.0448 31.804C88.5501 32.028 88.0508 32.14 87.5468 32.14C87.0614 32.14 86.6274 32.042 86.2448 31.846C85.8621 31.6407 85.5634 31.3653 85.3488 31.02C85.1341 30.6747 85.0268 30.2873 85.0268 29.858ZM89.6888 30.306C89.8008 30.1847 89.8894 30.0633 89.9548 29.942C90.0201 29.8207 90.0528 29.7133 90.0528 29.62V28.78C89.7914 28.6773 89.5161 28.6027 89.2268 28.556C88.9374 28.5 88.6528 28.472 88.3728 28.472C87.8128 28.472 87.3554 28.584 87.0008 28.808C86.6554 29.032 86.4828 29.34 86.4828 29.732C86.4828 29.9467 86.5388 30.152 86.6508 30.348C86.7721 30.544 86.9401 30.7027 87.1548 30.824C87.3788 30.9453 87.6541 31.006 87.9808 31.006C88.3168 31.006 88.6388 30.9407 88.9468 30.81C89.2548 30.6793 89.5021 30.5113 89.6888 30.306ZM93.4751 21.78H95.0151V29.886C95.0151 30.2593 95.0711 30.4973 95.1831 30.6C95.2951 30.7027 95.4351 30.754 95.6031 30.754C95.7898 30.754 95.9624 30.7353 96.1211 30.698C96.2891 30.6607 96.4338 30.614 96.5551 30.558L96.7791 31.776C96.5551 31.8693 96.2891 31.9487 95.9811 32.014C95.6731 32.0793 95.3978 32.112 95.1551 32.112C94.6324 32.112 94.2218 31.9673 93.9231 31.678C93.6244 31.3793 93.4751 30.9687 93.4751 30.446V21.78ZM104.851 26.008C104.253 26.0173 103.721 26.1527 103.255 26.414C102.797 26.6753 102.471 27.044 102.275 27.52V32H100.735V24.678H102.163V26.316C102.415 25.812 102.746 25.4107 103.157 25.112C103.567 24.804 104.001 24.636 104.459 24.608C104.552 24.608 104.627 24.608 104.683 24.608C104.748 24.608 104.804 24.6127 104.851 24.622V26.008ZM109.124 32.14C108.545 32.14 108.027 32.042 107.57 31.846C107.113 31.6407 106.716 31.3607 106.38 31.006C106.053 30.6513 105.801 30.25 105.624 29.802C105.447 29.3447 105.358 28.8593 105.358 28.346C105.358 27.8327 105.447 27.3473 105.624 26.89C105.801 26.4327 106.053 26.0313 106.38 25.686C106.716 25.3313 107.113 25.056 107.57 24.86C108.037 24.6547 108.555 24.552 109.124 24.552C109.693 24.552 110.207 24.6547 110.664 24.86C111.131 25.056 111.527 25.3313 111.854 25.686C112.19 26.0313 112.447 26.4327 112.624 26.89C112.801 27.3473 112.89 27.8327 112.89 28.346C112.89 28.8593 112.801 29.3447 112.624 29.802C112.447 30.25 112.19 30.6513 111.854 31.006C111.527 31.3607 111.131 31.6407 110.664 31.846C110.207 32.042 109.693 32.14 109.124 32.14ZM106.94 28.36C106.94 28.8267 107.038 29.2467 107.234 29.62C107.43 29.9933 107.691 30.2873 108.018 30.502C108.345 30.7167 108.713 30.824 109.124 30.824C109.525 30.824 109.889 30.7167 110.216 30.502C110.552 30.278 110.818 29.9793 111.014 29.606C111.21 29.2233 111.308 28.8033 111.308 28.346C111.308 27.8793 111.21 27.4593 111.014 27.086C110.818 26.7127 110.552 26.4187 110.216 26.204C109.889 25.98 109.525 25.868 109.124 25.868C108.713 25.868 108.345 25.98 108.018 26.204C107.691 26.428 107.43 26.7267 107.234 27.1C107.038 27.464 106.94 27.884 106.94 28.36ZM114.186 29.158V24.678H115.726V28.85C115.726 29.5033 115.843 29.998 116.076 30.334C116.319 30.6607 116.669 30.824 117.126 30.824C117.415 30.824 117.695 30.7633 117.966 30.642C118.246 30.5207 118.498 30.3433 118.722 30.11C118.955 29.8673 119.142 29.578 119.282 29.242V24.678H120.822V30.264C120.822 30.4413 120.855 30.5673 120.92 30.642C120.985 30.7167 121.093 30.7587 121.242 30.768V32C121.083 32.028 120.953 32.0467 120.85 32.056C120.747 32.0653 120.649 32.07 120.556 32.07C120.276 32.07 120.043 31.9953 119.856 31.846C119.669 31.6873 119.562 31.4867 119.534 31.244L119.506 30.516C119.179 31.048 118.755 31.454 118.232 31.734C117.709 32.0047 117.135 32.14 116.51 32.14C115.745 32.14 115.166 31.888 114.774 31.384C114.382 30.88 114.186 30.138 114.186 29.158ZM126.848 31.622C126.717 31.6873 126.554 31.7573 126.358 31.832C126.162 31.9067 125.938 31.972 125.686 32.028C125.443 32.084 125.191 32.112 124.93 32.112C124.612 32.112 124.318 32.056 124.048 31.944C123.777 31.832 123.558 31.6547 123.39 31.412C123.231 31.16 123.152 30.838 123.152 30.446V25.868H122.186V24.678H123.152V22.27H124.692V24.678H126.288V25.868H124.692V29.956C124.71 30.208 124.79 30.3947 124.93 30.516C125.079 30.6373 125.261 30.698 125.476 30.698C125.69 30.698 125.896 30.6607 126.092 30.586C126.288 30.5113 126.432 30.4507 126.526 30.404L126.848 31.622ZM131.137 32.14C130.567 32.14 130.049 32.042 129.583 31.846C129.125 31.6407 128.729 31.3653 128.393 31.02C128.057 30.6653 127.795 30.264 127.609 29.816C127.431 29.3587 127.343 28.8733 127.343 28.36C127.343 27.6693 127.501 27.0393 127.819 26.47C128.136 25.8913 128.579 25.4293 129.149 25.084C129.718 24.7293 130.385 24.552 131.151 24.552C131.916 24.552 132.574 24.7293 133.125 25.084C133.685 25.4293 134.119 25.8867 134.427 26.456C134.735 27.0253 134.889 27.6367 134.889 28.29C134.889 28.402 134.884 28.5093 134.875 28.612C134.865 28.7053 134.856 28.7847 134.847 28.85H128.981C129.009 29.2793 129.125 29.6573 129.331 29.984C129.545 30.3013 129.816 30.5533 130.143 30.74C130.469 30.9173 130.819 31.006 131.193 31.006C131.603 31.006 131.991 30.9033 132.355 30.698C132.728 30.4927 132.98 30.222 133.111 29.886L134.427 30.264C134.268 30.6187 134.025 30.9407 133.699 31.23C133.381 31.51 133.003 31.734 132.565 31.902C132.126 32.0607 131.65 32.14 131.137 32.14ZM128.939 27.828H133.363C133.335 27.408 133.213 27.0393 132.999 26.722C132.793 26.3953 132.527 26.1433 132.201 25.966C131.883 25.7793 131.529 25.686 131.137 25.686C130.754 25.686 130.399 25.7793 130.073 25.966C129.755 26.1433 129.494 26.3953 129.289 26.722C129.083 27.0393 128.967 27.408 128.939 27.828Z" fill="black"/>
<path d="M370.25 32.07C369.531 32.07 368.883 31.93 368.304 31.65C367.725 31.37 367.226 30.992 366.806 30.516C366.386 30.0307 366.059 29.4893 365.826 28.892C365.602 28.2853 365.49 27.6647 365.49 27.03C365.49 26.3673 365.611 25.7373 365.854 25.14C366.097 24.5333 366.433 23.9967 366.862 23.53C367.291 23.054 367.795 22.6807 368.374 22.41C368.962 22.13 369.597 21.99 370.278 21.99C370.987 21.99 371.631 22.1347 372.21 22.424C372.798 22.7133 373.297 23.1007 373.708 23.586C374.128 24.0713 374.45 24.6127 374.674 25.21C374.907 25.8073 375.024 26.4187 375.024 27.044C375.024 27.7067 374.903 28.3413 374.66 28.948C374.427 29.5453 374.095 30.082 373.666 30.558C373.237 31.0247 372.728 31.3933 372.14 31.664C371.561 31.9347 370.931 32.07 370.25 32.07ZM367.086 27.03C367.086 27.4967 367.161 27.9493 367.31 28.388C367.459 28.8267 367.669 29.2187 367.94 29.564C368.22 29.9 368.556 30.166 368.948 30.362C369.34 30.558 369.779 30.656 370.264 30.656C370.768 30.656 371.216 30.5533 371.608 30.348C372 30.1427 372.327 29.8673 372.588 29.522C372.859 29.1673 373.064 28.7753 373.204 28.346C373.344 27.9073 373.414 27.4687 373.414 27.03C373.414 26.5633 373.339 26.1153 373.19 25.686C373.05 25.2473 372.84 24.86 372.56 24.524C372.28 24.1787 371.944 23.908 371.552 23.712C371.169 23.516 370.74 23.418 370.264 23.418C369.76 23.418 369.312 23.5207 368.92 23.726C368.528 23.9313 368.197 24.2067 367.926 24.552C367.655 24.8973 367.445 25.2847 367.296 25.714C367.156 26.1433 367.086 26.582 367.086 27.03ZM380.541 32.14C379.953 32.14 379.435 32 378.987 31.72C378.539 31.44 378.184 31.076 377.923 30.628V34.982H376.383V24.678H377.741V25.994C378.021 25.5553 378.385 25.2053 378.833 24.944C379.281 24.6827 379.78 24.552 380.331 24.552C380.835 24.552 381.297 24.6547 381.717 24.86C382.137 25.056 382.501 25.3313 382.809 25.686C383.117 26.0407 383.355 26.4467 383.523 26.904C383.7 27.352 383.789 27.828 383.789 28.332C383.789 29.032 383.649 29.6713 383.369 30.25C383.098 30.8287 382.716 31.2907 382.221 31.636C381.736 31.972 381.176 32.14 380.541 32.14ZM380.037 30.824C380.364 30.824 380.658 30.754 380.919 30.614C381.19 30.474 381.418 30.2873 381.605 30.054C381.801 29.8207 381.95 29.5547 382.053 29.256C382.156 28.9573 382.207 28.6493 382.207 28.332C382.207 27.996 382.151 27.6787 382.039 27.38C381.927 27.0813 381.764 26.82 381.549 26.596C381.344 26.372 381.101 26.1947 380.821 26.064C380.55 25.9333 380.252 25.868 379.925 25.868C379.729 25.868 379.524 25.9053 379.309 25.98C379.094 26.0547 378.894 26.1573 378.707 26.288C378.52 26.4187 378.357 26.5727 378.217 26.75C378.077 26.9273 377.979 27.114 377.923 27.31V29.228C378.054 29.5267 378.226 29.7973 378.441 30.04C378.656 30.2733 378.903 30.4647 379.183 30.614C379.463 30.754 379.748 30.824 380.037 30.824ZM389.139 31.622C389.008 31.6873 388.845 31.7573 388.649 31.832C388.453 31.9067 388.229 31.972 387.977 32.028C387.734 32.084 387.482 32.112 387.221 32.112C386.903 32.112 386.609 32.056 386.339 31.944C386.068 31.832 385.849 31.6547 385.681 31.412C385.522 31.16 385.443 30.838 385.443 30.446V25.868H384.477V24.678H385.443V22.27H386.983V24.678H388.579V25.868H386.983V29.956C387.001 30.208 387.081 30.3947 387.221 30.516C387.37 30.6373 387.552 30.698 387.767 30.698C387.981 30.698 388.187 30.6607 388.383 30.586C388.579 30.5113 388.723 30.4507 388.817 30.404L389.139 31.622ZM390.205 32V24.678H391.745V32H390.205ZM390.205 23.474V21.78H391.745V23.474H390.205ZM404.796 32H403.256V27.898C403.256 27.2167 403.144 26.7173 402.92 26.4C402.696 26.0827 402.369 25.924 401.94 25.924C401.511 25.924 401.109 26.0873 400.736 26.414C400.372 26.7313 400.115 27.1467 399.966 27.66V32H398.426V27.898C398.426 27.2167 398.314 26.7173 398.09 26.4C397.866 26.0827 397.544 25.924 397.124 25.924C396.695 25.924 396.293 26.0827 395.92 26.4C395.556 26.7173 395.295 27.1327 395.136 27.646V32H393.596V24.678H394.996V26.148C395.285 25.6347 395.663 25.2427 396.13 24.972C396.606 24.692 397.147 24.552 397.754 24.552C398.361 24.552 398.837 24.7107 399.182 25.028C399.537 25.3453 399.756 25.742 399.84 26.218C400.157 25.6767 400.545 25.266 401.002 24.986C401.469 24.6967 402.001 24.552 402.598 24.552C403.027 24.552 403.387 24.6313 403.676 24.79C403.965 24.9487 404.189 25.168 404.348 25.448C404.507 25.7187 404.619 26.036 404.684 26.4C404.759 26.7547 404.796 27.1327 404.796 27.534V32ZM406.57 32V24.678H408.11V32H406.57ZM406.57 23.474V21.78H408.11V23.474H406.57ZM409.429 31.034L413.769 25.77H409.583V24.678H415.449V25.644L411.137 30.908H415.491V32H409.429V31.034ZM420.06 32.14C419.491 32.14 418.973 32.042 418.506 31.846C418.049 31.6407 417.652 31.3653 417.316 31.02C416.98 30.6653 416.719 30.264 416.532 29.816C416.355 29.3587 416.266 28.8733 416.266 28.36C416.266 27.6693 416.425 27.0393 416.742 26.47C417.06 25.8913 417.503 25.4293 418.072 25.084C418.642 24.7293 419.309 24.552 420.074 24.552C420.84 24.552 421.498 24.7293 422.048 25.084C422.608 25.4293 423.042 25.8867 423.35 26.456C423.658 27.0253 423.812 27.6367 423.812 28.29C423.812 28.402 423.808 28.5093 423.798 28.612C423.789 28.7053 423.78 28.7847 423.77 28.85H417.904C417.932 29.2793 418.049 29.6573 418.254 29.984C418.469 30.3013 418.74 30.5533 419.066 30.74C419.393 30.9173 419.743 31.006 420.116 31.006C420.527 31.006 420.914 30.9033 421.278 30.698C421.652 30.4927 421.904 30.222 422.034 29.886L423.35 30.264C423.192 30.6187 422.949 30.9407 422.622 31.23C422.305 31.51 421.927 31.734 421.488 31.902C421.05 32.0607 420.574 32.14 420.06 32.14ZM417.862 27.828H422.286C422.258 27.408 422.137 27.0393 421.922 26.722C421.717 26.3953 421.451 26.1433 421.124 25.966C420.807 25.7793 420.452 25.686 420.06 25.686C419.678 25.686 419.323 25.7793 418.996 25.966C418.679 26.1433 418.418 26.3953 418.212 26.722C418.007 27.0393 417.89 27.408 417.862 27.828ZM424.607 28.346C424.607 27.646 424.747 27.0113 425.027 26.442C425.316 25.8633 425.708 25.406 426.203 25.07C426.697 24.7247 427.267 24.552 427.911 24.552C428.471 24.552 428.975 24.6967 429.423 24.986C429.88 25.2753 430.235 25.6347 430.487 26.064V21.78H432.027V30.264C432.027 30.4413 432.059 30.5673 432.125 30.642C432.19 30.7167 432.297 30.7587 432.447 30.768V32C432.157 32.0467 431.933 32.07 431.775 32.07C431.485 32.07 431.238 31.986 431.033 31.818C430.837 31.65 430.734 31.4493 430.725 31.216L430.711 30.67C430.431 31.1367 430.053 31.5007 429.577 31.762C429.101 32.014 428.606 32.14 428.093 32.14C427.589 32.14 427.122 32.042 426.693 31.846C426.273 31.65 425.904 31.3747 425.587 31.02C425.279 30.6653 425.036 30.2593 424.859 29.802C424.691 29.3447 424.607 28.8593 424.607 28.346ZM430.487 29.368V27.45C430.384 27.1513 430.216 26.8853 429.983 26.652C429.759 26.4093 429.502 26.218 429.213 26.078C428.933 25.938 428.653 25.868 428.373 25.868C428.046 25.868 427.747 25.938 427.477 26.078C427.215 26.218 426.987 26.4047 426.791 26.638C426.604 26.8713 426.459 27.1373 426.357 27.436C426.254 27.7347 426.203 28.0473 426.203 28.374C426.203 28.71 426.259 29.0273 426.371 29.326C426.483 29.6153 426.641 29.8767 426.847 30.11C427.061 30.334 427.304 30.5113 427.575 30.642C427.855 30.7633 428.158 30.824 428.485 30.824C428.69 30.824 428.895 30.7867 429.101 30.712C429.315 30.6373 429.516 30.5347 429.703 30.404C429.899 30.2733 430.062 30.1193 430.193 29.942C430.333 29.7647 430.431 29.5733 430.487 29.368ZM441.558 26.008C440.96 26.0173 440.428 26.1527 439.962 26.414C439.504 26.6753 439.178 27.044 438.982 27.52V32H437.442V24.678H438.87V26.316C439.122 25.812 439.453 25.4107 439.864 25.112C440.274 24.804 440.708 24.636 441.166 24.608C441.259 24.608 441.334 24.608 441.39 24.608C441.455 24.608 441.511 24.6127 441.558 24.622V26.008ZM445.831 32.14C445.253 32.14 444.735 32.042 444.277 31.846C443.82 31.6407 443.423 31.3607 443.087 31.006C442.761 30.6513 442.509 30.25 442.331 29.802C442.154 29.3447 442.065 28.8593 442.065 28.346C442.065 27.8327 442.154 27.3473 442.331 26.89C442.509 26.4327 442.761 26.0313 443.087 25.686C443.423 25.3313 443.82 25.056 444.277 24.86C444.744 24.6547 445.262 24.552 445.831 24.552C446.401 24.552 446.914 24.6547 447.371 24.86C447.838 25.056 448.235 25.3313 448.561 25.686C448.897 26.0313 449.154 26.4327 449.331 26.89C449.509 27.3473 449.597 27.8327 449.597 28.346C449.597 28.8593 449.509 29.3447 449.331 29.802C449.154 30.25 448.897 30.6513 448.561 31.006C448.235 31.3607 447.838 31.6407 447.371 31.846C446.914 32.042 446.401 32.14 445.831 32.14ZM443.647 28.36C443.647 28.8267 443.745 29.2467 443.941 29.62C444.137 29.9933 444.399 30.2873 444.725 30.502C445.052 30.7167 445.421 30.824 445.831 30.824C446.233 30.824 446.597 30.7167 446.923 30.502C447.259 30.278 447.525 29.9793 447.721 29.606C447.917 29.2233 448.015 28.8033 448.015 28.346C448.015 27.8793 447.917 27.4593 447.721 27.086C447.525 26.7127 447.259 26.4187 446.923 26.204C446.597 25.98 446.233 25.868 445.831 25.868C445.421 25.868 445.052 25.98 444.725 26.204C444.399 26.428 444.137 26.7267 443.941 27.1C443.745 27.464 443.647 27.884 443.647 28.36ZM450.893 29.158V24.678H452.433V28.85C452.433 29.5033 452.55 29.998 452.783 30.334C453.026 30.6607 453.376 30.824 453.833 30.824C454.122 30.824 454.402 30.7633 454.673 30.642C454.953 30.5207 455.205 30.3433 455.429 30.11C455.662 29.8673 455.849 29.578 455.989 29.242V24.678H457.529V30.264C457.529 30.4413 457.562 30.5673 457.627 30.642C457.692 30.7167 457.8 30.7587 457.949 30.768V32C457.79 32.028 457.66 32.0467 457.557 32.056C457.454 32.0653 457.356 32.07 457.263 32.07C456.983 32.07 456.75 31.9953 456.563 31.846C456.376 31.6873 456.269 31.4867 456.241 31.244L456.213 30.516C455.886 31.048 455.462 31.454 454.939 31.734C454.416 32.0047 453.842 32.14 453.217 32.14C452.452 32.14 451.873 31.888 451.481 31.384C451.089 30.88 450.893 30.138 450.893 29.158ZM463.555 31.622C463.424 31.6873 463.261 31.7573 463.065 31.832C462.869 31.9067 462.645 31.972 462.393 32.028C462.15 32.084 461.898 32.112 461.637 32.112C461.319 32.112 461.025 32.056 460.755 31.944C460.484 31.832 460.265 31.6547 460.097 31.412C459.938 31.16 459.859 30.838 459.859 30.446V25.868H458.893V24.678H459.859V22.27H461.399V24.678H462.995V25.868H461.399V29.956C461.417 30.208 461.497 30.3947 461.637 30.516C461.786 30.6373 461.968 30.698 462.183 30.698C462.397 30.698 462.603 30.6607 462.799 30.586C462.995 30.5113 463.139 30.4507 463.233 30.404L463.555 31.622ZM467.844 32.14C467.274 32.14 466.756 32.042 466.29 31.846C465.832 31.6407 465.436 31.3653 465.1 31.02C464.764 30.6653 464.502 30.264 464.316 29.816C464.138 29.3587 464.05 28.8733 464.05 28.36C464.05 27.6693 464.208 27.0393 464.526 26.47C464.843 25.8913 465.286 25.4293 465.856 25.084C466.425 24.7293 467.092 24.552 467.858 24.552C468.623 24.552 469.281 24.7293 469.832 25.084C470.392 25.4293 470.826 25.8867 471.134 26.456C471.442 27.0253 471.596 27.6367 471.596 28.29C471.596 28.402 471.591 28.5093 471.582 28.612C471.572 28.7053 471.563 28.7847 471.554 28.85H465.688C465.716 29.2793 465.832 29.6573 466.038 29.984C466.252 30.3013 466.523 30.5533 466.85 30.74C467.176 30.9173 467.526 31.006 467.9 31.006C468.31 31.006 468.698 30.9033 469.062 30.698C469.435 30.4927 469.687 30.222 469.818 29.886L471.134 30.264C470.975 30.6187 470.732 30.9407 470.406 31.23C470.088 31.51 469.71 31.734 469.272 31.902C468.833 32.0607 468.357 32.14 467.844 32.14ZM465.646 27.828H470.07C470.042 27.408 469.92 27.0393 469.706 26.722C469.5 26.3953 469.234 26.1433 468.908 25.966C468.59 25.7793 468.236 25.686 467.844 25.686C467.461 25.686 467.106 25.7793 466.78 25.966C466.462 26.1433 466.201 26.3953 465.996 26.722C465.79 27.0393 465.674 27.408 465.646 27.828Z" fill="black"/>
<path d="M371.523 318.872H368.74V326H367.97V318.872H365.187V318.19H371.523V318.872ZM372.539 326V320.269H373.287V326H372.539ZM372.539 319.07V317.97H373.287V319.07H372.539ZM383.459 326H382.711V322.799C382.711 322.132 382.605 321.64 382.392 321.325C382.18 321.01 381.864 320.852 381.446 320.852C381.014 320.852 380.625 321.006 380.28 321.314C379.943 321.622 379.705 322.018 379.565 322.502V326H378.817V322.799C378.817 322.124 378.715 321.633 378.509 321.325C378.304 321.01 377.989 320.852 377.563 320.852C377.138 320.852 376.753 321.002 376.408 321.303C376.064 321.604 375.822 322 375.682 322.491V326H374.934V320.269H375.616V321.567C375.858 321.12 376.166 320.775 376.54 320.533C376.922 320.291 377.343 320.17 377.805 320.17C378.282 320.17 378.667 320.306 378.96 320.577C379.254 320.848 379.433 321.204 379.499 321.644C379.763 321.16 380.079 320.793 380.445 320.544C380.819 320.295 381.241 320.17 381.71 320.17C382.033 320.17 382.304 320.229 382.524 320.346C382.752 320.463 382.931 320.632 383.063 320.852C383.203 321.065 383.302 321.325 383.36 321.633C383.426 321.934 383.459 322.271 383.459 322.645V326ZM387.518 326.11C387.107 326.11 386.726 326.033 386.374 325.879C386.022 325.718 385.717 325.501 385.461 325.23C385.204 324.951 385.002 324.632 384.856 324.273C384.716 323.914 384.647 323.529 384.647 323.118C384.647 322.583 384.768 322.091 385.01 321.644C385.259 321.197 385.6 320.841 386.033 320.577C386.465 320.306 386.957 320.17 387.507 320.17C388.071 320.17 388.563 320.306 388.981 320.577C389.406 320.848 389.74 321.208 389.982 321.655C390.224 322.095 390.345 322.579 390.345 323.107C390.345 323.166 390.345 323.224 390.345 323.283C390.345 323.334 390.341 323.375 390.334 323.404H385.428C385.464 323.815 385.578 324.181 385.769 324.504C385.967 324.819 386.22 325.072 386.528 325.263C386.843 325.446 387.184 325.538 387.551 325.538C387.925 325.538 388.277 325.443 388.607 325.252C388.944 325.061 389.179 324.812 389.311 324.504L389.96 324.68C389.842 324.951 389.663 325.197 389.421 325.417C389.179 325.637 388.893 325.809 388.563 325.934C388.24 326.051 387.892 326.11 387.518 326.11ZM385.406 322.865H389.641C389.611 322.447 389.498 322.08 389.3 321.765C389.109 321.45 388.856 321.204 388.541 321.028C388.233 320.845 387.892 320.753 387.518 320.753C387.144 320.753 386.803 320.845 386.495 321.028C386.187 321.204 385.934 321.453 385.736 321.776C385.545 322.091 385.435 322.454 385.406 322.865Z" fill="black"/>
<path d="M45.979 363V355.19H51.105V355.872H46.749V358.743H50.423V359.381H46.749V363H45.979ZM51.8823 360.635V357.269H52.6303V360.503C52.6303 361.156 52.7403 361.643 52.9603 361.966C53.1876 362.289 53.5213 362.45 53.9613 362.45C54.2546 362.45 54.537 362.388 54.8083 362.263C55.087 362.131 55.3326 361.948 55.5453 361.713C55.758 361.471 55.9193 361.192 56.0293 360.877V357.269H56.7773V362.098C56.7773 362.201 56.7993 362.278 56.8433 362.329C56.8873 362.373 56.9533 362.399 57.0413 362.406V363C56.9533 363.007 56.8836 363.011 56.8323 363.011C56.781 363.018 56.7333 363.022 56.6893 363.022C56.5426 363.007 56.4143 362.949 56.3043 362.846C56.2016 362.743 56.1466 362.619 56.1393 362.472L56.1173 361.702C55.868 362.142 55.527 362.487 55.0943 362.736C54.669 362.985 54.207 363.11 53.7083 363.11C53.107 363.11 52.6523 362.901 52.3443 362.483C52.0363 362.065 51.8823 361.449 51.8823 360.635ZM60.9436 363.11C60.5329 363.11 60.1516 363.033 59.7996 362.879C59.4476 362.718 59.1432 362.501 58.8866 362.23C58.6299 361.951 58.4282 361.632 58.2816 361.273C58.1422 360.914 58.0726 360.529 58.0726 360.118C58.0726 359.583 58.1936 359.091 58.4356 358.644C58.6849 358.197 59.0259 357.841 59.4586 357.577C59.8912 357.306 60.3826 357.17 60.9326 357.17C61.4972 357.17 61.9886 357.306 62.4066 357.577C62.8319 357.848 63.1656 358.208 63.4076 358.655C63.6496 359.095 63.7706 359.579 63.7706 360.107C63.7706 360.166 63.7706 360.224 63.7706 360.283C63.7706 360.334 63.7669 360.375 63.7596 360.404H58.8536C58.8902 360.815 59.0039 361.181 59.1946 361.504C59.3926 361.819 59.6456 362.072 59.9536 362.263C60.2689 362.446 60.6099 362.538 60.9766 362.538C61.3506 362.538 61.7026 362.443 62.0326 362.252C62.3699 362.061 62.6046 361.812 62.7366 361.504L63.3856 361.68C63.2682 361.951 63.0886 362.197 62.8466 362.417C62.6046 362.637 62.3186 362.809 61.9886 362.934C61.6659 363.051 61.3176 363.11 60.9436 363.11ZM58.8316 359.865H63.0666C63.0372 359.447 62.9236 359.08 62.7256 358.765C62.5349 358.45 62.2819 358.204 61.9666 358.028C61.6586 357.845 61.3176 357.753 60.9436 357.753C60.5696 357.753 60.2286 357.845 59.9206 358.028C59.6126 358.204 59.3596 358.453 59.1616 358.776C58.9709 359.091 58.8609 359.454 58.8316 359.865ZM64.9576 354.97H65.7056V361.702C65.7056 361.988 65.7569 362.175 65.8596 362.263C65.9623 362.351 66.0869 362.395 66.2336 362.395C66.3656 362.395 66.4976 362.38 66.6296 362.351C66.7616 362.322 66.8753 362.292 66.9706 362.263L67.1026 362.868C66.9633 362.927 66.7909 362.974 66.5856 363.011C66.3876 363.048 66.2153 363.066 66.0686 363.066C65.7313 363.066 65.4599 362.967 65.2546 362.769C65.0566 362.571 64.9576 362.3 64.9576 361.955V354.97Z" fill="black"/>
<path d="M365.979 363V355.19H371.105V355.872H366.749V358.743H370.423V359.381H366.749V363H365.979ZM371.882 360.635V357.269H372.63V360.503C372.63 361.156 372.74 361.643 372.96 361.966C373.188 362.289 373.521 362.45 373.961 362.45C374.255 362.45 374.537 362.388 374.808 362.263C375.087 362.131 375.333 361.948 375.545 361.713C375.758 361.471 375.919 361.192 376.029 360.877V357.269H376.777V362.098C376.777 362.201 376.799 362.278 376.843 362.329C376.887 362.373 376.953 362.399 377.041 362.406V363C376.953 363.007 376.884 363.011 376.832 363.011C376.781 363.018 376.733 363.022 376.689 363.022C376.543 363.007 376.414 362.949 376.304 362.846C376.202 362.743 376.147 362.619 376.139 362.472L376.117 361.702C375.868 362.142 375.527 362.487 375.094 362.736C374.669 362.985 374.207 363.11 373.708 363.11C373.107 363.11 372.652 362.901 372.344 362.483C372.036 362.065 371.882 361.449 371.882 360.635ZM380.944 363.11C380.533 363.11 380.152 363.033 379.8 362.879C379.448 362.718 379.143 362.501 378.887 362.23C378.63 361.951 378.428 361.632 378.282 361.273C378.142 360.914 378.073 360.529 378.073 360.118C378.073 359.583 378.194 359.091 378.436 358.644C378.685 358.197 379.026 357.841 379.459 357.577C379.891 357.306 380.383 357.17 380.933 357.17C381.497 357.17 381.989 357.306 382.407 357.577C382.832 357.848 383.166 358.208 383.408 358.655C383.65 359.095 383.771 359.579 383.771 360.107C383.771 360.166 383.771 360.224 383.771 360.283C383.771 360.334 383.767 360.375 383.76 360.404H378.854C378.89 360.815 379.004 361.181 379.195 361.504C379.393 361.819 379.646 362.072 379.954 362.263C380.269 362.446 380.61 362.538 380.977 362.538C381.351 362.538 381.703 362.443 382.033 362.252C382.37 362.061 382.605 361.812 382.737 361.504L383.386 361.68C383.268 361.951 383.089 362.197 382.847 362.417C382.605 362.637 382.319 362.809 381.989 362.934C381.666 363.051 381.318 363.11 380.944 363.11ZM378.832 359.865H383.067C383.037 359.447 382.924 359.08 382.726 358.765C382.535 358.45 382.282 358.204 381.967 358.028C381.659 357.845 381.318 357.753 380.944 357.753C380.57 357.753 380.229 357.845 379.921 358.028C379.613 358.204 379.36 358.453 379.162 358.776C378.971 359.091 378.861 359.454 378.832 359.865ZM384.958 354.97H385.706V361.702C385.706 361.988 385.757 362.175 385.86 362.263C385.962 362.351 386.087 362.395 386.234 362.395C386.366 362.395 386.498 362.38 386.63 362.351C386.762 362.322 386.875 362.292 386.971 362.263L387.103 362.868C386.963 362.927 386.791 362.974 386.586 363.011C386.388 363.048 386.215 363.066 386.069 363.066C385.731 363.066 385.46 362.967 385.255 362.769C385.057 362.571 384.958 362.3 384.958 361.955V354.97Z" fill="black"/>
<path fill-rule="evenodd" clip-rule="evenodd" d="M75 345H45V331H75V345Z" fill="#E99B9E"/>
<path fill-rule="evenodd" clip-rule="evenodd" d="M395 345H365V331H395V345Z" fill="#94C5E8"/>
<path fill-rule="evenodd" clip-rule="evenodd" d="M75 382H45V368H75V382Z" fill="#E99B9E"/>
<path fill-rule="evenodd" clip-rule="evenodd" d="M395 382H365V368H395V382Z" fill="#94C5E8"/>
<path fill-rule="evenodd" clip-rule="evenodd" d="M203 345H173V331H203V345Z" fill="#E99B9E"/>
<path fill-rule="evenodd" clip-rule="evenodd" d="M523 345H493V331H523V345Z" fill="#E0DBC8"/>
<path fill-rule="evenodd" clip-rule="evenodd" d="M203 382H173V368H203V382Z" fill="#E0DBC8"/>
<path fill-rule="evenodd" clip-rule="evenodd" d="M523 382H493V368H523V382Z" fill="#E0DBC8"/>
<path fill-rule="evenodd" clip-rule="evenodd" d="M139 345H109V331H139V345Z" fill="#E99B9E"/>
<path fill-rule="evenodd" clip-rule="evenodd" d="M459 345H429V331H459V345Z" fill="#E0DBC8"/>
<path fill-rule="evenodd" clip-rule="evenodd" d="M139 382H109V368H139V382Z" fill="#E99B9E"/>
<path fill-rule="evenodd" clip-rule="evenodd" d="M459 382H429V368H459V382Z" fill="#94C5E8"/>
<path fill-rule="evenodd" clip-rule="evenodd" d="M267 345H237V331H267V345Z" fill="#E0DBC8"/>
<path fill-rule="evenodd" clip-rule="evenodd" d="M587 345H557V331H587V345Z" fill="#E0DBC8"/>
<path fill-rule="evenodd" clip-rule="evenodd" d="M267 382H237V368H267V382Z" fill="#E0DBC8"/>
<path fill-rule="evenodd" clip-rule="evenodd" d="M587 382H557V368H587V382Z" fill="#E0DBC8"/>
<path fill-rule="evenodd" clip-rule="evenodd" d="M107 345H77V331H107V345Z" fill="#E99B9E"/>
<path fill-rule="evenodd" clip-rule="evenodd" d="M427 345H397V331H427V345Z" fill="#94C5E8"/>
<path fill-rule="evenodd" clip-rule="evenodd" d="M107 382H77V368H107V382Z" fill="#E99B9E"/>
<path fill-rule="evenodd" clip-rule="evenodd" d="M427 382H397V368H427V382Z" fill="#94C5E8"/>
<path fill-rule="evenodd" clip-rule="evenodd" d="M235 345H205V331H235V345Z" fill="#E0DBC8"/>
<path fill-rule="evenodd" clip-rule="evenodd" d="M555 345H525V331H555V345Z" fill="#E0DBC8"/>
<path fill-rule="evenodd" clip-rule="evenodd" d="M235 382H205V368H235V382Z" fill="#E0DBC8"/>
<path fill-rule="evenodd" clip-rule="evenodd" d="M555 382H525V368H555V382Z" fill="#E0DBC8"/>
<path fill-rule="evenodd" clip-rule="evenodd" d="M171 345H141V331H171V345Z" fill="#E99B9E"/>
<path fill-rule="evenodd" clip-rule="evenodd" d="M491 345H461V331H491V345Z" fill="#E0DBC8"/>
<path fill-rule="evenodd" clip-rule="evenodd" d="M171 382H141V368H171V382Z" fill="#E99B9E"/>
<path fill-rule="evenodd" clip-rule="evenodd" d="M491 382H461V368H491V382Z" fill="#E0DBC8"/>
<path fill-rule="evenodd" clip-rule="evenodd" d="M299 345H269V331H299V345Z" fill="#E0DBC8"/>
<path fill-rule="evenodd" clip-rule="evenodd" d="M619 345H589V331H619V345Z" fill="#E0DBC8"/>
<path fill-rule="evenodd" clip-rule="evenodd" d="M299 382H269V368H299V382Z" fill="#E0DBC8"/>
<path fill-rule="evenodd" clip-rule="evenodd" d="M619 382H589V368H619V382Z" fill="#E0DBC8"/>
</svg>
