<svg width="666" height="414" viewBox="0 0 666 414" fill="none" xmlns="http://www.w3.org/2000/svg">
<rect x="0.5" y="0.5" width="665" height="413" fill="#F6F3ED" stroke="#E0DBC8"/>
<rect x="44" y="40" width="581" height="328" fill="#D5E4C1" stroke="#97C272"/>
<line x1="59.5" y1="61" x2="59.5" y2="334" stroke="#8F9AAA" stroke-width="3"/>
<line x1="603" y1="54.5" x2="67" y2="54.5" stroke="#8F9AAA" stroke-width="3"/>
<line x1="611.5" y1="62" x2="611.5" y2="334" stroke="#8F9AAA" stroke-width="3"/>
<rect x="51.5" y="46.5" width="15" height="15" fill="#B68E74" stroke="#875F4F"/>
<rect x="235.5" y="46.5" width="15" height="15" fill="#B68E74" stroke="#875F4F"/>
<rect x="419.5" y="46.5" width="15" height="15" fill="#B68E74" stroke="#875F4F"/>
<rect x="143.5" y="46.5" width="15" height="15" fill="#B68E74" stroke="#875F4F"/>
<rect x="327.5" y="46.5" width="15" height="15" fill="#B68E74" stroke="#875F4F"/>
<rect x="511.5" y="46.5" width="15" height="15" fill="#B68E74" stroke="#875F4F"/>
<rect x="603.5" y="46.5" width="15" height="15" fill="#B68E74" stroke="#875F4F"/>
<rect x="51.5" y="142.5" width="15" height="15" fill="#B68E74" stroke="#875F4F"/>
<rect x="603.5" y="142.5" width="15" height="15" fill="#B68E74" stroke="#875F4F"/>
<rect x="51.5" y="238.5" width="15" height="15" fill="#B68E74" stroke="#875F4F"/>
<rect x="603.5" y="238.5" width="15" height="15" fill="#B68E74" stroke="#875F4F"/>
<rect x="51.5" y="334.5" width="15" height="15" fill="#B68E74" stroke="#875F4F"/>
<rect x="603.5" y="334.5" width="15" height="15" fill="#B68E74" stroke="#875F4F"/>
<path d="M94.0685 345.202L103.974 344.48L108.927 353.139L106.689 359.315L95.723 359.782L89.1235 354.49L94.0685 345.202Z" fill="#E2E2EA" stroke="#8F9AAA"/>
<path d="M187.069 345.202L196.974 344.48L201.927 353.139L199.689 359.315L188.723 359.782L182.124 354.49L187.069 345.202Z" fill="#E2E2EA" stroke="#8F9AAA"/>
<path d="M282.069 345.202L291.974 344.48L296.927 353.139L294.689 359.315L283.723 359.782L277.124 354.49L282.069 345.202Z" fill="#E2E2EA" stroke="#8F9AAA"/>
<path d="M376.069 345.202L385.974 344.48L390.927 353.139L388.689 359.315L377.723 359.782L371.124 354.49L376.069 345.202Z" fill="#E2E2EA" stroke="#8F9AAA"/>
<path d="M470.069 345.202L479.974 344.48L484.927 353.139L482.689 359.315L471.723 359.782L465.124 354.49L470.069 345.202Z" fill="#E2E2EA" stroke="#8F9AAA"/>
<path d="M72.5 337.778L87.1436 329.573L101.832 337.803L103.449 347.9L87.0607 356.479L72.5 354.032V337.778Z" fill="#E2E2EA" stroke="#8F9AAA"/>
<path d="M165.5 337.778L180.144 329.573L194.832 337.803L196.449 347.9L180.061 356.479L165.5 354.032V337.778Z" fill="#E2E2EA" stroke="#8F9AAA"/>
<path d="M260.5 337.778L275.144 329.573L289.832 337.803L291.449 347.9L275.061 356.479L260.5 354.032V337.778Z" fill="#E2E2EA" stroke="#8F9AAA"/>
<path d="M354.5 337.778L369.144 329.573L383.832 337.803L385.449 347.9L369.061 356.479L354.5 354.032V337.778Z" fill="#E2E2EA" stroke="#8F9AAA"/>
<path d="M448.5 337.778L463.144 329.573L477.832 337.803L479.449 347.9L463.061 356.479L448.5 354.032V337.778Z" fill="#E2E2EA" stroke="#8F9AAA"/>
<path d="M86.6104 334.691L88.7842 324.445L98.7058 320.931L104.031 324.277L101.306 335.533L94.1931 341.338L86.6104 334.691Z" fill="#E2E2EA" stroke="#8F9AAA"/>
<path d="M179.61 334.691L181.784 324.445L191.706 320.931L197.031 324.277L194.306 335.533L187.193 341.338L179.61 334.691Z" fill="#E2E2EA" stroke="#8F9AAA"/>
<path d="M274.61 334.691L276.784 324.445L286.706 320.931L292.031 324.277L289.306 335.533L282.193 341.338L274.61 334.691Z" fill="#E2E2EA" stroke="#8F9AAA"/>
<path d="M368.61 334.691L370.784 324.445L380.706 320.931L386.031 324.277L383.306 335.533L376.193 341.338L368.61 334.691Z" fill="#E2E2EA" stroke="#8F9AAA"/>
<path d="M462.61 334.691L464.784 324.445L474.706 320.931L480.031 324.277L477.306 335.533L470.193 341.338L462.61 334.691Z" fill="#E2E2EA" stroke="#8F9AAA"/>
<path d="M115.657 357.574L100.061 351.367L97.2031 334.774L104.027 327.159L121.013 334.486L128.282 347.338L115.657 357.574Z" fill="#E2E2EA" stroke="#8F9AAA"/>
<path d="M208.657 357.574L193.061 351.367L190.203 334.774L197.027 327.159L214.013 334.486L221.282 347.338L208.657 357.574Z" fill="#E2E2EA" stroke="#8F9AAA"/>
<path d="M303.657 357.574L288.061 351.367L285.203 334.774L292.027 327.159L309.013 334.486L316.282 347.338L303.657 357.574Z" fill="#E2E2EA" stroke="#8F9AAA"/>
<path d="M397.657 357.574L382.061 351.367L379.203 334.774L386.027 327.159L403.013 334.486L410.282 347.338L397.657 357.574Z" fill="#E2E2EA" stroke="#8F9AAA"/>
<path d="M491.657 357.574L476.061 351.367L473.203 334.774L480.027 327.159L497.013 334.486L504.282 347.338L491.657 357.574Z" fill="#E2E2EA" stroke="#8F9AAA"/>
<path d="M124.126 354.665L117.952 362.684L107.918 361.038L104.703 355.489L111.786 346.829L120.351 345.105L124.126 354.665Z" fill="#E2E2EA" stroke="#8F9AAA"/>
<path d="M217.126 354.665L210.952 362.684L200.918 361.038L197.703 355.489L204.786 346.829L213.351 345.105L217.126 354.665Z" fill="#E2E2EA" stroke="#8F9AAA"/>
<path d="M312.126 354.665L305.952 362.684L295.918 361.038L292.703 355.489L299.786 346.829L308.351 345.105L312.126 354.665Z" fill="#E2E2EA" stroke="#8F9AAA"/>
<path d="M406.126 354.665L399.952 362.684L389.918 361.038L386.703 355.489L393.786 346.829L402.351 345.105L406.126 354.665Z" fill="#E2E2EA" stroke="#8F9AAA"/>
<path d="M551.126 354.665L544.952 362.684L534.918 361.038L531.703 355.489L538.786 346.829L547.351 345.105L551.126 354.665Z" fill="#E2E2EA" stroke="#8F9AAA"/>
<path d="M500.126 354.665L493.952 362.684L483.918 361.038L480.703 355.489L487.786 346.829L496.351 345.105L500.126 354.665Z" fill="#E2E2EA" stroke="#8F9AAA"/>
<path d="M127.772 341.598L117.904 343.842L111.222 336.177L112.282 329.853L123.26 327.695L130.958 331.826L127.772 341.598Z" fill="#E2E2EA" stroke="#8F9AAA"/>
<path d="M220.772 341.598L210.904 343.842L204.222 336.177L205.282 329.853L216.26 327.695L223.958 331.826L220.772 341.598Z" fill="#E2E2EA" stroke="#8F9AAA"/>
<path d="M315.772 341.598L305.904 343.842L299.222 336.177L300.282 329.853L311.26 327.695L318.958 331.826L315.772 341.598Z" fill="#E2E2EA" stroke="#8F9AAA"/>
<path d="M409.772 341.598L399.904 343.842L393.222 336.177L394.282 329.853L405.26 327.695L412.958 331.826L409.772 341.598Z" fill="#E2E2EA" stroke="#8F9AAA"/>
<path d="M554.772 341.598L544.904 343.842L538.222 336.177L539.282 329.853L550.26 327.695L557.958 331.826L554.772 341.598Z" fill="#E2E2EA" stroke="#8F9AAA"/>
<path d="M503.772 341.598L493.904 343.842L487.222 336.177L488.282 329.853L499.26 327.695L506.958 331.826L503.772 341.598Z" fill="#E2E2EA" stroke="#8F9AAA"/>
<path d="M130.729 329.469L140.316 326.226L147.748 333.165L147.342 339.565L136.644 342.837L128.562 339.517L130.729 329.469Z" fill="#E2E2EA" stroke="#8F9AAA"/>
<path d="M223.729 329.469L233.316 326.226L240.748 333.165L240.342 339.565L229.644 342.837L221.562 339.517L223.729 329.469Z" fill="#E2E2EA" stroke="#8F9AAA"/>
<path d="M318.729 329.469L328.316 326.226L335.748 333.165L335.342 339.565L324.644 342.837L316.562 339.517L318.729 329.469Z" fill="#E2E2EA" stroke="#8F9AAA"/>
<path d="M412.729 329.469L422.316 326.226L429.748 333.165L429.342 339.565L418.644 342.837L410.562 339.517L412.729 329.469Z" fill="#E2E2EA" stroke="#8F9AAA"/>
<path d="M557.729 329.469L567.316 326.226L574.748 333.165L574.342 339.565L563.644 342.837L555.562 339.517L557.729 329.469Z" fill="#E2E2EA" stroke="#8F9AAA"/>
<path d="M506.729 329.469L516.316 326.226L523.748 333.165L523.342 339.565L512.644 342.837L504.562 339.517L506.729 329.469Z" fill="#E2E2EA" stroke="#8F9AAA"/>
<path d="M116.018 348.942L124.171 334.269L140.993 333.558L147.672 341.301L138.231 357.209L124.554 362.773L116.018 348.942Z" fill="#E2E2EA" stroke="#8F9AAA"/>
<path d="M209.018 348.942L217.171 334.269L233.993 333.558L240.672 341.301L231.231 357.209L217.554 362.773L209.018 348.942Z" fill="#E2E2EA" stroke="#8F9AAA"/>
<path d="M304.018 348.942L312.171 334.269L328.993 333.558L335.672 341.301L326.231 357.209L312.554 362.773L304.018 348.942Z" fill="#E2E2EA" stroke="#8F9AAA"/>
<path d="M398.018 348.942L406.171 334.269L422.993 333.558L429.672 341.301L420.231 357.209L406.554 362.773L398.018 348.942Z" fill="#E2E2EA" stroke="#8F9AAA"/>
<path d="M543.018 348.942L551.171 334.269L567.993 333.558L574.672 341.301L565.231 357.209L551.554 362.773L543.018 348.942Z" fill="#E2E2EA" stroke="#8F9AAA"/>
<path d="M492.018 348.942L500.171 334.269L516.993 333.558L523.672 341.301L514.231 357.209L500.554 362.773L492.018 348.942Z" fill="#E2E2EA" stroke="#8F9AAA"/>
<path d="M135.382 346.408L144.173 345.151L148.055 353.18L145.688 359.337L135.93 360.415L130.421 355.727L135.382 346.408Z" fill="#E2E2EA" stroke="#8F9AAA"/>
<path d="M228.382 346.408L237.173 345.151L241.055 353.18L238.688 359.337L228.93 360.415L223.421 355.727L228.382 346.408Z" fill="#E2E2EA" stroke="#8F9AAA"/>
<path d="M323.382 346.408L332.173 345.151L336.055 353.18L333.688 359.337L323.93 360.415L318.421 355.727L323.382 346.408Z" fill="#E2E2EA" stroke="#8F9AAA"/>
<path d="M417.382 346.408L426.173 345.151L430.055 353.18L427.688 359.337L417.93 360.415L412.421 355.727L417.382 346.408Z" fill="#E2E2EA" stroke="#8F9AAA"/>
<path d="M562.382 346.408L571.173 345.151L575.055 353.18L572.688 359.337L562.93 360.415L557.421 355.727L562.382 346.408Z" fill="#E2E2EA" stroke="#8F9AAA"/>
<path d="M511.382 346.408L520.173 345.151L524.055 353.18L521.688 359.337L511.93 360.415L506.421 355.727L511.382 346.408Z" fill="#E2E2EA" stroke="#8F9AAA"/>
<path d="M151.292 360.973L141.033 347.688L147.025 331.954L156.777 328.876L167.662 343.833L167.371 358.595L151.292 360.973Z" fill="#E2E2EA" stroke="#8F9AAA"/>
<path d="M244.292 360.973L234.033 347.688L240.025 331.954L249.777 328.876L260.662 343.833L260.371 358.595L244.292 360.973Z" fill="#E2E2EA" stroke="#8F9AAA"/>
<path d="M339.292 360.973L329.033 347.688L335.025 331.954L344.777 328.876L355.662 343.833L355.371 358.595L339.292 360.973Z" fill="#E2E2EA" stroke="#8F9AAA"/>
<path d="M433.292 360.973L423.033 347.688L429.025 331.954L438.777 328.876L449.662 343.833L449.371 358.595L433.292 360.973Z" fill="#E2E2EA" stroke="#8F9AAA"/>
<path d="M578.292 360.973L568.033 347.688L574.025 331.954L583.777 328.876L594.662 343.833L594.371 358.595L578.292 360.973Z" fill="#E2E2EA" stroke="#8F9AAA"/>
<path d="M527.292 360.973L517.033 347.688L523.025 331.954L532.777 328.876L543.662 343.833L543.371 358.595L527.292 360.973Z" fill="#E2E2EA" stroke="#8F9AAA"/>
<path d="M163.923 346.186L154.292 339.28L157.588 327.856L165.291 324.036L175.655 331.976L176.878 341.692L163.923 346.186Z" fill="#E2E2EA" stroke="#8F9AAA"/>
<path d="M256.923 346.186L247.292 339.28L250.588 327.856L258.291 324.036L268.655 331.976L269.878 341.692L256.923 346.186Z" fill="#E2E2EA" stroke="#8F9AAA"/>
<path d="M351.923 346.186L342.292 339.28L345.588 327.856L353.291 324.036L363.655 331.976L364.878 341.692L351.923 346.186Z" fill="#E2E2EA" stroke="#8F9AAA"/>
<path d="M445.923 346.186L436.292 339.28L439.588 327.856L447.291 324.036L457.655 331.976L458.878 341.692L445.923 346.186Z" fill="#E2E2EA" stroke="#8F9AAA"/>
<path d="M539.923 346.186L530.292 339.28L533.588 327.856L541.291 324.036L551.655 331.976L552.878 341.692L539.923 346.186Z" fill="#E2E2EA" stroke="#8F9AAA"/>
<mask id="path-80-inside-1_801_977" fill="white">
<path fill-rule="evenodd" clip-rule="evenodd" d="M85.1383 262.364L92.4441 264.081L87.565 257.027C91.1659 250.629 96.8566 245.345 104.165 242.315C119.867 235.806 137.654 241.934 146.219 256.021L135.661 266.064L150.228 265.692C154.141 281.707 145.907 298.622 130.205 305.131C112.859 312.322 92.9676 304.089 85.7768 286.743C82.4239 278.655 82.4243 270.014 85.1383 262.364Z"/>
</mask>
<path fill-rule="evenodd" clip-rule="evenodd" d="M85.1383 262.364L92.4441 264.081L87.565 257.027C91.1659 250.629 96.8566 245.345 104.165 242.315C119.867 235.806 137.654 241.934 146.219 256.021L135.661 266.064L150.228 265.692C154.141 281.707 145.907 298.622 130.205 305.131C112.859 312.322 92.9676 304.089 85.7768 286.743C82.4239 278.655 82.4243 270.014 85.1383 262.364Z" fill="#97C272"/>
<path d="M92.4441 264.081L92.2153 265.055L94.7444 265.649L93.2665 263.512L92.4441 264.081ZM85.1383 262.364L85.3671 261.391L84.4953 261.186L84.1959 262.03L85.1383 262.364ZM87.565 257.027L86.6935 256.537L86.3868 257.082L86.7426 257.596L87.565 257.027ZM146.219 256.021L146.908 256.745L147.492 256.19L147.073 255.501L146.219 256.021ZM135.661 266.064L134.971 265.34L133.089 267.13L135.686 267.064L135.661 266.064ZM150.228 265.692L151.199 265.454L151.008 264.672L150.202 264.692L150.228 265.692ZM92.6729 263.108L85.3671 261.391L84.9095 263.338L92.2153 265.055L92.6729 263.108ZM86.7426 257.596L91.6216 264.65L93.2665 263.512L88.3875 256.458L86.7426 257.596ZM103.782 241.391C96.2596 244.509 90.4003 249.95 86.6935 256.537L88.4365 257.518C91.9315 251.307 97.4535 246.18 104.548 243.239L103.782 241.391ZM147.073 255.501C138.256 241 119.947 234.69 103.782 241.391L104.548 243.239C119.787 236.921 137.052 242.869 145.364 256.54L147.073 255.501ZM136.35 266.789L146.908 256.745L145.53 255.296L134.971 265.34L136.35 266.789ZM150.202 264.692L135.635 265.065L135.686 267.064L150.253 266.692L150.202 264.692ZM130.588 306.055C146.753 299.354 155.228 281.941 151.199 265.454L149.256 265.929C153.055 281.472 145.061 297.89 129.822 304.208L130.588 306.055ZM84.853 287.126C92.2553 304.983 112.732 313.457 130.588 306.055L129.822 304.208C112.986 311.187 93.6799 303.196 86.7006 286.36L84.853 287.126ZM84.1959 262.03C81.4024 269.903 81.4018 278.801 84.853 287.126L86.7006 286.36C83.4461 278.509 83.4463 270.124 86.0807 262.699L84.1959 262.03Z" fill="#5AA945" mask="url(#path-80-inside-1_801_977)"/>
<mask id="path-82-inside-2_801_977" fill="white">
<path fill-rule="evenodd" clip-rule="evenodd" d="M131.253 154.123L128.685 157.692L133.596 156.634C136.251 160.018 137.834 164.283 137.834 168.917C137.834 178.874 130.527 187.125 120.983 188.6L117.917 180.633L114.851 188.6C105.307 187.125 98 178.874 98 168.917C98 157.917 106.917 149 117.917 149C123.046 149 127.722 150.939 131.253 154.123Z"/>
</mask>
<path fill-rule="evenodd" clip-rule="evenodd" d="M131.253 154.123L128.685 157.692L133.596 156.634C136.251 160.018 137.834 164.283 137.834 168.917C137.834 178.874 130.527 187.125 120.983 188.6L117.917 180.633L114.851 188.6C105.307 187.125 98 178.874 98 168.917C98 157.917 106.917 149 117.917 149C123.046 149 127.722 150.939 131.253 154.123Z" fill="#97C272"/>
<path d="M128.685 157.692L127.873 157.107L126.355 159.216L128.895 158.669L128.685 157.692ZM131.253 154.123L132.064 154.707L132.588 153.981L131.923 153.381L131.253 154.123ZM133.596 156.634L134.383 156.017L133.997 155.524L133.386 155.656L133.596 156.634ZM120.983 188.6L120.05 188.959L120.34 189.711L121.136 189.588L120.983 188.6ZM117.917 180.633L118.85 180.274L117.917 177.849L116.984 180.274L117.917 180.633ZM114.851 188.6L114.698 189.588L115.494 189.711L115.784 188.959L114.851 188.6ZM129.496 158.276L132.064 154.707L130.441 153.539L127.873 157.107L129.496 158.276ZM133.386 155.656L128.474 156.714L128.895 158.669L133.807 157.611L133.386 155.656ZM138.834 168.917C138.834 164.051 137.171 159.57 134.383 156.017L132.81 157.251C135.331 160.465 136.834 164.514 136.834 168.917H138.834ZM121.136 189.588C131.16 188.039 138.834 179.375 138.834 168.917H136.834C136.834 178.373 129.895 186.211 120.831 187.611L121.136 189.588ZM116.984 180.992L120.05 188.959L121.917 188.24L118.85 180.274L116.984 180.992ZM115.784 188.959L118.85 180.992L116.984 180.274L113.917 188.24L115.784 188.959ZM97 168.917C97 179.375 104.674 188.039 114.698 189.588L115.003 187.611C105.939 186.211 99 178.373 99 168.917H97ZM117.917 148C106.365 148 97 157.365 97 168.917H99C99 158.469 107.469 150 117.917 150V148ZM131.923 153.381C128.215 150.037 123.303 148 117.917 148V150C122.789 150 127.229 151.841 130.583 154.866L131.923 153.381Z" fill="#5AA945" mask="url(#path-82-inside-2_801_977)"/>
<mask id="path-84-inside-3_801_977" fill="white">
<path fill-rule="evenodd" clip-rule="evenodd" d="M179.497 91.312L177.836 93.6188L181.012 92.9349C182.728 95.1225 183.751 97.8795 183.751 100.876C183.751 107.312 179.028 112.646 172.858 113.6L170.876 108.449L168.893 113.6C162.723 112.646 158 107.312 158 100.876C158 93.7646 163.765 88 170.876 88C174.191 88 177.214 89.2533 179.497 91.312Z"/>
</mask>
<path fill-rule="evenodd" clip-rule="evenodd" d="M179.497 91.312L177.836 93.6188L181.012 92.9349C182.728 95.1225 183.751 97.8795 183.751 100.876C183.751 107.312 179.028 112.646 172.858 113.6L170.876 108.449L168.893 113.6C162.723 112.646 158 107.312 158 100.876C158 93.7646 163.765 88 170.876 88C174.191 88 177.214 89.2533 179.497 91.312Z" fill="#97C272"/>
<path d="M177.836 93.6188L177.025 93.0346L175.507 95.1433L178.047 94.5963L177.836 93.6188ZM179.497 91.312L180.308 91.8961L180.831 91.1693L180.166 90.5694L179.497 91.312ZM181.012 92.9349L181.798 92.3177L181.413 91.8257L180.801 91.9573L181.012 92.9349ZM172.858 113.6L171.925 113.959L172.214 114.711L173.011 114.588L172.858 113.6ZM170.876 108.449L171.809 108.09L170.876 105.666L169.942 108.09L170.876 108.449ZM168.893 113.6L168.741 114.588L169.537 114.711L169.827 113.959L168.893 113.6ZM178.648 94.2029L180.308 91.8961L178.685 90.7279L177.025 93.0346L178.648 94.2029ZM180.801 91.9573L177.626 92.6412L178.047 94.5963L181.222 93.9125L180.801 91.9573ZM184.751 100.876C184.751 97.6479 183.648 94.6751 181.798 92.3177L180.225 93.5521C181.808 95.5699 182.751 98.1112 182.751 100.876H184.751ZM173.011 114.588C179.661 113.56 184.751 107.813 184.751 100.876H182.751C182.751 106.812 178.395 111.732 172.705 112.611L173.011 114.588ZM169.942 108.809L171.925 113.959L173.791 113.24L171.809 108.09L169.942 108.809ZM169.827 113.959L171.809 108.809L169.942 108.09L167.96 113.24L169.827 113.959ZM157 100.876C157 107.813 162.091 113.56 168.741 114.588L169.046 112.611C163.356 111.732 159 106.812 159 100.876H157ZM170.876 87C163.212 87 157 93.2123 157 100.876H159C159 94.3169 164.317 89 170.876 89V87ZM180.166 90.5694C177.707 88.3515 174.448 87 170.876 87V89C173.934 89 176.721 90.1551 178.827 92.0545L180.166 90.5694Z" fill="#5AA945" mask="url(#path-84-inside-3_801_977)"/>
<mask id="path-86-inside-4_801_977" fill="white">
<path fill-rule="evenodd" clip-rule="evenodd" d="M212.455 91.312L210.795 93.6188L213.97 92.9349C215.686 95.1225 216.71 97.8795 216.71 100.876C216.71 107.312 211.986 112.646 205.816 113.6L203.834 108.449L201.852 113.6C195.682 112.646 190.958 107.312 190.958 100.876C190.958 93.7646 196.723 88 203.834 88C207.15 88 210.173 89.2533 212.455 91.312Z"/>
</mask>
<path fill-rule="evenodd" clip-rule="evenodd" d="M212.455 91.312L210.795 93.6188L213.97 92.9349C215.686 95.1225 216.71 97.8795 216.71 100.876C216.71 107.312 211.986 112.646 205.816 113.6L203.834 108.449L201.852 113.6C195.682 112.646 190.958 107.312 190.958 100.876C190.958 93.7646 196.723 88 203.834 88C207.15 88 210.173 89.2533 212.455 91.312Z" fill="#97C272"/>
<path d="M210.795 93.6188L209.983 93.0346L208.466 95.1433L211.005 94.5963L210.795 93.6188ZM212.455 91.312L213.267 91.8961L213.79 91.1693L213.125 90.5694L212.455 91.312ZM213.97 92.9349L214.757 92.3177L214.371 91.8257L213.76 91.9573L213.97 92.9349ZM205.816 113.6L204.883 113.959L205.173 114.711L205.969 114.588L205.816 113.6ZM203.834 108.449L204.767 108.09L203.834 105.666L202.901 108.09L203.834 108.449ZM201.852 113.6L201.699 114.588L202.496 114.711L202.785 113.959L201.852 113.6ZM211.607 94.2029L213.267 91.8961L211.643 90.7279L209.983 93.0346L211.607 94.2029ZM213.76 91.9573L210.584 92.6412L211.005 94.5963L214.181 93.9125L213.76 91.9573ZM217.71 100.876C217.71 97.6479 216.606 94.6751 214.757 92.3177L213.183 93.5521C214.766 95.5699 215.71 98.1112 215.71 100.876H217.71ZM205.969 114.588C212.619 113.56 217.71 107.813 217.71 100.876H215.71C215.71 106.812 211.353 111.732 205.664 112.611L205.969 114.588ZM202.901 108.809L204.883 113.959L206.75 113.24L204.767 108.09L202.901 108.809ZM202.785 113.959L204.767 108.809L202.901 108.09L200.919 113.24L202.785 113.959ZM189.958 100.876C189.958 107.813 195.049 113.56 201.699 114.588L202.005 112.611C196.315 111.732 191.958 106.812 191.958 100.876H189.958ZM203.834 87C196.171 87 189.958 93.2123 189.958 100.876H191.958C191.958 94.3169 197.275 89 203.834 89V87ZM213.125 90.5694C210.666 88.3515 207.407 87 203.834 87V89C206.893 89 209.68 90.1551 211.785 92.0545L213.125 90.5694Z" fill="#5AA945" mask="url(#path-86-inside-4_801_977)"/>
<mask id="path-88-inside-5_801_977" fill="white">
<path fill-rule="evenodd" clip-rule="evenodd" d="M243.455 91.312L241.795 93.6188L244.97 92.9349C246.686 95.1225 247.71 97.8795 247.71 100.876C247.71 107.312 242.986 112.646 236.816 113.6L234.834 108.449L232.852 113.6C226.682 112.646 221.958 107.312 221.958 100.876C221.958 93.7646 227.723 88 234.834 88C238.15 88 241.173 89.2533 243.455 91.312Z"/>
</mask>
<path fill-rule="evenodd" clip-rule="evenodd" d="M243.455 91.312L241.795 93.6188L244.97 92.9349C246.686 95.1225 247.71 97.8795 247.71 100.876C247.71 107.312 242.986 112.646 236.816 113.6L234.834 108.449L232.852 113.6C226.682 112.646 221.958 107.312 221.958 100.876C221.958 93.7646 227.723 88 234.834 88C238.15 88 241.173 89.2533 243.455 91.312Z" fill="#97C272"/>
<path d="M241.795 93.6188L240.983 93.0346L239.466 95.1433L242.005 94.5963L241.795 93.6188ZM243.455 91.312L244.267 91.8961L244.79 91.1693L244.125 90.5694L243.455 91.312ZM244.97 92.9349L245.757 92.3177L245.371 91.8257L244.76 91.9573L244.97 92.9349ZM236.816 113.6L235.883 113.959L236.173 114.711L236.969 114.588L236.816 113.6ZM234.834 108.449L235.767 108.09L234.834 105.666L233.901 108.09L234.834 108.449ZM232.852 113.6L232.699 114.588L233.496 114.711L233.785 113.959L232.852 113.6ZM242.607 94.2029L244.267 91.8961L242.643 90.7279L240.983 93.0346L242.607 94.2029ZM244.76 91.9573L241.584 92.6412L242.005 94.5963L245.181 93.9125L244.76 91.9573ZM248.71 100.876C248.71 97.6479 247.606 94.6751 245.757 92.3177L244.183 93.5521C245.766 95.5699 246.71 98.1112 246.71 100.876H248.71ZM236.969 114.588C243.619 113.56 248.71 107.813 248.71 100.876H246.71C246.71 106.812 242.353 111.732 236.664 112.611L236.969 114.588ZM233.901 108.809L235.883 113.959L237.75 113.24L235.767 108.09L233.901 108.809ZM233.785 113.959L235.767 108.809L233.901 108.09L231.919 113.24L233.785 113.959ZM220.958 100.876C220.958 107.813 226.049 113.56 232.699 114.588L233.005 112.611C227.315 111.732 222.958 106.812 222.958 100.876H220.958ZM234.834 87C227.171 87 220.958 93.2123 220.958 100.876H222.958C222.958 94.3169 228.275 89 234.834 89V87ZM244.125 90.5694C241.666 88.3515 238.407 87 234.834 87V89C237.893 89 240.68 90.1551 242.785 92.0545L244.125 90.5694Z" fill="#5AA945" mask="url(#path-88-inside-5_801_977)"/>
<mask id="path-90-inside-6_801_977" fill="white">
<path fill-rule="evenodd" clip-rule="evenodd" d="M275.455 91.312L273.795 93.6188L276.97 92.9349C278.686 95.1225 279.71 97.8795 279.71 100.876C279.71 107.312 274.986 112.646 268.816 113.6L266.834 108.449L264.852 113.6C258.682 112.646 253.958 107.312 253.958 100.876C253.958 93.7646 259.723 88 266.834 88C270.15 88 273.173 89.2533 275.455 91.312Z"/>
</mask>
<path fill-rule="evenodd" clip-rule="evenodd" d="M275.455 91.312L273.795 93.6188L276.97 92.9349C278.686 95.1225 279.71 97.8795 279.71 100.876C279.71 107.312 274.986 112.646 268.816 113.6L266.834 108.449L264.852 113.6C258.682 112.646 253.958 107.312 253.958 100.876C253.958 93.7646 259.723 88 266.834 88C270.15 88 273.173 89.2533 275.455 91.312Z" fill="#97C272"/>
<path d="M273.795 93.6188L272.983 93.0346L271.466 95.1433L274.005 94.5963L273.795 93.6188ZM275.455 91.312L276.267 91.8961L276.79 91.1693L276.125 90.5694L275.455 91.312ZM276.97 92.9349L277.757 92.3177L277.371 91.8257L276.76 91.9573L276.97 92.9349ZM268.816 113.6L267.883 113.959L268.173 114.711L268.969 114.588L268.816 113.6ZM266.834 108.449L267.767 108.09L266.834 105.666L265.901 108.09L266.834 108.449ZM264.852 113.6L264.699 114.588L265.496 114.711L265.785 113.959L264.852 113.6ZM274.607 94.2029L276.267 91.8961L274.643 90.7279L272.983 93.0346L274.607 94.2029ZM276.76 91.9573L273.584 92.6412L274.005 94.5963L277.181 93.9125L276.76 91.9573ZM280.71 100.876C280.71 97.6479 279.606 94.6751 277.757 92.3177L276.183 93.5521C277.766 95.5699 278.71 98.1112 278.71 100.876H280.71ZM268.969 114.588C275.619 113.56 280.71 107.813 280.71 100.876H278.71C278.71 106.812 274.353 111.732 268.664 112.611L268.969 114.588ZM265.901 108.809L267.883 113.959L269.75 113.24L267.767 108.09L265.901 108.809ZM265.785 113.959L267.767 108.809L265.901 108.09L263.919 113.24L265.785 113.959ZM252.958 100.876C252.958 107.813 258.049 113.56 264.699 114.588L265.005 112.611C259.315 111.732 254.958 106.812 254.958 100.876H252.958ZM266.834 87C259.171 87 252.958 93.2123 252.958 100.876H254.958C254.958 94.3169 260.275 89 266.834 89V87ZM276.125 90.5694C273.666 88.3515 270.407 87 266.834 87V89C269.893 89 272.68 90.1551 274.785 92.0545L276.125 90.5694Z" fill="#5AA945" mask="url(#path-90-inside-6_801_977)"/>
<mask id="path-92-inside-7_801_977" fill="white">
<path fill-rule="evenodd" clip-rule="evenodd" d="M136.306 220.222L132.069 219.05L134.763 223.291C132.509 226.954 129.057 229.917 124.71 231.523C115.37 234.974 105.099 230.98 100.407 222.538L106.817 216.901L98.2819 216.786C96.3575 207.322 101.564 197.609 110.904 194.158C121.222 190.345 132.677 195.619 136.49 205.938C138.267 210.749 138.07 215.807 136.306 220.222Z"/>
</mask>
<path fill-rule="evenodd" clip-rule="evenodd" d="M136.306 220.222L132.069 219.05L134.763 223.291C132.509 226.954 129.057 229.917 124.71 231.523C115.37 234.974 105.099 230.98 100.407 222.538L106.817 216.901L98.2819 216.786C96.3575 207.322 101.564 197.609 110.904 194.158C121.222 190.345 132.677 195.619 136.49 205.938C138.267 210.749 138.07 215.807 136.306 220.222Z" fill="#97C272"/>
<path d="M132.069 219.05L132.335 218.086L129.831 217.394L131.225 219.586L132.069 219.05ZM136.306 220.222L136.039 221.186L136.902 221.425L137.235 220.593L136.306 220.222ZM134.763 223.291L135.615 223.815L135.943 223.282L135.607 222.755L134.763 223.291ZM100.407 222.538L99.7469 221.787L99.1418 222.32L99.5332 223.024L100.407 222.538ZM106.817 216.901L107.478 217.652L109.429 215.936L106.831 215.901L106.817 216.901ZM98.2819 216.786L97.3019 216.985L97.4625 217.775L98.2684 217.786L98.2819 216.786ZM131.802 220.014L136.039 221.186L136.573 219.259L132.335 218.086L131.802 220.014ZM135.607 222.755L132.913 218.514L131.225 219.586L133.919 223.827L135.607 222.755ZM125.057 232.461C129.621 230.775 133.248 227.662 135.615 223.815L133.912 222.767C131.771 226.246 128.493 229.059 124.363 230.585L125.057 232.461ZM99.5332 223.024C104.46 231.89 115.247 236.086 125.057 232.461L124.363 230.585C115.493 233.862 105.737 230.069 101.281 222.053L99.5332 223.024ZM106.157 216.15L99.7469 221.787L101.068 223.289L107.478 217.652L106.157 216.15ZM98.2684 217.786L106.804 217.901L106.831 215.901L98.2954 215.786L98.2684 217.786ZM110.558 193.22C100.748 196.844 95.2807 207.045 97.3019 216.985L99.2618 216.586C97.4342 207.599 102.381 198.373 111.251 195.096L110.558 193.22ZM137.428 205.591C133.424 194.755 121.394 189.216 110.558 193.22L111.251 195.096C121.051 191.475 131.931 196.484 135.552 206.284L137.428 205.591ZM137.235 220.593C139.086 215.957 139.294 210.643 137.428 205.591L135.552 206.284C137.24 210.854 137.053 215.657 135.377 219.851L137.235 220.593Z" fill="#5AA945" mask="url(#path-92-inside-7_801_977)"/>
<rect x="523.5" y="85.5" width="56" height="215" rx="9.5" fill="#F7E2D2" stroke="#D7B59B"/>
<path d="M537.5 101L542.096 102.904L544 107.5L542.096 112.096L537.5 114L532.904 112.096L531 107.5L532.904 102.904L537.5 101Z" fill="#E99B9E"/>
<path d="M566.5 101L571.096 102.904L573 107.5L571.096 112.096L566.5 114L561.904 112.096L560 107.5L561.904 102.904L566.5 101Z" fill="#E99B9E"/>
<path d="M552.5 116L557.096 117.904L559 122.5L557.096 127.096L552.5 129L547.904 127.096L546 122.5L547.904 117.904L552.5 116Z" fill="#E99B9E"/>
<path d="M537.5 131L542.096 132.904L544 137.5L542.096 142.096L537.5 144L532.904 142.096L531 137.5L532.904 132.904L537.5 131Z" fill="#E99B9E"/>
<path d="M566.5 131L571.096 132.904L573 137.5L571.096 142.096L566.5 144L561.904 142.096L560 137.5L561.904 132.904L566.5 131Z" fill="#E99B9E"/>
<path d="M537.5 238L542.096 239.904L544 244.5L542.096 249.096L537.5 251L532.904 249.096L531 244.5L532.904 239.904L537.5 238Z" fill="#F4D685"/>
<path d="M566.5 238L571.096 239.904L573 244.5L571.096 249.096L566.5 251L561.904 249.096L560 244.5L561.904 239.904L566.5 238Z" fill="#F4D685"/>
<path d="M552.5 253L557.096 254.904L559 259.5L557.096 264.096L552.5 266L547.904 264.096L546 259.5L547.904 254.904L552.5 253Z" fill="#F4D685"/>
<path d="M537.5 268L542.096 269.904L544 274.5L542.096 279.096L537.5 281L532.904 279.096L531 274.5L532.904 269.904L537.5 268Z" fill="#F4D685"/>
<path d="M566.5 268L571.096 269.904L573 274.5L571.096 279.096L566.5 281L561.904 279.096L560 274.5L561.904 269.904L566.5 268Z" fill="#F4D685"/>
<path d="M537.5 169L542.096 170.904L544 175.5L542.096 180.096L537.5 182L532.904 180.096L531 175.5L532.904 170.904L537.5 169Z" fill="#94C5E8"/>
<path d="M566.5 169L571.096 170.904L573 175.5L571.096 180.096L566.5 182L561.904 180.096L560 175.5L561.904 170.904L566.5 169Z" fill="#94C5E8"/>
<path d="M552.5 184L557.096 185.904L559 190.5L557.096 195.096L552.5 197L547.904 195.096L546 190.5L547.904 185.904L552.5 184Z" fill="#94C5E8"/>
<path d="M537.5 199L542.096 200.904L544 205.5L542.096 210.096L537.5 212L532.904 210.096L531 205.5L532.904 200.904L537.5 199Z" fill="#94C5E8"/>
<path d="M566.5 199L571.096 200.904L573 205.5L571.096 210.096L566.5 212L561.904 210.096L560 205.5L561.904 200.904L566.5 199Z" fill="#94C5E8"/>
<rect x="450.5" y="85.5" width="56" height="215" rx="9.5" fill="#F7E2D2" stroke="#D7B59B"/>
<path d="M464.5 101L469.096 102.904L471 107.5L469.096 112.096L464.5 114L459.904 112.096L458 107.5L459.904 102.904L464.5 101Z" fill="#E99B9E"/>
<path d="M493.5 101L498.096 102.904L500 107.5L498.096 112.096L493.5 114L488.904 112.096L487 107.5L488.904 102.904L493.5 101Z" fill="#E99B9E"/>
<path d="M479.5 116L484.096 117.904L486 122.5L484.096 127.096L479.5 129L474.904 127.096L473 122.5L474.904 117.904L479.5 116Z" fill="#E99B9E"/>
<path d="M464.5 131L469.096 132.904L471 137.5L469.096 142.096L464.5 144L459.904 142.096L458 137.5L459.904 132.904L464.5 131Z" fill="#E99B9E"/>
<path d="M493.5 131L498.096 132.904L500 137.5L498.096 142.096L493.5 144L488.904 142.096L487 137.5L488.904 132.904L493.5 131Z" fill="#E99B9E"/>
<path d="M464.5 238L469.096 239.904L471 244.5L469.096 249.096L464.5 251L459.904 249.096L458 244.5L459.904 239.904L464.5 238Z" fill="#F4D685"/>
<path d="M493.5 238L498.096 239.904L500 244.5L498.096 249.096L493.5 251L488.904 249.096L487 244.5L488.904 239.904L493.5 238Z" fill="#F4D685"/>
<path d="M479.5 253L484.096 254.904L486 259.5L484.096 264.096L479.5 266L474.904 264.096L473 259.5L474.904 254.904L479.5 253Z" fill="#F4D685"/>
<path d="M464.5 268L469.096 269.904L471 274.5L469.096 279.096L464.5 281L459.904 279.096L458 274.5L459.904 269.904L464.5 268Z" fill="#F4D685"/>
<path d="M493.5 268L498.096 269.904L500 274.5L498.096 279.096L493.5 281L488.904 279.096L487 274.5L488.904 269.904L493.5 268Z" fill="#F4D685"/>
<path d="M464.5 169L469.096 170.904L471 175.5L469.096 180.096L464.5 182L459.904 180.096L458 175.5L459.904 170.904L464.5 169Z" fill="#94C5E8"/>
<path d="M493.5 169L498.096 170.904L500 175.5L498.096 180.096L493.5 182L488.904 180.096L487 175.5L488.904 170.904L493.5 169Z" fill="#94C5E8"/>
<path d="M479.5 184L484.096 185.904L486 190.5L484.096 195.096L479.5 197L474.904 195.096L473 190.5L474.904 185.904L479.5 184Z" fill="#94C5E8"/>
<path d="M464.5 199L469.096 200.904L471 205.5L469.096 210.096L464.5 212L459.904 210.096L458 205.5L459.904 200.904L464.5 199Z" fill="#94C5E8"/>
<path d="M493.5 199L498.096 200.904L500 205.5L498.096 210.096L493.5 212L488.904 210.096L487 205.5L488.904 200.904L493.5 199Z" fill="#94C5E8"/>
<rect x="377.5" y="85.5" width="56" height="215" rx="9.5" fill="#F7E2D2" stroke="#D7B59B"/>
<path d="M391.5 101L396.096 102.904L398 107.5L396.096 112.096L391.5 114L386.904 112.096L385 107.5L386.904 102.904L391.5 101Z" fill="#E99B9E"/>
<path d="M420.5 101L425.096 102.904L427 107.5L425.096 112.096L420.5 114L415.904 112.096L414 107.5L415.904 102.904L420.5 101Z" fill="#E99B9E"/>
<path d="M406.5 116L411.096 117.904L413 122.5L411.096 127.096L406.5 129L401.904 127.096L400 122.5L401.904 117.904L406.5 116Z" fill="#E99B9E"/>
<path d="M391.5 131L396.096 132.904L398 137.5L396.096 142.096L391.5 144L386.904 142.096L385 137.5L386.904 132.904L391.5 131Z" fill="#E99B9E"/>
<path d="M420.5 131L425.096 132.904L427 137.5L425.096 142.096L420.5 144L415.904 142.096L414 137.5L415.904 132.904L420.5 131Z" fill="#E99B9E"/>
<path d="M391.5 238L396.096 239.904L398 244.5L396.096 249.096L391.5 251L386.904 249.096L385 244.5L386.904 239.904L391.5 238Z" fill="#F4D685"/>
<path d="M420.5 238L425.096 239.904L427 244.5L425.096 249.096L420.5 251L415.904 249.096L414 244.5L415.904 239.904L420.5 238Z" fill="#F4D685"/>
<path d="M406.5 253L411.096 254.904L413 259.5L411.096 264.096L406.5 266L401.904 264.096L400 259.5L401.904 254.904L406.5 253Z" fill="#F4D685"/>
<path d="M391.5 268L396.096 269.904L398 274.5L396.096 279.096L391.5 281L386.904 279.096L385 274.5L386.904 269.904L391.5 268Z" fill="#F4D685"/>
<path d="M420.5 268L425.096 269.904L427 274.5L425.096 279.096L420.5 281L415.904 279.096L414 274.5L415.904 269.904L420.5 268Z" fill="#F4D685"/>
<path d="M391.5 169L396.096 170.904L398 175.5L396.096 180.096L391.5 182L386.904 180.096L385 175.5L386.904 170.904L391.5 169Z" fill="#94C5E8"/>
<path d="M420.5 169L425.096 170.904L427 175.5L425.096 180.096L420.5 182L415.904 180.096L414 175.5L415.904 170.904L420.5 169Z" fill="#94C5E8"/>
<path d="M406.5 184L411.096 185.904L413 190.5L411.096 195.096L406.5 197L401.904 195.096L400 190.5L401.904 185.904L406.5 184Z" fill="#94C5E8"/>
<path d="M391.5 199L396.096 200.904L398 205.5L396.096 210.096L391.5 212L386.904 210.096L385 205.5L386.904 200.904L391.5 199Z" fill="#94C5E8"/>
<path d="M420.5 199L425.096 200.904L427 205.5L425.096 210.096L420.5 212L415.904 210.096L414 205.5L415.904 200.904L420.5 199Z" fill="#94C5E8"/>
<mask id="path-142-inside-8_801_977" fill="white">
<path fill-rule="evenodd" clip-rule="evenodd" d="M163.538 101.312L161.878 103.619L165.053 102.935C166.769 105.122 167.793 107.88 167.793 110.876C167.793 117.312 163.069 122.646 156.899 123.6L154.917 118.449L152.935 123.6C146.765 122.646 142.042 117.312 142.042 110.876C142.042 103.765 147.806 98 154.917 98C158.233 98 161.256 99.2533 163.538 101.312Z"/>
</mask>
<path fill-rule="evenodd" clip-rule="evenodd" d="M163.538 101.312L161.878 103.619L165.053 102.935C166.769 105.122 167.793 107.88 167.793 110.876C167.793 117.312 163.069 122.646 156.899 123.6L154.917 118.449L152.935 123.6C146.765 122.646 142.042 117.312 142.042 110.876C142.042 103.765 147.806 98 154.917 98C158.233 98 161.256 99.2533 163.538 101.312Z" fill="#97C272"/>
<path d="M161.878 103.619L161.066 103.035L159.549 105.143L162.088 104.596L161.878 103.619ZM163.538 101.312L164.35 101.896L164.873 101.169L164.208 100.569L163.538 101.312ZM165.053 102.935L165.84 102.318L165.454 101.826L164.843 101.957L165.053 102.935ZM156.899 123.6L155.966 123.959L156.256 124.711L157.052 124.588L156.899 123.6ZM154.917 118.449L155.85 118.09L154.917 115.666L153.984 118.09L154.917 118.449ZM152.935 123.6L152.782 124.588L153.579 124.711L153.868 123.959L152.935 123.6ZM162.69 104.203L164.35 101.896L162.726 100.728L161.066 103.035L162.69 104.203ZM164.843 101.957L161.667 102.641L162.088 104.596L165.264 103.912L164.843 101.957ZM168.793 110.876C168.793 107.648 167.689 104.675 165.84 102.318L164.266 103.552C165.849 105.57 166.793 108.111 166.793 110.876H168.793ZM157.052 124.588C163.702 123.56 168.793 117.813 168.793 110.876H166.793C166.793 116.812 162.436 121.732 156.747 122.611L157.052 124.588ZM153.984 118.809L155.966 123.959L157.833 123.24L155.85 118.09L153.984 118.809ZM153.868 123.959L155.85 118.809L153.984 118.09L152.002 123.24L153.868 123.959ZM141.042 110.876C141.042 117.813 146.132 123.56 152.782 124.588L153.088 122.611C147.398 121.732 143.042 116.812 143.042 110.876H141.042ZM154.917 97C147.254 97 141.042 103.212 141.042 110.876H143.042C143.042 104.317 148.358 99 154.917 99V97ZM164.208 100.569C161.749 98.3515 158.49 97 154.917 97V99C157.976 99 160.763 100.155 162.868 102.055L164.208 100.569Z" fill="#5AA945" mask="url(#path-142-inside-8_801_977)"/>
<mask id="path-144-inside-9_801_977" fill="white">
<path fill-rule="evenodd" clip-rule="evenodd" d="M196.497 101.312L194.836 103.619L198.012 102.935C199.728 105.122 200.751 107.88 200.751 110.876C200.751 117.312 196.028 122.646 189.858 123.6L187.876 118.449L185.893 123.6C179.723 122.646 175 117.312 175 110.876C175 103.765 180.765 98 187.876 98C191.191 98 194.214 99.2533 196.497 101.312Z"/>
</mask>
<path fill-rule="evenodd" clip-rule="evenodd" d="M196.497 101.312L194.836 103.619L198.012 102.935C199.728 105.122 200.751 107.88 200.751 110.876C200.751 117.312 196.028 122.646 189.858 123.6L187.876 118.449L185.893 123.6C179.723 122.646 175 117.312 175 110.876C175 103.765 180.765 98 187.876 98C191.191 98 194.214 99.2533 196.497 101.312Z" fill="#97C272"/>
<path d="M194.836 103.619L194.025 103.035L192.507 105.143L195.047 104.596L194.836 103.619ZM196.497 101.312L197.308 101.896L197.831 101.169L197.166 100.569L196.497 101.312ZM198.012 102.935L198.798 102.318L198.413 101.826L197.801 101.957L198.012 102.935ZM189.858 123.6L188.925 123.959L189.214 124.711L190.011 124.588L189.858 123.6ZM187.876 118.449L188.809 118.09L187.876 115.666L186.942 118.09L187.876 118.449ZM185.893 123.6L185.741 124.588L186.537 124.711L186.827 123.959L185.893 123.6ZM195.648 104.203L197.308 101.896L195.685 100.728L194.025 103.035L195.648 104.203ZM197.801 101.957L194.626 102.641L195.047 104.596L198.222 103.912L197.801 101.957ZM201.751 110.876C201.751 107.648 200.648 104.675 198.798 102.318L197.225 103.552C198.808 105.57 199.751 108.111 199.751 110.876H201.751ZM190.011 124.588C196.661 123.56 201.751 117.813 201.751 110.876H199.751C199.751 116.812 195.395 121.732 189.705 122.611L190.011 124.588ZM186.942 118.809L188.925 123.959L190.791 123.24L188.809 118.09L186.942 118.809ZM186.827 123.959L188.809 118.809L186.942 118.09L184.96 123.24L186.827 123.959ZM174 110.876C174 117.813 179.091 123.56 185.741 124.588L186.046 122.611C180.356 121.732 176 116.812 176 110.876H174ZM187.876 97C180.212 97 174 103.212 174 110.876H176C176 104.317 181.317 99 187.876 99V97ZM197.166 100.569C194.707 98.3515 191.448 97 187.876 97V99C190.934 99 193.721 100.155 195.827 102.055L197.166 100.569Z" fill="#5AA945" mask="url(#path-144-inside-9_801_977)"/>
<mask id="path-146-inside-10_801_977" fill="white">
<path fill-rule="evenodd" clip-rule="evenodd" d="M227.497 101.312L225.836 103.619L229.012 102.935C230.728 105.122 231.751 107.88 231.751 110.876C231.751 117.312 227.028 122.646 220.858 123.6L218.876 118.449L216.893 123.6C210.723 122.646 206 117.312 206 110.876C206 103.765 211.765 98 218.876 98C222.191 98 225.214 99.2533 227.497 101.312Z"/>
</mask>
<path fill-rule="evenodd" clip-rule="evenodd" d="M227.497 101.312L225.836 103.619L229.012 102.935C230.728 105.122 231.751 107.88 231.751 110.876C231.751 117.312 227.028 122.646 220.858 123.6L218.876 118.449L216.893 123.6C210.723 122.646 206 117.312 206 110.876C206 103.765 211.765 98 218.876 98C222.191 98 225.214 99.2533 227.497 101.312Z" fill="#97C272"/>
<path d="M225.836 103.619L225.025 103.035L223.507 105.143L226.047 104.596L225.836 103.619ZM227.497 101.312L228.308 101.896L228.831 101.169L228.166 100.569L227.497 101.312ZM229.012 102.935L229.798 102.318L229.413 101.826L228.801 101.957L229.012 102.935ZM220.858 123.6L219.925 123.959L220.214 124.711L221.011 124.588L220.858 123.6ZM218.876 118.449L219.809 118.09L218.876 115.666L217.942 118.09L218.876 118.449ZM216.893 123.6L216.741 124.588L217.537 124.711L217.827 123.959L216.893 123.6ZM226.648 104.203L228.308 101.896L226.685 100.728L225.025 103.035L226.648 104.203ZM228.801 101.957L225.626 102.641L226.047 104.596L229.222 103.912L228.801 101.957ZM232.751 110.876C232.751 107.648 231.648 104.675 229.798 102.318L228.225 103.552C229.808 105.57 230.751 108.111 230.751 110.876H232.751ZM221.011 124.588C227.661 123.56 232.751 117.813 232.751 110.876H230.751C230.751 116.812 226.395 121.732 220.705 122.611L221.011 124.588ZM217.942 118.809L219.925 123.959L221.791 123.24L219.809 118.09L217.942 118.809ZM217.827 123.959L219.809 118.809L217.942 118.09L215.96 123.24L217.827 123.959ZM205 110.876C205 117.813 210.091 123.56 216.741 124.588L217.046 122.611C211.356 121.732 207 116.812 207 110.876H205ZM218.876 97C211.212 97 205 103.212 205 110.876H207C207 104.317 212.317 99 218.876 99V97ZM228.166 100.569C225.707 98.3515 222.448 97 218.876 97V99C221.934 99 224.721 100.155 226.827 102.055L228.166 100.569Z" fill="#5AA945" mask="url(#path-146-inside-10_801_977)"/>
<mask id="path-148-inside-11_801_977" fill="white">
<path fill-rule="evenodd" clip-rule="evenodd" d="M259.497 101.312L257.836 103.619L261.012 102.935C262.728 105.122 263.751 107.88 263.751 110.876C263.751 117.312 259.028 122.646 252.858 123.6L250.876 118.449L248.893 123.6C242.723 122.646 238 117.312 238 110.876C238 103.765 243.765 98 250.876 98C254.191 98 257.214 99.2533 259.497 101.312Z"/>
</mask>
<path fill-rule="evenodd" clip-rule="evenodd" d="M259.497 101.312L257.836 103.619L261.012 102.935C262.728 105.122 263.751 107.88 263.751 110.876C263.751 117.312 259.028 122.646 252.858 123.6L250.876 118.449L248.893 123.6C242.723 122.646 238 117.312 238 110.876C238 103.765 243.765 98 250.876 98C254.191 98 257.214 99.2533 259.497 101.312Z" fill="#97C272"/>
<path d="M257.836 103.619L257.025 103.035L255.507 105.143L258.047 104.596L257.836 103.619ZM259.497 101.312L260.308 101.896L260.831 101.169L260.166 100.569L259.497 101.312ZM261.012 102.935L261.798 102.318L261.413 101.826L260.801 101.957L261.012 102.935ZM252.858 123.6L251.925 123.959L252.214 124.711L253.011 124.588L252.858 123.6ZM250.876 118.449L251.809 118.09L250.876 115.666L249.942 118.09L250.876 118.449ZM248.893 123.6L248.741 124.588L249.537 124.711L249.827 123.959L248.893 123.6ZM258.648 104.203L260.308 101.896L258.685 100.728L257.025 103.035L258.648 104.203ZM260.801 101.957L257.626 102.641L258.047 104.596L261.222 103.912L260.801 101.957ZM264.751 110.876C264.751 107.648 263.648 104.675 261.798 102.318L260.225 103.552C261.808 105.57 262.751 108.111 262.751 110.876H264.751ZM253.011 124.588C259.661 123.56 264.751 117.813 264.751 110.876H262.751C262.751 116.812 258.395 121.732 252.705 122.611L253.011 124.588ZM249.942 118.809L251.925 123.959L253.791 123.24L251.809 118.09L249.942 118.809ZM249.827 123.959L251.809 118.809L249.942 118.09L247.96 123.24L249.827 123.959ZM237 110.876C237 117.813 242.091 123.56 248.741 124.588L249.046 122.611C243.356 121.732 239 116.812 239 110.876H237ZM250.876 97C243.212 97 237 103.212 237 110.876H239C239 104.317 244.317 99 250.876 99V97ZM260.166 100.569C257.707 98.3515 254.448 97 250.876 97V99C253.934 99 256.721 100.155 258.827 102.055L260.166 100.569Z" fill="#5AA945" mask="url(#path-148-inside-11_801_977)"/>
<mask id="path-150-inside-12_801_977" fill="white">
<path fill-rule="evenodd" clip-rule="evenodd" d="M139.765 85.7459L135.381 91.8372L143.766 90.0314C148.298 95.8081 151 103.088 151 111C151 127.998 138.527 142.082 122.234 144.6L117 131L111.766 144.6C95.473 142.082 83 127.998 83 111C83 92.2223 98.2223 77 117 77C125.756 77 133.738 80.3095 139.765 85.7459Z"/>
</mask>
<path fill-rule="evenodd" clip-rule="evenodd" d="M139.765 85.7459L135.381 91.8372L143.766 90.0314C148.298 95.8081 151 103.088 151 111C151 127.998 138.527 142.082 122.234 144.6L117 131L111.766 144.6C95.473 142.082 83 127.998 83 111C83 92.2223 98.2223 77 117 77C125.756 77 133.738 80.3095 139.765 85.7459Z" fill="#97C272"/>
<path d="M135.381 91.8372L134.57 91.2531L133.052 93.3618L135.592 92.8148L135.381 91.8372ZM139.765 85.7459L140.577 86.33L141.1 85.6032L140.435 85.0033L139.765 85.7459ZM143.766 90.0314L144.553 89.4142L144.167 88.9221L143.555 89.0538L143.766 90.0314ZM122.234 144.6L121.301 144.959L121.591 145.711L122.387 145.588L122.234 144.6ZM117 131L117.933 130.641L117 128.216L116.067 130.641L117 131ZM111.766 144.6L111.613 145.588L112.409 145.711L112.699 144.959L111.766 144.6ZM136.193 92.4213L140.577 86.33L138.953 85.1617L134.57 91.2531L136.193 92.4213ZM143.555 89.0538L135.171 90.8596L135.592 92.8148L143.977 91.009L143.555 89.0538ZM152 111C152 102.857 149.218 95.3606 144.553 89.4142L142.979 90.6486C147.378 96.2555 150 103.32 150 111H152ZM122.387 145.588C139.16 142.996 152 128.498 152 111H150C150 127.497 137.894 141.168 122.082 143.611L122.387 145.588ZM116.067 131.359L121.301 144.959L123.168 144.24L117.933 130.641L116.067 131.359ZM112.699 144.959L117.933 131.359L116.067 130.641L110.832 144.24L112.699 144.959ZM82 111C82 128.498 94.8403 142.996 111.613 145.588L111.918 143.611C96.1058 141.168 84 127.497 84 111H82ZM117 76C97.67 76 82 91.67 82 111H84C84 92.7746 98.7746 78 117 78V76ZM140.435 85.0033C134.231 79.4077 126.012 76 117 76V78C125.499 78 133.245 81.2114 139.095 86.4884L140.435 85.0033Z" fill="#5AA945" mask="url(#path-150-inside-12_801_977)"/>
<circle cx="201" cy="181" r="40" fill="#C2E5F9" stroke="#C1C7D5" stroke-width="8"/>
</svg>
