<svg width="1305" height="163" viewBox="0 0 1305 163" fill="none" xmlns="http://www.w3.org/2000/svg">
<rect x="0.5" y="0.5" width="1304" height="162" fill="#F6F3ED" stroke="#E0DBC8"/>
<rect x="40.5" y="40.5" width="212" height="82" fill="#C2E5F9" stroke="#5090C9"/>
<path d="M65.5531 88.3013V74.1013H71.5531C72.1665 74.1013 72.7265 74.2279 73.2331 74.4813C73.7398 74.7346 74.1798 75.0813 74.5531 75.5213C74.9398 75.9479 75.2331 76.4279 75.4331 76.9613C75.6465 77.4813 75.7531 78.0146 75.7531 78.5613C75.7531 79.2413 75.6198 79.8813 75.3531 80.4813C75.0998 81.0813 74.7331 81.5879 74.2531 82.0013C73.7865 82.4146 73.2331 82.6879 72.5931 82.8213L76.0731 88.3013H74.4931L71.1531 83.0613H66.9531V88.3013H65.5531ZM66.9531 81.8213H71.5931C72.1531 81.8213 72.6398 81.6679 73.0531 81.3613C73.4665 81.0546 73.7865 80.6546 74.0131 80.1613C74.2398 79.6546 74.3531 79.1213 74.3531 78.5613C74.3531 77.9879 74.2198 77.4613 73.9531 76.9813C73.6998 76.4879 73.3531 76.0946 72.9131 75.8013C72.4865 75.4946 72.0065 75.3413 71.4731 75.3413H66.9531V81.8213ZM78.0833 84.0013V77.8813H79.4433V83.7613C79.4433 84.9479 79.6433 85.8346 80.0433 86.4213C80.4566 87.0079 81.0633 87.3013 81.8633 87.3013C82.3966 87.3013 82.91 87.1879 83.4033 86.9613C83.91 86.7213 84.3566 86.3879 84.7433 85.9613C85.13 85.5213 85.4233 85.0146 85.6233 84.4413V77.8813H86.9833V86.6613C86.9833 86.8479 87.0233 86.9879 87.1033 87.0813C87.1833 87.1613 87.3033 87.2079 87.4633 87.2213V88.3013C87.3033 88.3146 87.1766 88.3213 87.0833 88.3213C86.99 88.3346 86.9033 88.3413 86.8233 88.3413C86.5566 88.3146 86.3233 88.2079 86.1233 88.0213C85.9366 87.8346 85.8366 87.6079 85.8233 87.3413L85.7833 85.9413C85.33 86.7413 84.71 87.3679 83.9233 87.8213C83.15 88.2746 82.31 88.5013 81.4033 88.5013C80.31 88.5013 79.4833 88.1213 78.9233 87.3613C78.3633 86.6013 78.0833 85.4813 78.0833 84.0013ZM98.8183 88.3013H97.4583V82.4813C97.4583 81.2546 97.2783 80.3613 96.9183 79.8013C96.5583 79.2279 95.9916 78.9413 95.2183 78.9413C94.685 78.9413 94.1583 79.0746 93.6383 79.3413C93.1183 79.5946 92.6583 79.9479 92.2583 80.4013C91.8716 80.8413 91.5916 81.3479 91.4183 81.9213V88.3013H90.0583V77.8813H91.2983V80.2413C91.5783 79.7346 91.945 79.2946 92.3983 78.9213C92.8516 78.5346 93.365 78.2346 93.9383 78.0213C94.5116 77.8079 95.105 77.7013 95.7183 77.7013C96.2916 77.7013 96.7783 77.8079 97.1783 78.0213C97.5783 78.2346 97.8983 78.5413 98.1383 78.9413C98.3783 79.3279 98.5516 79.8013 98.6583 80.3613C98.765 80.9079 98.8183 81.5213 98.8183 82.2013V88.3013ZM101.098 81.3813C101.098 80.0213 101.372 78.7013 101.918 77.4213C102.465 76.1279 103.125 74.8279 103.898 73.5213L104.938 74.0213C104.672 74.4213 104.385 74.9146 104.078 75.5013C103.785 76.0879 103.505 76.7213 103.238 77.4013C102.985 78.0679 102.778 78.7479 102.618 79.4413C102.458 80.1346 102.378 80.8013 102.378 81.4413C102.378 82.4813 102.605 83.6146 103.058 84.8413C103.512 86.0679 104.132 87.2879 104.918 88.5013L103.898 89.0413C103.338 88.2013 102.845 87.3546 102.418 86.5013C102.005 85.6479 101.678 84.7946 101.438 83.9413C101.212 83.0746 101.098 82.2213 101.098 81.3813ZM111.219 88.5013C110.459 88.5013 109.759 88.3613 109.119 88.0813C108.492 87.7879 107.939 87.3879 107.459 86.8813C106.992 86.3746 106.626 85.7946 106.359 85.1413C106.106 84.4879 105.979 83.7946 105.979 83.0613C105.979 82.0746 106.199 81.1746 106.639 80.3613C107.079 79.5479 107.692 78.9013 108.479 78.4213C109.266 77.9413 110.172 77.7013 111.199 77.7013C112.172 77.7013 113.032 77.9279 113.779 78.3813C114.526 78.8213 115.079 79.4213 115.439 80.1813L114.119 80.6013C113.826 80.0679 113.412 79.6546 112.879 79.3613C112.359 79.0546 111.779 78.9013 111.139 78.9013C110.446 78.9013 109.812 79.0813 109.239 79.4413C108.666 79.8013 108.206 80.2946 107.859 80.9213C107.526 81.5479 107.359 82.2613 107.359 83.0613C107.359 83.8479 107.532 84.5613 107.879 85.2013C108.226 85.8413 108.686 86.3546 109.259 86.7413C109.832 87.1146 110.466 87.3013 111.159 87.3013C111.612 87.3013 112.046 87.2213 112.459 87.0613C112.886 86.9013 113.252 86.6879 113.559 86.4213C113.879 86.1413 114.092 85.8413 114.199 85.5213L115.539 85.9213C115.352 86.4146 115.039 86.8613 114.599 87.2613C114.172 87.6479 113.666 87.9546 113.079 88.1813C112.506 88.3946 111.886 88.5013 111.219 88.5013ZM117.575 84.0013V77.8813H118.935V83.7613C118.935 84.9479 119.135 85.8346 119.535 86.4213C119.949 87.0079 120.555 87.3013 121.355 87.3013C121.889 87.3013 122.402 87.1879 122.895 86.9613C123.402 86.7213 123.849 86.3879 124.235 85.9613C124.622 85.5213 124.915 85.0146 125.115 84.4413V77.8813H126.475V86.6613C126.475 86.8479 126.515 86.9879 126.595 87.0813C126.675 87.1613 126.795 87.2079 126.955 87.2213V88.3013C126.795 88.3146 126.669 88.3213 126.575 88.3213C126.482 88.3346 126.395 88.3413 126.315 88.3413C126.049 88.3146 125.815 88.2079 125.615 88.0213C125.429 87.8346 125.329 87.6079 125.315 87.3413L125.275 85.9413C124.822 86.7413 124.202 87.3679 123.415 87.8213C122.642 88.2746 121.802 88.5013 120.895 88.5013C119.802 88.5013 118.975 88.1213 118.415 87.3613C117.855 86.6013 117.575 85.4813 117.575 84.0013ZM134.75 79.0813C133.844 79.1079 133.044 79.3613 132.35 79.8413C131.67 80.3213 131.19 80.9813 130.91 81.8213V88.3013H129.55V77.8813H130.83V80.3813C131.19 79.6479 131.664 79.0546 132.25 78.6013C132.85 78.1479 133.484 77.8946 134.15 77.8413C134.284 77.8279 134.397 77.8213 134.49 77.8213C134.597 77.8213 134.684 77.8279 134.75 77.8413V79.0813ZM141.762 79.0813C140.856 79.1079 140.056 79.3613 139.362 79.8413C138.682 80.3213 138.202 80.9813 137.922 81.8213V88.3013H136.562V77.8813H137.842V80.3813C138.202 79.6479 138.676 79.0546 139.262 78.6013C139.862 78.1479 140.496 77.8946 141.162 77.8413C141.296 77.8279 141.409 77.8213 141.502 77.8213C141.609 77.8213 141.696 77.8279 141.762 77.8413V79.0813ZM147.742 88.5013C146.995 88.5013 146.302 88.3613 145.662 88.0813C145.022 87.7879 144.469 87.3946 144.002 86.9013C143.535 86.3946 143.169 85.8146 142.902 85.1613C142.649 84.5079 142.522 83.8079 142.522 83.0613C142.522 82.0879 142.742 81.1946 143.182 80.3813C143.635 79.5679 144.255 78.9213 145.042 78.4413C145.829 77.9479 146.722 77.7013 147.722 77.7013C148.749 77.7013 149.642 77.9479 150.402 78.4413C151.175 78.9346 151.782 79.5879 152.222 80.4013C152.662 81.2013 152.882 82.0813 152.882 83.0413C152.882 83.1479 152.882 83.2546 152.882 83.3613C152.882 83.4546 152.875 83.5279 152.862 83.5813H143.942C144.009 84.3279 144.215 84.9946 144.562 85.5813C144.922 86.1546 145.382 86.6146 145.942 86.9613C146.515 87.2946 147.135 87.4613 147.802 87.4613C148.482 87.4613 149.122 87.2879 149.722 86.9413C150.335 86.5946 150.762 86.1413 151.002 85.5813L152.182 85.9013C151.969 86.3946 151.642 86.8413 151.202 87.2413C150.762 87.6413 150.242 87.9546 149.642 88.1813C149.055 88.3946 148.422 88.5013 147.742 88.5013ZM143.902 82.6013H151.602C151.549 81.8413 151.342 81.1746 150.982 80.6013C150.635 80.0279 150.175 79.5813 149.602 79.2613C149.042 78.9279 148.422 78.7613 147.742 78.7613C147.062 78.7613 146.442 78.9279 145.882 79.2613C145.322 79.5813 144.862 80.0346 144.502 80.6213C144.155 81.1946 143.955 81.8546 143.902 82.6013ZM163.74 88.3013H162.38V82.4813C162.38 81.2546 162.2 80.3613 161.84 79.8013C161.48 79.2279 160.914 78.9413 160.14 78.9413C159.607 78.9413 159.08 79.0746 158.56 79.3413C158.04 79.5946 157.58 79.9479 157.18 80.4013C156.794 80.8413 156.514 81.3479 156.34 81.9213V88.3013H154.98V77.8813H156.22V80.2413C156.5 79.7346 156.867 79.2946 157.32 78.9213C157.774 78.5346 158.287 78.2346 158.86 78.0213C159.434 77.8079 160.027 77.7013 160.64 77.7013C161.214 77.7013 161.7 77.8079 162.1 78.0213C162.5 78.2346 162.82 78.5413 163.06 78.9413C163.3 79.3279 163.474 79.8013 163.58 80.3613C163.687 80.9079 163.74 81.5213 163.74 82.2013V88.3013ZM171.543 87.8013C171.436 87.8413 171.269 87.9146 171.043 88.0213C170.816 88.1279 170.543 88.2213 170.223 88.3013C169.903 88.3813 169.556 88.4213 169.183 88.4213C168.796 88.4213 168.429 88.3479 168.083 88.2013C167.749 88.0546 167.483 87.8346 167.283 87.5413C167.083 87.2346 166.983 86.8613 166.983 86.4213V78.9613H165.543V77.8813H166.983V74.3613H168.343V77.8813H170.743V78.9613H168.343V86.0413C168.369 86.4146 168.503 86.6946 168.743 86.8813C168.996 87.0679 169.283 87.1613 169.603 87.1613C169.976 87.1613 170.316 87.1013 170.623 86.9813C170.929 86.8479 171.116 86.7546 171.183 86.7013L171.543 87.8013ZM173.042 89.5413V88.3013H180.662V89.5413H173.042ZM182.757 83.1213C182.757 82.1346 182.957 81.2346 183.357 80.4213C183.77 79.5946 184.337 78.9346 185.057 78.4413C185.777 77.9479 186.597 77.7013 187.517 77.7013C188.383 77.7013 189.157 77.9346 189.837 78.4013C190.53 78.8546 191.07 79.4079 191.457 80.0613V73.7013H192.817V86.6613C192.817 86.8479 192.857 86.9879 192.937 87.0813C193.017 87.1613 193.137 87.2079 193.297 87.2213V88.3013C193.03 88.3413 192.823 88.3546 192.677 88.3413C192.397 88.3279 192.15 88.2146 191.937 88.0013C191.723 87.7879 191.617 87.5546 191.617 87.3013V86.2813C191.203 86.9613 190.643 87.5013 189.937 87.9013C189.23 88.3013 188.497 88.5013 187.737 88.5013C187.017 88.5013 186.35 88.3546 185.737 88.0613C185.137 87.7679 184.61 87.3679 184.157 86.8613C183.717 86.3546 183.37 85.7813 183.117 85.1413C182.877 84.4879 182.757 83.8146 182.757 83.1213ZM191.457 84.7213V81.5013C191.283 81.0213 191.003 80.5879 190.617 80.2013C190.23 79.8013 189.79 79.4879 189.297 79.2613C188.817 79.0213 188.337 78.9013 187.857 78.9013C187.297 78.9013 186.79 79.0213 186.337 79.2613C185.883 79.4879 185.49 79.8013 185.157 80.2013C184.837 80.6013 184.59 81.0546 184.417 81.5613C184.243 82.0679 184.157 82.5879 184.157 83.1213C184.157 83.6813 184.25 84.2146 184.437 84.7213C184.637 85.2279 184.917 85.6813 185.277 86.0813C185.637 86.4679 186.05 86.7679 186.517 86.9813C186.983 87.1946 187.49 87.3013 188.037 87.3013C188.383 87.3013 188.743 87.2346 189.117 87.1013C189.49 86.9679 189.843 86.7879 190.177 86.5613C190.523 86.3213 190.81 86.0413 191.037 85.7213C191.263 85.4013 191.403 85.0679 191.457 84.7213ZM195.058 85.3013C195.058 84.6479 195.245 84.0879 195.618 83.6213C195.991 83.1413 196.505 82.7746 197.158 82.5213C197.825 82.2546 198.591 82.1213 199.458 82.1213C199.965 82.1213 200.491 82.1613 201.038 82.2413C201.585 82.3213 202.071 82.4413 202.498 82.6013V81.7213C202.498 80.8413 202.238 80.1413 201.718 79.6213C201.198 79.1013 200.478 78.8413 199.558 78.8413C198.998 78.8413 198.445 78.9479 197.898 79.1613C197.365 79.3613 196.805 79.6613 196.218 80.0613L195.698 79.1013C196.378 78.6346 197.045 78.2879 197.698 78.0613C198.351 77.8213 199.018 77.7013 199.698 77.7013C200.978 77.7013 201.991 78.0679 202.738 78.8013C203.485 79.5346 203.858 80.5479 203.858 81.8413V86.6613C203.858 86.8479 203.898 86.9879 203.978 87.0813C204.058 87.1613 204.185 87.2079 204.358 87.2213V88.3013C204.211 88.3146 204.085 88.3279 203.978 88.3413C203.871 88.3546 203.791 88.3546 203.738 88.3413C203.405 88.3279 203.151 88.2213 202.978 88.0213C202.805 87.8213 202.711 87.6079 202.698 87.3813L202.678 86.6213C202.211 87.2213 201.605 87.6879 200.858 88.0213C200.111 88.3413 199.351 88.5013 198.578 88.5013C197.911 88.5013 197.305 88.3613 196.758 88.0813C196.225 87.7879 195.805 87.4013 195.498 86.9213C195.205 86.4279 195.058 85.8879 195.058 85.3013ZM202.038 86.1013C202.185 85.9146 202.298 85.7346 202.378 85.5613C202.458 85.3879 202.498 85.2346 202.498 85.1013V83.5813C202.045 83.4079 201.571 83.2746 201.078 83.1813C200.598 83.0879 200.111 83.0413 199.618 83.0413C198.645 83.0413 197.858 83.2346 197.258 83.6213C196.658 84.0079 196.358 84.5346 196.358 85.2013C196.358 85.5879 196.458 85.9546 196.658 86.3013C196.858 86.6346 197.151 86.9146 197.538 87.1413C197.925 87.3546 198.378 87.4613 198.898 87.4613C199.551 87.4613 200.158 87.3346 200.718 87.0813C201.291 86.8279 201.731 86.5013 202.038 86.1013ZM211.718 87.8013C211.612 87.8413 211.445 87.9146 211.218 88.0213C210.992 88.1279 210.718 88.2213 210.398 88.3013C210.078 88.3813 209.732 88.4213 209.358 88.4213C208.972 88.4213 208.605 88.3479 208.258 88.2013C207.925 88.0546 207.658 87.8346 207.458 87.5413C207.258 87.2346 207.158 86.8613 207.158 86.4213V78.9613H205.718V77.8813H207.158V74.3613H208.518V77.8813H210.918V78.9613H208.518V86.0413C208.545 86.4146 208.678 86.6946 208.918 86.8813C209.172 87.0679 209.458 87.1613 209.778 87.1613C210.152 87.1613 210.492 87.1013 210.798 86.9813C211.105 86.8479 211.292 86.7546 211.358 86.7013L211.718 87.8013ZM217.742 88.5013C216.995 88.5013 216.302 88.3613 215.662 88.0813C215.022 87.7879 214.469 87.3946 214.002 86.9013C213.535 86.3946 213.169 85.8146 212.902 85.1613C212.649 84.5079 212.522 83.8079 212.522 83.0613C212.522 82.0879 212.742 81.1946 213.182 80.3813C213.635 79.5679 214.255 78.9213 215.042 78.4413C215.829 77.9479 216.722 77.7013 217.722 77.7013C218.749 77.7013 219.642 77.9479 220.402 78.4413C221.175 78.9346 221.782 79.5879 222.222 80.4013C222.662 81.2013 222.882 82.0813 222.882 83.0413C222.882 83.1479 222.882 83.2546 222.882 83.3613C222.882 83.4546 222.875 83.5279 222.862 83.5813H213.942C214.009 84.3279 214.215 84.9946 214.562 85.5813C214.922 86.1546 215.382 86.6146 215.942 86.9613C216.515 87.2946 217.135 87.4613 217.802 87.4613C218.482 87.4613 219.122 87.2879 219.722 86.9413C220.335 86.5946 220.762 86.1413 221.002 85.5813L222.182 85.9013C221.969 86.3946 221.642 86.8413 221.202 87.2413C220.762 87.6413 220.242 87.9546 219.642 88.1813C219.055 88.3946 218.422 88.5013 217.742 88.5013ZM213.902 82.6013H221.602C221.549 81.8413 221.342 81.1746 220.982 80.6013C220.635 80.0279 220.175 79.5813 219.602 79.2613C219.042 78.9279 218.422 78.7613 217.742 78.7613C217.062 78.7613 216.442 78.9279 215.882 79.2613C215.322 79.5813 214.862 80.0346 214.502 80.6213C214.155 81.1946 213.955 81.8546 213.902 82.6013ZM227.648 81.3813C227.648 82.2213 227.534 83.0746 227.308 83.9413C227.081 84.7946 226.754 85.6479 226.328 86.5013C225.901 87.3546 225.408 88.2013 224.848 89.0413L223.848 88.5013C224.634 87.2879 225.254 86.0679 225.708 84.8413C226.161 83.6146 226.388 82.4813 226.388 81.4413C226.388 80.8013 226.308 80.1346 226.148 79.4413C225.988 78.7479 225.774 78.0679 225.508 77.4013C225.241 76.7213 224.961 76.0879 224.668 75.5013C224.374 74.9146 224.088 74.4213 223.808 74.0213L224.868 73.5213C225.641 74.8279 226.294 76.1279 226.828 77.4213C227.374 78.7013 227.648 80.0213 227.648 81.3813Z" fill="black"/>
<rect x="293.5" y="40.5" width="212" height="82" fill="#C2E5F9" stroke="#5090C9"/>
<path d="M315.062 77.3013V67.9613H313.622V66.8813H315.062V66.6013C315.062 65.7479 315.182 65.0146 315.422 64.4013C315.676 63.7879 316.029 63.3213 316.482 63.0013C316.949 62.6679 317.496 62.5013 318.122 62.5013C318.536 62.5013 318.936 62.5613 319.322 62.6813C319.709 62.8013 320.042 62.9613 320.322 63.1613L319.902 64.1413C319.729 63.9946 319.502 63.8813 319.222 63.8013C318.942 63.7213 318.662 63.6813 318.382 63.6813C317.756 63.6813 317.269 63.9279 316.922 64.4213C316.589 64.9146 316.422 65.6279 316.422 66.5613V66.8813H319.302V67.9613H316.422V77.3013H315.062ZM325.332 77.5013C324.585 77.5013 323.892 77.3613 323.252 77.0813C322.612 76.7879 322.058 76.3946 321.592 75.9013C321.125 75.3946 320.758 74.8146 320.492 74.1613C320.238 73.5079 320.112 72.8079 320.112 72.0613C320.112 71.0879 320.332 70.1946 320.772 69.3813C321.225 68.5679 321.845 67.9213 322.632 67.4413C323.418 66.9479 324.312 66.7013 325.312 66.7013C326.338 66.7013 327.232 66.9479 327.992 67.4413C328.765 67.9346 329.372 68.5879 329.812 69.4013C330.252 70.2013 330.472 71.0813 330.472 72.0413C330.472 72.1479 330.472 72.2546 330.472 72.3613C330.472 72.4546 330.465 72.5279 330.452 72.5813H321.532C321.598 73.3279 321.805 73.9946 322.152 74.5813C322.512 75.1546 322.972 75.6146 323.532 75.9613C324.105 76.2946 324.725 76.4613 325.392 76.4613C326.072 76.4613 326.712 76.2879 327.312 75.9413C327.925 75.5946 328.352 75.1413 328.592 74.5813L329.772 74.9013C329.558 75.3946 329.232 75.8413 328.792 76.2413C328.352 76.6413 327.832 76.9546 327.232 77.1813C326.645 77.3946 326.012 77.5013 325.332 77.5013ZM321.492 71.6013H329.192C329.138 70.8413 328.932 70.1746 328.572 69.6013C328.225 69.0279 327.765 68.5813 327.192 68.2613C326.632 67.9279 326.012 67.7613 325.332 67.7613C324.652 67.7613 324.032 67.9279 323.472 68.2613C322.912 68.5813 322.452 69.0346 322.092 69.6213C321.745 70.1946 321.545 70.8546 321.492 71.6013ZM337.472 76.8013C337.366 76.8413 337.199 76.9146 336.972 77.0213C336.746 77.1279 336.472 77.2213 336.152 77.3013C335.832 77.3813 335.486 77.4213 335.112 77.4213C334.726 77.4213 334.359 77.3479 334.012 77.2013C333.679 77.0546 333.412 76.8346 333.212 76.5413C333.012 76.2346 332.912 75.8613 332.912 75.4213V67.9613H331.472V66.8813H332.912V63.3613H334.272V66.8813H336.672V67.9613H334.272V75.0413C334.299 75.4146 334.432 75.6946 334.672 75.8813C334.926 76.0679 335.212 76.1613 335.532 76.1613C335.906 76.1613 336.246 76.1013 336.552 75.9813C336.859 75.8479 337.046 75.7546 337.112 75.7013L337.472 76.8013ZM343.516 77.5013C342.756 77.5013 342.056 77.3613 341.416 77.0813C340.789 76.7879 340.236 76.3879 339.756 75.8813C339.289 75.3746 338.922 74.7946 338.656 74.1413C338.402 73.4879 338.276 72.7946 338.276 72.0613C338.276 71.0746 338.496 70.1746 338.936 69.3613C339.376 68.5479 339.989 67.9013 340.776 67.4213C341.562 66.9413 342.469 66.7013 343.496 66.7013C344.469 66.7013 345.329 66.9279 346.076 67.3813C346.822 67.8213 347.376 68.4213 347.736 69.1813L346.416 69.6013C346.122 69.0679 345.709 68.6546 345.176 68.3613C344.656 68.0546 344.076 67.9013 343.436 67.9013C342.742 67.9013 342.109 68.0813 341.536 68.4413C340.962 68.8013 340.502 69.2946 340.156 69.9213C339.822 70.5479 339.656 71.2613 339.656 72.0613C339.656 72.8479 339.829 73.5613 340.176 74.2013C340.522 74.8413 340.982 75.3546 341.556 75.7413C342.129 76.1146 342.762 76.3013 343.456 76.3013C343.909 76.3013 344.342 76.2213 344.756 76.0613C345.182 75.9013 345.549 75.6879 345.856 75.4213C346.176 75.1413 346.389 74.8413 346.496 74.5213L347.836 74.9213C347.649 75.4146 347.336 75.8613 346.896 76.2613C346.469 76.6479 345.962 76.9546 345.376 77.1813C344.802 77.3946 344.182 77.5013 343.516 77.5013ZM358.732 77.3013H357.372V71.4813C357.372 70.3079 357.166 69.4279 356.752 68.8413C356.339 68.2413 355.746 67.9413 354.972 67.9413C354.466 67.9413 353.959 68.0746 353.452 68.3413C352.959 68.5946 352.519 68.9479 352.132 69.4013C351.759 69.8413 351.492 70.3479 351.332 70.9213V77.3013H349.972V62.7013H351.332V69.2413C351.746 68.4679 352.319 67.8546 353.052 67.4013C353.799 66.9346 354.592 66.7013 355.432 66.7013C356.032 66.7013 356.539 66.8079 356.952 67.0213C357.379 67.2346 357.719 67.5479 357.972 67.9613C358.239 68.3613 358.432 68.8346 358.552 69.3813C358.672 69.9146 358.732 70.5213 358.732 71.2013V77.3013ZM370.15 77.5013C369.297 77.5013 368.504 77.3613 367.77 77.0813C367.037 76.8013 366.404 76.3746 365.87 75.8013L366.43 74.8413C367.017 75.3879 367.604 75.7879 368.19 76.0413C368.79 76.2813 369.424 76.4013 370.09 76.4013C370.904 76.4013 371.564 76.2413 372.07 75.9213C372.577 75.5879 372.83 75.1146 372.83 74.5013C372.83 74.0879 372.704 73.7746 372.45 73.5613C372.21 73.3346 371.857 73.1546 371.39 73.0213C370.937 72.8746 370.39 72.7213 369.75 72.5613C369.03 72.3613 368.424 72.1546 367.93 71.9413C367.45 71.7146 367.084 71.4346 366.83 71.1013C366.59 70.7546 366.47 70.3079 366.47 69.7613C366.47 69.0813 366.637 68.5213 366.97 68.0813C367.317 67.6279 367.784 67.2879 368.37 67.0613C368.97 66.8213 369.637 66.7013 370.37 66.7013C371.17 66.7013 371.877 66.8279 372.49 67.0813C373.104 67.3346 373.604 67.6879 373.99 68.1413L373.33 69.0613C372.957 68.6346 372.51 68.3213 371.99 68.1213C371.484 67.9079 370.917 67.8013 370.29 67.8013C369.864 67.8013 369.457 67.8613 369.07 67.9813C368.684 68.0879 368.364 68.2746 368.11 68.5413C367.87 68.7946 367.75 69.1479 367.75 69.6013C367.75 69.9746 367.844 70.2679 368.03 70.4813C368.217 70.6813 368.497 70.8546 368.87 71.0013C369.244 71.1346 369.704 71.2813 370.25 71.4413C371.037 71.6546 371.724 71.8746 372.31 72.1013C372.897 72.3146 373.35 72.5946 373.67 72.9413C373.99 73.2879 374.15 73.7746 374.15 74.4013C374.15 75.3746 373.784 76.1346 373.05 76.6813C372.317 77.2279 371.35 77.5013 370.15 77.5013ZM381.398 76.8013C381.291 76.8413 381.125 76.9146 380.898 77.0213C380.671 77.1279 380.398 77.2213 380.078 77.3013C379.758 77.3813 379.411 77.4213 379.038 77.4213C378.651 77.4213 378.285 77.3479 377.938 77.2013C377.605 77.0546 377.338 76.8346 377.138 76.5413C376.938 76.2346 376.838 75.8613 376.838 75.4213V67.9613H375.398V66.8813H376.838V63.3613H378.198V66.8813H380.598V67.9613H378.198V75.0413C378.225 75.4146 378.358 75.6946 378.598 75.8813C378.851 76.0679 379.138 76.1613 379.458 76.1613C379.831 76.1613 380.171 76.1013 380.478 75.9813C380.785 75.8479 380.971 75.7546 381.038 75.7013L381.398 76.8013ZM387.362 77.5013C386.615 77.5013 385.922 77.3613 385.282 77.0813C384.655 76.7879 384.108 76.3946 383.642 75.9013C383.188 75.3946 382.835 74.8213 382.582 74.1813C382.328 73.5279 382.202 72.8413 382.202 72.1213C382.202 71.3746 382.328 70.6813 382.582 70.0413C382.835 69.3879 383.195 68.8146 383.662 68.3213C384.128 67.8146 384.675 67.4213 385.302 67.1413C385.942 66.8479 386.635 66.7013 387.382 66.7013C388.128 66.7013 388.815 66.8479 389.442 67.1413C390.068 67.4213 390.615 67.8146 391.082 68.3213C391.548 68.8146 391.908 69.3879 392.162 70.0413C392.415 70.6813 392.542 71.3746 392.542 72.1213C392.542 72.8413 392.415 73.5279 392.162 74.1813C391.908 74.8213 391.548 75.3946 391.082 75.9013C390.628 76.3946 390.082 76.7879 389.442 77.0813C388.815 77.3613 388.122 77.5013 387.362 77.5013ZM383.582 72.1413C383.582 72.9146 383.748 73.6213 384.082 74.2613C384.428 74.8879 384.888 75.3879 385.462 75.7613C386.035 76.1213 386.668 76.3013 387.362 76.3013C388.055 76.3013 388.688 76.1146 389.262 75.7413C389.835 75.3679 390.295 74.8613 390.642 74.2213C390.988 73.5679 391.162 72.8613 391.162 72.1013C391.162 71.3279 390.988 70.6213 390.642 69.9813C390.295 69.3413 389.835 68.8346 389.262 68.4613C388.688 68.0879 388.055 67.9013 387.362 67.9013C386.668 67.9013 386.035 68.0946 385.462 68.4813C384.902 68.8679 384.448 69.3813 384.102 70.0213C383.755 70.6479 383.582 71.3546 383.582 72.1413ZM399.336 77.5013C398.576 77.5013 397.876 77.3613 397.236 77.0813C396.609 76.7879 396.056 76.3879 395.576 75.8813C395.109 75.3746 394.743 74.7946 394.476 74.1413C394.223 73.4879 394.096 72.7946 394.096 72.0613C394.096 71.0746 394.316 70.1746 394.756 69.3613C395.196 68.5479 395.809 67.9013 396.596 67.4213C397.383 66.9413 398.289 66.7013 399.316 66.7013C400.289 66.7013 401.149 66.9279 401.896 67.3813C402.643 67.8213 403.196 68.4213 403.556 69.1813L402.236 69.6013C401.943 69.0679 401.529 68.6546 400.996 68.3613C400.476 68.0546 399.896 67.9013 399.256 67.9013C398.563 67.9013 397.929 68.0813 397.356 68.4413C396.783 68.8013 396.323 69.2946 395.976 69.9213C395.643 70.5479 395.476 71.2613 395.476 72.0613C395.476 72.8479 395.649 73.5613 395.996 74.2013C396.343 74.8413 396.803 75.3546 397.376 75.7413C397.949 76.1146 398.583 76.3013 399.276 76.3013C399.729 76.3013 400.163 76.2213 400.576 76.0613C401.003 75.9013 401.369 75.6879 401.676 75.4213C401.996 75.1413 402.209 74.8413 402.316 74.5213L403.656 74.9213C403.469 75.4146 403.156 75.8613 402.716 76.2613C402.289 76.6479 401.783 76.9546 401.196 77.1813C400.623 77.3946 400.003 77.5013 399.336 77.5013ZM413.233 77.3013L409.373 71.9613L407.153 74.0413V77.3013H405.793V62.7013H407.153V72.5813L413.053 66.9013H414.553L410.293 71.1613L414.713 77.3013H413.233ZM426.696 68.0813C425.789 68.1079 424.989 68.3613 424.296 68.8413C423.616 69.3213 423.136 69.9813 422.856 70.8213V77.3013H421.496V66.8813H422.776V69.3813C423.136 68.6479 423.609 68.0546 424.196 67.6013C424.796 67.1479 425.429 66.8946 426.096 66.8413C426.229 66.8279 426.342 66.8213 426.436 66.8213C426.542 66.8213 426.629 66.8279 426.696 66.8413V68.0813ZM432.675 77.5013C431.929 77.5013 431.235 77.3613 430.595 77.0813C429.955 76.7879 429.402 76.3946 428.935 75.9013C428.469 75.3946 428.102 74.8146 427.835 74.1613C427.582 73.5079 427.455 72.8079 427.455 72.0613C427.455 71.0879 427.675 70.1946 428.115 69.3813C428.569 68.5679 429.189 67.9213 429.975 67.4413C430.762 66.9479 431.655 66.7013 432.655 66.7013C433.682 66.7013 434.575 66.9479 435.335 67.4413C436.109 67.9346 436.715 68.5879 437.155 69.4013C437.595 70.2013 437.815 71.0813 437.815 72.0413C437.815 72.1479 437.815 72.2546 437.815 72.3613C437.815 72.4546 437.809 72.5279 437.795 72.5813H428.875C428.942 73.3279 429.149 73.9946 429.495 74.5813C429.855 75.1546 430.315 75.6146 430.875 75.9613C431.449 76.2946 432.069 76.4613 432.735 76.4613C433.415 76.4613 434.055 76.2879 434.655 75.9413C435.269 75.5946 435.695 75.1413 435.935 74.5813L437.115 74.9013C436.902 75.3946 436.575 75.8413 436.135 76.2413C435.695 76.6413 435.175 76.9546 434.575 77.1813C433.989 77.3946 433.355 77.5013 432.675 77.5013ZM428.835 71.6013H436.535C436.482 70.8413 436.275 70.1746 435.915 69.6013C435.569 69.0279 435.109 68.5813 434.535 68.2613C433.975 67.9279 433.355 67.7613 432.675 67.7613C431.995 67.7613 431.375 67.9279 430.815 68.2613C430.255 68.5813 429.795 69.0346 429.435 69.6213C429.089 70.1946 428.889 70.8546 428.835 71.6013ZM444.816 76.8013C444.709 76.8413 444.543 76.9146 444.316 77.0213C444.089 77.1279 443.816 77.2213 443.496 77.3013C443.176 77.3813 442.829 77.4213 442.456 77.4213C442.069 77.4213 441.703 77.3479 441.356 77.2013C441.023 77.0546 440.756 76.8346 440.556 76.5413C440.356 76.2346 440.256 75.8613 440.256 75.4213V67.9613H438.816V66.8813H440.256V63.3613H441.616V66.8813H444.016V67.9613H441.616V75.0413C441.643 75.4146 441.776 75.6946 442.016 75.8813C442.269 76.0679 442.556 76.1613 442.876 76.1613C443.249 76.1613 443.589 76.1013 443.896 75.9813C444.203 75.8479 444.389 75.7546 444.456 75.7013L444.816 76.8013ZM446.415 73.0013V66.8813H447.775V72.7613C447.775 73.9479 447.975 74.8346 448.375 75.4213C448.789 76.0079 449.395 76.3013 450.195 76.3013C450.729 76.3013 451.242 76.1879 451.735 75.9613C452.242 75.7213 452.689 75.3879 453.075 74.9613C453.462 74.5213 453.755 74.0146 453.955 73.4413V66.8813H455.315V75.6613C455.315 75.8479 455.355 75.9879 455.435 76.0813C455.515 76.1613 455.635 76.2079 455.795 76.2213V77.3013C455.635 77.3146 455.509 77.3213 455.415 77.3213C455.322 77.3346 455.235 77.3413 455.155 77.3413C454.889 77.3146 454.655 77.2079 454.455 77.0213C454.269 76.8346 454.169 76.6079 454.155 76.3413L454.115 74.9413C453.662 75.7413 453.042 76.3679 452.255 76.8213C451.482 77.2746 450.642 77.5013 449.735 77.5013C448.642 77.5013 447.815 77.1213 447.255 76.3613C446.695 75.6013 446.415 74.4813 446.415 73.0013ZM463.59 68.0813C462.684 68.1079 461.884 68.3613 461.19 68.8413C460.51 69.3213 460.03 69.9813 459.75 70.8213V77.3013H458.39V66.8813H459.67V69.3813C460.03 68.6479 460.504 68.0546 461.09 67.6013C461.69 67.1479 462.324 66.8946 462.99 66.8413C463.124 66.8279 463.237 66.8213 463.33 66.8213C463.437 66.8213 463.524 66.8279 463.59 66.8413V68.0813ZM474.162 77.3013H472.802V71.4813C472.802 70.2546 472.622 69.3613 472.262 68.8013C471.902 68.2279 471.335 67.9413 470.562 67.9413C470.029 67.9413 469.502 68.0746 468.982 68.3413C468.462 68.5946 468.002 68.9479 467.602 69.4013C467.215 69.8413 466.935 70.3479 466.762 70.9213V77.3013H465.402V66.8813H466.642V69.2413C466.922 68.7346 467.289 68.2946 467.742 67.9213C468.195 67.5346 468.709 67.2346 469.282 67.0213C469.855 66.8079 470.449 66.7013 471.062 66.7013C471.635 66.7013 472.122 66.8079 472.522 67.0213C472.922 67.2346 473.242 67.5413 473.482 67.9413C473.722 68.3279 473.895 68.8013 474.002 69.3613C474.109 69.9079 474.162 70.5213 474.162 71.2013V77.3013ZM480.482 77.5013C479.629 77.5013 478.836 77.3613 478.102 77.0813C477.369 76.8013 476.736 76.3746 476.202 75.8013L476.762 74.8413C477.349 75.3879 477.936 75.7879 478.522 76.0413C479.122 76.2813 479.756 76.4013 480.422 76.4013C481.236 76.4013 481.896 76.2413 482.402 75.9213C482.909 75.5879 483.162 75.1146 483.162 74.5013C483.162 74.0879 483.036 73.7746 482.782 73.5613C482.542 73.3346 482.189 73.1546 481.722 73.0213C481.269 72.8746 480.722 72.7213 480.082 72.5613C479.362 72.3613 478.756 72.1546 478.262 71.9413C477.782 71.7146 477.416 71.4346 477.162 71.1013C476.922 70.7546 476.802 70.3079 476.802 69.7613C476.802 69.0813 476.969 68.5213 477.302 68.0813C477.649 67.6279 478.116 67.2879 478.702 67.0613C479.302 66.8213 479.969 66.7013 480.702 66.7013C481.502 66.7013 482.209 66.8279 482.822 67.0813C483.436 67.3346 483.936 67.6879 484.322 68.1413L483.662 69.0613C483.289 68.6346 482.842 68.3213 482.322 68.1213C481.816 67.9079 481.249 67.8013 480.622 67.8013C480.196 67.8013 479.789 67.8613 479.402 67.9813C479.016 68.0879 478.696 68.2746 478.442 68.5413C478.202 68.7946 478.082 69.1479 478.082 69.6013C478.082 69.9746 478.176 70.2679 478.362 70.4813C478.549 70.6813 478.829 70.8546 479.202 71.0013C479.576 71.1346 480.036 71.2813 480.582 71.4413C481.369 71.6546 482.056 71.8746 482.642 72.1013C483.229 72.3146 483.682 72.5946 484.002 72.9413C484.322 73.2879 484.482 73.7746 484.482 74.4013C484.482 75.3746 484.116 76.1346 483.382 76.6813C482.649 77.2279 481.682 77.5013 480.482 77.5013ZM314.99 96.0013V89.8813H316.35V95.7613C316.35 96.9479 316.55 97.8346 316.95 98.4213C317.363 99.0079 317.97 99.3013 318.77 99.3013C319.303 99.3013 319.816 99.1879 320.31 98.9613C320.816 98.7213 321.263 98.3879 321.65 97.9613C322.036 97.5213 322.33 97.0146 322.53 96.4413V89.8813H323.89V98.6613C323.89 98.8479 323.93 98.9879 324.01 99.0813C324.09 99.1613 324.21 99.2079 324.37 99.2213V100.301C324.21 100.315 324.083 100.321 323.99 100.321C323.896 100.335 323.81 100.341 323.73 100.341C323.463 100.315 323.23 100.208 323.03 100.021C322.843 99.8346 322.743 99.6079 322.73 99.3413L322.69 97.9413C322.236 98.7413 321.616 99.3679 320.83 99.8213C320.056 100.275 319.216 100.501 318.31 100.501C317.216 100.501 316.39 100.121 315.83 99.3613C315.27 98.6013 314.99 97.4813 314.99 96.0013ZM332.285 100.501C331.418 100.501 330.638 100.275 329.945 99.8213C329.265 99.3679 328.725 98.8079 328.325 98.1413V104.561H326.965V89.8813H328.185V91.9013C328.598 91.2479 329.151 90.7213 329.845 90.3213C330.538 89.9079 331.278 89.7013 332.065 89.7013C332.785 89.7013 333.445 89.8546 334.045 90.1613C334.645 90.4546 335.165 90.8546 335.605 91.3613C336.045 91.8679 336.385 92.4479 336.625 93.1013C336.878 93.7413 337.005 94.4079 337.005 95.1013C337.005 96.0746 336.805 96.9746 336.405 97.8013C336.018 98.6146 335.471 99.2679 334.765 99.7613C334.058 100.255 333.231 100.501 332.285 100.501ZM331.905 99.3013C332.478 99.3013 332.991 99.1879 333.445 98.9613C333.898 98.7213 334.285 98.4013 334.605 98.0013C334.938 97.6013 335.191 97.1546 335.365 96.6613C335.538 96.1546 335.625 95.6346 335.625 95.1013C335.625 94.5413 335.525 94.0079 335.325 93.5013C335.138 92.9946 334.865 92.5479 334.505 92.1613C334.145 91.7746 333.731 91.4679 333.265 91.2413C332.798 91.0146 332.291 90.9013 331.745 90.9013C331.398 90.9013 331.038 90.9679 330.665 91.1013C330.291 91.2346 329.931 91.4279 329.585 91.6813C329.251 91.9213 328.971 92.1946 328.745 92.5013C328.518 92.8079 328.378 93.1346 328.325 93.4813V96.6813C328.538 97.1746 328.825 97.6213 329.185 98.0213C329.545 98.4079 329.958 98.7213 330.425 98.9613C330.905 99.1879 331.398 99.3013 331.905 99.3013ZM349.406 99.8013C349.299 99.8413 349.133 99.9146 348.906 100.021C348.679 100.128 348.406 100.221 348.086 100.301C347.766 100.381 347.419 100.421 347.046 100.421C346.659 100.421 346.293 100.348 345.946 100.201C345.613 100.055 345.346 99.8346 345.146 99.5413C344.946 99.2346 344.846 98.8613 344.846 98.4213V90.9613H343.406V89.8813H344.846V86.3613H346.206V89.8813H348.606V90.9613H346.206V98.0413C346.233 98.4146 346.366 98.6946 346.606 98.8813C346.859 99.0679 347.146 99.1613 347.466 99.1613C347.839 99.1613 348.179 99.1013 348.486 98.9813C348.793 98.8479 348.979 98.7546 349.046 98.7013L349.406 99.8013ZM355.369 100.501C354.623 100.501 353.929 100.361 353.289 100.081C352.663 99.7879 352.116 99.3946 351.649 98.9013C351.196 98.3946 350.843 97.8213 350.589 97.1813C350.336 96.5279 350.209 95.8413 350.209 95.1213C350.209 94.3746 350.336 93.6813 350.589 93.0413C350.843 92.3879 351.203 91.8146 351.669 91.3213C352.136 90.8146 352.683 90.4213 353.309 90.1413C353.949 89.8479 354.643 89.7013 355.389 89.7013C356.136 89.7013 356.823 89.8479 357.449 90.1413C358.076 90.4213 358.623 90.8146 359.089 91.3213C359.556 91.8146 359.916 92.3879 360.169 93.0413C360.423 93.6813 360.549 94.3746 360.549 95.1213C360.549 95.8413 360.423 96.5279 360.169 97.1813C359.916 97.8213 359.556 98.3946 359.089 98.9013C358.636 99.3946 358.089 99.7879 357.449 100.081C356.823 100.361 356.129 100.501 355.369 100.501ZM351.589 95.1413C351.589 95.9146 351.756 96.6213 352.089 97.2613C352.436 97.8879 352.896 98.3879 353.469 98.7613C354.043 99.1213 354.676 99.3013 355.369 99.3013C356.063 99.3013 356.696 99.1146 357.269 98.7413C357.843 98.3679 358.303 97.8613 358.649 97.2213C358.996 96.5679 359.169 95.8613 359.169 95.1013C359.169 94.3279 358.996 93.6213 358.649 92.9813C358.303 92.3413 357.843 91.8346 357.269 91.4613C356.696 91.0879 356.063 90.9013 355.369 90.9013C354.676 90.9013 354.043 91.0946 353.469 91.4813C352.909 91.8679 352.456 92.3813 352.109 93.0213C351.763 93.6479 351.589 94.3546 351.589 95.1413ZM372.442 100.501C371.682 100.501 370.982 100.361 370.342 100.081C369.715 99.7879 369.162 99.3879 368.682 98.8813C368.215 98.3746 367.848 97.7946 367.582 97.1413C367.328 96.4879 367.202 95.7946 367.202 95.0613C367.202 94.0746 367.422 93.1746 367.862 92.3613C368.302 91.5479 368.915 90.9013 369.702 90.4213C370.488 89.9413 371.395 89.7013 372.422 89.7013C373.395 89.7013 374.255 89.9279 375.002 90.3813C375.748 90.8213 376.302 91.4213 376.662 92.1813L375.342 92.6013C375.048 92.0679 374.635 91.6546 374.102 91.3613C373.582 91.0546 373.002 90.9013 372.362 90.9013C371.668 90.9013 371.035 91.0813 370.462 91.4413C369.888 91.8013 369.428 92.2946 369.082 92.9213C368.748 93.5479 368.582 94.2613 368.582 95.0613C368.582 95.8479 368.755 96.5613 369.102 97.2013C369.448 97.8413 369.908 98.3546 370.482 98.7413C371.055 99.1146 371.688 99.3013 372.382 99.3013C372.835 99.3013 373.268 99.2213 373.682 99.0613C374.108 98.9013 374.475 98.6879 374.782 98.4213C375.102 98.1413 375.315 97.8413 375.422 97.5213L376.762 97.9213C376.575 98.4146 376.262 98.8613 375.822 99.2613C375.395 99.6479 374.888 99.9546 374.302 100.181C373.728 100.395 373.108 100.501 372.442 100.501ZM378.798 96.0013V89.8813H380.158V95.7613C380.158 96.9479 380.358 97.8346 380.758 98.4213C381.171 99.0079 381.778 99.3013 382.578 99.3013C383.111 99.3013 383.625 99.1879 384.118 98.9613C384.625 98.7213 385.071 98.3879 385.458 97.9613C385.845 97.5213 386.138 97.0146 386.338 96.4413V89.8813H387.698V98.6613C387.698 98.8479 387.738 98.9879 387.818 99.0813C387.898 99.1613 388.018 99.2079 388.178 99.2213V100.301C388.018 100.315 387.891 100.321 387.798 100.321C387.705 100.335 387.618 100.341 387.538 100.341C387.271 100.315 387.038 100.208 386.838 100.021C386.651 99.8346 386.551 99.6079 386.538 99.3413L386.498 97.9413C386.045 98.7413 385.425 99.3679 384.638 99.8213C383.865 100.275 383.025 100.501 382.118 100.501C381.025 100.501 380.198 100.121 379.638 99.3613C379.078 98.6013 378.798 97.4813 378.798 96.0013ZM395.973 91.0813C395.066 91.1079 394.266 91.3613 393.573 91.8413C392.893 92.3213 392.413 92.9813 392.133 93.8213V100.301H390.773V89.8813H392.053V92.3813C392.413 91.6479 392.886 91.0546 393.473 90.6013C394.073 90.1479 394.706 89.8946 395.373 89.8413C395.506 89.8279 395.62 89.8213 395.713 89.8213C395.82 89.8213 395.906 89.8279 395.973 89.8413V91.0813ZM402.985 91.0813C402.078 91.1079 401.278 91.3613 400.585 91.8413C399.905 92.3213 399.425 92.9813 399.145 93.8213V100.301H397.785V89.8813H399.065V92.3813C399.425 91.6479 399.898 91.0546 400.485 90.6013C401.085 90.1479 401.718 89.8946 402.385 89.8413C402.518 89.8279 402.632 89.8213 402.725 89.8213C402.832 89.8213 402.918 89.8279 402.985 89.8413V91.0813ZM408.965 100.501C408.218 100.501 407.525 100.361 406.885 100.081C406.245 99.7879 405.691 99.3946 405.225 98.9013C404.758 98.3946 404.391 97.8146 404.125 97.1613C403.871 96.5079 403.745 95.8079 403.745 95.0613C403.745 94.0879 403.965 93.1946 404.405 92.3813C404.858 91.5679 405.478 90.9213 406.265 90.4413C407.051 89.9479 407.945 89.7013 408.945 89.7013C409.971 89.7013 410.865 89.9479 411.625 90.4413C412.398 90.9346 413.005 91.5879 413.445 92.4013C413.885 93.2013 414.105 94.0813 414.105 95.0413C414.105 95.1479 414.105 95.2546 414.105 95.3613C414.105 95.4546 414.098 95.5279 414.085 95.5813H405.165C405.231 96.3279 405.438 96.9946 405.785 97.5813C406.145 98.1546 406.605 98.6146 407.165 98.9613C407.738 99.2946 408.358 99.4613 409.025 99.4613C409.705 99.4613 410.345 99.2879 410.945 98.9413C411.558 98.5946 411.985 98.1413 412.225 97.5813L413.405 97.9013C413.191 98.3946 412.865 98.8413 412.425 99.2413C411.985 99.6413 411.465 99.9546 410.865 100.181C410.278 100.395 409.645 100.501 408.965 100.501ZM405.125 94.6013H412.825C412.771 93.8413 412.565 93.1746 412.205 92.6013C411.858 92.0279 411.398 91.5813 410.825 91.2613C410.265 90.9279 409.645 90.7613 408.965 90.7613C408.285 90.7613 407.665 90.9279 407.105 91.2613C406.545 91.5813 406.085 92.0346 405.725 92.6213C405.378 93.1946 405.178 93.8546 405.125 94.6013ZM424.963 100.301H423.603V94.4813C423.603 93.2546 423.423 92.3613 423.063 91.8013C422.703 91.2279 422.136 90.9413 421.363 90.9413C420.83 90.9413 420.303 91.0746 419.783 91.3413C419.263 91.5946 418.803 91.9479 418.403 92.4013C418.016 92.8413 417.736 93.3479 417.563 93.9213V100.301H416.203V89.8813H417.443V92.2413C417.723 91.7346 418.09 91.2946 418.543 90.9213C418.996 90.5346 419.51 90.2346 420.083 90.0213C420.656 89.8079 421.25 89.7013 421.863 89.7013C422.436 89.7013 422.923 89.8079 423.323 90.0213C423.723 90.2346 424.043 90.5413 424.283 90.9413C424.523 91.3279 424.696 91.8013 424.803 92.3613C424.91 92.9079 424.963 93.5213 424.963 94.2013V100.301ZM432.765 99.8013C432.659 99.8413 432.492 99.9146 432.265 100.021C432.039 100.128 431.765 100.221 431.445 100.301C431.125 100.381 430.779 100.421 430.405 100.421C430.019 100.421 429.652 100.348 429.305 100.201C428.972 100.055 428.705 99.8346 428.505 99.5413C428.305 99.2346 428.205 98.8613 428.205 98.4213V90.9613H426.765V89.8813H428.205V86.3613H429.565V89.8813H431.965V90.9613H429.565V98.0413C429.592 98.4146 429.725 98.6946 429.965 98.8813C430.219 99.0679 430.505 99.1613 430.825 99.1613C431.199 99.1613 431.539 99.1013 431.845 98.9813C432.152 98.8479 432.339 98.7546 432.405 98.7013L432.765 99.8013ZM434.265 101.541V100.301H441.885V101.541H434.265ZM443.979 95.1213C443.979 94.1346 444.179 93.2346 444.579 92.4213C444.993 91.5946 445.559 90.9346 446.279 90.4413C446.999 89.9479 447.819 89.7013 448.739 89.7013C449.606 89.7013 450.379 89.9346 451.059 90.4013C451.753 90.8546 452.293 91.4079 452.679 92.0613V85.7013H454.039V98.6613C454.039 98.8479 454.079 98.9879 454.159 99.0813C454.239 99.1613 454.359 99.2079 454.519 99.2213V100.301C454.253 100.341 454.046 100.355 453.899 100.341C453.619 100.328 453.373 100.215 453.159 100.001C452.946 99.7879 452.839 99.5546 452.839 99.3013V98.2813C452.426 98.9613 451.866 99.5013 451.159 99.9013C450.453 100.301 449.719 100.501 448.959 100.501C448.239 100.501 447.573 100.355 446.959 100.061C446.359 99.7679 445.833 99.3679 445.379 98.8613C444.939 98.3546 444.593 97.7813 444.339 97.1413C444.099 96.4879 443.979 95.8146 443.979 95.1213ZM452.679 96.7213V93.5013C452.506 93.0213 452.226 92.5879 451.839 92.2013C451.453 91.8013 451.013 91.4879 450.519 91.2613C450.039 91.0213 449.559 90.9013 449.079 90.9013C448.519 90.9013 448.013 91.0213 447.559 91.2613C447.106 91.4879 446.713 91.8013 446.379 92.2013C446.059 92.6013 445.813 93.0546 445.639 93.5613C445.466 94.0679 445.379 94.5879 445.379 95.1213C445.379 95.6813 445.473 96.2146 445.659 96.7213C445.859 97.2279 446.139 97.6813 446.499 98.0813C446.859 98.4679 447.273 98.7679 447.739 98.9813C448.206 99.1946 448.713 99.3013 449.259 99.3013C449.606 99.3013 449.966 99.2346 450.339 99.1013C450.713 98.9679 451.066 98.7879 451.399 98.5613C451.746 98.3213 452.033 98.0413 452.259 97.7213C452.486 97.4013 452.626 97.0679 452.679 96.7213ZM456.281 97.3013C456.281 96.6479 456.467 96.0879 456.841 95.6213C457.214 95.1413 457.727 94.7746 458.381 94.5213C459.047 94.2546 459.814 94.1213 460.681 94.1213C461.187 94.1213 461.714 94.1613 462.261 94.2413C462.807 94.3213 463.294 94.4413 463.721 94.6013V93.7213C463.721 92.8413 463.461 92.1413 462.941 91.6213C462.421 91.1013 461.701 90.8413 460.781 90.8413C460.221 90.8413 459.667 90.9479 459.121 91.1613C458.587 91.3613 458.027 91.6613 457.441 92.0613L456.921 91.1013C457.601 90.6346 458.267 90.2879 458.921 90.0613C459.574 89.8213 460.241 89.7013 460.921 89.7013C462.201 89.7013 463.214 90.0679 463.961 90.8013C464.707 91.5346 465.081 92.5479 465.081 93.8413V98.6613C465.081 98.8479 465.121 98.9879 465.201 99.0813C465.281 99.1613 465.407 99.2079 465.581 99.2213V100.301C465.434 100.315 465.307 100.328 465.201 100.341C465.094 100.355 465.014 100.355 464.961 100.341C464.627 100.328 464.374 100.221 464.201 100.021C464.027 99.8213 463.934 99.6079 463.921 99.3813L463.901 98.6213C463.434 99.2213 462.827 99.6879 462.081 100.021C461.334 100.341 460.574 100.501 459.801 100.501C459.134 100.501 458.527 100.361 457.981 100.081C457.447 99.7879 457.027 99.4013 456.721 98.9213C456.427 98.4279 456.281 97.8879 456.281 97.3013ZM463.261 98.1013C463.407 97.9146 463.521 97.7346 463.601 97.5613C463.681 97.3879 463.721 97.2346 463.721 97.1013V95.5813C463.267 95.4079 462.794 95.2746 462.301 95.1813C461.821 95.0879 461.334 95.0413 460.841 95.0413C459.867 95.0413 459.081 95.2346 458.481 95.6213C457.881 96.0079 457.581 96.5346 457.581 97.2013C457.581 97.5879 457.681 97.9546 457.881 98.3013C458.081 98.6346 458.374 98.9146 458.761 99.1413C459.147 99.3546 459.601 99.4613 460.121 99.4613C460.774 99.4613 461.381 99.3346 461.941 99.0813C462.514 98.8279 462.954 98.5013 463.261 98.1013ZM472.941 99.8013C472.834 99.8413 472.668 99.9146 472.441 100.021C472.214 100.128 471.941 100.221 471.621 100.301C471.301 100.381 470.954 100.421 470.581 100.421C470.194 100.421 469.828 100.348 469.481 100.201C469.148 100.055 468.881 99.8346 468.681 99.5413C468.481 99.2346 468.381 98.8613 468.381 98.4213V90.9613H466.941V89.8813H468.381V86.3613H469.741V89.8813H472.141V90.9613H469.741V98.0413C469.768 98.4146 469.901 98.6946 470.141 98.8813C470.394 99.0679 470.681 99.1613 471.001 99.1613C471.374 99.1613 471.714 99.1013 472.021 98.9813C472.328 98.8479 472.514 98.7546 472.581 98.7013L472.941 99.8013ZM478.965 100.501C478.218 100.501 477.525 100.361 476.885 100.081C476.245 99.7879 475.691 99.3946 475.225 98.9013C474.758 98.3946 474.391 97.8146 474.125 97.1613C473.871 96.5079 473.745 95.8079 473.745 95.0613C473.745 94.0879 473.965 93.1946 474.405 92.3813C474.858 91.5679 475.478 90.9213 476.265 90.4413C477.051 89.9479 477.945 89.7013 478.945 89.7013C479.971 89.7013 480.865 89.9479 481.625 90.4413C482.398 90.9346 483.005 91.5879 483.445 92.4013C483.885 93.2013 484.105 94.0813 484.105 95.0413C484.105 95.1479 484.105 95.2546 484.105 95.3613C484.105 95.4546 484.098 95.5279 484.085 95.5813H475.165C475.231 96.3279 475.438 96.9946 475.785 97.5813C476.145 98.1546 476.605 98.6146 477.165 98.9613C477.738 99.2946 478.358 99.4613 479.025 99.4613C479.705 99.4613 480.345 99.2879 480.945 98.9413C481.558 98.5946 481.985 98.1413 482.225 97.5813L483.405 97.9013C483.191 98.3946 482.865 98.8413 482.425 99.2413C481.985 99.6413 481.465 99.9546 480.865 100.181C480.278 100.395 479.645 100.501 478.965 100.501ZM475.125 94.6013H482.825C482.771 93.8413 482.565 93.1746 482.205 92.6013C481.858 92.0279 481.398 91.5813 480.825 91.2613C480.265 90.9279 479.645 90.7613 478.965 90.7613C478.285 90.7613 477.665 90.9279 477.105 91.2613C476.545 91.5813 476.085 92.0346 475.725 92.6213C475.378 93.1946 475.178 93.8546 475.125 94.6013Z" fill="black"/>
<rect x="546.5" y="40.5" width="212" height="82" fill="#C2E5F9" stroke="#5090C9"/>
<path d="M614.485 77.5013C613.725 77.5013 613.025 77.3613 612.385 77.0813C611.758 76.7879 611.205 76.3879 610.725 75.8813C610.258 75.3746 609.891 74.7946 609.625 74.1413C609.371 73.4879 609.245 72.7946 609.245 72.0613C609.245 71.0746 609.465 70.1746 609.905 69.3613C610.345 68.5479 610.958 67.9013 611.745 67.4213C612.531 66.9413 613.438 66.7013 614.465 66.7013C615.438 66.7013 616.298 66.9279 617.045 67.3813C617.791 67.8213 618.345 68.4213 618.705 69.1813L617.385 69.6013C617.091 69.0679 616.678 68.6546 616.145 68.3613C615.625 68.0546 615.045 67.9013 614.405 67.9013C613.711 67.9013 613.078 68.0813 612.505 68.4413C611.931 68.8013 611.471 69.2946 611.125 69.9213C610.791 70.5479 610.625 71.2613 610.625 72.0613C610.625 72.8479 610.798 73.5613 611.145 74.2013C611.491 74.8413 611.951 75.3546 612.525 75.7413C613.098 76.1146 613.731 76.3013 614.425 76.3013C614.878 76.3013 615.311 76.2213 615.725 76.0613C616.151 75.9013 616.518 75.6879 616.825 75.4213C617.145 75.1413 617.358 74.8413 617.465 74.5213L618.805 74.9213C618.618 75.4146 618.305 75.8613 617.865 76.2613C617.438 76.6479 616.931 76.9546 616.345 77.1813C615.771 77.3946 615.151 77.5013 614.485 77.5013ZM625.283 77.5013C624.537 77.5013 623.843 77.3613 623.203 77.0813C622.577 76.7879 622.03 76.3946 621.563 75.9013C621.11 75.3946 620.757 74.8213 620.503 74.1813C620.25 73.5279 620.123 72.8413 620.123 72.1213C620.123 71.3746 620.25 70.6813 620.503 70.0413C620.757 69.3879 621.117 68.8146 621.583 68.3213C622.05 67.8146 622.597 67.4213 623.223 67.1413C623.863 66.8479 624.557 66.7013 625.303 66.7013C626.05 66.7013 626.737 66.8479 627.363 67.1413C627.99 67.4213 628.537 67.8146 629.003 68.3213C629.47 68.8146 629.83 69.3879 630.083 70.0413C630.337 70.6813 630.463 71.3746 630.463 72.1213C630.463 72.8413 630.337 73.5279 630.083 74.1813C629.83 74.8213 629.47 75.3946 629.003 75.9013C628.55 76.3946 628.003 76.7879 627.363 77.0813C626.737 77.3613 626.043 77.5013 625.283 77.5013ZM621.503 72.1413C621.503 72.9146 621.67 73.6213 622.003 74.2613C622.35 74.8879 622.81 75.3879 623.383 75.7613C623.957 76.1213 624.59 76.3013 625.283 76.3013C625.977 76.3013 626.61 76.1146 627.183 75.7413C627.757 75.3679 628.217 74.8613 628.563 74.2213C628.91 73.5679 629.083 72.8613 629.083 72.1013C629.083 71.3279 628.91 70.6213 628.563 69.9813C628.217 69.3413 627.757 68.8346 627.183 68.4613C626.61 68.0879 625.977 67.9013 625.283 67.9013C624.59 67.9013 623.957 68.0946 623.383 68.4813C622.823 68.8679 622.37 69.3813 622.023 70.0213C621.677 70.6479 621.503 71.3546 621.503 72.1413ZM641.498 77.3013H640.138V71.4813C640.138 70.2546 639.958 69.3613 639.598 68.8013C639.238 68.2279 638.671 67.9413 637.898 67.9413C637.365 67.9413 636.838 68.0746 636.318 68.3413C635.798 68.5946 635.338 68.9479 634.938 69.4013C634.551 69.8413 634.271 70.3479 634.098 70.9213V77.3013H632.738V66.8813H633.978V69.2413C634.258 68.7346 634.625 68.2946 635.078 67.9213C635.531 67.5346 636.045 67.2346 636.618 67.0213C637.191 66.8079 637.785 66.7013 638.398 66.7013C638.971 66.7013 639.458 66.8079 639.858 67.0213C640.258 67.2346 640.578 67.5413 640.818 67.9413C641.058 68.3279 641.231 68.8013 641.338 69.3613C641.445 69.9079 641.498 70.5213 641.498 71.2013V77.3013ZM647.818 77.5013C646.965 77.5013 646.171 77.3613 645.438 77.0813C644.705 76.8013 644.071 76.3746 643.538 75.8013L644.098 74.8413C644.685 75.3879 645.271 75.7879 645.858 76.0413C646.458 76.2813 647.091 76.4013 647.758 76.4013C648.571 76.4013 649.231 76.2413 649.738 75.9213C650.245 75.5879 650.498 75.1146 650.498 74.5013C650.498 74.0879 650.371 73.7746 650.118 73.5613C649.878 73.3346 649.525 73.1546 649.058 73.0213C648.605 72.8746 648.058 72.7213 647.418 72.5613C646.698 72.3613 646.091 72.1546 645.598 71.9413C645.118 71.7146 644.751 71.4346 644.498 71.1013C644.258 70.7546 644.138 70.3079 644.138 69.7613C644.138 69.0813 644.305 68.5213 644.638 68.0813C644.985 67.6279 645.451 67.2879 646.038 67.0613C646.638 66.8213 647.305 66.7013 648.038 66.7013C648.838 66.7013 649.545 66.8279 650.158 67.0813C650.771 67.3346 651.271 67.6879 651.658 68.1413L650.998 69.0613C650.625 68.6346 650.178 68.3213 649.658 68.1213C649.151 67.9079 648.585 67.8013 647.958 67.8013C647.531 67.8013 647.125 67.8613 646.738 67.9813C646.351 68.0879 646.031 68.2746 645.778 68.5413C645.538 68.7946 645.418 69.1479 645.418 69.6013C645.418 69.9746 645.511 70.2679 645.698 70.4813C645.885 70.6813 646.165 70.8546 646.538 71.0013C646.911 71.1346 647.371 71.2813 647.918 71.4413C648.705 71.6546 649.391 71.8746 649.978 72.1013C650.565 72.3146 651.018 72.5946 651.338 72.9413C651.658 73.2879 651.818 73.7746 651.818 74.4013C651.818 75.3746 651.451 76.1346 650.718 76.6813C649.985 77.2279 649.018 77.5013 647.818 77.5013ZM659.066 76.8013C658.959 76.8413 658.793 76.9146 658.566 77.0213C658.339 77.1279 658.066 77.2213 657.746 77.3013C657.426 77.3813 657.079 77.4213 656.706 77.4213C656.319 77.4213 655.953 77.3479 655.606 77.2013C655.273 77.0546 655.006 76.8346 654.806 76.5413C654.606 76.2346 654.506 75.8613 654.506 75.4213V67.9613H653.066V66.8813H654.506V63.3613H655.866V66.8813H658.266V67.9613H655.866V75.0413C655.893 75.4146 656.026 75.6946 656.266 75.8813C656.519 76.0679 656.806 76.1613 657.126 76.1613C657.499 76.1613 657.839 76.1013 658.146 75.9813C658.453 75.8479 658.639 75.7546 658.706 75.7013L659.066 76.8013ZM665.965 68.0813C665.059 68.1079 664.259 68.3613 663.565 68.8413C662.885 69.3213 662.405 69.9813 662.125 70.8213V77.3013H660.765V66.8813H662.045V69.3813C662.405 68.6479 662.879 68.0546 663.465 67.6013C664.065 67.1479 664.699 66.8946 665.365 66.8413C665.499 66.8279 665.612 66.8213 665.705 66.8213C665.812 66.8213 665.899 66.8279 665.965 66.8413V68.0813ZM667.677 73.0013V66.8813H669.037V72.7613C669.037 73.9479 669.237 74.8346 669.637 75.4213C670.05 76.0079 670.657 76.3013 671.457 76.3013C671.99 76.3013 672.504 76.1879 672.997 75.9613C673.504 75.7213 673.95 75.3879 674.337 74.9613C674.724 74.5213 675.017 74.0146 675.217 73.4413V66.8813H676.577V75.6613C676.577 75.8479 676.617 75.9879 676.697 76.0813C676.777 76.1613 676.897 76.2079 677.057 76.2213V77.3013C676.897 77.3146 676.77 77.3213 676.677 77.3213C676.584 77.3346 676.497 77.3413 676.417 77.3413C676.15 77.3146 675.917 77.2079 675.717 77.0213C675.53 76.8346 675.43 76.6079 675.417 76.3413L675.377 74.9413C674.924 75.7413 674.304 76.3679 673.517 76.8213C672.744 77.2746 671.904 77.5013 670.997 77.5013C669.904 77.5013 669.077 77.1213 668.517 76.3613C667.957 75.6013 667.677 74.4813 667.677 73.0013ZM684.172 77.5013C683.412 77.5013 682.712 77.3613 682.072 77.0813C681.445 76.7879 680.892 76.3879 680.412 75.8813C679.945 75.3746 679.579 74.7946 679.312 74.1413C679.059 73.4879 678.932 72.7946 678.932 72.0613C678.932 71.0746 679.152 70.1746 679.592 69.3613C680.032 68.5479 680.645 67.9013 681.432 67.4213C682.219 66.9413 683.125 66.7013 684.152 66.7013C685.125 66.7013 685.985 66.9279 686.732 67.3813C687.479 67.8213 688.032 68.4213 688.392 69.1813L687.072 69.6013C686.779 69.0679 686.365 68.6546 685.832 68.3613C685.312 68.0546 684.732 67.9013 684.092 67.9013C683.399 67.9013 682.765 68.0813 682.192 68.4413C681.619 68.8013 681.159 69.2946 680.812 69.9213C680.479 70.5479 680.312 71.2613 680.312 72.0613C680.312 72.8479 680.485 73.5613 680.832 74.2013C681.179 74.8413 681.639 75.3546 682.212 75.7413C682.785 76.1146 683.419 76.3013 684.112 76.3013C684.565 76.3013 684.999 76.2213 685.412 76.0613C685.839 75.9013 686.205 75.6879 686.512 75.4213C686.832 75.1413 687.045 74.8413 687.152 74.5213L688.492 74.9213C688.305 75.4146 687.992 75.8613 687.552 76.2613C687.125 76.6479 686.619 76.9546 686.032 77.1813C685.459 77.3946 684.839 77.5013 684.172 77.5013ZM695.629 76.8013C695.522 76.8413 695.355 76.9146 695.129 77.0213C694.902 77.1279 694.629 77.2213 694.309 77.3013C693.989 77.3813 693.642 77.4213 693.269 77.4213C692.882 77.4213 692.515 77.3479 692.169 77.2013C691.835 77.0546 691.569 76.8346 691.369 76.5413C691.169 76.2346 691.069 75.8613 691.069 75.4213V67.9613H689.629V66.8813H691.069V63.3613H692.429V66.8813H694.829V67.9613H692.429V75.0413C692.455 75.4146 692.589 75.6946 692.829 75.8813C693.082 76.0679 693.369 76.1613 693.689 76.1613C694.062 76.1613 694.402 76.1013 694.709 75.9813C695.015 75.8479 695.202 75.7546 695.269 75.7013L695.629 76.8013ZM608.539 100.301H607.179V94.4813C607.179 93.3079 606.972 92.4279 606.559 91.8413C606.146 91.2413 605.552 90.9413 604.779 90.9413C604.272 90.9413 603.766 91.0746 603.259 91.3413C602.766 91.5946 602.326 91.9479 601.939 92.4013C601.566 92.8413 601.299 93.3479 601.139 93.9213V100.301H599.779V85.7013H601.139V92.2413C601.552 91.4679 602.126 90.8546 602.859 90.4013C603.606 89.9346 604.399 89.7013 605.239 89.7013C605.839 89.7013 606.346 89.8079 606.759 90.0213C607.186 90.2346 607.526 90.5479 607.779 90.9613C608.046 91.3613 608.239 91.8346 608.359 92.3813C608.479 92.9146 608.539 93.5213 608.539 94.2013V100.301ZM610.599 97.3013C610.599 96.6479 610.786 96.0879 611.159 95.6213C611.532 95.1413 612.046 94.7746 612.699 94.5213C613.366 94.2546 614.132 94.1213 614.999 94.1213C615.506 94.1213 616.032 94.1613 616.579 94.2413C617.126 94.3213 617.612 94.4413 618.039 94.6013V93.7213C618.039 92.8413 617.779 92.1413 617.259 91.6213C616.739 91.1013 616.019 90.8413 615.099 90.8413C614.539 90.8413 613.986 90.9479 613.439 91.1613C612.906 91.3613 612.346 91.6613 611.759 92.0613L611.239 91.1013C611.919 90.6346 612.586 90.2879 613.239 90.0613C613.892 89.8213 614.559 89.7013 615.239 89.7013C616.519 89.7013 617.532 90.0679 618.279 90.8013C619.026 91.5346 619.399 92.5479 619.399 93.8413V98.6613C619.399 98.8479 619.439 98.9879 619.519 99.0813C619.599 99.1613 619.726 99.2079 619.899 99.2213V100.301C619.752 100.315 619.626 100.328 619.519 100.341C619.412 100.355 619.332 100.355 619.279 100.341C618.946 100.328 618.692 100.221 618.519 100.021C618.346 99.8213 618.252 99.6079 618.239 99.3813L618.219 98.6213C617.752 99.2213 617.146 99.6879 616.399 100.021C615.652 100.341 614.892 100.501 614.119 100.501C613.452 100.501 612.846 100.361 612.299 100.081C611.766 99.7879 611.346 99.4013 611.039 98.9213C610.746 98.4279 610.599 97.8879 610.599 97.3013ZM617.579 98.1013C617.726 97.9146 617.839 97.7346 617.919 97.5613C617.999 97.3879 618.039 97.2346 618.039 97.1013V95.5813C617.586 95.4079 617.112 95.2746 616.619 95.1813C616.139 95.0879 615.652 95.0413 615.159 95.0413C614.186 95.0413 613.399 95.2346 612.799 95.6213C612.199 96.0079 611.899 96.5346 611.899 97.2013C611.899 97.5879 611.999 97.9546 612.199 98.3013C612.399 98.6346 612.692 98.9146 613.079 99.1413C613.466 99.3546 613.919 99.4613 614.439 99.4613C615.092 99.4613 615.699 99.3346 616.259 99.0813C616.832 98.8279 617.272 98.5013 617.579 98.1013ZM637.838 100.301H636.478V94.4813C636.478 93.2679 636.284 92.3746 635.898 91.8013C635.511 91.2279 634.938 90.9413 634.178 90.9413C633.391 90.9413 632.684 91.2213 632.058 91.7813C631.444 92.3413 631.011 93.0613 630.758 93.9413V100.301H629.398V94.4813C629.398 93.2546 629.211 92.3613 628.838 91.8013C628.464 91.2279 627.891 90.9413 627.118 90.9413C626.344 90.9413 625.644 91.2146 625.018 91.7613C624.391 92.3079 623.951 93.0279 623.698 93.9213V100.301H622.338V89.8813H623.578V92.2413C624.018 91.4279 624.578 90.8013 625.258 90.3613C625.951 89.9213 626.718 89.7013 627.558 89.7013C628.424 89.7013 629.124 89.9479 629.658 90.4413C630.191 90.9346 630.518 91.5813 630.638 92.3813C631.118 91.5013 631.691 90.8346 632.358 90.3813C633.038 89.9279 633.804 89.7013 634.658 89.7013C635.244 89.7013 635.738 89.8079 636.138 90.0213C636.551 90.2346 636.878 90.5413 637.118 90.9413C637.371 91.3279 637.551 91.8013 637.658 92.3613C637.778 92.9079 637.838 93.5213 637.838 94.2013V100.301ZM640.717 100.301V89.8813H642.077V100.301H640.717ZM640.717 87.7013V85.7013H642.077V87.7013H640.717ZM645.132 85.7013H646.492V97.9413C646.492 98.4613 646.585 98.8013 646.772 98.9613C646.959 99.1213 647.185 99.2013 647.452 99.2013C647.692 99.2013 647.932 99.1746 648.172 99.1213C648.412 99.0679 648.619 99.0146 648.792 98.9613L649.032 100.061C648.779 100.168 648.465 100.255 648.092 100.321C647.732 100.388 647.419 100.421 647.152 100.421C646.539 100.421 646.045 100.241 645.672 99.8813C645.312 99.5213 645.132 99.0279 645.132 98.4013V85.7013ZM655.521 99.8013C655.415 99.8413 655.248 99.9146 655.021 100.021C654.795 100.128 654.521 100.221 654.201 100.301C653.881 100.381 653.535 100.421 653.161 100.421C652.775 100.421 652.408 100.348 652.061 100.201C651.728 100.055 651.461 99.8346 651.261 99.5413C651.061 99.2346 650.961 98.8613 650.961 98.4213V90.9613H649.521V89.8813H650.961V86.3613H652.321V89.8813H654.721V90.9613H652.321V98.0413C652.348 98.4146 652.481 98.6946 652.721 98.8813C652.975 99.0679 653.261 99.1613 653.581 99.1613C653.955 99.1613 654.295 99.1013 654.601 98.9813C654.908 98.8479 655.095 98.7546 655.161 98.7013L655.521 99.8013ZM661.485 100.501C660.738 100.501 660.045 100.361 659.405 100.081C658.778 99.7879 658.231 99.3946 657.765 98.9013C657.311 98.3946 656.958 97.8213 656.705 97.1813C656.451 96.5279 656.325 95.8413 656.325 95.1213C656.325 94.3746 656.451 93.6813 656.705 93.0413C656.958 92.3879 657.318 91.8146 657.785 91.3213C658.251 90.8146 658.798 90.4213 659.425 90.1413C660.065 89.8479 660.758 89.7013 661.505 89.7013C662.251 89.7013 662.938 89.8479 663.565 90.1413C664.191 90.4213 664.738 90.8146 665.205 91.3213C665.671 91.8146 666.031 92.3879 666.285 93.0413C666.538 93.6813 666.665 94.3746 666.665 95.1213C666.665 95.8413 666.538 96.5279 666.285 97.1813C666.031 97.8213 665.671 98.3946 665.205 98.9013C664.751 99.3946 664.205 99.7879 663.565 100.081C662.938 100.361 662.245 100.501 661.485 100.501ZM657.705 95.1413C657.705 95.9146 657.871 96.6213 658.205 97.2613C658.551 97.8879 659.011 98.3879 659.585 98.7613C660.158 99.1213 660.791 99.3013 661.485 99.3013C662.178 99.3013 662.811 99.1146 663.385 98.7413C663.958 98.3679 664.418 97.8613 664.765 97.2213C665.111 96.5679 665.285 95.8613 665.285 95.1013C665.285 94.3279 665.111 93.6213 664.765 92.9813C664.418 92.3413 663.958 91.8346 663.385 91.4613C662.811 91.0879 662.178 90.9013 661.485 90.9013C660.791 90.9013 660.158 91.0946 659.585 91.4813C659.025 91.8679 658.571 92.3813 658.225 93.0213C657.878 93.6479 657.705 94.3546 657.705 95.1413ZM677.699 100.301H676.339V94.4813C676.339 93.2546 676.159 92.3613 675.799 91.8013C675.439 91.2279 674.872 90.9413 674.099 90.9413C673.566 90.9413 673.039 91.0746 672.519 91.3413C671.999 91.5946 671.539 91.9479 671.139 92.4013C670.752 92.8413 670.472 93.3479 670.299 93.9213V100.301H668.939V89.8813H670.179V92.2413C670.459 91.7346 670.826 91.2946 671.279 90.9213C671.732 90.5346 672.246 90.2346 672.819 90.0213C673.392 89.8079 673.986 89.7013 674.599 89.7013C675.172 89.7013 675.659 89.8079 676.059 90.0213C676.459 90.2346 676.779 90.5413 677.019 90.9413C677.259 91.3279 677.432 91.8013 677.539 92.3613C677.646 92.9079 677.699 93.5213 677.699 94.2013V100.301ZM680.599 100.301V89.8813H681.959V100.301H680.599ZM680.599 87.7013V85.7013H681.959V87.7013H680.599ZM684.115 97.3013C684.115 96.6479 684.301 96.0879 684.675 95.6213C685.048 95.1413 685.561 94.7746 686.215 94.5213C686.881 94.2546 687.648 94.1213 688.515 94.1213C689.021 94.1213 689.548 94.1613 690.095 94.2413C690.641 94.3213 691.128 94.4413 691.555 94.6013V93.7213C691.555 92.8413 691.295 92.1413 690.775 91.6213C690.255 91.1013 689.535 90.8413 688.615 90.8413C688.055 90.8413 687.501 90.9479 686.955 91.1613C686.421 91.3613 685.861 91.6613 685.275 92.0613L684.755 91.1013C685.435 90.6346 686.101 90.2879 686.755 90.0613C687.408 89.8213 688.075 89.7013 688.755 89.7013C690.035 89.7013 691.048 90.0679 691.795 90.8013C692.541 91.5346 692.915 92.5479 692.915 93.8413V98.6613C692.915 98.8479 692.955 98.9879 693.035 99.0813C693.115 99.1613 693.241 99.2079 693.415 99.2213V100.301C693.268 100.315 693.141 100.328 693.035 100.341C692.928 100.355 692.848 100.355 692.795 100.341C692.461 100.328 692.208 100.221 692.035 100.021C691.861 99.8213 691.768 99.6079 691.755 99.3813L691.735 98.6213C691.268 99.2213 690.661 99.6879 689.915 100.021C689.168 100.341 688.408 100.501 687.635 100.501C686.968 100.501 686.361 100.361 685.815 100.081C685.281 99.7879 684.861 99.4013 684.555 98.9213C684.261 98.4279 684.115 97.8879 684.115 97.3013ZM691.095 98.1013C691.241 97.9146 691.355 97.7346 691.435 97.5613C691.515 97.3879 691.555 97.2346 691.555 97.1013V95.5813C691.101 95.4079 690.628 95.2746 690.135 95.1813C689.655 95.0879 689.168 95.0413 688.675 95.0413C687.701 95.0413 686.915 95.2346 686.315 95.6213C685.715 96.0079 685.415 96.5346 685.415 97.2013C685.415 97.5879 685.515 97.9546 685.715 98.3013C685.915 98.6346 686.208 98.9146 686.595 99.1413C686.981 99.3546 687.435 99.4613 687.955 99.4613C688.608 99.4613 689.215 99.3346 689.775 99.0813C690.348 98.8279 690.788 98.5013 691.095 98.1013ZM704.613 100.301H703.253V94.4813C703.253 93.2546 703.073 92.3613 702.713 91.8013C702.353 91.2279 701.787 90.9413 701.013 90.9413C700.48 90.9413 699.953 91.0746 699.433 91.3413C698.913 91.5946 698.453 91.9479 698.053 92.4013C697.667 92.8413 697.387 93.3479 697.213 93.9213V100.301H695.853V89.8813H697.093V92.2413C697.373 91.7346 697.74 91.2946 698.193 90.9213C698.647 90.5346 699.16 90.2346 699.733 90.0213C700.307 89.8079 700.9 89.7013 701.513 89.7013C702.087 89.7013 702.573 89.8079 702.973 90.0213C703.373 90.2346 703.693 90.5413 703.933 90.9413C704.173 91.3279 704.347 91.8013 704.453 92.3613C704.56 92.9079 704.613 93.5213 704.613 94.2013V100.301Z" fill="black"/>
<rect x="799.5" y="40.5" width="212" height="82" fill="#C2E5F9" stroke="#5090C9"/>
<path d="M830.012 88.5013C829.265 88.5013 828.572 88.3613 827.932 88.0813C827.305 87.7879 826.759 87.3946 826.292 86.9013C825.839 86.3946 825.485 85.8213 825.232 85.1813C824.979 84.5279 824.852 83.8413 824.852 83.1213C824.852 82.3746 824.979 81.6813 825.232 81.0413C825.485 80.3879 825.845 79.8146 826.312 79.3213C826.779 78.8146 827.325 78.4213 827.952 78.1413C828.592 77.8479 829.285 77.7013 830.032 77.7013C830.779 77.7013 831.465 77.8479 832.092 78.1413C832.719 78.4213 833.265 78.8146 833.732 79.3213C834.199 79.8146 834.559 80.3879 834.812 81.0413C835.065 81.6813 835.192 82.3746 835.192 83.1213C835.192 83.8413 835.065 84.5279 834.812 85.1813C834.559 85.8213 834.199 86.3946 833.732 86.9013C833.279 87.3946 832.732 87.7879 832.092 88.0813C831.465 88.3613 830.772 88.5013 830.012 88.5013ZM826.232 83.1413C826.232 83.9146 826.399 84.6213 826.732 85.2613C827.079 85.8879 827.539 86.3879 828.112 86.7613C828.685 87.1213 829.319 87.3013 830.012 87.3013C830.705 87.3013 831.339 87.1146 831.912 86.7413C832.485 86.3679 832.945 85.8613 833.292 85.2213C833.639 84.5679 833.812 83.8613 833.812 83.1013C833.812 82.3279 833.639 81.6213 833.292 80.9813C832.945 80.3413 832.485 79.8346 831.912 79.4613C831.339 79.0879 830.705 78.9013 830.012 78.9013C829.319 78.9013 828.685 79.0946 828.112 79.4813C827.552 79.8679 827.099 80.3813 826.752 81.0213C826.405 81.6479 826.232 82.3546 826.232 83.1413ZM842.786 88.5013C841.92 88.5013 841.14 88.2746 840.446 87.8213C839.766 87.3679 839.226 86.8079 838.826 86.1413V92.5613H837.466V77.8813H838.686V79.9013C839.1 79.2479 839.653 78.7213 840.346 78.3213C841.04 77.9079 841.78 77.7013 842.566 77.7013C843.286 77.7013 843.946 77.8546 844.546 78.1613C845.146 78.4546 845.666 78.8546 846.106 79.3613C846.546 79.8679 846.886 80.4479 847.126 81.1013C847.38 81.7413 847.506 82.4079 847.506 83.1013C847.506 84.0746 847.306 84.9746 846.906 85.8013C846.52 86.6146 845.973 87.2679 845.266 87.7613C844.56 88.2546 843.733 88.5013 842.786 88.5013ZM842.406 87.3013C842.98 87.3013 843.493 87.1879 843.946 86.9613C844.4 86.7213 844.786 86.4013 845.106 86.0013C845.44 85.6013 845.693 85.1546 845.866 84.6613C846.04 84.1546 846.126 83.6346 846.126 83.1013C846.126 82.5413 846.026 82.0079 845.826 81.5013C845.64 80.9946 845.366 80.5479 845.006 80.1613C844.646 79.7746 844.233 79.4679 843.766 79.2413C843.3 79.0146 842.793 78.9013 842.246 78.9013C841.9 78.9013 841.54 78.9679 841.166 79.1013C840.793 79.2346 840.433 79.4279 840.086 79.6813C839.753 79.9213 839.473 80.1946 839.246 80.5013C839.02 80.8079 838.88 81.1346 838.826 81.4813V84.6813C839.04 85.1746 839.326 85.6213 839.686 86.0213C840.046 86.4079 840.46 86.7213 840.926 86.9613C841.406 87.1879 841.9 87.3013 842.406 87.3013ZM854.654 87.8013C854.547 87.8413 854.381 87.9146 854.154 88.0213C853.927 88.1279 853.654 88.2213 853.334 88.3013C853.014 88.3813 852.667 88.4213 852.294 88.4213C851.907 88.4213 851.541 88.3479 851.194 88.2013C850.861 88.0546 850.594 87.8346 850.394 87.5413C850.194 87.2346 850.094 86.8613 850.094 86.4213V78.9613H848.654V77.8813H850.094V74.3613H851.454V77.8813H853.854V78.9613H851.454V86.0413C851.481 86.4146 851.614 86.6946 851.854 86.8813C852.107 87.0679 852.394 87.1613 852.714 87.1613C853.087 87.1613 853.427 87.1013 853.734 86.9813C854.041 86.8479 854.227 86.7546 854.294 86.7013L854.654 87.8013ZM856.353 88.3013V77.8813H857.713V88.3013H856.353ZM856.353 75.7013V73.7013H857.713V75.7013H856.353ZM876.209 88.3013H874.849V82.4813C874.849 81.2679 874.655 80.3746 874.269 79.8013C873.882 79.2279 873.309 78.9413 872.549 78.9413C871.762 78.9413 871.055 79.2213 870.429 79.7813C869.815 80.3413 869.382 81.0613 869.129 81.9413V88.3013H867.769V82.4813C867.769 81.2546 867.582 80.3613 867.209 79.8013C866.835 79.2279 866.262 78.9413 865.489 78.9413C864.715 78.9413 864.015 79.2146 863.389 79.7613C862.762 80.3079 862.322 81.0279 862.069 81.9213V88.3013H860.709V77.8813H861.949V80.2413C862.389 79.4279 862.949 78.8013 863.629 78.3613C864.322 77.9213 865.089 77.7013 865.929 77.7013C866.795 77.7013 867.495 77.9479 868.029 78.4413C868.562 78.9346 868.889 79.5813 869.009 80.3813C869.489 79.5013 870.062 78.8346 870.729 78.3813C871.409 77.9279 872.175 77.7013 873.029 77.7013C873.615 77.7013 874.109 77.8079 874.509 78.0213C874.922 78.2346 875.249 78.5413 875.489 78.9413C875.742 79.3279 875.922 79.8013 876.029 80.3613C876.149 80.9079 876.209 81.5213 876.209 82.2013V88.3013ZM879.088 88.3013V77.8813H880.448V88.3013H879.088ZM879.088 75.7013V73.7013H880.448V75.7013H879.088ZM882.563 87.3813L889.543 78.9013H882.723V77.8813H891.083V78.8013L884.143 87.2813H891.063V88.3013H882.563V87.3813ZM897.572 88.5013C896.825 88.5013 896.132 88.3613 895.492 88.0813C894.852 87.7879 894.299 87.3946 893.832 86.9013C893.365 86.3946 892.999 85.8146 892.732 85.1613C892.479 84.5079 892.352 83.8079 892.352 83.0613C892.352 82.0879 892.572 81.1946 893.012 80.3813C893.465 79.5679 894.085 78.9213 894.872 78.4413C895.659 77.9479 896.552 77.7013 897.552 77.7013C898.579 77.7013 899.472 77.9479 900.232 78.4413C901.005 78.9346 901.612 79.5879 902.052 80.4013C902.492 81.2013 902.712 82.0813 902.712 83.0413C902.712 83.1479 902.712 83.2546 902.712 83.3613C902.712 83.4546 902.705 83.5279 902.692 83.5813H893.772C893.839 84.3279 894.045 84.9946 894.392 85.5813C894.752 86.1546 895.212 86.6146 895.772 86.9613C896.345 87.2946 896.965 87.4613 897.632 87.4613C898.312 87.4613 898.952 87.2879 899.552 86.9413C900.165 86.5946 900.592 86.1413 900.832 85.5813L902.012 85.9013C901.799 86.3946 901.472 86.8413 901.032 87.2413C900.592 87.6413 900.072 87.9546 899.472 88.1813C898.885 88.3946 898.252 88.5013 897.572 88.5013ZM893.732 82.6013H901.432C901.379 81.8413 901.172 81.1746 900.812 80.6013C900.465 80.0279 900.005 79.5813 899.432 79.2613C898.872 78.9279 898.252 78.7613 897.572 78.7613C896.892 78.7613 896.272 78.9279 895.712 79.2613C895.152 79.5813 894.692 80.0346 894.332 80.6213C893.985 81.1946 893.785 81.8546 893.732 82.6013ZM915.228 88.5013C914.361 88.5013 913.581 88.2746 912.888 87.8213C912.208 87.3679 911.668 86.8079 911.268 86.1413V92.5613H909.908V77.8813H911.128V79.9013C911.541 79.2479 912.095 78.7213 912.788 78.3213C913.481 77.9079 914.221 77.7013 915.008 77.7013C915.728 77.7013 916.388 77.8546 916.988 78.1613C917.588 78.4546 918.108 78.8546 918.548 79.3613C918.988 79.8679 919.328 80.4479 919.568 81.1013C919.821 81.7413 919.948 82.4079 919.948 83.1013C919.948 84.0746 919.748 84.9746 919.348 85.8013C918.961 86.6146 918.415 87.2679 917.708 87.7613C917.001 88.2546 916.175 88.5013 915.228 88.5013ZM914.848 87.3013C915.421 87.3013 915.935 87.1879 916.388 86.9613C916.841 86.7213 917.228 86.4013 917.548 86.0013C917.881 85.6013 918.135 85.1546 918.308 84.6613C918.481 84.1546 918.568 83.6346 918.568 83.1013C918.568 82.5413 918.468 82.0079 918.268 81.5013C918.081 80.9946 917.808 80.5479 917.448 80.1613C917.088 79.7746 916.675 79.4679 916.208 79.2413C915.741 79.0146 915.235 78.9013 914.688 78.9013C914.341 78.9013 913.981 78.9679 913.608 79.1013C913.235 79.2346 912.875 79.4279 912.528 79.6813C912.195 79.9213 911.915 80.1946 911.688 80.5013C911.461 80.8079 911.321 81.1346 911.268 81.4813V84.6813C911.481 85.1746 911.768 85.6213 912.128 86.0213C912.488 86.4079 912.901 86.7213 913.368 86.9613C913.848 87.1879 914.341 87.3013 914.848 87.3013ZM926.692 88.5013C925.945 88.5013 925.252 88.3613 924.612 88.0813C923.985 87.7879 923.438 87.3946 922.972 86.9013C922.518 86.3946 922.165 85.8213 921.912 85.1813C921.658 84.5279 921.532 83.8413 921.532 83.1213C921.532 82.3746 921.658 81.6813 921.912 81.0413C922.165 80.3879 922.525 79.8146 922.992 79.3213C923.458 78.8146 924.005 78.4213 924.632 78.1413C925.272 77.8479 925.965 77.7013 926.712 77.7013C927.458 77.7013 928.145 77.8479 928.772 78.1413C929.398 78.4213 929.945 78.8146 930.412 79.3213C930.878 79.8146 931.238 80.3879 931.492 81.0413C931.745 81.6813 931.872 82.3746 931.872 83.1213C931.872 83.8413 931.745 84.5279 931.492 85.1813C931.238 85.8213 930.878 86.3946 930.412 86.9013C929.958 87.3946 929.412 87.7879 928.772 88.0813C928.145 88.3613 927.452 88.5013 926.692 88.5013ZM922.912 83.1413C922.912 83.9146 923.078 84.6213 923.412 85.2613C923.758 85.8879 924.218 86.3879 924.792 86.7613C925.365 87.1213 925.998 87.3013 926.692 87.3013C927.385 87.3013 928.018 87.1146 928.592 86.7413C929.165 86.3679 929.625 85.8613 929.972 85.2213C930.318 84.5679 930.492 83.8613 930.492 83.1013C930.492 82.3279 930.318 81.6213 929.972 80.9813C929.625 80.3413 929.165 79.8346 928.592 79.4613C928.018 79.0879 927.385 78.9013 926.692 78.9013C925.998 78.9013 925.365 79.0946 924.792 79.4813C924.232 79.8679 923.778 80.3813 923.432 81.0213C923.085 81.6479 922.912 82.3546 922.912 83.1413ZM939.346 79.0813C938.44 79.1079 937.64 79.3613 936.946 79.8413C936.266 80.3213 935.786 80.9813 935.506 81.8213V88.3013H934.146V77.8813H935.426V80.3813C935.786 79.6479 936.26 79.0546 936.846 78.6013C937.446 78.1479 938.08 77.8946 938.746 77.8413C938.88 77.8279 938.993 77.8213 939.086 77.8213C939.193 77.8213 939.28 77.8279 939.346 77.8413V79.0813ZM946.158 87.8013C946.051 87.8413 945.885 87.9146 945.658 88.0213C945.431 88.1279 945.158 88.2213 944.838 88.3013C944.518 88.3813 944.171 88.4213 943.798 88.4213C943.411 88.4213 943.045 88.3479 942.698 88.2013C942.365 88.0546 942.098 87.8346 941.898 87.5413C941.698 87.2346 941.598 86.8613 941.598 86.4213V78.9613H940.158V77.8813H941.598V74.3613H942.958V77.8813H945.358V78.9613H942.958V86.0413C942.985 86.4146 943.118 86.6946 943.358 86.8813C943.611 87.0679 943.898 87.1613 944.218 87.1613C944.591 87.1613 944.931 87.1013 945.238 86.9813C945.545 86.8479 945.731 86.7546 945.798 86.7013L946.158 87.8013ZM948.357 88.3013V78.9613H946.917V77.8813H948.357V77.6013C948.357 76.7479 948.477 76.0146 948.717 75.4013C948.97 74.7879 949.324 74.3213 949.777 74.0013C950.244 73.6679 950.79 73.5013 951.417 73.5013C951.83 73.5013 952.23 73.5613 952.617 73.6813C953.004 73.8013 953.337 73.9613 953.617 74.1613L953.197 75.1413C953.024 74.9946 952.797 74.8813 952.517 74.8013C952.237 74.7213 951.957 74.6813 951.677 74.6813C951.05 74.6813 950.564 74.9279 950.217 75.4213C949.884 75.9146 949.717 76.6279 949.717 77.5613V77.8813H952.597V78.9613H949.717V88.3013H948.357ZM958.567 88.5013C957.82 88.5013 957.127 88.3613 956.487 88.0813C955.86 87.7879 955.313 87.3946 954.847 86.9013C954.393 86.3946 954.04 85.8213 953.787 85.1813C953.533 84.5279 953.407 83.8413 953.407 83.1213C953.407 82.3746 953.533 81.6813 953.787 81.0413C954.04 80.3879 954.4 79.8146 954.867 79.3213C955.333 78.8146 955.88 78.4213 956.507 78.1413C957.147 77.8479 957.84 77.7013 958.587 77.7013C959.333 77.7013 960.02 77.8479 960.647 78.1413C961.273 78.4213 961.82 78.8146 962.287 79.3213C962.753 79.8146 963.113 80.3879 963.367 81.0413C963.62 81.6813 963.747 82.3746 963.747 83.1213C963.747 83.8413 963.62 84.5279 963.367 85.1813C963.113 85.8213 962.753 86.3946 962.287 86.9013C961.833 87.3946 961.287 87.7879 960.647 88.0813C960.02 88.3613 959.327 88.5013 958.567 88.5013ZM954.787 83.1413C954.787 83.9146 954.953 84.6213 955.287 85.2613C955.633 85.8879 956.093 86.3879 956.667 86.7613C957.24 87.1213 957.873 87.3013 958.567 87.3013C959.26 87.3013 959.893 87.1146 960.467 86.7413C961.04 86.3679 961.5 85.8613 961.847 85.2213C962.193 84.5679 962.367 83.8613 962.367 83.1013C962.367 82.3279 962.193 81.6213 961.847 80.9813C961.5 80.3413 961.04 79.8346 960.467 79.4613C959.893 79.0879 959.26 78.9013 958.567 78.9013C957.873 78.9013 957.24 79.0946 956.667 79.4813C956.107 79.8679 955.653 80.3813 955.307 81.0213C954.96 81.6479 954.787 82.3546 954.787 83.1413ZM966.081 73.7013H967.441V85.9413C967.441 86.4613 967.535 86.8013 967.721 86.9613C967.908 87.1213 968.135 87.2013 968.401 87.2013C968.641 87.2013 968.881 87.1746 969.121 87.1213C969.361 87.0679 969.568 87.0146 969.741 86.9613L969.981 88.0613C969.728 88.1679 969.415 88.2546 969.041 88.3213C968.681 88.3879 968.368 88.4213 968.101 88.4213C967.488 88.4213 966.995 88.2413 966.621 87.8813C966.261 87.5213 966.081 87.0279 966.081 86.4013V73.7013ZM971.47 88.3013V77.8813H972.83V88.3013H971.47ZM971.47 75.7013V73.7013H972.83V75.7013H971.47ZM980.266 88.5013C979.519 88.5013 978.826 88.3613 978.186 88.0813C977.559 87.7879 977.013 87.3946 976.546 86.9013C976.093 86.3946 975.739 85.8213 975.486 85.1813C975.233 84.5279 975.106 83.8413 975.106 83.1213C975.106 82.3746 975.233 81.6813 975.486 81.0413C975.739 80.3879 976.099 79.8146 976.566 79.3213C977.033 78.8146 977.579 78.4213 978.206 78.1413C978.846 77.8479 979.539 77.7013 980.286 77.7013C981.033 77.7013 981.719 77.8479 982.346 78.1413C982.973 78.4213 983.519 78.8146 983.986 79.3213C984.453 79.8146 984.813 80.3879 985.066 81.0413C985.319 81.6813 985.446 82.3746 985.446 83.1213C985.446 83.8413 985.319 84.5279 985.066 85.1813C984.813 85.8213 984.453 86.3946 983.986 86.9013C983.533 87.3946 982.986 87.7879 982.346 88.0813C981.719 88.3613 981.026 88.5013 980.266 88.5013ZM976.486 83.1413C976.486 83.9146 976.653 84.6213 976.986 85.2613C977.333 85.8879 977.793 86.3879 978.366 86.7613C978.939 87.1213 979.573 87.3013 980.266 87.3013C980.959 87.3013 981.593 87.1146 982.166 86.7413C982.739 86.3679 983.199 85.8613 983.546 85.2213C983.893 84.5679 984.066 83.8613 984.066 83.1013C984.066 82.3279 983.893 81.6213 983.546 80.9813C983.199 80.3413 982.739 79.8346 982.166 79.4613C981.593 79.0879 980.959 78.9013 980.266 78.9013C979.573 78.9013 978.939 79.0946 978.366 79.4813C977.806 79.8679 977.353 80.3813 977.006 81.0213C976.659 81.6479 976.486 82.3546 976.486 83.1413Z" fill="black"/>
<rect x="1052.5" y="40.5" width="212" height="82" fill="#C2E5F9" stroke="#5090C9"/>
<path d="M1088.67 68.0813C1087.77 68.1079 1086.97 68.3613 1086.27 68.8413C1085.59 69.3213 1085.11 69.9813 1084.83 70.8213V77.3013H1083.47V66.8813H1084.75V69.3813C1085.11 68.6479 1085.59 68.0546 1086.17 67.6013C1086.77 67.1479 1087.41 66.8946 1088.07 66.8413C1088.21 66.8279 1088.32 66.8213 1088.41 66.8213C1088.52 66.8213 1088.61 66.8279 1088.67 66.8413V68.0813ZM1094.65 77.5013C1093.91 77.5013 1093.21 77.3613 1092.57 77.0813C1091.93 76.7879 1091.38 76.3946 1090.91 75.9013C1090.45 75.3946 1090.08 74.8146 1089.81 74.1613C1089.56 73.5079 1089.43 72.8079 1089.43 72.0613C1089.43 71.0879 1089.65 70.1946 1090.09 69.3813C1090.55 68.5679 1091.17 67.9213 1091.95 67.4413C1092.74 66.9479 1093.63 66.7013 1094.63 66.7013C1095.66 66.7013 1096.55 66.9479 1097.31 67.4413C1098.09 67.9346 1098.69 68.5879 1099.13 69.4013C1099.57 70.2013 1099.79 71.0813 1099.79 72.0413C1099.79 72.1479 1099.79 72.2546 1099.79 72.3613C1099.79 72.4546 1099.79 72.5279 1099.77 72.5813H1090.85C1090.92 73.3279 1091.13 73.9946 1091.47 74.5813C1091.83 75.1546 1092.29 75.6146 1092.85 75.9613C1093.43 76.2946 1094.05 76.4613 1094.71 76.4613C1095.39 76.4613 1096.03 76.2879 1096.63 75.9413C1097.25 75.5946 1097.67 75.1413 1097.91 74.5813L1099.09 74.9013C1098.88 75.3946 1098.55 75.8413 1098.11 76.2413C1097.67 76.6413 1097.15 76.9546 1096.55 77.1813C1095.97 77.3946 1095.33 77.5013 1094.65 77.5013ZM1090.81 71.6013H1098.51C1098.46 70.8413 1098.25 70.1746 1097.89 69.6013C1097.55 69.0279 1097.09 68.5813 1096.51 68.2613C1095.95 67.9279 1095.33 67.7613 1094.65 67.7613C1093.97 67.7613 1093.35 67.9279 1092.79 68.2613C1092.23 68.5813 1091.77 69.0346 1091.41 69.6213C1091.07 70.1946 1090.87 70.8546 1090.81 71.6013ZM1106.79 76.8013C1106.69 76.8413 1106.52 76.9146 1106.29 77.0213C1106.07 77.1279 1105.79 77.2213 1105.47 77.3013C1105.15 77.3813 1104.81 77.4213 1104.43 77.4213C1104.05 77.4213 1103.68 77.3479 1103.33 77.2013C1103 77.0546 1102.73 76.8346 1102.53 76.5413C1102.33 76.2346 1102.23 75.8613 1102.23 75.4213V67.9613H1100.79V66.8813H1102.23V63.3613H1103.59V66.8813H1105.99V67.9613H1103.59V75.0413C1103.62 75.4146 1103.75 75.6946 1103.99 75.8813C1104.25 76.0679 1104.53 76.1613 1104.85 76.1613C1105.23 76.1613 1105.57 76.1013 1105.87 75.9813C1106.18 75.8479 1106.37 75.7546 1106.43 75.7013L1106.79 76.8013ZM1108.39 73.0013V66.8813H1109.75V72.7613C1109.75 73.9479 1109.95 74.8346 1110.35 75.4213C1110.77 76.0079 1111.37 76.3013 1112.17 76.3013C1112.71 76.3013 1113.22 76.1879 1113.71 75.9613C1114.22 75.7213 1114.67 75.3879 1115.05 74.9613C1115.44 74.5213 1115.73 74.0146 1115.93 73.4413V66.8813H1117.29V75.6613C1117.29 75.8479 1117.33 75.9879 1117.41 76.0813C1117.49 76.1613 1117.61 76.2079 1117.77 76.2213V77.3013C1117.61 77.3146 1117.49 77.3213 1117.39 77.3213C1117.3 77.3346 1117.21 77.3413 1117.13 77.3413C1116.87 77.3146 1116.63 77.2079 1116.43 77.0213C1116.25 76.8346 1116.15 76.6079 1116.13 76.3413L1116.09 74.9413C1115.64 75.7413 1115.02 76.3679 1114.23 76.8213C1113.46 77.2746 1112.62 77.5013 1111.71 77.5013C1110.62 77.5013 1109.79 77.1213 1109.23 76.3613C1108.67 75.6013 1108.39 74.4813 1108.39 73.0013ZM1125.57 68.0813C1124.66 68.1079 1123.86 68.3613 1123.17 68.8413C1122.49 69.3213 1122.01 69.9813 1121.73 70.8213V77.3013H1120.37V66.8813H1121.65V69.3813C1122.01 68.6479 1122.48 68.0546 1123.07 67.6013C1123.67 67.1479 1124.3 66.8946 1124.97 66.8413C1125.1 66.8279 1125.22 66.8213 1125.31 66.8213C1125.42 66.8213 1125.5 66.8279 1125.57 66.8413V68.0813ZM1136.14 77.3013H1134.78V71.4813C1134.78 70.2546 1134.6 69.3613 1134.24 68.8013C1133.88 68.2279 1133.31 67.9413 1132.54 67.9413C1132.01 67.9413 1131.48 68.0746 1130.96 68.3413C1130.44 68.5946 1129.98 68.9479 1129.58 69.4013C1129.19 69.8413 1128.91 70.3479 1128.74 70.9213V77.3013H1127.38V66.8813H1128.62V69.2413C1128.9 68.7346 1129.27 68.2946 1129.72 67.9213C1130.17 67.5346 1130.69 67.2346 1131.26 67.0213C1131.83 66.8079 1132.43 66.7013 1133.04 66.7013C1133.61 66.7013 1134.1 66.8079 1134.5 67.0213C1134.9 67.2346 1135.22 67.5413 1135.46 67.9413C1135.7 68.3279 1135.87 68.8013 1135.98 69.3613C1136.09 69.9079 1136.14 70.5213 1136.14 71.2013V77.3013ZM1148.58 77.5013C1147.83 77.5013 1147.14 77.3613 1146.5 77.0813C1145.87 76.7879 1145.33 76.3946 1144.86 75.9013C1144.41 75.3946 1144.05 74.8213 1143.8 74.1813C1143.55 73.5279 1143.42 72.8413 1143.42 72.1213C1143.42 71.3746 1143.55 70.6813 1143.8 70.0413C1144.05 69.3879 1144.41 68.8146 1144.88 68.3213C1145.35 67.8146 1145.89 67.4213 1146.52 67.1413C1147.16 66.8479 1147.85 66.7013 1148.6 66.7013C1149.35 66.7013 1150.03 66.8479 1150.66 67.1413C1151.29 67.4213 1151.83 67.8146 1152.3 68.3213C1152.77 68.8146 1153.13 69.3879 1153.38 70.0413C1153.63 70.6813 1153.76 71.3746 1153.76 72.1213C1153.76 72.8413 1153.63 73.5279 1153.38 74.1813C1153.13 74.8213 1152.77 75.3946 1152.3 75.9013C1151.85 76.3946 1151.3 76.7879 1150.66 77.0813C1150.03 77.3613 1149.34 77.5013 1148.58 77.5013ZM1144.8 72.1413C1144.8 72.9146 1144.97 73.6213 1145.3 74.2613C1145.65 74.8879 1146.11 75.3879 1146.68 75.7613C1147.25 76.1213 1147.89 76.3013 1148.58 76.3013C1149.27 76.3013 1149.91 76.1146 1150.48 75.7413C1151.05 75.3679 1151.51 74.8613 1151.86 74.2213C1152.21 73.5679 1152.38 72.8613 1152.38 72.1013C1152.38 71.3279 1152.21 70.6213 1151.86 69.9813C1151.51 69.3413 1151.05 68.8346 1150.48 68.4613C1149.91 68.0879 1149.27 67.9013 1148.58 67.9013C1147.89 67.9013 1147.25 68.0946 1146.68 68.4813C1146.12 68.8679 1145.67 69.3813 1145.32 70.0213C1144.97 70.6479 1144.8 71.3546 1144.8 72.1413ZM1161.35 77.5013C1160.49 77.5013 1159.71 77.2746 1159.01 76.8213C1158.33 76.3679 1157.79 75.8079 1157.39 75.1413V81.5613H1156.03V66.8813H1157.25V68.9013C1157.67 68.2479 1158.22 67.7213 1158.91 67.3213C1159.61 66.9079 1160.35 66.7013 1161.13 66.7013C1161.85 66.7013 1162.51 66.8546 1163.11 67.1613C1163.71 67.4546 1164.23 67.8546 1164.67 68.3613C1165.11 68.8679 1165.45 69.4479 1165.69 70.1013C1165.95 70.7413 1166.07 71.4079 1166.07 72.1013C1166.07 73.0746 1165.87 73.9746 1165.47 74.8013C1165.09 75.6146 1164.54 76.2679 1163.83 76.7613C1163.13 77.2546 1162.3 77.5013 1161.35 77.5013ZM1160.97 76.3013C1161.55 76.3013 1162.06 76.1879 1162.51 75.9613C1162.97 75.7213 1163.35 75.4013 1163.67 75.0013C1164.01 74.6013 1164.26 74.1546 1164.43 73.6613C1164.61 73.1546 1164.69 72.6346 1164.69 72.1013C1164.69 71.5413 1164.59 71.0079 1164.39 70.5013C1164.21 69.9946 1163.93 69.5479 1163.57 69.1613C1163.21 68.7746 1162.8 68.4679 1162.33 68.2413C1161.87 68.0146 1161.36 67.9013 1160.81 67.9013C1160.47 67.9013 1160.11 67.9679 1159.73 68.1013C1159.36 68.2346 1159 68.4279 1158.65 68.6813C1158.32 68.9213 1158.04 69.1946 1157.81 69.5013C1157.59 69.8079 1157.45 70.1346 1157.39 70.4813V73.6813C1157.61 74.1746 1157.89 74.6213 1158.25 75.0213C1158.61 75.4079 1159.03 75.7213 1159.49 75.9613C1159.97 76.1879 1160.47 76.3013 1160.97 76.3013ZM1173.22 76.8013C1173.11 76.8413 1172.95 76.9146 1172.72 77.0213C1172.49 77.1279 1172.22 77.2213 1171.9 77.3013C1171.58 77.3813 1171.23 77.4213 1170.86 77.4213C1170.47 77.4213 1170.11 77.3479 1169.76 77.2013C1169.43 77.0546 1169.16 76.8346 1168.96 76.5413C1168.76 76.2346 1168.66 75.8613 1168.66 75.4213V67.9613H1167.22V66.8813H1168.66V63.3613H1170.02V66.8813H1172.42V67.9613H1170.02V75.0413C1170.05 75.4146 1170.18 75.6946 1170.42 75.8813C1170.67 76.0679 1170.96 76.1613 1171.28 76.1613C1171.65 76.1613 1171.99 76.1013 1172.3 75.9813C1172.61 75.8479 1172.79 75.7546 1172.86 75.7013L1173.22 76.8013ZM1174.92 77.3013V66.8813H1176.28V77.3013H1174.92ZM1174.92 64.7013V62.7013H1176.28V64.7013H1174.92ZM1194.78 77.3013H1193.42V71.4813C1193.42 70.2679 1193.22 69.3746 1192.84 68.8013C1192.45 68.2279 1191.88 67.9413 1191.12 67.9413C1190.33 67.9413 1189.62 68.2213 1189 68.7813C1188.38 69.3413 1187.95 70.0613 1187.7 70.9413V77.3013H1186.34V71.4813C1186.34 70.2546 1186.15 69.3613 1185.78 68.8013C1185.4 68.2279 1184.83 67.9413 1184.06 67.9413C1183.28 67.9413 1182.58 68.2146 1181.96 68.7613C1181.33 69.3079 1180.89 70.0279 1180.64 70.9213V77.3013H1179.28V66.8813H1180.52V69.2413C1180.96 68.4279 1181.52 67.8013 1182.2 67.3613C1182.89 66.9213 1183.66 66.7013 1184.5 66.7013C1185.36 66.7013 1186.06 66.9479 1186.6 67.4413C1187.13 67.9346 1187.46 68.5813 1187.58 69.3813C1188.06 68.5013 1188.63 67.8346 1189.3 67.3813C1189.98 66.9279 1190.74 66.7013 1191.6 66.7013C1192.18 66.7013 1192.68 66.8079 1193.08 67.0213C1193.49 67.2346 1193.82 67.5413 1194.06 67.9413C1194.31 68.3279 1194.49 68.8013 1194.6 69.3613C1194.72 69.9079 1194.78 70.5213 1194.78 71.2013V77.3013ZM1197.65 77.3013V66.8813H1199.01V77.3013H1197.65ZM1197.65 64.7013V62.7013H1199.01V64.7013H1197.65ZM1201.13 76.3813L1208.11 67.9013H1201.29V66.8813H1209.65V67.8013L1202.71 76.2813H1209.63V77.3013H1201.13V76.3813ZM1216.14 77.5013C1215.39 77.5013 1214.7 77.3613 1214.06 77.0813C1213.42 76.7879 1212.87 76.3946 1212.4 75.9013C1211.93 75.3946 1211.57 74.8146 1211.3 74.1613C1211.05 73.5079 1210.92 72.8079 1210.92 72.0613C1210.92 71.0879 1211.14 70.1946 1211.58 69.3813C1212.03 68.5679 1212.65 67.9213 1213.44 67.4413C1214.23 66.9479 1215.12 66.7013 1216.12 66.7013C1217.15 66.7013 1218.04 66.9479 1218.8 67.4413C1219.57 67.9346 1220.18 68.5879 1220.62 69.4013C1221.06 70.2013 1221.28 71.0813 1221.28 72.0413C1221.28 72.1479 1221.28 72.2546 1221.28 72.3613C1221.28 72.4546 1221.27 72.5279 1221.26 72.5813H1212.34C1212.41 73.3279 1212.61 73.9946 1212.96 74.5813C1213.32 75.1546 1213.78 75.6146 1214.34 75.9613C1214.91 76.2946 1215.53 76.4613 1216.2 76.4613C1216.88 76.4613 1217.52 76.2879 1218.12 75.9413C1218.73 75.5946 1219.16 75.1413 1219.4 74.5813L1220.58 74.9013C1220.37 75.3946 1220.04 75.8413 1219.6 76.2413C1219.16 76.6413 1218.64 76.9546 1218.04 77.1813C1217.45 77.3946 1216.82 77.5013 1216.14 77.5013ZM1212.3 71.6013H1220C1219.95 70.8413 1219.74 70.1746 1219.38 69.6013C1219.03 69.0279 1218.57 68.5813 1218 68.2613C1217.44 67.9279 1216.82 67.7613 1216.14 67.7613C1215.46 67.7613 1214.84 67.9279 1214.28 68.2613C1213.72 68.5813 1213.26 69.0346 1212.9 69.6213C1212.55 70.1946 1212.35 70.8546 1212.3 71.6013ZM1222.68 72.1213C1222.68 71.1346 1222.88 70.2346 1223.28 69.4213C1223.69 68.5946 1224.26 67.9346 1224.98 67.4413C1225.7 66.9479 1226.52 66.7013 1227.44 66.7013C1228.3 66.7013 1229.08 66.9346 1229.76 67.4013C1230.45 67.8546 1230.99 68.4079 1231.38 69.0613V62.7013H1232.74V75.6613C1232.74 75.8479 1232.78 75.9879 1232.86 76.0813C1232.94 76.1613 1233.06 76.2079 1233.22 76.2213V77.3013C1232.95 77.3413 1232.74 77.3546 1232.6 77.3413C1232.32 77.3279 1232.07 77.2146 1231.86 77.0013C1231.64 76.7879 1231.54 76.5546 1231.54 76.3013V75.2813C1231.12 75.9613 1230.56 76.5013 1229.86 76.9013C1229.15 77.3013 1228.42 77.5013 1227.66 77.5013C1226.94 77.5013 1226.27 77.3546 1225.66 77.0613C1225.06 76.7679 1224.53 76.3679 1224.08 75.8613C1223.64 75.3546 1223.29 74.7813 1223.04 74.1413C1222.8 73.4879 1222.68 72.8146 1222.68 72.1213ZM1231.38 73.7213V70.5013C1231.2 70.0213 1230.92 69.5879 1230.54 69.2013C1230.15 68.8013 1229.71 68.4879 1229.22 68.2613C1228.74 68.0213 1228.26 67.9013 1227.78 67.9013C1227.22 67.9013 1226.71 68.0213 1226.26 68.2613C1225.8 68.4879 1225.41 68.8013 1225.08 69.2013C1224.76 69.6013 1224.51 70.0546 1224.34 70.5613C1224.16 71.0679 1224.08 71.5879 1224.08 72.1213C1224.08 72.6813 1224.17 73.2146 1224.36 73.7213C1224.56 74.2279 1224.84 74.6813 1225.2 75.0813C1225.56 75.4679 1225.97 75.7679 1226.44 75.9813C1226.9 76.1946 1227.41 76.3013 1227.96 76.3013C1228.3 76.3013 1228.66 76.2346 1229.04 76.1013C1229.41 75.9679 1229.76 75.7879 1230.1 75.5613C1230.44 75.3213 1230.73 75.0413 1230.96 74.7213C1231.18 74.4013 1231.32 74.0679 1231.38 73.7213ZM1126.06 100.501C1125.19 100.501 1124.41 100.275 1123.72 99.8213C1123.04 99.3679 1122.5 98.8079 1122.1 98.1413V104.561H1120.74V89.8813H1121.96V91.9013C1122.37 91.2479 1122.93 90.7213 1123.62 90.3213C1124.31 89.9079 1125.05 89.7013 1125.84 89.7013C1126.56 89.7013 1127.22 89.8546 1127.82 90.1613C1128.42 90.4546 1128.94 90.8546 1129.38 91.3613C1129.82 91.8679 1130.16 92.4479 1130.4 93.1013C1130.65 93.7413 1130.78 94.4079 1130.78 95.1013C1130.78 96.0746 1130.58 96.9746 1130.18 97.8013C1129.79 98.6146 1129.25 99.2679 1128.54 99.7613C1127.83 100.255 1127.01 100.501 1126.06 100.501ZM1125.68 99.3013C1126.25 99.3013 1126.77 99.1879 1127.22 98.9613C1127.67 98.7213 1128.06 98.4013 1128.38 98.0013C1128.71 97.6013 1128.97 97.1546 1129.14 96.6613C1129.31 96.1546 1129.4 95.6346 1129.4 95.1013C1129.4 94.5413 1129.3 94.0079 1129.1 93.5013C1128.91 92.9946 1128.64 92.5479 1128.28 92.1613C1127.92 91.7746 1127.51 91.4679 1127.04 91.2413C1126.57 91.0146 1126.07 90.9013 1125.52 90.9013C1125.17 90.9013 1124.81 90.9679 1124.44 91.1013C1124.07 91.2346 1123.71 91.4279 1123.36 91.6813C1123.03 91.9213 1122.75 92.1946 1122.52 92.5013C1122.29 92.8079 1122.15 93.1346 1122.1 93.4813V96.6813C1122.31 97.1746 1122.6 97.6213 1122.96 98.0213C1123.32 98.4079 1123.73 98.7213 1124.2 98.9613C1124.68 99.1879 1125.17 99.3013 1125.68 99.3013ZM1137.52 100.501C1136.78 100.501 1136.08 100.361 1135.44 100.081C1134.82 99.7879 1134.27 99.3946 1133.8 98.9013C1133.35 98.3946 1133 97.8213 1132.74 97.1813C1132.49 96.5279 1132.36 95.8413 1132.36 95.1213C1132.36 94.3746 1132.49 93.6813 1132.74 93.0413C1133 92.3879 1133.36 91.8146 1133.82 91.3213C1134.29 90.8146 1134.84 90.4213 1135.46 90.1413C1136.1 89.8479 1136.8 89.7013 1137.54 89.7013C1138.29 89.7013 1138.98 89.8479 1139.6 90.1413C1140.23 90.4213 1140.78 90.8146 1141.24 91.3213C1141.71 91.8146 1142.07 92.3879 1142.32 93.0413C1142.58 93.6813 1142.7 94.3746 1142.7 95.1213C1142.7 95.8413 1142.58 96.5279 1142.32 97.1813C1142.07 97.8213 1141.71 98.3946 1141.24 98.9013C1140.79 99.3946 1140.24 99.7879 1139.6 100.081C1138.98 100.361 1138.28 100.501 1137.52 100.501ZM1133.74 95.1413C1133.74 95.9146 1133.91 96.6213 1134.24 97.2613C1134.59 97.8879 1135.05 98.3879 1135.62 98.7613C1136.2 99.1213 1136.83 99.3013 1137.52 99.3013C1138.22 99.3013 1138.85 99.1146 1139.42 98.7413C1140 98.3679 1140.46 97.8613 1140.8 97.2213C1141.15 96.5679 1141.32 95.8613 1141.32 95.1013C1141.32 94.3279 1141.15 93.6213 1140.8 92.9813C1140.46 92.3413 1140 91.8346 1139.42 91.4613C1138.85 91.0879 1138.22 90.9013 1137.52 90.9013C1136.83 90.9013 1136.2 91.0946 1135.62 91.4813C1135.06 91.8679 1134.61 92.3813 1134.26 93.0213C1133.92 93.6479 1133.74 94.3546 1133.74 95.1413ZM1150.18 91.0813C1149.27 91.1079 1148.47 91.3613 1147.78 91.8413C1147.1 92.3213 1146.62 92.9813 1146.34 93.8213V100.301H1144.98V89.8813H1146.26V92.3813C1146.62 91.6479 1147.09 91.0546 1147.68 90.6013C1148.28 90.1479 1148.91 89.8946 1149.58 89.8413C1149.71 89.8279 1149.82 89.8213 1149.92 89.8213C1150.02 89.8213 1150.11 89.8279 1150.18 89.8413V91.0813ZM1156.99 99.8013C1156.88 99.8413 1156.72 99.9146 1156.49 100.021C1156.26 100.128 1155.99 100.221 1155.67 100.301C1155.35 100.381 1155 100.421 1154.63 100.421C1154.24 100.421 1153.88 100.348 1153.53 100.201C1153.2 100.055 1152.93 99.8346 1152.73 99.5413C1152.53 99.2346 1152.43 98.8613 1152.43 98.4213V90.9613H1150.99V89.8813H1152.43V86.3613H1153.79V89.8813H1156.19V90.9613H1153.79V98.0413C1153.82 98.4146 1153.95 98.6946 1154.19 98.8813C1154.44 99.0679 1154.73 99.1613 1155.05 99.1613C1155.42 99.1613 1155.76 99.1013 1156.07 98.9813C1156.38 98.8479 1156.56 98.7546 1156.63 98.7013L1156.99 99.8013ZM1159.19 100.301V90.9613H1157.75V89.8813H1159.19V89.6013C1159.19 88.7479 1159.31 88.0146 1159.55 87.4013C1159.8 86.7879 1160.16 86.3213 1160.61 86.0013C1161.08 85.6679 1161.62 85.5013 1162.25 85.5013C1162.66 85.5013 1163.06 85.5613 1163.45 85.6813C1163.84 85.8013 1164.17 85.9613 1164.45 86.1613L1164.03 87.1413C1163.86 86.9946 1163.63 86.8813 1163.35 86.8013C1163.07 86.7213 1162.79 86.6813 1162.51 86.6813C1161.88 86.6813 1161.4 86.9279 1161.05 87.4213C1160.72 87.9146 1160.55 88.6279 1160.55 89.5613V89.8813H1163.43V90.9613H1160.55V100.301H1159.19ZM1169.4 100.501C1168.65 100.501 1167.96 100.361 1167.32 100.081C1166.69 99.7879 1166.15 99.3946 1165.68 98.9013C1165.23 98.3946 1164.87 97.8213 1164.62 97.1813C1164.37 96.5279 1164.24 95.8413 1164.24 95.1213C1164.24 94.3746 1164.37 93.6813 1164.62 93.0413C1164.87 92.3879 1165.23 91.8146 1165.7 91.3213C1166.17 90.8146 1166.71 90.4213 1167.34 90.1413C1167.98 89.8479 1168.67 89.7013 1169.42 89.7013C1170.17 89.7013 1170.85 89.8479 1171.48 90.1413C1172.11 90.4213 1172.65 90.8146 1173.12 91.3213C1173.59 91.8146 1173.95 92.3879 1174.2 93.0413C1174.45 93.6813 1174.58 94.3746 1174.58 95.1213C1174.58 95.8413 1174.45 96.5279 1174.2 97.1813C1173.95 97.8213 1173.59 98.3946 1173.12 98.9013C1172.67 99.3946 1172.12 99.7879 1171.48 100.081C1170.85 100.361 1170.16 100.501 1169.4 100.501ZM1165.62 95.1413C1165.62 95.9146 1165.79 96.6213 1166.12 97.2613C1166.47 97.8879 1166.93 98.3879 1167.5 98.7613C1168.07 99.1213 1168.71 99.3013 1169.4 99.3013C1170.09 99.3013 1170.73 99.1146 1171.3 98.7413C1171.87 98.3679 1172.33 97.8613 1172.68 97.2213C1173.03 96.5679 1173.2 95.8613 1173.2 95.1013C1173.2 94.3279 1173.03 93.6213 1172.68 92.9813C1172.33 92.3413 1171.87 91.8346 1171.3 91.4613C1170.73 91.0879 1170.09 90.9013 1169.4 90.9013C1168.71 90.9013 1168.07 91.0946 1167.5 91.4813C1166.94 91.8679 1166.49 92.3813 1166.14 93.0213C1165.79 93.6479 1165.62 94.3546 1165.62 95.1413ZM1176.91 85.7013H1178.27V97.9413C1178.27 98.4613 1178.37 98.8013 1178.55 98.9613C1178.74 99.1213 1178.97 99.2013 1179.23 99.2013C1179.47 99.2013 1179.71 99.1746 1179.95 99.1213C1180.19 99.0679 1180.4 99.0146 1180.57 98.9613L1180.81 100.061C1180.56 100.168 1180.25 100.255 1179.87 100.321C1179.51 100.388 1179.2 100.421 1178.93 100.421C1178.32 100.421 1177.83 100.241 1177.45 99.8813C1177.09 99.5213 1176.91 99.0279 1176.91 98.4013V85.7013ZM1182.3 100.301V89.8813H1183.66V100.301H1182.3ZM1182.3 87.7013V85.7013H1183.66V87.7013H1182.3ZM1191.1 100.501C1190.35 100.501 1189.66 100.361 1189.02 100.081C1188.39 99.7879 1187.84 99.3946 1187.38 98.9013C1186.92 98.3946 1186.57 97.8213 1186.32 97.1813C1186.06 96.5279 1185.94 95.8413 1185.94 95.1213C1185.94 94.3746 1186.06 93.6813 1186.32 93.0413C1186.57 92.3879 1186.93 91.8146 1187.4 91.3213C1187.86 90.8146 1188.41 90.4213 1189.04 90.1413C1189.68 89.8479 1190.37 89.7013 1191.12 89.7013C1191.86 89.7013 1192.55 89.8479 1193.18 90.1413C1193.8 90.4213 1194.35 90.8146 1194.82 91.3213C1195.28 91.8146 1195.64 92.3879 1195.9 93.0413C1196.15 93.6813 1196.28 94.3746 1196.28 95.1213C1196.28 95.8413 1196.15 96.5279 1195.9 97.1813C1195.64 97.8213 1195.28 98.3946 1194.82 98.9013C1194.36 99.3946 1193.82 99.7879 1193.18 100.081C1192.55 100.361 1191.86 100.501 1191.1 100.501ZM1187.32 95.1413C1187.32 95.9146 1187.48 96.6213 1187.82 97.2613C1188.16 97.8879 1188.62 98.3879 1189.2 98.7613C1189.77 99.1213 1190.4 99.3013 1191.1 99.3013C1191.79 99.3013 1192.42 99.1146 1193 98.7413C1193.57 98.3679 1194.03 97.8613 1194.38 97.2213C1194.72 96.5679 1194.9 95.8613 1194.9 95.1013C1194.9 94.3279 1194.72 93.6213 1194.38 92.9813C1194.03 92.3413 1193.57 91.8346 1193 91.4613C1192.42 91.0879 1191.79 90.9013 1191.1 90.9013C1190.4 90.9013 1189.77 91.0946 1189.2 91.4813C1188.64 91.8679 1188.18 92.3813 1187.84 93.0213C1187.49 93.6479 1187.32 94.3546 1187.32 95.1413Z" fill="black"/>
<path d="M289 81L284 78.1132V83.8868L289 81ZM257 81.5H284.5V80.5H257V81.5Z" fill="black"/>
<path d="M542 81L537 78.1132V83.8868L542 81ZM510 81.5H537.5V80.5H510V81.5Z" fill="black"/>
<path d="M795 81L790 78.1132V83.8868L795 81ZM763 81.5H790.5V80.5H763V81.5Z" fill="black"/>
<path d="M1048 81L1043 78.1132V83.8868L1048 81ZM1016 81.5H1043.5V80.5H1016V81.5Z" fill="black"/>
</svg>
