<svg width="512" height="220" viewBox="0 0 512 220" fill="none" xmlns="http://www.w3.org/2000/svg">
<rect x="0.5" y="0.5" width="511" height="219" fill="#F6F3ED" stroke="#E0DBC8"/>
<circle cx="62" cy="46" r="15.5" fill="#FFEFBE" stroke="#F4D685"/>
<path d="M59.008 50.428C59.176 50.4653 59.33 50.498 59.47 50.526C59.6193 50.554 59.7453 50.568 59.848 50.568C60.0253 50.568 60.17 50.5213 60.282 50.428C60.4033 50.344 60.52 50.1853 60.632 49.952C60.744 49.728 60.8607 49.4107 60.982 49L58.084 41.664H60.03L62.004 47.082L63.74 41.664H65.532L62.452 50.456C62.34 50.7827 62.1673 51.0767 61.934 51.338C61.71 51.6087 61.4253 51.8187 61.08 51.968C60.744 52.1267 60.366 52.206 59.946 52.206C59.7967 52.206 59.6473 52.192 59.498 52.164C59.3487 52.1453 59.1853 52.108 59.008 52.052V50.428Z" fill="black"/>
<circle cx="62" cy="110" r="15.5" fill="#F8C9C8" stroke="#E99B9E"/>
<path d="M65.672 114H63.796V109.884C63.796 109.315 63.684 108.89 63.46 108.61C63.2453 108.33 62.9467 108.19 62.564 108.19C62.34 108.19 62.102 108.255 61.85 108.386C61.598 108.517 61.3693 108.699 61.164 108.932C60.968 109.156 60.8233 109.417 60.73 109.716V114H58.854V103.78H60.73V108.022C61.0007 107.555 61.3693 107.191 61.836 106.93C62.3027 106.669 62.8113 106.538 63.362 106.538C63.838 106.538 64.2253 106.622 64.524 106.79C64.8227 106.949 65.056 107.168 65.224 107.448C65.392 107.719 65.5087 108.027 65.574 108.372C65.6393 108.708 65.672 109.058 65.672 109.422V114Z" fill="black"/>
<circle cx="62" cy="174" r="15.5" fill="#C2E5F9" stroke="#94C5E8"/>
<path d="M60.058 170.664L61.598 172.96L61.71 173.212L61.85 172.96L63.376 170.664H65.35L62.802 174.318L65.392 178H63.418L61.836 175.718L61.71 175.48L61.598 175.718L60.03 178H58.056L60.646 174.36L58.098 170.664H60.058Z" fill="black"/>
<path d="M62 66L59.1132 71L64.8868 71L62 66ZM62.5 90L62.5 70.5L61.5 70.5L61.5 90L62.5 90Z" fill="#414D61"/>
<path d="M138 62L135.113 67L140.887 67L138 62ZM138.5 94L138.5 66.5L137.5 66.5L137.5 94L138.5 94Z" fill="#414D61"/>
<path d="M190 109L185 106.113V111.887L190 109ZM158 109.5H185.5V108.5H158V109.5Z" fill="#414D61"/>
<path d="M262 109L257 106.113V111.887L262 109ZM230 109.5H257.5V108.5H230V109.5Z" fill="#414D61"/>
<path d="M334 109L329 106.113V111.887L334 109ZM302 109.5H329.5V108.5H302V109.5Z" fill="#414D61"/>
<path d="M406 109L401 106.113V111.887L406 109ZM374 109.5H401.5V108.5H374V109.5Z" fill="#414D61"/>
<path d="M458 109L453 106.113V111.887L458 109ZM442 109.5H453.5V108.5H442V109.5Z" fill="#414D61"/>
<path d="M124 109L119 106.113V111.887L124 109ZM108 109.5H119.5V108.5H108V109.5Z" fill="#414D61"/>
<path d="M460 109H476" stroke="#414D61" stroke-dasharray="2 2"/>
<path d="M90 109H106" stroke="#414D61" stroke-dasharray="2 2"/>
<path d="M282 62L279.113 67L284.887 67L282 62ZM282.5 94L282.5 66.5L281.5 66.5L281.5 94L282.5 94Z" fill="#414D61"/>
<path d="M138 126L135.113 131L140.887 131L138 126ZM138.5 158L138.5 130.5L137.5 130.5L137.5 158L138.5 158Z" fill="#414D61"/>
<path d="M282 126L279.113 131L284.887 131L282 126ZM282.5 158L282.5 130.5L281.5 130.5L281.5 158L282.5 158Z" fill="#414D61"/>
<path d="M210 62L207.113 67L212.887 67L210 62ZM210.5 94L210.5 66.5L209.5 66.5L209.5 94L210.5 94Z" fill="#414D61"/>
<path d="M354 62L351.113 67L356.887 67L354 62ZM354.5 94L354.5 66.5L353.5 66.5L353.5 94L354.5 94Z" fill="#414D61"/>
<path d="M210 126L207.113 131L212.887 131L210 126ZM210.5 158L210.5 130.5L209.5 130.5L209.5 158L210.5 158Z" fill="#414D61"/>
<path d="M354 126L351.113 131L356.887 131L354 126ZM354.5 158L354.5 130.5L353.5 130.5L353.5 158L354.5 158Z" fill="#414D61"/>
<path d="M426 62L423.113 67L428.887 67L426 62ZM426.5 94L426.5 66.5L425.5 66.5L425.5 94L426.5 94Z" fill="#414D61"/>
<path d="M426 126L423.113 131L428.887 131L426 126ZM426.5 158L426.5 130.5L425.5 130.5L425.5 158L426.5 158Z" fill="#414D61"/>
<path d="M62 130L59.1132 135L64.8868 135L62 130ZM62.5 154L62.5 134.5L61.5 134.5L61.5 154L62.5 154Z" fill="#414D61"/>
<path d="M87.5 110.5V111H88V110.5H87.5ZM87.5 84.5H88V84H87.5V84.5ZM36 84.5V84H35.5V84.5H36ZM36 110.5H35.5V111H36V110.5ZM42 110.5L37 107.613V113.387L42 110.5ZM81 111H87.5V110H81V111ZM88 110.5V84.5H87V110.5H88ZM87.5 84H36V85H87.5V84ZM35.5 84.5V110.5H36.5V84.5H35.5ZM36 111H37.5V110H36V111Z" fill="#8F9AAA"/>
<circle cx="138" cy="46" r="11.5" fill="#FFEFBE" stroke="#F4D685"/>
<path d="M128.934 49.28C129.008 49.2853 129.08 49.288 129.15 49.288C129.219 49.2933 129.27 49.2907 129.302 49.28C129.366 49.2693 129.427 49.232 129.486 49.168C129.544 49.104 129.614 48.9813 129.694 48.8C129.774 48.6187 129.886 48.352 130.03 48L128.214 43.832H128.79L130.318 47.44L131.726 43.832H132.27L130.11 49.208C130.072 49.3093 130.016 49.4027 129.942 49.488C129.867 49.5787 129.774 49.648 129.662 49.696C129.555 49.7493 129.422 49.7787 129.262 49.784C129.214 49.7893 129.163 49.7893 129.11 49.784C129.062 49.784 129.003 49.7787 128.934 49.768V49.28ZM132.782 45.232C132.782 44.688 132.891 44.16 133.11 43.648C133.328 43.1307 133.592 42.6107 133.902 42.088L134.318 42.288C134.211 42.448 134.096 42.6453 133.974 42.88C133.856 43.1147 133.744 43.368 133.638 43.64C133.536 43.9067 133.454 44.1787 133.39 44.456C133.326 44.7333 133.294 45 133.294 45.256C133.294 45.672 133.384 46.1253 133.566 46.616C133.747 47.1067 133.995 47.5947 134.31 48.08L133.902 48.296C133.678 47.96 133.48 47.6213 133.31 47.28C133.144 46.9387 133.014 46.5973 132.918 46.256C132.827 45.9093 132.782 45.568 132.782 45.232ZM137.178 47.8C137.135 47.816 137.069 47.8453 136.978 47.888C136.887 47.9307 136.778 47.968 136.65 48C136.522 48.032 136.383 48.048 136.234 48.048C136.079 48.048 135.933 48.0187 135.794 47.96C135.661 47.9013 135.554 47.8133 135.474 47.696C135.394 47.5733 135.354 47.424 135.354 47.248V44.264H134.778V43.832H135.354V42.424H135.898V43.832H136.858V44.264H135.898V47.096C135.909 47.2453 135.962 47.3573 136.058 47.432C136.159 47.5067 136.274 47.544 136.402 47.544C136.551 47.544 136.687 47.52 136.81 47.472C136.933 47.4187 137.007 47.3813 137.034 47.36L137.178 47.8ZM137.762 46.072V45.568H140.098V46.072H137.762ZM140.946 48C140.946 47.8187 140.962 47.6373 140.994 47.456C141.026 47.2693 141.087 47.0853 141.178 46.904C141.268 46.7227 141.402 46.5493 141.578 46.384C141.754 46.2133 141.986 46.0533 142.274 45.904C142.428 45.824 142.588 45.7467 142.754 45.672C142.919 45.592 143.074 45.5067 143.218 45.416C143.367 45.32 143.484 45.2133 143.57 45.096C143.66 44.9733 143.706 44.8293 143.706 44.664C143.706 44.5307 143.666 44.4 143.586 44.272C143.511 44.144 143.394 44.04 143.234 43.96C143.079 43.88 142.884 43.84 142.65 43.84C142.479 43.84 142.324 43.864 142.186 43.912C142.047 43.96 141.924 44.0213 141.818 44.096C141.711 44.1653 141.62 44.2373 141.546 44.312C141.471 44.3813 141.41 44.44 141.362 44.488L141.018 44.112C141.044 44.08 141.103 44.024 141.194 43.944C141.29 43.8587 141.41 43.7707 141.554 43.68C141.703 43.5893 141.876 43.512 142.074 43.448C142.276 43.384 142.498 43.352 142.738 43.352C143.063 43.352 143.34 43.4107 143.57 43.528C143.804 43.64 143.983 43.792 144.106 43.984C144.228 44.176 144.29 44.384 144.29 44.608C144.29 44.8267 144.242 45.016 144.146 45.176C144.055 45.3307 143.935 45.4667 143.786 45.584C143.642 45.696 143.49 45.7947 143.33 45.88C143.175 45.96 143.034 46.0293 142.906 46.088C142.655 46.2053 142.444 46.3227 142.274 46.44C142.103 46.5573 141.967 46.6773 141.866 46.8C141.764 46.9173 141.684 47.0347 141.626 47.152C141.572 47.264 141.535 47.3813 141.514 47.504H144.378V48H140.946ZM146.558 45.232C146.558 45.568 146.512 45.9093 146.422 46.256C146.331 46.5973 146.2 46.9387 146.03 47.28C145.859 47.6213 145.662 47.96 145.438 48.296L145.038 48.08C145.352 47.5947 145.6 47.1067 145.782 46.616C145.963 46.1253 146.054 45.672 146.054 45.256C146.054 45 146.022 44.7333 145.958 44.456C145.894 44.1787 145.808 43.9067 145.702 43.64C145.595 43.368 145.483 43.1147 145.366 42.88C145.248 42.6453 145.134 42.448 145.022 42.288L145.446 42.088C145.755 42.6107 146.016 43.1307 146.23 43.648C146.448 44.16 146.558 44.688 146.558 45.232Z" fill="black"/>
<path d="M56.7689 75.32H57.2409L59.6009 81H59.0089L58.2729 79.224H55.7209L54.9929 81H54.3929L56.7689 75.32ZM58.1449 78.784L57.0009 75.976L55.8409 78.784H58.1449Z" fill="black"/>
<path d="M142.769 75.32H143.241L145.601 81H145.009L144.273 79.224H141.721L140.993 81H140.393L142.769 75.32ZM144.145 78.784L143.001 75.976L141.841 78.784H144.145Z" fill="black"/>
<path d="M111.594 104.12C111.594 103.773 111.652 103.435 111.77 103.104C111.892 102.768 112.068 102.464 112.298 102.192C112.527 101.915 112.81 101.696 113.146 101.536C113.482 101.371 113.863 101.288 114.29 101.288C114.796 101.288 115.228 101.405 115.586 101.64C115.948 101.869 116.215 102.165 116.386 102.528L115.946 102.8C115.823 102.549 115.668 102.352 115.482 102.208C115.295 102.059 115.095 101.952 114.882 101.888C114.674 101.824 114.466 101.792 114.258 101.792C113.916 101.792 113.615 101.861 113.354 102C113.092 102.133 112.871 102.315 112.69 102.544C112.514 102.768 112.38 103.021 112.29 103.304C112.199 103.581 112.154 103.864 112.154 104.152C112.154 104.467 112.207 104.768 112.314 105.056C112.42 105.344 112.57 105.6 112.762 105.824C112.954 106.043 113.178 106.219 113.434 106.352C113.695 106.48 113.978 106.544 114.282 106.544C114.495 106.544 114.714 106.507 114.938 106.432C115.162 106.357 115.37 106.243 115.562 106.088C115.759 105.933 115.916 105.733 116.034 105.488L116.498 105.728C116.38 106.011 116.199 106.251 115.954 106.448C115.708 106.645 115.434 106.795 115.13 106.896C114.831 106.997 114.538 107.048 114.25 107.048C113.86 107.048 113.503 106.965 113.178 106.8C112.852 106.629 112.57 106.405 112.33 106.128C112.095 105.845 111.914 105.531 111.786 105.184C111.658 104.832 111.594 104.477 111.594 104.12Z" fill="black"/>
<path d="M177.594 104.12C177.594 103.773 177.652 103.435 177.77 103.104C177.892 102.768 178.068 102.464 178.298 102.192C178.527 101.915 178.81 101.696 179.146 101.536C179.482 101.371 179.863 101.288 180.29 101.288C180.796 101.288 181.228 101.405 181.586 101.64C181.948 101.869 182.215 102.165 182.386 102.528L181.946 102.8C181.823 102.549 181.668 102.352 181.482 102.208C181.295 102.059 181.095 101.952 180.882 101.888C180.674 101.824 180.466 101.792 180.258 101.792C179.916 101.792 179.615 101.861 179.354 102C179.092 102.133 178.871 102.315 178.69 102.544C178.514 102.768 178.38 103.021 178.29 103.304C178.199 103.581 178.154 103.864 178.154 104.152C178.154 104.467 178.207 104.768 178.314 105.056C178.42 105.344 178.57 105.6 178.762 105.824C178.954 106.043 179.178 106.219 179.434 106.352C179.695 106.48 179.978 106.544 180.282 106.544C180.495 106.544 180.714 106.507 180.938 106.432C181.162 106.357 181.37 106.243 181.562 106.088C181.759 105.933 181.916 105.733 182.034 105.488L182.498 105.728C182.38 106.011 182.199 106.251 181.954 106.448C181.708 106.645 181.434 106.795 181.13 106.896C180.831 106.997 180.538 107.048 180.25 107.048C179.86 107.048 179.503 106.965 179.178 106.8C178.852 106.629 178.57 106.405 178.33 106.128C178.095 105.845 177.914 105.531 177.786 105.184C177.658 104.832 177.594 104.477 177.594 104.12Z" fill="black"/>
<path d="M249.594 104.12C249.594 103.773 249.652 103.435 249.77 103.104C249.892 102.768 250.068 102.464 250.298 102.192C250.527 101.915 250.81 101.696 251.146 101.536C251.482 101.371 251.863 101.288 252.29 101.288C252.796 101.288 253.228 101.405 253.586 101.64C253.948 101.869 254.215 102.165 254.386 102.528L253.946 102.8C253.823 102.549 253.668 102.352 253.482 102.208C253.295 102.059 253.095 101.952 252.882 101.888C252.674 101.824 252.466 101.792 252.258 101.792C251.916 101.792 251.615 101.861 251.354 102C251.092 102.133 250.871 102.315 250.69 102.544C250.514 102.768 250.38 103.021 250.29 103.304C250.199 103.581 250.154 103.864 250.154 104.152C250.154 104.467 250.207 104.768 250.314 105.056C250.42 105.344 250.57 105.6 250.762 105.824C250.954 106.043 251.178 106.219 251.434 106.352C251.695 106.48 251.978 106.544 252.282 106.544C252.495 106.544 252.714 106.507 252.938 106.432C253.162 106.357 253.37 106.243 253.562 106.088C253.759 105.933 253.916 105.733 254.034 105.488L254.498 105.728C254.38 106.011 254.199 106.251 253.954 106.448C253.708 106.645 253.434 106.795 253.13 106.896C252.831 106.997 252.538 107.048 252.25 107.048C251.86 107.048 251.503 106.965 251.178 106.8C250.852 106.629 250.57 106.405 250.33 106.128C250.095 105.845 249.914 105.531 249.786 105.184C249.658 104.832 249.594 104.477 249.594 104.12Z" fill="black"/>
<path d="M321.594 104.12C321.594 103.773 321.652 103.435 321.77 103.104C321.892 102.768 322.068 102.464 322.298 102.192C322.527 101.915 322.81 101.696 323.146 101.536C323.482 101.371 323.863 101.288 324.29 101.288C324.796 101.288 325.228 101.405 325.586 101.64C325.948 101.869 326.215 102.165 326.386 102.528L325.946 102.8C325.823 102.549 325.668 102.352 325.482 102.208C325.295 102.059 325.095 101.952 324.882 101.888C324.674 101.824 324.466 101.792 324.258 101.792C323.916 101.792 323.615 101.861 323.354 102C323.092 102.133 322.871 102.315 322.69 102.544C322.514 102.768 322.38 103.021 322.29 103.304C322.199 103.581 322.154 103.864 322.154 104.152C322.154 104.467 322.207 104.768 322.314 105.056C322.42 105.344 322.57 105.6 322.762 105.824C322.954 106.043 323.178 106.219 323.434 106.352C323.695 106.48 323.978 106.544 324.282 106.544C324.495 106.544 324.714 106.507 324.938 106.432C325.162 106.357 325.37 106.243 325.562 106.088C325.759 105.933 325.916 105.733 326.034 105.488L326.498 105.728C326.38 106.011 326.199 106.251 325.954 106.448C325.708 106.645 325.434 106.795 325.13 106.896C324.831 106.997 324.538 107.048 324.25 107.048C323.86 107.048 323.503 106.965 323.178 106.8C322.852 106.629 322.57 106.405 322.33 106.128C322.095 105.845 321.914 105.531 321.786 105.184C321.658 104.832 321.594 104.477 321.594 104.12Z" fill="black"/>
<path d="M393.594 104.12C393.594 103.773 393.652 103.435 393.77 103.104C393.892 102.768 394.068 102.464 394.298 102.192C394.527 101.915 394.81 101.696 395.146 101.536C395.482 101.371 395.863 101.288 396.29 101.288C396.796 101.288 397.228 101.405 397.586 101.64C397.948 101.869 398.215 102.165 398.386 102.528L397.946 102.8C397.823 102.549 397.668 102.352 397.482 102.208C397.295 102.059 397.095 101.952 396.882 101.888C396.674 101.824 396.466 101.792 396.258 101.792C395.916 101.792 395.615 101.861 395.354 102C395.092 102.133 394.871 102.315 394.69 102.544C394.514 102.768 394.38 103.021 394.29 103.304C394.199 103.581 394.154 103.864 394.154 104.152C394.154 104.467 394.207 104.768 394.314 105.056C394.42 105.344 394.57 105.6 394.762 105.824C394.954 106.043 395.178 106.219 395.434 106.352C395.695 106.48 395.978 106.544 396.282 106.544C396.495 106.544 396.714 106.507 396.938 106.432C397.162 106.357 397.37 106.243 397.562 106.088C397.759 105.933 397.916 105.733 398.034 105.488L398.498 105.728C398.38 106.011 398.199 106.251 397.954 106.448C397.708 106.645 397.434 106.795 397.13 106.896C396.831 106.997 396.538 107.048 396.25 107.048C395.86 107.048 395.503 106.965 395.178 106.8C394.852 106.629 394.57 106.405 394.33 106.128C394.095 105.845 393.914 105.531 393.786 105.184C393.658 104.832 393.594 104.477 393.594 104.12Z" fill="black"/>
<path d="M445.594 104.12C445.594 103.773 445.652 103.435 445.77 103.104C445.892 102.768 446.068 102.464 446.298 102.192C446.527 101.915 446.81 101.696 447.146 101.536C447.482 101.371 447.863 101.288 448.29 101.288C448.796 101.288 449.228 101.405 449.586 101.64C449.948 101.869 450.215 102.165 450.386 102.528L449.946 102.8C449.823 102.549 449.668 102.352 449.482 102.208C449.295 102.059 449.095 101.952 448.882 101.888C448.674 101.824 448.466 101.792 448.258 101.792C447.916 101.792 447.615 101.861 447.354 102C447.092 102.133 446.871 102.315 446.69 102.544C446.514 102.768 446.38 103.021 446.29 103.304C446.199 103.581 446.154 103.864 446.154 104.152C446.154 104.467 446.207 104.768 446.314 105.056C446.42 105.344 446.57 105.6 446.762 105.824C446.954 106.043 447.178 106.219 447.434 106.352C447.695 106.48 447.978 106.544 448.282 106.544C448.495 106.544 448.714 106.507 448.938 106.432C449.162 106.357 449.37 106.243 449.562 106.088C449.759 105.933 449.916 105.733 450.034 105.488L450.498 105.728C450.38 106.011 450.199 106.251 449.954 106.448C449.708 106.645 449.434 106.795 449.13 106.896C448.831 106.997 448.538 107.048 448.25 107.048C447.86 107.048 447.503 106.965 447.178 106.8C446.852 106.629 446.57 106.405 446.33 106.128C446.095 105.845 445.914 105.531 445.786 105.184C445.658 104.832 445.594 104.477 445.594 104.12Z" fill="black"/>
<path d="M214.769 75.32H215.241L217.601 81H217.009L216.273 79.224H213.721L212.993 81H212.393L214.769 75.32ZM216.145 78.784L215.001 75.976L213.841 78.784H216.145Z" fill="black"/>
<path d="M286.769 75.32H287.241L289.601 81H289.009L288.273 79.224H285.721L284.993 81H284.393L286.769 75.32ZM288.145 78.784L287.001 75.976L285.841 78.784H288.145Z" fill="black"/>
<path d="M358.769 75.32H359.241L361.601 81H361.009L360.273 79.224H357.721L356.993 81H356.393L358.769 75.32ZM360.145 78.784L359.001 75.976L357.841 78.784H360.145Z" fill="black"/>
<path d="M430.769 75.32H431.241L433.601 81H433.009L432.273 79.224H429.721L428.993 81H428.393L430.769 75.32ZM432.145 78.784L431.001 75.976L429.841 78.784H432.145Z" fill="black"/>
<path d="M145.32 145.536C145.32 145.819 145.248 146.072 145.104 146.296C144.96 146.515 144.765 146.688 144.52 146.816C144.28 146.939 144.016 147 143.728 147H141.048V141.32H143.784C144.051 141.32 144.28 141.392 144.472 141.536C144.669 141.675 144.819 141.856 144.92 142.08C145.027 142.299 145.08 142.528 145.08 142.768C145.08 143.051 145.008 143.312 144.864 143.552C144.72 143.792 144.52 143.971 144.264 144.088C144.589 144.184 144.845 144.363 145.032 144.624C145.224 144.885 145.32 145.189 145.32 145.536ZM144.76 145.44C144.76 145.248 144.717 145.072 144.632 144.912C144.547 144.747 144.429 144.613 144.28 144.512C144.136 144.411 143.971 144.36 143.784 144.36H141.608V146.512H143.728C143.92 146.512 144.093 146.461 144.248 146.36C144.403 146.259 144.525 146.128 144.616 145.968C144.712 145.803 144.76 145.627 144.76 145.44ZM141.608 141.808V143.904H143.56C143.747 143.904 143.912 143.856 144.056 143.76C144.2 143.659 144.315 143.528 144.4 143.368C144.485 143.208 144.528 143.037 144.528 142.856C144.528 142.664 144.488 142.491 144.408 142.336C144.328 142.176 144.219 142.048 144.08 141.952C143.941 141.856 143.784 141.808 143.608 141.808H141.608Z" fill="black"/>
<path d="M217.32 145.536C217.32 145.819 217.248 146.072 217.104 146.296C216.96 146.515 216.765 146.688 216.52 146.816C216.28 146.939 216.016 147 215.728 147H213.048V141.32H215.784C216.051 141.32 216.28 141.392 216.472 141.536C216.669 141.675 216.819 141.856 216.92 142.08C217.027 142.299 217.08 142.528 217.08 142.768C217.08 143.051 217.008 143.312 216.864 143.552C216.72 143.792 216.52 143.971 216.264 144.088C216.589 144.184 216.845 144.363 217.032 144.624C217.224 144.885 217.32 145.189 217.32 145.536ZM216.76 145.44C216.76 145.248 216.717 145.072 216.632 144.912C216.547 144.747 216.429 144.613 216.28 144.512C216.136 144.411 215.971 144.36 215.784 144.36H213.608V146.512H215.728C215.92 146.512 216.093 146.461 216.248 146.36C216.403 146.259 216.525 146.128 216.616 145.968C216.712 145.803 216.76 145.627 216.76 145.44ZM213.608 141.808V143.904H215.56C215.747 143.904 215.912 143.856 216.056 143.76C216.2 143.659 216.315 143.528 216.4 143.368C216.485 143.208 216.528 143.037 216.528 142.856C216.528 142.664 216.488 142.491 216.408 142.336C216.328 142.176 216.219 142.048 216.08 141.952C215.941 141.856 215.784 141.808 215.608 141.808H213.608Z" fill="black"/>
<path d="M289.32 145.536C289.32 145.819 289.248 146.072 289.104 146.296C288.96 146.515 288.765 146.688 288.52 146.816C288.28 146.939 288.016 147 287.728 147H285.048V141.32H287.784C288.051 141.32 288.28 141.392 288.472 141.536C288.669 141.675 288.819 141.856 288.92 142.08C289.027 142.299 289.08 142.528 289.08 142.768C289.08 143.051 289.008 143.312 288.864 143.552C288.72 143.792 288.52 143.971 288.264 144.088C288.589 144.184 288.845 144.363 289.032 144.624C289.224 144.885 289.32 145.189 289.32 145.536ZM288.76 145.44C288.76 145.248 288.717 145.072 288.632 144.912C288.547 144.747 288.429 144.613 288.28 144.512C288.136 144.411 287.971 144.36 287.784 144.36H285.608V146.512H287.728C287.92 146.512 288.093 146.461 288.248 146.36C288.403 146.259 288.525 146.128 288.616 145.968C288.712 145.803 288.76 145.627 288.76 145.44ZM285.608 141.808V143.904H287.56C287.747 143.904 287.912 143.856 288.056 143.76C288.2 143.659 288.315 143.528 288.4 143.368C288.485 143.208 288.528 143.037 288.528 142.856C288.528 142.664 288.488 142.491 288.408 142.336C288.328 142.176 288.219 142.048 288.08 141.952C287.941 141.856 287.784 141.808 287.608 141.808H285.608Z" fill="black"/>
<path d="M361.32 145.536C361.32 145.819 361.248 146.072 361.104 146.296C360.96 146.515 360.765 146.688 360.52 146.816C360.28 146.939 360.016 147 359.728 147H357.048V141.32H359.784C360.051 141.32 360.28 141.392 360.472 141.536C360.669 141.675 360.819 141.856 360.92 142.08C361.027 142.299 361.08 142.528 361.08 142.768C361.08 143.051 361.008 143.312 360.864 143.552C360.72 143.792 360.52 143.971 360.264 144.088C360.589 144.184 360.845 144.363 361.032 144.624C361.224 144.885 361.32 145.189 361.32 145.536ZM360.76 145.44C360.76 145.248 360.717 145.072 360.632 144.912C360.547 144.747 360.429 144.613 360.28 144.512C360.136 144.411 359.971 144.36 359.784 144.36H357.608V146.512H359.728C359.92 146.512 360.093 146.461 360.248 146.36C360.403 146.259 360.525 146.128 360.616 145.968C360.712 145.803 360.76 145.627 360.76 145.44ZM357.608 141.808V143.904H359.56C359.747 143.904 359.912 143.856 360.056 143.76C360.2 143.659 360.315 143.528 360.4 143.368C360.485 143.208 360.528 143.037 360.528 142.856C360.528 142.664 360.488 142.491 360.408 142.336C360.328 142.176 360.219 142.048 360.08 141.952C359.941 141.856 359.784 141.808 359.608 141.808H357.608Z" fill="black"/>
<path d="M433.32 145.536C433.32 145.819 433.248 146.072 433.104 146.296C432.96 146.515 432.765 146.688 432.52 146.816C432.28 146.939 432.016 147 431.728 147H429.048V141.32H431.784C432.051 141.32 432.28 141.392 432.472 141.536C432.669 141.675 432.819 141.856 432.92 142.08C433.027 142.299 433.08 142.528 433.08 142.768C433.08 143.051 433.008 143.312 432.864 143.552C432.72 143.792 432.52 143.971 432.264 144.088C432.589 144.184 432.845 144.363 433.032 144.624C433.224 144.885 433.32 145.189 433.32 145.536ZM432.76 145.44C432.76 145.248 432.717 145.072 432.632 144.912C432.547 144.747 432.429 144.613 432.28 144.512C432.136 144.411 431.971 144.36 431.784 144.36H429.608V146.512H431.728C431.92 146.512 432.093 146.461 432.248 146.36C432.403 146.259 432.525 146.128 432.616 145.968C432.712 145.803 432.76 145.627 432.76 145.44ZM429.608 141.808V143.904H431.56C431.747 143.904 431.912 143.856 432.056 143.76C432.2 143.659 432.315 143.528 432.4 143.368C432.485 143.208 432.528 143.037 432.528 142.856C432.528 142.664 432.488 142.491 432.408 142.336C432.328 142.176 432.219 142.048 432.08 141.952C431.941 141.856 431.784 141.808 431.608 141.808H429.608Z" fill="black"/>
<path d="M59.3199 145.536C59.3199 145.819 59.2479 146.072 59.1039 146.296C58.9599 146.515 58.7653 146.688 58.5199 146.816C58.2799 146.939 58.0159 147 57.7279 147H55.0479V141.32H57.7839C58.0506 141.32 58.2799 141.392 58.4719 141.536C58.6693 141.675 58.8186 141.856 58.9199 142.08C59.0266 142.299 59.0799 142.528 59.0799 142.768C59.0799 143.051 59.0079 143.312 58.8639 143.552C58.7199 143.792 58.5199 143.971 58.2639 144.088C58.5893 144.184 58.8453 144.363 59.0319 144.624C59.2239 144.885 59.3199 145.189 59.3199 145.536ZM58.7599 145.44C58.7599 145.248 58.7173 145.072 58.6319 144.912C58.5466 144.747 58.4293 144.613 58.2799 144.512C58.1359 144.411 57.9706 144.36 57.7839 144.36H55.6079V146.512H57.7279C57.9199 146.512 58.0933 146.461 58.2479 146.36C58.4026 146.259 58.5253 146.128 58.6159 145.968C58.7119 145.803 58.7599 145.627 58.7599 145.44ZM55.6079 141.808V143.904H57.5599C57.7466 143.904 57.9119 143.856 58.0559 143.76C58.1999 143.659 58.3146 143.528 58.3999 143.368C58.4853 143.208 58.5279 143.037 58.5279 142.856C58.5279 142.664 58.4879 142.491 58.4079 142.336C58.3279 142.176 58.2186 142.048 58.0799 141.952C57.9413 141.856 57.7839 141.808 57.6079 141.808H55.6079Z" fill="black"/>
<path d="M80.5938 97.12C80.5938 96.7733 80.6525 96.4347 80.7698 96.104C80.8925 95.768 81.0685 95.464 81.2978 95.192C81.5271 94.9147 81.8098 94.696 82.1458 94.536C82.4818 94.3707 82.8631 94.288 83.2898 94.288C83.7965 94.288 84.2285 94.4053 84.5858 94.64C84.9485 94.8693 85.2151 95.1653 85.3858 95.528L84.9458 95.8C84.8231 95.5493 84.6685 95.352 84.4818 95.208C84.2951 95.0587 84.0951 94.952 83.8818 94.888C83.6738 94.824 83.4658 94.792 83.2578 94.792C82.9165 94.792 82.6151 94.8613 82.3538 95C82.0925 95.1333 81.8711 95.3147 81.6898 95.544C81.5138 95.768 81.3805 96.0213 81.2898 96.304C81.1991 96.5813 81.1538 96.864 81.1538 97.152C81.1538 97.4667 81.2071 97.768 81.3138 98.056C81.4205 98.344 81.5698 98.6 81.7618 98.824C81.9538 99.0427 82.1778 99.2187 82.4338 99.352C82.6951 99.48 82.9778 99.544 83.2818 99.544C83.4951 99.544 83.7138 99.5067 83.9378 99.432C84.1618 99.3573 84.3698 99.2427 84.5618 99.088C84.7591 98.9333 84.9165 98.7333 85.0338 98.488L85.4978 98.728C85.3805 99.0107 85.1991 99.2507 84.9538 99.448C84.7085 99.6453 84.4338 99.7947 84.1298 99.896C83.8311 99.9973 83.5378 100.048 83.2498 100.048C82.8605 100.048 82.5031 99.9653 82.1778 99.8C81.8525 99.6293 81.5698 99.4053 81.3298 99.128C81.0951 98.8453 80.9138 98.5307 80.7858 98.184C80.6578 97.832 80.5938 97.4773 80.5938 97.12Z" fill="black"/>
<circle cx="138" cy="110" r="11.5" fill="#F8C9C8" stroke="#E99B9E"/>
<circle cx="138" cy="174" r="11.5" fill="#C2E5F9" stroke="#94C5E8"/>
<path d="M132.534 113H131.99V110.672C131.99 110.203 131.907 109.851 131.742 109.616C131.576 109.376 131.339 109.256 131.03 109.256C130.827 109.256 130.624 109.309 130.422 109.416C130.224 109.517 130.048 109.659 129.894 109.84C129.744 110.016 129.638 110.219 129.574 110.448V113H129.03V107.16H129.574V109.776C129.739 109.467 129.968 109.221 130.262 109.04C130.56 108.853 130.878 108.76 131.214 108.76C131.454 108.76 131.656 108.803 131.822 108.888C131.992 108.973 132.128 109.099 132.23 109.264C132.336 109.424 132.414 109.613 132.462 109.832C132.51 110.045 132.534 110.288 132.534 110.56V113ZM133.446 110.232C133.446 109.688 133.555 109.16 133.774 108.648C133.992 108.131 134.256 107.611 134.566 107.088L134.982 107.288C134.875 107.448 134.76 107.645 134.638 107.88C134.52 108.115 134.408 108.368 134.302 108.64C134.2 108.907 134.118 109.179 134.054 109.456C133.99 109.733 133.958 110 133.958 110.256C133.958 110.672 134.048 111.125 134.23 111.616C134.411 112.107 134.659 112.595 134.974 113.08L134.566 113.296C134.342 112.96 134.144 112.621 133.974 112.28C133.808 111.939 133.678 111.597 133.582 111.256C133.491 110.909 133.446 110.568 133.446 110.232ZM137.842 112.8C137.8 112.816 137.733 112.845 137.642 112.888C137.552 112.931 137.442 112.968 137.314 113C137.186 113.032 137.048 113.048 136.898 113.048C136.744 113.048 136.597 113.019 136.458 112.96C136.325 112.901 136.218 112.813 136.138 112.696C136.058 112.573 136.018 112.424 136.018 112.248V109.264H135.442V108.832H136.018V107.424H136.562V108.832H137.522V109.264H136.562V112.096C136.573 112.245 136.626 112.357 136.722 112.432C136.824 112.507 136.938 112.544 137.066 112.544C137.216 112.544 137.352 112.52 137.474 112.472C137.597 112.419 137.672 112.381 137.698 112.36L137.842 112.8ZM138.426 111.072V110.568H140.762V111.072H138.426ZM141.61 113C141.61 112.819 141.626 112.637 141.658 112.456C141.69 112.269 141.751 112.085 141.842 111.904C141.932 111.723 142.066 111.549 142.242 111.384C142.418 111.213 142.65 111.053 142.938 110.904C143.092 110.824 143.252 110.747 143.418 110.672C143.583 110.592 143.738 110.507 143.882 110.416C144.031 110.32 144.148 110.213 144.234 110.096C144.324 109.973 144.37 109.829 144.37 109.664C144.37 109.531 144.33 109.4 144.25 109.272C144.175 109.144 144.058 109.04 143.898 108.96C143.743 108.88 143.548 108.84 143.314 108.84C143.143 108.84 142.988 108.864 142.85 108.912C142.711 108.96 142.588 109.021 142.482 109.096C142.375 109.165 142.284 109.237 142.21 109.312C142.135 109.381 142.074 109.44 142.026 109.488L141.682 109.112C141.708 109.08 141.767 109.024 141.858 108.944C141.954 108.859 142.074 108.771 142.218 108.68C142.367 108.589 142.54 108.512 142.738 108.448C142.94 108.384 143.162 108.352 143.402 108.352C143.727 108.352 144.004 108.411 144.234 108.528C144.468 108.64 144.647 108.792 144.77 108.984C144.892 109.176 144.954 109.384 144.954 109.608C144.954 109.827 144.906 110.016 144.81 110.176C144.719 110.331 144.599 110.467 144.45 110.584C144.306 110.696 144.154 110.795 143.994 110.88C143.839 110.96 143.698 111.029 143.57 111.088C143.319 111.205 143.108 111.323 142.938 111.44C142.767 111.557 142.631 111.677 142.53 111.8C142.428 111.917 142.348 112.035 142.29 112.152C142.236 112.264 142.199 112.381 142.178 112.504H145.042V113H141.61ZM147.222 110.232C147.222 110.568 147.176 110.909 147.086 111.256C146.995 111.597 146.864 111.939 146.694 112.28C146.523 112.621 146.326 112.96 146.102 113.296L145.702 113.08C146.016 112.595 146.264 112.107 146.446 111.616C146.627 111.125 146.718 110.672 146.718 110.256C146.718 110 146.686 109.733 146.622 109.456C146.558 109.179 146.472 108.907 146.366 108.64C146.259 108.368 146.147 108.115 146.03 107.88C145.912 107.645 145.798 107.448 145.686 107.288L146.11 107.088C146.419 107.611 146.68 108.131 146.894 108.648C147.112 109.16 147.222 109.688 147.222 110.232Z" fill="black"/>
<path d="M129.974 172.832L131.198 174.464L131.262 174.584L131.326 174.464L132.542 172.832H133.158L131.574 174.928L133.158 177H132.542L131.326 175.376L131.262 175.264L131.198 175.376L129.982 177H129.366L130.942 174.928L129.366 172.832H129.974ZM133.629 174.232C133.629 173.688 133.739 173.16 133.957 172.648C134.176 172.131 134.44 171.611 134.749 171.088L135.165 171.288C135.059 171.448 134.944 171.645 134.821 171.88C134.704 172.115 134.592 172.368 134.485 172.64C134.384 172.907 134.301 173.179 134.237 173.456C134.173 173.733 134.141 174 134.141 174.256C134.141 174.672 134.232 175.125 134.413 175.616C134.595 176.107 134.843 176.595 135.157 177.08L134.749 177.296C134.525 176.96 134.328 176.621 134.157 176.28C133.992 175.939 133.861 175.597 133.765 175.256C133.675 174.909 133.629 174.568 133.629 174.232ZM138.026 176.8C137.983 176.816 137.916 176.845 137.826 176.888C137.735 176.931 137.626 176.968 137.498 177C137.37 177.032 137.231 177.048 137.082 177.048C136.927 177.048 136.78 177.019 136.642 176.96C136.508 176.901 136.402 176.813 136.322 176.696C136.242 176.573 136.202 176.424 136.202 176.248V173.264H135.626V172.832H136.202V171.424H136.746V172.832H137.706V173.264H136.746V176.096C136.756 176.245 136.81 176.357 136.906 176.432C137.007 176.507 137.122 176.544 137.25 176.544C137.399 176.544 137.535 176.52 137.658 176.472C137.78 176.419 137.855 176.381 137.882 176.36L138.026 176.8ZM138.61 175.072V174.568H140.946V175.072H138.61ZM141.793 177C141.793 176.819 141.809 176.637 141.841 176.456C141.873 176.269 141.935 176.085 142.025 175.904C142.116 175.723 142.249 175.549 142.425 175.384C142.601 175.213 142.833 175.053 143.121 174.904C143.276 174.824 143.436 174.747 143.601 174.672C143.767 174.592 143.921 174.507 144.065 174.416C144.215 174.32 144.332 174.213 144.417 174.096C144.508 173.973 144.553 173.829 144.553 173.664C144.553 173.531 144.513 173.4 144.433 173.272C144.359 173.144 144.241 173.04 144.081 172.96C143.927 172.88 143.732 172.84 143.497 172.84C143.327 172.84 143.172 172.864 143.033 172.912C142.895 172.96 142.772 173.021 142.665 173.096C142.559 173.165 142.468 173.237 142.393 173.312C142.319 173.381 142.257 173.44 142.209 173.488L141.865 173.112C141.892 173.08 141.951 173.024 142.041 172.944C142.137 172.859 142.257 172.771 142.401 172.68C142.551 172.589 142.724 172.512 142.921 172.448C143.124 172.384 143.345 172.352 143.585 172.352C143.911 172.352 144.188 172.411 144.417 172.528C144.652 172.64 144.831 172.792 144.953 172.984C145.076 173.176 145.137 173.384 145.137 173.608C145.137 173.827 145.089 174.016 144.993 174.176C144.903 174.331 144.783 174.467 144.633 174.584C144.489 174.696 144.337 174.795 144.177 174.88C144.023 174.96 143.881 175.029 143.753 175.088C143.503 175.205 143.292 175.323 143.121 175.44C142.951 175.557 142.815 175.677 142.713 175.8C142.612 175.917 142.532 176.035 142.473 176.152C142.42 176.264 142.383 176.381 142.361 176.504H145.225V177H141.793ZM147.405 174.232C147.405 174.568 147.36 174.909 147.269 175.256C147.179 175.597 147.048 175.939 146.877 176.28C146.707 176.621 146.509 176.96 146.285 177.296L145.885 177.08C146.2 176.595 146.448 176.107 146.629 175.616C146.811 175.125 146.901 174.672 146.901 174.256C146.901 174 146.869 173.733 146.805 173.456C146.741 173.179 146.656 172.907 146.549 172.64C146.443 172.368 146.331 172.115 146.213 171.88C146.096 171.645 145.981 171.448 145.869 171.288L146.293 171.088C146.603 171.611 146.864 172.131 147.077 172.648C147.296 173.16 147.405 173.688 147.405 174.232Z" fill="black"/>
<circle cx="282" cy="46" r="11.5" fill="#FFEFBE" stroke="#F4D685"/>
<path d="M276.188 49.28C276.262 49.2853 276.334 49.288 276.404 49.288C276.473 49.2933 276.524 49.2907 276.556 49.28C276.62 49.2693 276.681 49.232 276.74 49.168C276.798 49.104 276.868 48.9813 276.948 48.8C277.028 48.6187 277.14 48.352 277.284 48L275.468 43.832H276.044L277.572 47.44L278.98 43.832H279.524L277.364 49.208C277.326 49.3093 277.27 49.4027 277.196 49.488C277.121 49.5787 277.028 49.648 276.916 49.696C276.809 49.7493 276.676 49.7787 276.516 49.784C276.468 49.7893 276.417 49.7893 276.364 49.784C276.316 49.784 276.257 49.7787 276.188 49.768V49.28ZM280.036 45.232C280.036 44.688 280.145 44.16 280.364 43.648C280.582 43.1307 280.846 42.6107 281.156 42.088L281.572 42.288C281.465 42.448 281.35 42.6453 281.228 42.88C281.11 43.1147 280.998 43.368 280.892 43.64C280.79 43.9067 280.708 44.1787 280.644 44.456C280.58 44.7333 280.548 45 280.548 45.256C280.548 45.672 280.638 46.1253 280.82 46.616C281.001 47.1067 281.249 47.5947 281.564 48.08L281.156 48.296C280.932 47.96 280.734 47.6213 280.564 47.28C280.398 46.9387 280.268 46.5973 280.172 46.256C280.081 45.9093 280.036 45.568 280.036 45.232ZM284.432 47.8C284.389 47.816 284.323 47.8453 284.232 47.888C284.141 47.9307 284.032 47.968 283.904 48C283.776 48.032 283.637 48.048 283.488 48.048C283.333 48.048 283.187 48.0187 283.048 47.96C282.915 47.9013 282.808 47.8133 282.728 47.696C282.648 47.5733 282.608 47.424 282.608 47.248V44.264H282.032V43.832H282.608V42.424H283.152V43.832H284.112V44.264H283.152V47.096C283.163 47.2453 283.216 47.3573 283.312 47.432C283.413 47.5067 283.528 47.544 283.656 47.544C283.805 47.544 283.941 47.52 284.064 47.472C284.187 47.4187 284.261 47.3813 284.288 47.36L284.432 47.8ZM286.304 45.232C286.304 45.568 286.258 45.9093 286.168 46.256C286.077 46.5973 285.946 46.9387 285.776 47.28C285.605 47.6213 285.408 47.96 285.184 48.296L284.784 48.08C285.098 47.5947 285.346 47.1067 285.528 46.616C285.709 46.1253 285.8 45.672 285.8 45.256C285.8 45 285.768 44.7333 285.704 44.456C285.64 44.1787 285.554 43.9067 285.448 43.64C285.341 43.368 285.229 43.1147 285.112 42.88C284.994 42.6453 284.88 42.448 284.768 42.288L285.192 42.088C285.501 42.6107 285.762 43.1307 285.976 43.648C286.194 44.16 286.304 44.688 286.304 45.232Z" fill="black"/>
<circle cx="282" cy="110" r="11.5" fill="#F8C9C8" stroke="#E99B9E"/>
<circle cx="282" cy="174" r="11.5" fill="#C2E5F9" stroke="#94C5E8"/>
<path d="M280.288 113H279.744V110.672C279.744 110.203 279.661 109.851 279.496 109.616C279.33 109.376 279.093 109.256 278.784 109.256C278.581 109.256 278.378 109.309 278.176 109.416C277.978 109.517 277.802 109.659 277.648 109.84C277.498 110.016 277.392 110.219 277.328 110.448V113H276.784V107.16H277.328V109.776C277.493 109.467 277.722 109.221 278.016 109.04C278.314 108.853 278.632 108.76 278.968 108.76C279.208 108.76 279.41 108.803 279.576 108.888C279.746 108.973 279.882 109.099 279.984 109.264C280.09 109.424 280.168 109.613 280.216 109.832C280.264 110.045 280.288 110.288 280.288 110.56V113ZM281.2 110.232C281.2 109.688 281.309 109.16 281.528 108.648C281.746 108.131 282.01 107.611 282.32 107.088L282.736 107.288C282.629 107.448 282.514 107.645 282.392 107.88C282.274 108.115 282.162 108.368 282.056 108.64C281.954 108.907 281.872 109.179 281.808 109.456C281.744 109.733 281.712 110 281.712 110.256C281.712 110.672 281.802 111.125 281.984 111.616C282.165 112.107 282.413 112.595 282.728 113.08L282.32 113.296C282.096 112.96 281.898 112.621 281.728 112.28C281.562 111.939 281.432 111.597 281.336 111.256C281.245 110.909 281.2 110.568 281.2 110.232ZM285.596 112.8C285.553 112.816 285.487 112.845 285.396 112.888C285.305 112.931 285.196 112.968 285.068 113C284.94 113.032 284.801 113.048 284.652 113.048C284.497 113.048 284.351 113.019 284.212 112.96C284.079 112.901 283.972 112.813 283.892 112.696C283.812 112.573 283.772 112.424 283.772 112.248V109.264H283.196V108.832H283.772V107.424H284.316V108.832H285.276V109.264H284.316V112.096C284.327 112.245 284.38 112.357 284.476 112.432C284.577 112.507 284.692 112.544 284.82 112.544C284.969 112.544 285.105 112.52 285.228 112.472C285.351 112.419 285.425 112.381 285.452 112.36L285.596 112.8ZM287.468 110.232C287.468 110.568 287.422 110.909 287.332 111.256C287.241 111.597 287.11 111.939 286.94 112.28C286.769 112.621 286.572 112.96 286.348 113.296L285.948 113.08C286.262 112.595 286.51 112.107 286.692 111.616C286.873 111.125 286.964 110.672 286.964 110.256C286.964 110 286.932 109.733 286.868 109.456C286.804 109.179 286.718 108.907 286.612 108.64C286.505 108.368 286.393 108.115 286.276 107.88C286.158 107.645 286.044 107.448 285.932 107.288L286.356 107.088C286.665 107.611 286.926 108.131 287.14 108.648C287.358 109.16 287.468 109.688 287.468 110.232Z" fill="black"/>
<path d="M277.728 172.832L278.952 174.464L279.016 174.584L279.08 174.464L280.296 172.832H280.912L279.328 174.928L280.912 177H280.296L279.08 175.376L279.016 175.264L278.952 175.376L277.736 177H277.12L278.696 174.928L277.12 172.832H277.728ZM281.383 174.232C281.383 173.688 281.493 173.16 281.711 172.648C281.93 172.131 282.194 171.611 282.503 171.088L282.919 171.288C282.813 171.448 282.698 171.645 282.575 171.88C282.458 172.115 282.346 172.368 282.239 172.64C282.138 172.907 282.055 173.179 281.991 173.456C281.927 173.733 281.895 174 281.895 174.256C281.895 174.672 281.986 175.125 282.167 175.616C282.349 176.107 282.597 176.595 282.911 177.08L282.503 177.296C282.279 176.96 282.082 176.621 281.911 176.28C281.746 175.939 281.615 175.597 281.519 175.256C281.429 174.909 281.383 174.568 281.383 174.232ZM285.78 176.8C285.737 176.816 285.67 176.845 285.58 176.888C285.489 176.931 285.38 176.968 285.252 177C285.124 177.032 284.985 177.048 284.836 177.048C284.681 177.048 284.534 177.019 284.396 176.96C284.262 176.901 284.156 176.813 284.076 176.696C283.996 176.573 283.956 176.424 283.956 176.248V173.264H283.38V172.832H283.956V171.424H284.5V172.832H285.46V173.264H284.5V176.096C284.51 176.245 284.564 176.357 284.66 176.432C284.761 176.507 284.876 176.544 285.004 176.544C285.153 176.544 285.289 176.52 285.412 176.472C285.534 176.419 285.609 176.381 285.636 176.36L285.78 176.8ZM287.651 174.232C287.651 174.568 287.606 174.909 287.515 175.256C287.425 175.597 287.294 175.939 287.123 176.28C286.953 176.621 286.755 176.96 286.531 177.296L286.131 177.08C286.446 176.595 286.694 176.107 286.875 175.616C287.057 175.125 287.147 174.672 287.147 174.256C287.147 174 287.115 173.733 287.051 173.456C286.987 173.179 286.902 172.907 286.795 172.64C286.689 172.368 286.577 172.115 286.459 171.88C286.342 171.645 286.227 171.448 286.115 171.288L286.539 171.088C286.849 171.611 287.11 172.131 287.323 172.648C287.542 173.16 287.651 173.688 287.651 174.232Z" fill="black"/>
<circle cx="210" cy="46" r="11.5" fill="#FFEFBE" stroke="#F4D685"/>
<path d="M201.324 49.28C201.399 49.2853 201.471 49.288 201.54 49.288C201.61 49.2933 201.66 49.2907 201.692 49.28C201.756 49.2693 201.818 49.232 201.876 49.168C201.935 49.104 202.004 48.9813 202.084 48.8C202.164 48.6187 202.276 48.352 202.42 48L200.604 43.832H201.18L202.708 47.44L204.116 43.832H204.66L202.5 49.208C202.463 49.3093 202.407 49.4027 202.332 49.488C202.258 49.5787 202.164 49.648 202.052 49.696C201.946 49.7493 201.812 49.7787 201.652 49.784C201.604 49.7893 201.554 49.7893 201.5 49.784C201.452 49.784 201.394 49.7787 201.324 49.768V49.28ZM205.172 45.232C205.172 44.688 205.282 44.16 205.5 43.648C205.719 43.1307 205.983 42.6107 206.292 42.088L206.708 42.288C206.602 42.448 206.487 42.6453 206.364 42.88C206.247 43.1147 206.135 43.368 206.028 43.64C205.927 43.9067 205.844 44.1787 205.78 44.456C205.716 44.7333 205.684 45 205.684 45.256C205.684 45.672 205.775 46.1253 205.956 46.616C206.138 47.1067 206.386 47.5947 206.7 48.08L206.292 48.296C206.068 47.96 205.871 47.6213 205.7 47.28C205.535 46.9387 205.404 46.5973 205.308 46.256C205.218 45.9093 205.172 45.568 205.172 45.232ZM209.569 47.8C209.526 47.816 209.459 47.8453 209.369 47.888C209.278 47.9307 209.169 47.968 209.041 48C208.913 48.032 208.774 48.048 208.625 48.048C208.47 48.048 208.323 48.0187 208.185 47.96C208.051 47.9013 207.945 47.8133 207.865 47.696C207.785 47.5733 207.745 47.424 207.745 47.248V44.264H207.169V43.832H207.745V42.424H208.289V43.832H209.249V44.264H208.289V47.096C208.299 47.2453 208.353 47.3573 208.449 47.432C208.55 47.5067 208.665 47.544 208.793 47.544C208.942 47.544 209.078 47.52 209.201 47.472C209.323 47.4187 209.398 47.3813 209.425 47.36L209.569 47.8ZM210.153 46.072V45.568H212.489V46.072H210.153ZM216.201 47.504V48H213.489V47.504H214.625V44.08C214.582 44.144 214.51 44.2133 214.409 44.288C214.308 44.3627 214.19 44.432 214.057 44.496C213.929 44.56 213.801 44.6133 213.673 44.656C213.545 44.6987 213.428 44.72 213.321 44.72V44.192C213.444 44.192 213.577 44.1573 213.721 44.088C213.865 44.0187 214.004 43.9387 214.137 43.848C214.27 43.7573 214.382 43.672 214.473 43.592C214.564 43.512 214.614 43.4587 214.625 43.432H215.185V47.504H216.201ZM218.167 45.232C218.167 45.568 218.122 45.9093 218.031 46.256C217.94 46.5973 217.81 46.9387 217.639 47.28C217.468 47.6213 217.271 47.96 217.047 48.296L216.647 48.08C216.962 47.5947 217.21 47.1067 217.391 46.616C217.572 46.1253 217.663 45.672 217.663 45.256C217.663 45 217.631 44.7333 217.567 44.456C217.503 44.1787 217.418 43.9067 217.311 43.64C217.204 43.368 217.092 43.1147 216.975 42.88C216.858 42.6453 216.743 42.448 216.631 42.288L217.055 42.088C217.364 42.6107 217.626 43.1307 217.839 43.648C218.058 44.16 218.167 44.688 218.167 45.232Z" fill="black"/>
<circle cx="210" cy="110" r="11.5" fill="#F8C9C8" stroke="#E99B9E"/>
<circle cx="210" cy="174" r="11.5" fill="#C2E5F9" stroke="#94C5E8"/>
<path d="M205.424 113H204.88V110.672C204.88 110.203 204.798 109.851 204.632 109.616C204.467 109.376 204.23 109.256 203.92 109.256C203.718 109.256 203.515 109.309 203.312 109.416C203.115 109.517 202.939 109.659 202.784 109.84C202.635 110.016 202.528 110.219 202.464 110.448V113H201.92V107.16H202.464V109.776C202.63 109.467 202.859 109.221 203.152 109.04C203.451 108.853 203.768 108.76 204.104 108.76C204.344 108.76 204.547 108.803 204.712 108.888C204.883 108.973 205.019 109.099 205.12 109.264C205.227 109.424 205.304 109.613 205.352 109.832C205.4 110.045 205.424 110.288 205.424 110.56V113ZM206.336 110.232C206.336 109.688 206.446 109.16 206.664 108.648C206.883 108.131 207.147 107.611 207.456 107.088L207.872 107.288C207.766 107.448 207.651 107.645 207.528 107.88C207.411 108.115 207.299 108.368 207.192 108.64C207.091 108.907 207.008 109.179 206.944 109.456C206.88 109.733 206.848 110 206.848 110.256C206.848 110.672 206.939 111.125 207.12 111.616C207.302 112.107 207.55 112.595 207.864 113.08L207.456 113.296C207.232 112.96 207.035 112.621 206.864 112.28C206.699 111.939 206.568 111.597 206.472 111.256C206.382 110.909 206.336 110.568 206.336 110.232ZM210.733 112.8C210.69 112.816 210.623 112.845 210.533 112.888C210.442 112.931 210.333 112.968 210.205 113C210.077 113.032 209.938 113.048 209.789 113.048C209.634 113.048 209.487 113.019 209.349 112.96C209.215 112.901 209.109 112.813 209.029 112.696C208.949 112.573 208.909 112.424 208.909 112.248V109.264H208.333V108.832H208.909V107.424H209.453V108.832H210.413V109.264H209.453V112.096C209.463 112.245 209.517 112.357 209.613 112.432C209.714 112.507 209.829 112.544 209.957 112.544C210.106 112.544 210.242 112.52 210.365 112.472C210.487 112.419 210.562 112.381 210.589 112.36L210.733 112.8ZM211.317 111.072V110.568H213.653V111.072H211.317ZM217.365 112.504V113H214.653V112.504H215.789V109.08C215.747 109.144 215.675 109.213 215.573 109.288C215.472 109.363 215.355 109.432 215.221 109.496C215.093 109.56 214.965 109.613 214.837 109.656C214.709 109.699 214.592 109.72 214.485 109.72V109.192C214.608 109.192 214.741 109.157 214.885 109.088C215.029 109.019 215.168 108.939 215.301 108.848C215.435 108.757 215.547 108.672 215.637 108.592C215.728 108.512 215.779 108.459 215.789 108.432H216.349V112.504H217.365ZM219.331 110.232C219.331 110.568 219.286 110.909 219.195 111.256C219.104 111.597 218.974 111.939 218.803 112.28C218.632 112.621 218.435 112.96 218.211 113.296L217.811 113.08C218.126 112.595 218.374 112.107 218.555 111.616C218.736 111.125 218.827 110.672 218.827 110.256C218.827 110 218.795 109.733 218.731 109.456C218.667 109.179 218.582 108.907 218.475 108.64C218.368 108.368 218.256 108.115 218.139 107.88C218.022 107.645 217.907 107.448 217.795 107.288L218.219 107.088C218.528 107.611 218.79 108.131 219.003 108.648C219.222 109.16 219.331 109.688 219.331 110.232Z" fill="black"/>
<path d="M201.865 172.832L203.089 174.464L203.153 174.584L203.217 174.464L204.433 172.832H205.049L203.465 174.928L205.049 177H204.433L203.217 175.376L203.153 175.264L203.089 175.376L201.873 177H201.257L202.833 174.928L201.257 172.832H201.865ZM205.52 174.232C205.52 173.688 205.629 173.16 205.848 172.648C206.067 172.131 206.331 171.611 206.64 171.088L207.056 171.288C206.949 171.448 206.835 171.645 206.712 171.88C206.595 172.115 206.483 172.368 206.376 172.64C206.275 172.907 206.192 173.179 206.128 173.456C206.064 173.733 206.032 174 206.032 174.256C206.032 174.672 206.123 175.125 206.304 175.616C206.485 176.107 206.733 176.595 207.048 177.08L206.64 177.296C206.416 176.96 206.219 176.621 206.048 176.28C205.883 175.939 205.752 175.597 205.656 175.256C205.565 174.909 205.52 174.568 205.52 174.232ZM209.916 176.8C209.874 176.816 209.807 176.845 209.716 176.888C209.626 176.931 209.516 176.968 209.388 177C209.26 177.032 209.122 177.048 208.972 177.048C208.818 177.048 208.671 177.019 208.532 176.96C208.399 176.901 208.292 176.813 208.212 176.696C208.132 176.573 208.092 176.424 208.092 176.248V173.264H207.516V172.832H208.092V171.424H208.636V172.832H209.596V173.264H208.636V176.096C208.647 176.245 208.7 176.357 208.796 176.432C208.898 176.507 209.012 176.544 209.14 176.544C209.29 176.544 209.426 176.52 209.548 176.472C209.671 176.419 209.746 176.381 209.772 176.36L209.916 176.8ZM210.5 175.072V174.568H212.836V175.072H210.5ZM216.549 176.504V177H213.837V176.504H214.973V173.08C214.93 173.144 214.858 173.213 214.757 173.288C214.655 173.363 214.538 173.432 214.405 173.496C214.277 173.56 214.149 173.613 214.021 173.656C213.893 173.699 213.775 173.72 213.669 173.72V173.192C213.791 173.192 213.925 173.157 214.069 173.088C214.213 173.019 214.351 172.939 214.485 172.848C214.618 172.757 214.73 172.672 214.821 172.592C214.911 172.512 214.962 172.459 214.973 172.432H215.533V176.504H216.549ZM218.515 174.232C218.515 174.568 218.469 174.909 218.379 175.256C218.288 175.597 218.157 175.939 217.987 176.28C217.816 176.621 217.619 176.96 217.395 177.296L216.995 177.08C217.309 176.595 217.557 176.107 217.739 175.616C217.92 175.125 218.011 174.672 218.011 174.256C218.011 174 217.979 173.733 217.915 173.456C217.851 173.179 217.765 172.907 217.659 172.64C217.552 172.368 217.44 172.115 217.323 171.88C217.205 171.645 217.091 171.448 216.979 171.288L217.403 171.088C217.712 171.611 217.973 172.131 218.187 172.648C218.405 173.16 218.515 173.688 218.515 174.232Z" fill="black"/>
<circle cx="354" cy="46" r="11.5" fill="#FFEFBE" stroke="#F4D685"/>
<path d="M345.332 49.28C345.407 49.2853 345.479 49.288 345.548 49.288C345.618 49.2933 345.668 49.2907 345.7 49.28C345.764 49.2693 345.826 49.232 345.884 49.168C345.943 49.104 346.012 48.9813 346.092 48.8C346.172 48.6187 346.284 48.352 346.428 48L344.612 43.832H345.188L346.716 47.44L348.124 43.832H348.668L346.508 49.208C346.471 49.3093 346.415 49.4027 346.34 49.488C346.266 49.5787 346.172 49.648 346.06 49.696C345.954 49.7493 345.82 49.7787 345.66 49.784C345.612 49.7893 345.562 49.7893 345.508 49.784C345.46 49.784 345.402 49.7787 345.332 49.768V49.28ZM349.18 45.232C349.18 44.688 349.289 44.16 349.508 43.648C349.727 43.1307 349.991 42.6107 350.3 42.088L350.716 42.288C350.609 42.448 350.495 42.6453 350.372 42.88C350.255 43.1147 350.143 43.368 350.036 43.64C349.935 43.9067 349.852 44.1787 349.788 44.456C349.724 44.7333 349.692 45 349.692 45.256C349.692 45.672 349.783 46.1253 349.964 46.616C350.145 47.1067 350.393 47.5947 350.708 48.08L350.3 48.296C350.076 47.96 349.879 47.6213 349.708 47.28C349.543 46.9387 349.412 46.5973 349.316 46.256C349.225 45.9093 349.18 45.568 349.18 45.232ZM353.577 47.8C353.534 47.816 353.467 47.8453 353.377 47.888C353.286 47.9307 353.177 47.968 353.049 48C352.921 48.032 352.782 48.048 352.633 48.048C352.478 48.048 352.331 48.0187 352.193 47.96C352.059 47.9013 351.953 47.8133 351.873 47.696C351.793 47.5733 351.753 47.424 351.753 47.248V44.264H351.177V43.832H351.753V42.424H352.297V43.832H353.257V44.264H352.297V47.096C352.307 47.2453 352.361 47.3573 352.457 47.432C352.558 47.5067 352.673 47.544 352.801 47.544C352.95 47.544 353.086 47.52 353.209 47.472C353.331 47.4187 353.406 47.3813 353.433 47.36L353.577 47.8ZM356.56 44.936V45.384H355.568V46.464H355.064V45.384H354.072V44.936H355.064V43.856H355.568V44.936H356.56ZM360.193 47.504V48H357.481V47.504H358.617V44.08C358.575 44.144 358.503 44.2133 358.401 44.288C358.3 44.3627 358.183 44.432 358.049 44.496C357.921 44.56 357.793 44.6133 357.665 44.656C357.537 44.6987 357.42 44.72 357.313 44.72V44.192C357.436 44.192 357.569 44.1573 357.713 44.088C357.857 44.0187 357.996 43.9387 358.129 43.848C358.263 43.7573 358.375 43.672 358.465 43.592C358.556 43.512 358.607 43.4587 358.617 43.432H359.177V47.504H360.193ZM362.159 45.232C362.159 45.568 362.114 45.9093 362.023 46.256C361.933 46.5973 361.802 46.9387 361.631 47.28C361.461 47.6213 361.263 47.96 361.039 48.296L360.639 48.08C360.954 47.5947 361.202 47.1067 361.383 46.616C361.565 46.1253 361.655 45.672 361.655 45.256C361.655 45 361.623 44.7333 361.559 44.456C361.495 44.1787 361.41 43.9067 361.303 43.64C361.197 43.368 361.085 43.1147 360.967 42.88C360.85 42.6453 360.735 42.448 360.623 42.288L361.047 42.088C361.357 42.6107 361.618 43.1307 361.831 43.648C362.05 44.16 362.159 44.688 362.159 45.232Z" fill="black"/>
<circle cx="354" cy="110" r="11.5" fill="#F8C9C8" stroke="#E99B9E"/>
<circle cx="354" cy="174" r="11.5" fill="#C2E5F9" stroke="#94C5E8"/>
<path d="M349.432 113H348.888V110.672C348.888 110.203 348.805 109.851 348.64 109.616C348.475 109.376 348.237 109.256 347.928 109.256C347.725 109.256 347.523 109.309 347.32 109.416C347.123 109.517 346.947 109.659 346.792 109.84C346.643 110.016 346.536 110.219 346.472 110.448V113H345.928V107.16H346.472V109.776C346.637 109.467 346.867 109.221 347.16 109.04C347.459 108.853 347.776 108.76 348.112 108.76C348.352 108.76 348.555 108.803 348.72 108.888C348.891 108.973 349.027 109.099 349.128 109.264C349.235 109.424 349.312 109.613 349.36 109.832C349.408 110.045 349.432 110.288 349.432 110.56V113ZM350.344 110.232C350.344 109.688 350.454 109.16 350.672 108.648C350.891 108.131 351.155 107.611 351.464 107.088L351.88 107.288C351.774 107.448 351.659 107.645 351.536 107.88C351.419 108.115 351.307 108.368 351.2 108.64C351.099 108.907 351.016 109.179 350.952 109.456C350.888 109.733 350.856 110 350.856 110.256C350.856 110.672 350.947 111.125 351.128 111.616C351.31 112.107 351.558 112.595 351.872 113.08L351.464 113.296C351.24 112.96 351.043 112.621 350.872 112.28C350.707 111.939 350.576 111.597 350.48 111.256C350.39 110.909 350.344 110.568 350.344 110.232ZM354.741 112.8C354.698 112.816 354.631 112.845 354.541 112.888C354.45 112.931 354.341 112.968 354.213 113C354.085 113.032 353.946 113.048 353.797 113.048C353.642 113.048 353.495 113.019 353.357 112.96C353.223 112.901 353.117 112.813 353.037 112.696C352.957 112.573 352.917 112.424 352.917 112.248V109.264H352.341V108.832H352.917V107.424H353.461V108.832H354.421V109.264H353.461V112.096C353.471 112.245 353.525 112.357 353.621 112.432C353.722 112.507 353.837 112.544 353.965 112.544C354.114 112.544 354.25 112.52 354.373 112.472C354.495 112.419 354.57 112.381 354.597 112.36L354.741 112.8ZM357.724 109.936V110.384H356.732V111.464H356.228V110.384H355.236V109.936H356.228V108.856H356.732V109.936H357.724ZM361.357 112.504V113H358.645V112.504H359.781V109.08C359.739 109.144 359.667 109.213 359.565 109.288C359.464 109.363 359.347 109.432 359.213 109.496C359.085 109.56 358.957 109.613 358.829 109.656C358.701 109.699 358.584 109.72 358.477 109.72V109.192C358.6 109.192 358.733 109.157 358.877 109.088C359.021 109.019 359.16 108.939 359.293 108.848C359.427 108.757 359.539 108.672 359.629 108.592C359.72 108.512 359.771 108.459 359.781 108.432H360.341V112.504H361.357ZM363.323 110.232C363.323 110.568 363.278 110.909 363.187 111.256C363.097 111.597 362.966 111.939 362.795 112.28C362.625 112.621 362.427 112.96 362.203 113.296L361.803 113.08C362.118 112.595 362.366 112.107 362.547 111.616C362.729 111.125 362.819 110.672 362.819 110.256C362.819 110 362.787 109.733 362.723 109.456C362.659 109.179 362.574 108.907 362.467 108.64C362.361 108.368 362.249 108.115 362.131 107.88C362.014 107.645 361.899 107.448 361.787 107.288L362.211 107.088C362.521 107.611 362.782 108.131 362.995 108.648C363.214 109.16 363.323 109.688 363.323 110.232Z" fill="black"/>
<path d="M345.873 172.832L347.097 174.464L347.161 174.584L347.225 174.464L348.441 172.832H349.057L347.473 174.928L349.057 177H348.441L347.225 175.376L347.161 175.264L347.097 175.376L345.881 177H345.265L346.841 174.928L345.265 172.832H345.873ZM349.528 174.232C349.528 173.688 349.637 173.16 349.856 172.648C350.074 172.131 350.338 171.611 350.648 171.088L351.064 171.288C350.957 171.448 350.842 171.645 350.72 171.88C350.602 172.115 350.49 172.368 350.384 172.64C350.282 172.907 350.2 173.179 350.136 173.456C350.072 173.733 350.04 174 350.04 174.256C350.04 174.672 350.13 175.125 350.312 175.616C350.493 176.107 350.741 176.595 351.056 177.08L350.648 177.296C350.424 176.96 350.226 176.621 350.056 176.28C349.89 175.939 349.76 175.597 349.664 175.256C349.573 174.909 349.528 174.568 349.528 174.232ZM353.924 176.8C353.882 176.816 353.815 176.845 353.724 176.888C353.634 176.931 353.524 176.968 353.396 177C353.268 177.032 353.13 177.048 352.98 177.048C352.826 177.048 352.679 177.019 352.54 176.96C352.407 176.901 352.3 176.813 352.22 176.696C352.14 176.573 352.1 176.424 352.1 176.248V173.264H351.524V172.832H352.1V171.424H352.644V172.832H353.604V173.264H352.644V176.096C352.655 176.245 352.708 176.357 352.804 176.432C352.906 176.507 353.02 176.544 353.148 176.544C353.298 176.544 353.434 176.52 353.556 176.472C353.679 176.419 353.754 176.381 353.78 176.36L353.924 176.8ZM356.908 173.936V174.384H355.916V175.464H355.412V174.384H354.42V173.936H355.412V172.856H355.916V173.936H356.908ZM360.541 176.504V177H357.829V176.504H358.965V173.08C358.922 173.144 358.85 173.213 358.749 173.288C358.648 173.363 358.53 173.432 358.397 173.496C358.269 173.56 358.141 173.613 358.013 173.656C357.885 173.699 357.768 173.72 357.661 173.72V173.192C357.784 173.192 357.917 173.157 358.061 173.088C358.205 173.019 358.344 172.939 358.477 172.848C358.61 172.757 358.722 172.672 358.813 172.592C358.904 172.512 358.954 172.459 358.965 172.432H359.525V176.504H360.541ZM362.507 174.232C362.507 174.568 362.462 174.909 362.371 175.256C362.28 175.597 362.15 175.939 361.979 176.28C361.808 176.621 361.611 176.96 361.387 177.296L360.987 177.08C361.302 176.595 361.55 176.107 361.731 175.616C361.912 175.125 362.003 174.672 362.003 174.256C362.003 174 361.971 173.733 361.907 173.456C361.843 173.179 361.758 172.907 361.651 172.64C361.544 172.368 361.432 172.115 361.315 171.88C361.198 171.645 361.083 171.448 360.971 171.288L361.395 171.088C361.704 171.611 361.966 172.131 362.179 172.648C362.398 173.16 362.507 173.688 362.507 174.232Z" fill="black"/>
<circle cx="426" cy="46" r="11.5" fill="#FFEFBE" stroke="#F4D685"/>
<path d="M417.004 49.28C417.079 49.2853 417.151 49.288 417.22 49.288C417.289 49.2933 417.34 49.2907 417.372 49.28C417.436 49.2693 417.497 49.232 417.556 49.168C417.615 49.104 417.684 48.9813 417.764 48.8C417.844 48.6187 417.956 48.352 418.1 48L416.284 43.832H416.86L418.388 47.44L419.796 43.832H420.34L418.18 49.208C418.143 49.3093 418.087 49.4027 418.012 49.488C417.937 49.5787 417.844 49.648 417.732 49.696C417.625 49.7493 417.492 49.7787 417.332 49.784C417.284 49.7893 417.233 49.7893 417.18 49.784C417.132 49.784 417.073 49.7787 417.004 49.768V49.28ZM420.852 45.232C420.852 44.688 420.961 44.16 421.18 43.648C421.399 43.1307 421.663 42.6107 421.972 42.088L422.388 42.288C422.281 42.448 422.167 42.6453 422.044 42.88C421.927 43.1147 421.815 43.368 421.708 43.64C421.607 43.9067 421.524 44.1787 421.46 44.456C421.396 44.7333 421.364 45 421.364 45.256C421.364 45.672 421.455 46.1253 421.636 46.616C421.817 47.1067 422.065 47.5947 422.38 48.08L421.972 48.296C421.748 47.96 421.551 47.6213 421.38 47.28C421.215 46.9387 421.084 46.5973 420.988 46.256C420.897 45.9093 420.852 45.568 420.852 45.232ZM425.248 47.8C425.206 47.816 425.139 47.8453 425.048 47.888C424.958 47.9307 424.848 47.968 424.72 48C424.592 48.032 424.454 48.048 424.304 48.048C424.15 48.048 424.003 48.0187 423.864 47.96C423.731 47.9013 423.624 47.8133 423.544 47.696C423.464 47.5733 423.424 47.424 423.424 47.248V44.264H422.848V43.832H423.424V42.424H423.968V43.832H424.928V44.264H423.968V47.096C423.979 47.2453 424.032 47.3573 424.128 47.432C424.23 47.5067 424.344 47.544 424.472 47.544C424.622 47.544 424.758 47.52 424.88 47.472C425.003 47.4187 425.078 47.3813 425.104 47.36L425.248 47.8ZM428.232 44.936V45.384H427.24V46.464H426.736V45.384H425.744V44.936H426.736V43.856H427.24V44.936H428.232ZM428.875 48C428.875 47.8187 428.891 47.6373 428.923 47.456C428.955 47.2693 429.017 47.0853 429.107 46.904C429.198 46.7227 429.331 46.5493 429.507 46.384C429.683 46.2133 429.915 46.0533 430.203 45.904C430.358 45.824 430.518 45.7467 430.683 45.672C430.849 45.592 431.003 45.5067 431.147 45.416C431.297 45.32 431.414 45.2133 431.499 45.096C431.59 44.9733 431.635 44.8293 431.635 44.664C431.635 44.5307 431.595 44.4 431.515 44.272C431.441 44.144 431.323 44.04 431.163 43.96C431.009 43.88 430.814 43.84 430.579 43.84C430.409 43.84 430.254 43.864 430.115 43.912C429.977 43.96 429.854 44.0213 429.747 44.096C429.641 44.1653 429.55 44.2373 429.475 44.312C429.401 44.3813 429.339 44.44 429.291 44.488L428.947 44.112C428.974 44.08 429.033 44.024 429.123 43.944C429.219 43.8587 429.339 43.7707 429.483 43.68C429.633 43.5893 429.806 43.512 430.003 43.448C430.206 43.384 430.427 43.352 430.667 43.352C430.993 43.352 431.27 43.4107 431.499 43.528C431.734 43.64 431.913 43.792 432.035 43.984C432.158 44.176 432.219 44.384 432.219 44.608C432.219 44.8267 432.171 45.016 432.075 45.176C431.985 45.3307 431.865 45.4667 431.715 45.584C431.571 45.696 431.419 45.7947 431.259 45.88C431.105 45.96 430.963 46.0293 430.835 46.088C430.585 46.2053 430.374 46.3227 430.203 46.44C430.033 46.5573 429.897 46.6773 429.795 46.8C429.694 46.9173 429.614 47.0347 429.555 47.152C429.502 47.264 429.465 47.3813 429.443 47.504H432.307V48H428.875ZM434.487 45.232C434.487 45.568 434.442 45.9093 434.351 46.256C434.261 46.5973 434.13 46.9387 433.959 47.28C433.789 47.6213 433.591 47.96 433.367 48.296L432.967 48.08C433.282 47.5947 433.53 47.1067 433.711 46.616C433.893 46.1253 433.983 45.672 433.983 45.256C433.983 45 433.951 44.7333 433.887 44.456C433.823 44.1787 433.738 43.9067 433.631 43.64C433.525 43.368 433.413 43.1147 433.295 42.88C433.178 42.6453 433.063 42.448 432.951 42.288L433.375 42.088C433.685 42.6107 433.946 43.1307 434.159 43.648C434.378 44.16 434.487 44.688 434.487 45.232Z" fill="black"/>
<circle cx="426" cy="110" r="11.5" fill="#F8C9C8" stroke="#E99B9E"/>
<circle cx="426" cy="174" r="11.5" fill="#C2E5F9" stroke="#94C5E8"/>
<path d="M421.104 113H420.56V110.672C420.56 110.203 420.477 109.851 420.312 109.616C420.147 109.376 419.909 109.256 419.6 109.256C419.397 109.256 419.195 109.309 418.992 109.416C418.795 109.517 418.619 109.659 418.464 109.84C418.315 110.016 418.208 110.219 418.144 110.448V113H417.6V107.16H418.144V109.776C418.309 109.467 418.539 109.221 418.832 109.04C419.131 108.853 419.448 108.76 419.784 108.76C420.024 108.76 420.227 108.803 420.392 108.888C420.563 108.973 420.699 109.099 420.8 109.264C420.907 109.424 420.984 109.613 421.032 109.832C421.08 110.045 421.104 110.288 421.104 110.56V113ZM422.016 110.232C422.016 109.688 422.125 109.16 422.344 108.648C422.563 108.131 422.827 107.611 423.136 107.088L423.552 107.288C423.445 107.448 423.331 107.645 423.208 107.88C423.091 108.115 422.979 108.368 422.872 108.64C422.771 108.907 422.688 109.179 422.624 109.456C422.56 109.733 422.528 110 422.528 110.256C422.528 110.672 422.619 111.125 422.8 111.616C422.981 112.107 423.229 112.595 423.544 113.08L423.136 113.296C422.912 112.96 422.715 112.621 422.544 112.28C422.379 111.939 422.248 111.597 422.152 111.256C422.061 110.909 422.016 110.568 422.016 110.232ZM426.413 112.8C426.37 112.816 426.303 112.845 426.213 112.888C426.122 112.931 426.013 112.968 425.885 113C425.757 113.032 425.618 113.048 425.469 113.048C425.314 113.048 425.167 113.019 425.029 112.96C424.895 112.901 424.789 112.813 424.709 112.696C424.629 112.573 424.589 112.424 424.589 112.248V109.264H424.013V108.832H424.589V107.424H425.133V108.832H426.093V109.264H425.133V112.096C425.143 112.245 425.197 112.357 425.293 112.432C425.394 112.507 425.509 112.544 425.637 112.544C425.786 112.544 425.922 112.52 426.045 112.472C426.167 112.419 426.242 112.381 426.269 112.36L426.413 112.8ZM429.396 109.936V110.384H428.404V111.464H427.9V110.384H426.908V109.936H427.9V108.856H428.404V109.936H429.396ZM430.04 113C430.04 112.819 430.056 112.637 430.088 112.456C430.12 112.269 430.181 112.085 430.272 111.904C430.362 111.723 430.496 111.549 430.672 111.384C430.848 111.213 431.08 111.053 431.368 110.904C431.522 110.824 431.682 110.747 431.848 110.672C432.013 110.592 432.168 110.507 432.312 110.416C432.461 110.32 432.578 110.213 432.664 110.096C432.754 109.973 432.8 109.829 432.8 109.664C432.8 109.531 432.76 109.4 432.68 109.272C432.605 109.144 432.488 109.04 432.328 108.96C432.173 108.88 431.978 108.84 431.743 108.84C431.573 108.84 431.418 108.864 431.28 108.912C431.141 108.96 431.018 109.021 430.912 109.096C430.805 109.165 430.714 109.237 430.64 109.312C430.565 109.381 430.504 109.44 430.456 109.488L430.112 109.112C430.138 109.08 430.197 109.024 430.288 108.944C430.384 108.859 430.504 108.771 430.648 108.68C430.797 108.589 430.97 108.512 431.168 108.448C431.37 108.384 431.592 108.352 431.832 108.352C432.157 108.352 432.434 108.411 432.664 108.528C432.898 108.64 433.077 108.792 433.2 108.984C433.322 109.176 433.384 109.384 433.384 109.608C433.384 109.827 433.336 110.016 433.24 110.176C433.149 110.331 433.029 110.467 432.88 110.584C432.736 110.696 432.584 110.795 432.424 110.88C432.269 110.96 432.128 111.029 432 111.088C431.749 111.205 431.538 111.323 431.368 111.44C431.197 111.557 431.061 111.677 430.96 111.8C430.858 111.917 430.778 112.035 430.72 112.152C430.666 112.264 430.629 112.381 430.608 112.504H433.472V113H430.04ZM435.651 110.232C435.651 110.568 435.606 110.909 435.515 111.256C435.425 111.597 435.294 111.939 435.123 112.28C434.953 112.621 434.755 112.96 434.531 113.296L434.131 113.08C434.446 112.595 434.694 112.107 434.875 111.616C435.057 111.125 435.147 110.672 435.147 110.256C435.147 110 435.115 109.733 435.051 109.456C434.987 109.179 434.902 108.907 434.795 108.64C434.689 108.368 434.577 108.115 434.459 107.88C434.342 107.645 434.227 107.448 434.115 107.288L434.539 107.088C434.849 107.611 435.11 108.131 435.323 108.648C435.542 109.16 435.651 109.688 435.651 110.232Z" fill="black"/>
<path d="M418.044 172.832L419.268 174.464L419.332 174.584L419.396 174.464L420.612 172.832H421.228L419.644 174.928L421.228 177H420.612L419.396 175.376L419.332 175.264L419.268 175.376L418.052 177H417.436L419.012 174.928L417.436 172.832H418.044ZM421.7 174.232C421.7 173.688 421.809 173.16 422.028 172.648C422.246 172.131 422.51 171.611 422.82 171.088L423.236 171.288C423.129 171.448 423.014 171.645 422.892 171.88C422.774 172.115 422.662 172.368 422.556 172.64C422.454 172.907 422.372 173.179 422.308 173.456C422.244 173.733 422.212 174 422.212 174.256C422.212 174.672 422.302 175.125 422.484 175.616C422.665 176.107 422.913 176.595 423.228 177.08L422.82 177.296C422.596 176.96 422.398 176.621 422.228 176.28C422.062 175.939 421.932 175.597 421.836 175.256C421.745 174.909 421.7 174.568 421.7 174.232ZM426.096 176.8C426.053 176.816 425.987 176.845 425.896 176.888C425.805 176.931 425.696 176.968 425.568 177C425.44 177.032 425.301 177.048 425.152 177.048C424.997 177.048 424.851 177.019 424.712 176.96C424.579 176.901 424.472 176.813 424.392 176.696C424.312 176.573 424.272 176.424 424.272 176.248V173.264H423.696V172.832H424.272V171.424H424.816V172.832H425.776V173.264H424.816V176.096C424.827 176.245 424.88 176.357 424.976 176.432C425.077 176.507 425.192 176.544 425.32 176.544C425.469 176.544 425.605 176.52 425.728 176.472C425.851 176.419 425.925 176.381 425.952 176.36L426.096 176.8ZM429.08 173.936V174.384H428.088V175.464H427.584V174.384H426.592V173.936H427.584V172.856H428.088V173.936H429.08ZM429.723 177C429.723 176.819 429.739 176.637 429.771 176.456C429.803 176.269 429.864 176.085 429.955 175.904C430.046 175.723 430.179 175.549 430.355 175.384C430.531 175.213 430.763 175.053 431.051 174.904C431.206 174.824 431.366 174.747 431.531 174.672C431.696 174.592 431.851 174.507 431.995 174.416C432.144 174.32 432.262 174.213 432.347 174.096C432.438 173.973 432.483 173.829 432.483 173.664C432.483 173.531 432.443 173.4 432.363 173.272C432.288 173.144 432.171 173.04 432.011 172.96C431.856 172.88 431.662 172.84 431.427 172.84C431.256 172.84 431.102 172.864 430.963 172.912C430.824 172.96 430.702 173.021 430.595 173.096C430.488 173.165 430.398 173.237 430.323 173.312C430.248 173.381 430.187 173.44 430.139 173.488L429.795 173.112C429.822 173.08 429.88 173.024 429.971 172.944C430.067 172.859 430.187 172.771 430.331 172.68C430.48 172.589 430.654 172.512 430.851 172.448C431.054 172.384 431.275 172.352 431.515 172.352C431.84 172.352 432.118 172.411 432.347 172.528C432.582 172.64 432.76 172.792 432.883 172.984C433.006 173.176 433.067 173.384 433.067 173.608C433.067 173.827 433.019 174.016 432.923 174.176C432.832 174.331 432.712 174.467 432.563 174.584C432.419 174.696 432.267 174.795 432.107 174.88C431.952 174.96 431.811 175.029 431.683 175.088C431.432 175.205 431.222 175.323 431.051 175.44C430.88 175.557 430.744 175.677 430.643 175.8C430.542 175.917 430.462 176.035 430.403 176.152C430.35 176.264 430.312 176.381 430.291 176.504H433.155V177H429.723ZM435.335 174.232C435.335 174.568 435.29 174.909 435.199 175.256C435.108 175.597 434.978 175.939 434.807 176.28C434.636 176.621 434.439 176.96 434.215 177.296L433.815 177.08C434.13 176.595 434.378 176.107 434.559 175.616C434.74 175.125 434.831 174.672 434.831 174.256C434.831 174 434.799 173.733 434.735 173.456C434.671 173.179 434.586 172.907 434.479 172.64C434.372 172.368 434.26 172.115 434.143 171.88C434.026 171.645 433.911 171.448 433.799 171.288L434.223 171.088C434.532 171.611 434.794 172.131 435.007 172.648C435.226 173.16 435.335 173.688 435.335 174.232Z" fill="black"/>
</svg>
